<?xml version="1.0" encoding="utf-8"?>
<!-- Generator: Adobe Illustrator 16.0.0, SVG Export Plug-In . SVG Version: 6.00 Build 0)  -->
<!DOCTYPE svg PUBLIC "-//W3C//DTD SVG 1.1//EN" "http://www.w3.org/Graphics/SVG/1.1/DTD/svg11.dtd">
<svg version="1.1" id="Layer_1" xmlns="http://www.w3.org/2000/svg" xmlns:xlink="http://www.w3.org/1999/xlink" x="0px" y="0px"
	 width="64px" height="64px" viewBox="0 0 64 64" enable-background="new 0 0 64 64" xml:space="preserve">
<path fill="#EBC257" d="M36.075,15.292c0.371,0.918-0.119,1.984-1.096,2.38L9.93,27.832c-0.977,0.395-2.07-0.028-2.443-0.947
	L3.272,16.488c-0.373-0.919,0.117-1.984,1.093-2.38L29.416,3.949c0.976-0.396,2.07,0.027,2.443,0.946L36.075,15.292z"/>
<path fill="#741112" d="M48.804,31.648c-4.494-1.112-6.057,4.978-6.66,12.815c-0.605,7.836-0.025,14.456,4.469,15.567
	c4.496,1.112,12.457-3.393,13.063-11.231C60.28,40.962,53.3,32.76,48.804,31.648z"/>
<path fill="#741112" d="M39.009,28.663l-1.896-4.678l-0.973-2.397c-0.457-1.123-1.613-1.713-2.588-1.318l-20.707,8.398
	c-0.973,0.395-1.393,1.624-0.938,2.747l0.973,2.398l5.644,13.916c0.751,1.356,1.815,3.037,3.142,3.778
	c1.338,0.942,8.881,3.233,19.091,7.14c-1.615-3.408-1.609-8.866-0.967-14.931c0.611-5.763,1.648-10.692,3.658-13.161L39.009,28.663z
	"/>
<path fill="#BB2025" d="M38.228,26.734c-5.949,2.739-16.594,8.027-22.786,13.396l3.082,7.598c0.396,0.715,0.879,1.52,1.441,2.229
	c4.714-7.869,13.81-15.863,20.103-20.843l-1.059-0.452L38.228,26.734z"/>
<path fill="#BB2025" d="M43.616,30.555l-2.258-0.963c-2.984,3.616-6.98,11.313-6.98,26.624c2.016,0.729,4.211,1.536,6.549,2.431
	c-1.615-3.408-1.609-8.866-0.967-14.931C40.569,37.953,41.608,33.023,43.616,30.555z"/>
<path fill="#DCAB69" d="M32.359,55.617c0.651-2.496,0.516-5.302-0.571-7.981c-2.487-6.132-9.008-9.277-14.565-7.024
	c-0.479,0.195-0.936,0.426-1.368,0.686l2.63,6.484c0.752,1.357,1.815,3.037,3.142,3.779C22.565,52.22,26.549,53.543,32.359,55.617z"
	/>
<polygon fill="#FFFFFF" points="28.636,39.88 27.755,43.43 28.636,43.43 30.249,40.613 "/>
<polygon fill="#FFFFFF" points="32.364,43.287 29.196,45.117 29.808,45.751 32.956,44.957 "/>
<polygon fill="#FFFFFF" points="20.677,38.321 22.185,41.654 22.875,41.11 22.399,37.898 "/>
<polygon fill="#FFFFFF" points="24.342,39.335 24.161,42.991 25.024,42.819 26.066,39.745 "/>
<polygon fill="#FFFFFF" points="16.532,39.431 19.262,41.866 19.673,41.086 17.934,38.346 "/>
<polygon fill="#FFFFFF" points="34.192,52.212 30.562,51.762 30.668,52.635 33.657,53.901 "/>
<polygon fill="#FFFFFF" points="33.725,46.687 30.497,48.407 31.085,49.062 34.259,48.376 "/>
<path fill="#9E5025" d="M17.521,10.455c0.699-0.288,1.444-0.089,1.665,0.445l3.282,7.954c0.221,0.535-0.167,1.202-0.867,1.49l0,0
	c-0.699,0.288-1.444,0.09-1.664-0.445l-3.283-7.953C16.434,11.411,16.821,10.745,17.521,10.455L17.521,10.455z"/>
<path fill="#9E5025" d="M7.374,14.642c0.699-0.289,1.444-0.089,1.665,0.445l3.282,7.954c0.221,0.534-0.167,1.201-0.866,1.489l0,0
	c-0.699,0.29-1.445,0.089-1.666-0.444l-3.282-7.954C6.286,15.598,6.674,14.931,7.374,14.642L7.374,14.642z"/>
<path fill="#9E5025" d="M22.37,8.454c0.699-0.288,1.445-0.089,1.665,0.445l3.282,7.953c0.22,0.534-0.168,1.201-0.867,1.49l0,0
	c-0.7,0.289-1.445,0.089-1.665-0.446l-3.282-7.953C21.284,9.41,21.671,8.743,22.37,8.454L22.37,8.454z"/>
<path fill="#9E5025" d="M12.224,12.641c0.699-0.289,1.444-0.09,1.665,0.445l3.282,7.952c0.22,0.535-0.167,1.202-0.867,1.491l0,0
	c-0.699,0.289-1.444,0.089-1.665-0.445l-3.282-7.953C11.137,13.596,11.524,12.93,12.224,12.641L12.224,12.641z"/>
<path fill="#9E5025" d="M27.555,6.359c0.7-0.289,1.445-0.09,1.665,0.444l3.282,7.954c0.221,0.534-0.168,1.201-0.866,1.489l0,0
	c-0.699,0.289-1.444,0.089-1.665-0.445l-3.282-7.953C26.468,7.314,26.855,6.647,27.555,6.359L27.555,6.359z"/>
</svg>
