<svg xmlns="http://www.w3.org/2000/svg" viewBox="0 0 64 64"><g id="_02-wreath" data-name="02-wreath"><path d="M53.91,19.83a6.107,6.107,0,0,1,4.06,10.64,6.11,6.11,0,0,0,0,9.06A5.949,5.949,0,0,1,60,44.01a6.1,6.1,0,0,1-6.43,6.15c-.1-.01-.21-.01-.31-.01a6.118,6.118,0,0,0-6.1,6.42c.01.11.01.23.01.34a6.107,6.107,0,0,1-10.64,4.06,6.11,6.11,0,0,0-9.06,0A5.949,5.949,0,0,1,22.99,63a6.1,6.1,0,0,1-6.15-6.43c.01-.1.01-.21.01-.31a6.118,6.118,0,0,0-6.42-6.1c-.11.01-.23.01-.34.01A6.107,6.107,0,0,1,6.03,39.53a6.11,6.11,0,0,0,0-9.06A5.949,5.949,0,0,1,4,25.99a6.1,6.1,0,0,1,6.43-6.15c.1.01.21.01.31.01a6.118,6.118,0,0,0,6.1-6.42c-.01-.11-.01-.23-.01-.34A6.107,6.107,0,0,1,27.47,9.03a6.11,6.11,0,0,0,9.06,0A5.949,5.949,0,0,1,41.01,7a6.1,6.1,0,0,1,6.15,6.43c-.01.1-.01.21-.01.31a6.118,6.118,0,0,0,6.42,6.1C53.68,19.83,53.8,19.83,53.91,19.83ZM44,35A12,12,0,1,0,32,47,12,12,0,0,0,44,35Z" style="fill:#008f57"/><path d="M27.36,46.069A21.614,21.614,0,0,1,14.835,51.74a6.081,6.081,0,0,1,2.015,4.52c0,.1,0,.21-.01.31A6.1,6.1,0,0,0,22.99,63a5.949,5.949,0,0,0,4.48-2.03A6.079,6.079,0,0,1,32,58.96V47A11.966,11.966,0,0,1,27.36,46.069Z" style="fill:#008f57"/><path d="M32,47V58.96a6.079,6.079,0,0,1,4.53,2.01,6.107,6.107,0,0,0,10.64-4.06c0-.11,0-.23-.01-.34a6.1,6.1,0,0,1,2.005-4.83A21.611,21.611,0,0,1,36.64,46.069,11.966,11.966,0,0,1,32,47Z" style="fill:#009e60"/><path d="M57.97,39.53A6.079,6.079,0,0,1,55.96,35H44a12,12,0,0,1-7.36,11.069A21.611,21.611,0,0,0,49.165,51.74a6.069,6.069,0,0,1,4.095-1.59c.1,0,.21,0,.31.01A6.1,6.1,0,0,0,60,44.01,5.949,5.949,0,0,0,57.97,39.53Z" style="fill:#008f57"/><path d="M36.64,23.931A21.614,21.614,0,0,1,49.165,18.26a6.081,6.081,0,0,1-2.015-4.52c0-.1,0-.21.01-.31A6.1,6.1,0,0,0,41.01,7a5.949,5.949,0,0,0-4.48,2.03A6.079,6.079,0,0,1,32,11.04V23A11.966,11.966,0,0,1,36.64,23.931Z" style="fill:#007145"/><path d="M44,35H55.96a6.079,6.079,0,0,1,2.01-4.53,6.107,6.107,0,0,0-4.06-10.64c-.11,0-.23,0-.34.01a6.1,6.1,0,0,1-4.405-1.58A21.614,21.614,0,0,0,36.64,23.931,12,12,0,0,1,44,35Z" style="fill:#007145"/><path d="M20,35H8.04a6.079,6.079,0,0,1-2.01,4.53,6.107,6.107,0,0,0,4.06,10.64c.11,0,.23,0,.34-.01a6.1,6.1,0,0,1,4.405,1.58A21.614,21.614,0,0,0,27.36,46.069,12,12,0,0,1,20,35Z" style="fill:#007145"/><path d="M32,23V11.04a6.079,6.079,0,0,1-4.53-2.01,6.107,6.107,0,0,0-10.64,4.06c0,.11,0,.23.01.34a6.1,6.1,0,0,1-2,4.83A21.611,21.611,0,0,1,27.36,23.931,11.966,11.966,0,0,1,32,23Z" style="fill:#00613b"/><path d="M27.36,23.931A21.611,21.611,0,0,0,14.835,18.26a6.069,6.069,0,0,1-4.1,1.59c-.1,0-.21,0-.31-.01A6.1,6.1,0,0,0,4,25.99a5.949,5.949,0,0,0,2.03,4.48A6.079,6.079,0,0,1,8.04,35H20A12,12,0,0,1,27.36,23.931Z" style="fill:#00613b"/><path d="M36.98,15A4.985,4.985,0,0,0,32,19.98,4.985,4.985,0,0,0,27.02,15a4.616,4.616,0,0,0-.74.06L26.27,15A2,2,0,0,1,26,14V10a2.006,2.006,0,0,1,2-2h8a2.006,2.006,0,0,1,2,2v4a2,2,0,0,1-.27,1l-.01.06A4.616,4.616,0,0,0,36.98,15Z" style="fill:#ae0000"/><path d="M36,13H28a2,2,0,0,0-1.931,1.509,1.95,1.95,0,0,0,.2.491l.01.06a4.616,4.616,0,0,1,.74-.06A4.985,4.985,0,0,1,32,19.98,4.985,4.985,0,0,1,36.98,15a4.616,4.616,0,0,1,.74.06l.01-.06a1.95,1.95,0,0,0,.2-.491A2,2,0,0,0,36,13Z" style="fill:#911a1c"/><path d="M11,16a2.006,2.006,0,0,0,2,2H3l4-5L3,8h8Z" style="fill:#911a1c"/><path d="M61,8l-4,5,4,5H51a2.006,2.006,0,0,0,2-2V8Z" style="fill:#911a1c"/><path d="M53,8v8a2.006,2.006,0,0,1-2,2H48l-.24-.05A2.028,2.028,0,0,0,48,17V7a2.028,2.028,0,0,0-.24-.95L48,6h3A2.006,2.006,0,0,1,53,8Z" style="fill:#ae0000"/><path d="M16,17a2.028,2.028,0,0,0,.24.95L16,18H13a2.006,2.006,0,0,1-2-2V8a2.006,2.006,0,0,1,2-2h3l.24.05A2.028,2.028,0,0,0,16,7V17Z" style="fill:#ae0000"/><path d="M26.52,2.21,29,8H28a2.006,2.006,0,0,0-2,2V8s-1-3-7-3H18V3a2.006,2.006,0,0,1,2-2h4.68A2.014,2.014,0,0,1,26.52,2.21Z" style="fill:#ae0000"/><path d="M45,5c-6,0-7,3-7,3v2a2.006,2.006,0,0,0-2-2H35l2.48-5.79A2.014,2.014,0,0,1,39.32,1H44a2.006,2.006,0,0,1,2,2V5Z" style="fill:#ae0000"/><path d="M26,14a2,2,0,0,0,.27,1l.01.06a4.882,4.882,0,0,0-2.77,1.4L21.4,18.57a1.992,1.992,0,0,0-2.82,0,1.737,1.737,0,0,0-.37.54L18,19a2,2,0,0,1-2-2V7a2,2,0,0,1,2-2h1c6,0,7,3,7,3v6Z" style="fill:#eb2335"/><path d="M47.76,17.95A2.012,2.012,0,0,1,46,19l-.21.11a1.737,1.737,0,0,0-.37-.54,1.992,1.992,0,0,0-2.82,0l-2.11-2.11a4.882,4.882,0,0,0-2.77-1.4l.01-.06A2,2,0,0,0,38,14V8s1-3,7-3h1a2,2,0,0,1,2,2V17A2.028,2.028,0,0,1,47.76,17.95Z" style="fill:#eb2335"/><path d="M30.54,16.46a4.961,4.961,0,0,1,0,7.03L28.43,25.6,21.4,18.57l2.11-2.11a4.882,4.882,0,0,1,2.77-1.4,4.616,4.616,0,0,1,.74-.06A4.918,4.918,0,0,1,30.54,16.46Z" style="fill:#ffd45d"/><path d="M40.49,16.46l2.11,2.11L35.57,25.6l-2.11-2.11A4.975,4.975,0,0,1,36.98,15a4.616,4.616,0,0,1,.74.06A4.882,4.882,0,0,1,40.49,16.46Z" style="fill:#ffd45d"/><path d="M21.4,18.57l7.03,7.03a1.991,1.991,0,0,1-2.81,2.82l-1.89-1.89-5.15-5.15A2.025,2.025,0,0,1,18,19.97a1.852,1.852,0,0,1,.21-.86,1.737,1.737,0,0,1,.37-.54A1.992,1.992,0,0,1,21.4,18.57Z" style="fill:#ffba51"/><path d="M45.42,18.57a1.737,1.737,0,0,1,.37.54,1.852,1.852,0,0,1,.21.86,2.025,2.025,0,0,1-.58,1.41l-5.14,5.15-1.9,1.89a1.991,1.991,0,1,1-2.81-2.82l7.03-7.03A1.992,1.992,0,0,1,45.42,18.57Z" style="fill:#ffba51"/><path d="M26,1.526V3.641a1,1,0,0,1-1.234.971A29.938,29.938,0,0,0,18,4V5h1c6,0,7,3,7,3v2a2.006,2.006,0,0,1,2-2h1L26.52,2.21A2.01,2.01,0,0,0,26,1.526Z" style="fill:#911a1c"/><path d="M38,3.641V1.527a2,2,0,0,0-.52.683L35,8h1a2.006,2.006,0,0,1,2,2V8s1-3,7-3h1V4a29.938,29.938,0,0,0-6.766.612A1,1,0,0,1,38,3.641Z" style="fill:#911a1c"/><path d="M36,8H28a2.006,2.006,0,0,0-2,2v2a2.006,2.006,0,0,1,2-2h8a2.006,2.006,0,0,1,2,2V10A2.006,2.006,0,0,0,36,8Z" style="fill:#f2c373"/><path d="M51,6H48l-.24.05A2.028,2.028,0,0,1,48,7V8h3a2.006,2.006,0,0,1,2,2V8A2.006,2.006,0,0,0,51,6Z" style="fill:#c99c5c"/><path d="M47.76,6.05A2.012,2.012,0,0,0,46,5H45c-6,0-7,3-7,3v2s1-3,7-3h1a2,2,0,0,1,2,2V7A2.028,2.028,0,0,0,47.76,6.05Z" style="fill:#f2c373"/><path d="M13,6h3l.24.05A2.028,2.028,0,0,0,16,7V8H13a2.006,2.006,0,0,0-2,2V8A2.006,2.006,0,0,1,13,6Z" style="fill:#c99c5c"/><path d="M16.24,6.05A2.012,2.012,0,0,1,18,5h1c6,0,7,3,7,3v2s-1-3-7-3H18a2,2,0,0,0-2,2V7A2.028,2.028,0,0,1,16.24,6.05Z" style="fill:#f2c373"/><path d="M51,16H48v1a2.028,2.028,0,0,1-.24.95L48,18h3a2.006,2.006,0,0,0,2-2V14A2.006,2.006,0,0,1,51,16Z" style="fill:#c99c5c"/><path d="M48,16V15a2,2,0,0,1-2,2H45c-6,0-7-3-7-3v1.124a4.85,4.85,0,0,1,2.49,1.336l2.11,2.11a1.992,1.992,0,0,1,2.82,0,1.74,1.74,0,0,1,.309.43H46a2,2,0,0,0,2-2Z" style="fill:#f2c373"/><path d="M13,16h3v1a2.028,2.028,0,0,0,.24.95L16,18H13a2.006,2.006,0,0,1-2-2V14A2.006,2.006,0,0,0,13,16Z" style="fill:#c99c5c"/><path d="M16,16V15a2,2,0,0,0,2,2h1c6,0,7-3,7-3v1.124a4.857,4.857,0,0,0-2.49,1.336L21.4,18.57a1.992,1.992,0,0,0-2.82,0,1.74,1.74,0,0,0-.309.43H18a2,2,0,0,1-2-2Z" style="fill:#f2c373"/><path d="M3,18H13a2.006,2.006,0,0,1-2-2H4.6Z" style="fill:#ad8451"/><polygon points="11 8 3 8 4.6 10 11 10 11 8" style="fill:#ad8451"/><polygon points="61 8 53 8 53 10 59.4 10 61 8" style="fill:#ad8451"/><path d="M51,18H61l-1.6-2H53A2.006,2.006,0,0,1,51,18Z" style="fill:#ad8451"/><path d="M12,30a3.961,3.961,0,0,1-3.929-4.708,3.993,3.993,0,1,0,6.858,3.416A3.976,3.976,0,0,1,12,30Z" style="fill:#004a2d"/><path d="M11,33a2.974,2.974,0,0,1,.445-1.555,2.993,2.993,0,1,0,4.11,4.11A2.987,2.987,0,0,1,11,33Z" style="fill:#004a2d"/><path d="M50,29.83a2.1,2.1,0,0,1-.37.47,3.015,3.015,0,0,1-3.3.37,3.015,3.015,0,0,1,.37-3.3,2.1,2.1,0,0,1,.47-.37,2.1,2.1,0,0,1-.47-.37,2.575,2.575,0,0,1-.674-1.6,2.61,2.61,0,0,0-1.7.3,3.015,3.015,0,0,0,.37,3.3,2.1,2.1,0,0,0,.47.37,2.1,2.1,0,0,0-.47.37,3.015,3.015,0,0,0-.37,3.3,3.015,3.015,0,0,0,3.3-.37,2.1,2.1,0,0,0,.37-.47,2.1,2.1,0,0,0,.37.47,3.015,3.015,0,0,0,3.3.37,2.612,2.612,0,0,0,.3-1.7,2.575,2.575,0,0,1-1.6-.674A2.1,2.1,0,0,1,50,29.83Z" style="fill:#004a2d"/><path d="M13,45.83a2.1,2.1,0,0,1-.37.47,3.015,3.015,0,0,1-3.3.37,3.015,3.015,0,0,1,.37-3.3,2.1,2.1,0,0,1,.47-.37,2.1,2.1,0,0,1-.47-.37,2.575,2.575,0,0,1-.674-1.6,2.61,2.61,0,0,0-1.7.3,3.015,3.015,0,0,0,.37,3.3,2.1,2.1,0,0,0,.47.37,2.1,2.1,0,0,0-.47.37,3.015,3.015,0,0,0-.37,3.3,3.015,3.015,0,0,0,3.3-.37,2.1,2.1,0,0,0,.37-.47,2.1,2.1,0,0,0,.37.47,3.015,3.015,0,0,0,3.3.37,2.612,2.612,0,0,0,.3-1.7,2.575,2.575,0,0,1-1.6-.674A2.1,2.1,0,0,1,13,45.83Z" style="fill:#004a2d"/><path d="M32,55.83a2.1,2.1,0,0,1-.37.47,3.015,3.015,0,0,1-3.3.37,3.015,3.015,0,0,1,.37-3.3,2.1,2.1,0,0,1,.47-.37,2.1,2.1,0,0,1-.47-.37,2.575,2.575,0,0,1-.674-1.6,2.61,2.61,0,0,0-1.7.3,3.015,3.015,0,0,0,.37,3.3,2.1,2.1,0,0,0,.47.37,2.1,2.1,0,0,0-.47.37,3.015,3.015,0,0,0-.37,3.3,3.015,3.015,0,0,0,3.3-.37,2.1,2.1,0,0,0,.37-.47,2.1,2.1,0,0,0,.37.47,3.015,3.015,0,0,0,3.3.37,2.612,2.612,0,0,0,.3-1.7,2.575,2.575,0,0,1-1.6-.674A2.1,2.1,0,0,1,32,55.83Z" style="fill:#00613b"/><path d="M11.251,35.332l.175.175a.462.462,0,0,0,.656,0h0a.46.46,0,0,0,.127-.419l-.455-2.274,1.38,2.167a.573.573,0,0,0,.888.1h0a.575.575,0,0,0,.139-.587l-.644-1.426.717-.144a.354.354,0,0,0,.225-.548c-.494-.722-1.377-2.17-1.194-3.086h0a.513.513,0,0,1,.822.134l.365.729a.522.522,0,0,0,.836.136h0a.523.523,0,0,0,.116-.563l-.88-2.2,1.008.336A.356.356,0,0,0,16,27.5l.035-3.5-3.5.035a.356.356,0,0,0-.361.468l.336,1.008-2.2-.88a.523.523,0,0,0-.563.116h0a.522.522,0,0,0,.136.836l.73.365a.513.513,0,0,1,.133.822h0c-.916.183-2.364-.7-3.086-1.194a.354.354,0,0,0-.548.225l-.143.717-1.427-.643a.572.572,0,0,0-.586.138h0a.573.573,0,0,0,.1.889l2.168,1.379-2.275-.455a.464.464,0,0,0-.419.127h0a.464.464,0,0,0,0,.656l.679.679-.755.252c-.756.252-.252.756-.252.756l3.273.251-.251.252c-.756.756-2.015.5-2.519,1.007l-.015.015a.54.54,0,0,0,.213.891l1.061.354L4.955,34.073a.712.712,0,0,0,0,1.007h0a.712.712,0,0,0,1.007,0L6.97,34.073l.354,1.061a.539.539,0,0,0,.89.213l.015-.015c.5-.5.252-1.763,1.007-2.518l.252-.252.252,3.274s.5.5.755-.252l.252-.756Z" style="fill:#004a2d"/><path d="M39.023,52.539C37.445,49.43,40,49.687,40,49.687a3.342,3.342,0,0,1-.813-3.874L30,55c1.148-1.148,2.938-.125,2.938-.125,1.914-1.914,3.32-.508,3.32-.508C36,51.812,39.023,52.539,39.023,52.539Z" style="fill:#007145"/><path d="M35.313,45s.257,2.555-2.852.977c0,0,.727,3.023-1.828,2.765,0,0,1.406,1.406-.508,3.32,0,0,1.023,1.79-.125,2.938l9.187-9.187A3.342,3.342,0,0,1,35.313,45Z" style="fill:#009e60"/><path d="M22.977,50.539C24.555,47.43,22,47.687,22,47.687a3.342,3.342,0,0,0,.813-3.874L32,53c-1.148-1.148-2.938-.125-2.938-.125-1.914-1.914-3.32-.508-3.32-.508C26,49.812,22.977,50.539,22.977,50.539Z" style="fill:#009e60"/><path d="M26.687,43s-.257,2.555,2.852.977c0,0-.727,3.023,1.828,2.765,0,0-1.406,1.406.508,3.32,0,0-1.023,1.79.125,2.938l-9.187-9.187A3.342,3.342,0,0,0,26.687,43Z" style="fill:#00c477"/><path d="M22.023,42.539C20.445,39.43,23,39.687,23,39.687a3.342,3.342,0,0,1-.813-3.874L13,45c1.148-1.148,2.938-.125,2.938-.125,1.914-1.914,3.32-.508,3.32-.508C19,41.812,22.023,42.539,22.023,42.539Z" style="fill:#007145"/><path d="M18.313,35s.257,2.555-2.852.977c0,0,.727,3.023-1.828,2.765,0,0,1.406,1.406-.508,3.32,0,0,1.023,1.79-.125,2.938l9.187-9.187A3.342,3.342,0,0,1,18.313,35Z" style="fill:#009e60"/><path d="M5.977,40.539C7.555,37.43,5,37.687,5,37.687a3.342,3.342,0,0,0,.813-3.874L15,43c-1.148-1.148-2.938-.125-2.938-.125-1.914-1.914-3.32-.508-3.32-.508C9,39.812,5.977,40.539,5.977,40.539Z" style="fill:#009e60"/><path d="M9.687,33s-.257,2.555,2.852.977c0,0-.727,3.023,1.828,2.765,0,0-1.406,1.406.508,3.32,0,0-1.023,1.79.125,2.938L5.813,33.813A3.342,3.342,0,0,0,9.687,33Z" style="fill:#00c477"/><path d="M5.665,18.765l1.157,1.157-1.179.366a.59.59,0,0,0-.213.991l.017.018c.578.578,1.982.332,2.85,1.2l.289.29-3.661.189s-.55.55.3.854l.853.3-.55.55-.191.192a.52.52,0,0,0,.018.735.541.541,0,0,0,.473.154l2.536-.445L5.979,26.8a.634.634,0,0,0-.084.992.661.661,0,0,0,.661.172l1.58-.68.181.807a.412.412,0,0,0,.62.268c.8-.534,2.393-1.482,3.424-1.25a.566.566,0,0,1-.126.917l-.808.388a.576.576,0,0,0-.128.933.6.6,0,0,0,.634.145l2.438-.923-.347,1.12a.42.42,0,0,0,.418.534l3.922.139L5.636,17.636A.8.8,0,0,0,5.665,18.765Z" style="fill:#007145"/><path d="M14.8,17.979l-1.484,2.389.445-2.536a.541.541,0,0,0-.154-.473.52.52,0,0,0-.735-.018l-.742.741-.3-.853c-.3-.854-.854-.3-.854-.3l-.189,3.661L10.5,20.3c-.867-.868-.621-2.272-1.2-2.85l-.018-.017a.59.59,0,0,0-.991.213l-.366,1.179L6.765,17.665a.8.8,0,0,0-1.129-.029L18.364,30.364l-.139-3.922a.42.42,0,0,0-.534-.418l-1.12.347.923-2.438a.6.6,0,0,0-.145-.634.576.576,0,0,0-.933.128l-.388.808a.566.566,0,0,1-.917.126c-.232-1.031.716-2.629,1.25-3.424a.412.412,0,0,0-.268-.62l-.807-.181.68-1.58a.661.661,0,0,0-.172-.661A.634.634,0,0,0,14.8,17.979Z" style="fill:#008f57"/><path d="M50.749,35.332l-.175.175a.462.462,0,0,1-.656,0h0a.46.46,0,0,1-.127-.419l.455-2.274-1.38,2.167a.573.573,0,0,1-.888.1h0a.575.575,0,0,1-.139-.587l.644-1.426-.717-.144a.354.354,0,0,1-.225-.548c.494-.722,1.377-2.17,1.194-3.086h0a.513.513,0,0,0-.822.134l-.365.729a.522.522,0,0,1-.836.136h0a.523.523,0,0,1-.116-.563l.88-2.2-1.008.336A.356.356,0,0,1,46,27.5L45.965,24l3.5.035a.356.356,0,0,1,.361.468l-.336,1.008,2.2-.88a.523.523,0,0,1,.563.116h0a.522.522,0,0,1-.136.836l-.73.365a.513.513,0,0,0-.133.822h0c.916.183,2.364-.7,3.086-1.194a.354.354,0,0,1,.548.225l.143.717,1.427-.643a.572.572,0,0,1,.586.138h0a.573.573,0,0,1-.1.889l-2.168,1.379,2.275-.455a.464.464,0,0,1,.419.127h0a.464.464,0,0,1,0,.656l-.679.679.755.252c.756.252.252.756.252.756l-3.273.251.251.252c.756.756,2.015.5,2.519,1.007l.015.015a.54.54,0,0,1-.213.891l-1.061.354,1.007,1.007a.712.712,0,0,1,0,1.007h0a.712.712,0,0,1-1.007,0L55.03,34.073l-.354,1.061a.539.539,0,0,1-.89.213l-.015-.015c-.5-.5-.252-1.763-1.007-2.518l-.252-.252-.252,3.274s-.5.5-.755-.252l-.252-.756Z" style="fill:#004a2d"/><path d="M34.958,61.443l-.147.147a.386.386,0,0,1-.546,0h0a.388.388,0,0,1-.106-.35l.379-1.9-1.149,1.806a.478.478,0,0,1-.741.081h0a.477.477,0,0,1-.115-.488l.536-1.189-.6-.12a.3.3,0,0,1-.188-.456,4.442,4.442,0,0,0,1-2.572h0a.427.427,0,0,0-.685.111l-.3.608a.435.435,0,0,1-.7.113h0a.434.434,0,0,1-.1-.469l.733-1.832-.84.28a.3.3,0,0,1-.39-.3L30.971,52l2.916.029a.3.3,0,0,1,.3.39l-.28.84,1.833-.733a.435.435,0,0,1,.469.1h0a.435.435,0,0,1-.113.7l-.608.3a.428.428,0,0,0-.112.685h0a4.43,4.43,0,0,0,2.572-.995.3.3,0,0,1,.457.188l.119.6,1.189-.537a.478.478,0,0,1,.489.116h0a.477.477,0,0,1-.081.74l-1.807,1.149,1.9-.379a.388.388,0,0,1,.349.106h0a.387.387,0,0,1,0,.547l-.566.566.63.21c.629.21.21.629.21.629l-2.729.21.21.21c.63.63,1.679.42,2.1.839l.012.013a.449.449,0,0,1-.177.742l-.884.3.839.839a.593.593,0,0,1,0,.839h0a.593.593,0,0,1-.839,0l-.84-.839-.3.885a.449.449,0,0,1-.742.177l-.012-.013c-.42-.419-.21-1.469-.839-2.1l-.21-.21-.21,2.728s-.42.42-.63-.21l-.21-.629Z" style="fill:#007145"/><path d="M57.335,17.765l-1.157,1.157,1.179.366a.59.59,0,0,1,.213.991l-.017.018c-.578.578-1.982.332-2.85,1.2l-.289.29,3.661.189s.55.55-.3.854l-.853.3.55.55.191.192a.52.52,0,0,1-.018.735.541.541,0,0,1-.473.154l-2.536-.445L57.021,25.8a.634.634,0,0,1,.084.992.661.661,0,0,1-.661.172l-1.58-.68-.181.807a.412.412,0,0,1-.62.268c-.8-.534-2.393-1.482-3.424-1.25a.566.566,0,0,0,.126.917l.808.388a.576.576,0,0,1,.128.933.6.6,0,0,1-.634.145l-2.438-.923.347,1.12a.42.42,0,0,1-.418.534l-3.922.139L57.364,16.636A.8.8,0,0,1,57.335,17.765Z" style="fill:#007145"/><path d="M48.2,16.979l1.484,2.389-.445-2.536a.541.541,0,0,1,.154-.473.52.52,0,0,1,.735-.018l.742.741.3-.853c.3-.854.854-.3.854-.3l.189,3.661.29-.289c.867-.868.621-2.272,1.2-2.85l.018-.017a.59.59,0,0,1,.991.213l.366,1.179,1.157-1.157a.8.8,0,0,1,1.129-.029L44.636,29.364l.139-3.922a.42.42,0,0,1,.534-.418l1.12.347-.923-2.438a.6.6,0,0,1,.145-.634.576.576,0,0,1,.933.128l.388.808a.566.566,0,0,0,.917.126c.232-1.031-.716-2.629-1.25-3.424a.412.412,0,0,1,.268-.62l.807-.181-.68-1.58a.661.661,0,0,1,.172-.661A.634.634,0,0,1,48.2,16.979Z" style="fill:#008f57"/><path d="M58.023,39.539C56.445,36.43,59,36.687,59,36.687a3.342,3.342,0,0,1-.813-3.874L49,42c1.148-1.148,2.938-.125,2.938-.125,1.914-1.914,3.32-.508,3.32-.508C55,38.812,58.023,39.539,58.023,39.539Z" style="fill:#009e60"/><path d="M54.313,32s.257,2.555-2.852.977c0,0,.727,3.023-1.828,2.765,0,0,1.406,1.406-.508,3.32,0,0,1.023,1.79-.125,2.938l9.187-9.187A3.342,3.342,0,0,1,54.313,32Z" style="fill:#00c477"/><path d="M41.977,37.539C43.555,34.43,41,34.687,41,34.687a3.342,3.342,0,0,0,.813-3.874L51,40c-1.148-1.148-2.938-.125-2.938-.125-1.914-1.914-3.32-.508-3.32-.508C45,36.812,41.977,37.539,41.977,37.539Z" style="fill:#009e60"/><path d="M45.687,30s-.257,2.555,2.852.977c0,0-.727,3.023,1.828,2.765,0,0-1.406,1.406.508,3.32,0,0-1.023,1.79.125,2.938l-9.187-9.187A3.342,3.342,0,0,0,45.687,30Z" style="fill:#00c477"/><path d="M45.42,18.57a1.737,1.737,0,0,1,.37.54,1.852,1.852,0,0,1,.21.86,2.025,2.025,0,0,1-.58,1.41l-5.14,5.15-1.9,1.89a1.991,1.991,0,1,1-2.81-2.82l7.03-7.03A1.992,1.992,0,0,1,45.42,18.57Z" style="fill:#d67f31"/><path d="M40,26a2,2,0,0,1-1.414-3.414l4-4a2,2,0,0,1,2.828,2.828l-4,4A1.99,1.99,0,0,1,40,26Z" style="fill:#ffba51"/><path d="M42,23a1,1,0,0,1-.707-1.707l2-2a1,1,0,0,1,1.414,1.414l-2,2A1,1,0,0,1,42,23Z" style="fill:#faf180"/><path d="M41.515,17.485l-3.6,3.6a2,2,0,0,1-2.828,0l-.758-.758a3.994,3.994,0,0,1-1.1-3.588,4.917,4.917,0,0,0,.23,6.75l2.11,2.11,7.03-7.03Z" style="fill:#f0af4c"/><path d="M34.1,16.593a1,1,0,0,0,1.336.462,2.3,2.3,0,0,1,1.105-.275,4.514,4.514,0,0,1,2.751.927.994.994,0,0,0,1.7-.744l-.5-.5a4.882,4.882,0,0,0-2.77-1.4,4.616,4.616,0,0,0-.74-.06,4.924,4.924,0,0,0-2.948.989A.975.975,0,0,0,34.1,16.593Z" style="fill:#faf180"/><path d="M18.58,18.57a1.737,1.737,0,0,0-.37.54,1.852,1.852,0,0,0-.21.86,2.025,2.025,0,0,0,.58,1.41l5.14,5.15,1.9,1.89a1.991,1.991,0,1,0,2.81-2.82L21.4,18.57A1.992,1.992,0,0,0,18.58,18.57Z" style="fill:#d67f31"/><path d="M24,26a2,2,0,0,0,1.414-3.414l-4-4a2,2,0,0,0-2.828,2.828l4,4A1.99,1.99,0,0,0,24,26Z" style="fill:#ffba51"/><path d="M22,23a1,1,0,0,0,.707-1.707l-2-2a1,1,0,0,0-1.414,1.414l2,2A1,1,0,0,0,22,23Z" style="fill:#faf180"/><path d="M22.485,17.485l3.6,3.6a2,2,0,0,0,2.828,0l.758-.758a3.994,3.994,0,0,0,1.1-3.588,4.917,4.917,0,0,1-.23,6.75L28.43,25.6,21.4,18.57Z" style="fill:#f0af4c"/><path d="M29.9,16.593a1,1,0,0,1-1.336.462,2.3,2.3,0,0,0-1.105-.275,4.514,4.514,0,0,0-2.751.927.994.994,0,0,1-1.7-.744l.5-.5a4.882,4.882,0,0,1,2.77-1.4,4.616,4.616,0,0,1,.74-.06,4.924,4.924,0,0,1,2.948.989A.975.975,0,0,1,29.9,16.593Z" style="fill:#faf180"/><rect x="45" y="8" width="3" height="8" rx="1.5" ry="1.5" style="fill:#ff3345"/><rect x="16" y="8" width="3" height="8" rx="1.5" ry="1.5" style="fill:#ff3345"/><rect x="29" y="8" width="6" height="2" rx="1" ry="1" style="fill:#faf180"/><circle cx="43" cy="49" r="3" style="fill:#ffd45d"/><path d="M41,48a2.974,2.974,0,0,1,.445-1.555,2.993,2.993,0,1,0,4.11,4.11A2.987,2.987,0,0,1,41,48Z" style="fill:#f0af4c"/><path d="M40,49a2.974,2.974,0,0,1,.445-1.555,2.993,2.993,0,1,0,4.11,4.11A2.987,2.987,0,0,1,40,49Z" style="fill:#00613b"/><path d="M42,47a1,1,0,0,0,1,1,.918.918,0,0,1,1,1.01A1,1,0,0,0,46,49a3,3,0,0,0-.054-.54c-.012-.065-.031-.131-.047-.2a2.9,2.9,0,0,0-.123-.4c-.009-.023-.019-.045-.028-.068a3,3,0,0,0-2.131-1.734A3.4,3.4,0,0,0,43,46,1,1,0,0,0,42,47Z" style="fill:#faf180"/><ellipse cx="43.682" cy="47.708" rx="0.825" ry="1.148" transform="translate(-20.942 44.883) rotate(-45.02)" style="fill:#f6fafd"/><path d="M13,40.169a2.1,2.1,0,0,0-.37-.47,3.017,3.017,0,0,0-3.3-.37,3.017,3.017,0,0,0,.37,3.3,2.1,2.1,0,0,0,.47.37H13Z" style="fill:#c22026"/><path d="M15.831,43a2.1,2.1,0,0,0,.47-.37,3.017,3.017,0,0,0,.37-3.3,3.017,3.017,0,0,0-3.3.37,2.1,2.1,0,0,0-.37.47V43Z" style="fill:#911a1c"/><path d="M10.169,43a2.1,2.1,0,0,0-.47.37,3.017,3.017,0,0,0-.37,3.3,3.017,3.017,0,0,0,3.3-.37A2.108,2.108,0,0,0,13,45.83V43Z" style="fill:#911a1c"/><path d="M15.831,43H13v2.83a2.108,2.108,0,0,0,.37.471,3.017,3.017,0,0,0,3.3.37,3.017,3.017,0,0,0-.37-3.3A2.1,2.1,0,0,0,15.831,43Z" style="fill:#c22026"/><path d="M14.835,41.165a1.508,1.508,0,0,1-.185,1.65,1.052,1.052,0,0,1-.235.185,1.052,1.052,0,0,1,.235.185,1.508,1.508,0,0,1,.185,1.65,1.508,1.508,0,0,1-1.65-.185A1.052,1.052,0,0,1,13,44.415a1.052,1.052,0,0,1-.185.235,1.508,1.508,0,0,1-1.65.185,1.508,1.508,0,0,1,.185-1.65A1.052,1.052,0,0,1,11.585,43a1.052,1.052,0,0,1-.235-.185,1.508,1.508,0,0,1-.185-1.65,1.508,1.508,0,0,1,1.65.185,1.052,1.052,0,0,1,.185.235,1.052,1.052,0,0,1,.185-.235A1.508,1.508,0,0,1,14.835,41.165Z" style="fill:#eb2335"/><circle cx="13" cy="43" r="1" style="fill:#ffba51"/><circle cx="12" cy="26" r="4" style="fill:#eb2335"/><path d="M13,28a3.961,3.961,0,0,1-3.929-4.708,3.993,3.993,0,1,0,6.858,3.416A3.976,3.976,0,0,1,13,28Z" style="fill:#c22026"/><path d="M11,23a1,1,0,0,0,1,1,1.813,1.813,0,0,1,2,2,1,1,0,0,0,2,0,4,4,0,0,0-4-4A1,1,0,0,0,11,23Z" style="fill:#ff4758"/><ellipse cx="13.682" cy="24.708" rx="0.825" ry="1.148" transform="translate(-13.467 16.92) rotate(-45.02)" style="fill:#f6fafd"/><circle cx="14" cy="33" r="3" style="fill:#ffd45d"/><path d="M12,32a2.974,2.974,0,0,1,.445-1.555,2.993,2.993,0,1,0,4.11,4.11A2.987,2.987,0,0,1,12,32Z" style="fill:#f0af4c"/><path d="M13,31a1,1,0,0,0,1,1,.918.918,0,0,1,1,1.01A1,1,0,0,0,17,33a3,3,0,0,0-.054-.54c-.012-.065-.031-.131-.047-.2a2.9,2.9,0,0,0-.123-.4c-.009-.023-.019-.045-.028-.068a3,3,0,0,0-2.131-1.734A3.4,3.4,0,0,0,14,30,1,1,0,0,0,13,31Z" style="fill:#faf180"/><ellipse cx="14.682" cy="31.708" rx="0.825" ry="1.148" transform="translate(-18.125 19.68) rotate(-45.02)" style="fill:#f6fafd"/><path d="M32,50.169a2.1,2.1,0,0,0-.37-.47,3.017,3.017,0,0,0-3.3-.37,3.017,3.017,0,0,0,.37,3.3,2.1,2.1,0,0,0,.47.37H32Z" style="fill:#c22026"/><path d="M34.831,53a2.1,2.1,0,0,0,.47-.37,3.017,3.017,0,0,0,.37-3.3,3.017,3.017,0,0,0-3.3.37,2.1,2.1,0,0,0-.37.47V53Z" style="fill:#911a1c"/><path d="M29.169,53a2.1,2.1,0,0,0-.47.37,3.017,3.017,0,0,0-.37,3.3,3.017,3.017,0,0,0,3.3-.37A2.108,2.108,0,0,0,32,55.83V53Z" style="fill:#911a1c"/><path d="M34.831,53H32v2.83a2.108,2.108,0,0,0,.37.471,3.017,3.017,0,0,0,3.3.37,3.017,3.017,0,0,0-.37-3.3A2.1,2.1,0,0,0,34.831,53Z" style="fill:#c22026"/><path d="M33.835,51.165a1.508,1.508,0,0,1-.185,1.65,1.052,1.052,0,0,1-.235.185,1.052,1.052,0,0,1,.235.185,1.508,1.508,0,0,1,.185,1.65,1.508,1.508,0,0,1-1.65-.185A1.052,1.052,0,0,1,32,54.415a1.052,1.052,0,0,1-.185.235,1.508,1.508,0,0,1-1.65.185,1.508,1.508,0,0,1,.185-1.65A1.052,1.052,0,0,1,30.585,53a1.052,1.052,0,0,1-.235-.185,1.508,1.508,0,0,1-.185-1.65,1.508,1.508,0,0,1,1.65.185,1.052,1.052,0,0,1,.185.235,1.052,1.052,0,0,1,.185-.235A1.508,1.508,0,0,1,33.835,51.165Z" style="fill:#eb2335"/><circle cx="32" cy="53" r="1" style="fill:#ffba51"/><path d="M50,24.169a2.1,2.1,0,0,0-.37-.47,3.017,3.017,0,0,0-3.3-.37,3.017,3.017,0,0,0,.37,3.3,2.1,2.1,0,0,0,.47.37H50Z" style="fill:#c22026"/><path d="M52.831,27a2.1,2.1,0,0,0,.47-.37,3.017,3.017,0,0,0,.37-3.3,3.017,3.017,0,0,0-3.3.37,2.1,2.1,0,0,0-.37.47V27Z" style="fill:#911a1c"/><path d="M47.169,27a2.1,2.1,0,0,0-.47.37,3.017,3.017,0,0,0-.37,3.3,3.017,3.017,0,0,0,3.3-.37A2.108,2.108,0,0,0,50,29.83V27Z" style="fill:#911a1c"/><path d="M52.831,27H50v2.83a2.108,2.108,0,0,0,.37.471,3.017,3.017,0,0,0,3.3.37,3.017,3.017,0,0,0-.37-3.3A2.1,2.1,0,0,0,52.831,27Z" style="fill:#c22026"/><path d="M51.835,25.165a1.508,1.508,0,0,1-.185,1.65,1.052,1.052,0,0,1-.235.185,1.052,1.052,0,0,1,.235.185,1.508,1.508,0,0,1,.185,1.65,1.508,1.508,0,0,1-1.65-.185A1.052,1.052,0,0,1,50,28.415a1.052,1.052,0,0,1-.185.235,1.508,1.508,0,0,1-1.65.185,1.508,1.508,0,0,1,.185-1.65A1.052,1.052,0,0,1,48.585,27a1.052,1.052,0,0,1-.235-.185,1.508,1.508,0,0,1-.185-1.65,1.508,1.508,0,0,1,1.65.185,1.052,1.052,0,0,1,.185.235,1.052,1.052,0,0,1,.185-.235A1.508,1.508,0,0,1,51.835,25.165Z" style="fill:#eb2335"/><circle cx="50" cy="27" r="1" style="fill:#ffba51"/><circle cx="23" cy="55" r="3" style="fill:#ced1ea"/><path d="M21,54a2.974,2.974,0,0,1,.445-1.555,2.993,2.993,0,1,0,4.11,4.11A2.987,2.987,0,0,1,21,54Z" style="fill:#a4afe6"/><path d="M20,55a2.974,2.974,0,0,1,.445-1.555,2.993,2.993,0,1,0,4.11,4.11A2.987,2.987,0,0,1,20,55Z" style="fill:#00613b"/><path d="M22,53a1,1,0,0,0,1,1,.918.918,0,0,1,1,1.01A1,1,0,0,0,26,55a3,3,0,0,0-.054-.54c-.012-.065-.031-.131-.047-.2a2.9,2.9,0,0,0-.123-.4c-.009-.023-.019-.045-.028-.068a3,3,0,0,0-2.131-1.734A3.4,3.4,0,0,0,23,52,1,1,0,0,0,22,53Z" style="fill:#ebebff"/><ellipse cx="23.682" cy="53.708" rx="0.825" ry="1.148" transform="translate(-31.048 32.495) rotate(-45.02)" style="fill:#f6fafd"/><circle cx="50" cy="41" r="4" style="fill:#eb2335"/><path d="M51,43a3.961,3.961,0,0,1-3.929-4.708,3.993,3.993,0,1,0,6.858,3.416A3.976,3.976,0,0,1,51,43Z" style="fill:#c22026"/><path d="M50,45a3.961,3.961,0,0,1-3.929-4.708,3.993,3.993,0,1,0,6.858,3.416A3.976,3.976,0,0,1,50,45Z" style="fill:#00613b"/><path d="M49,38a1,1,0,0,0,1,1,1.813,1.813,0,0,1,2,2,1,1,0,0,0,2,0,4,4,0,0,0-4-4A1,1,0,0,0,49,38Z" style="fill:#ff4758"/><ellipse cx="51.682" cy="39.708" rx="0.825" ry="1.148" transform="translate(-12.938 48.197) rotate(-45.02)" style="fill:#f6fafd"/></g></svg>