<svg xmlns="http://www.w3.org/2000/svg" viewBox="0 0 64 64"><g id="_05-mistletoe" data-name="05-mistletoe"><path d="M10,21,20.89,31.89a10.014,10.014,0,0,0-4.66,4.32,1.638,1.638,0,0,0-.23.18c0-4.32-5-4-5-4,2.16-5.04-2-5-2-5,2.76-2.76.23-6.66.01-6.98L9,20.39a8.027,8.027,0,0,0,1.02.57Z" style="fill:#004a2d"/><path d="M22,29a9.819,9.819,0,0,0,.29,2.38,11.117,11.117,0,0,0-1.4.51L10,21l.02-.04c1.41.66,3.99,1.42,5.98-.57,0,0-.04,4.16,5,2a5.763,5.763,0,0,0,1.34,4.02A10.051,10.051,0,0,0,22,29Z" style="fill:#007145"/><path d="M25.42,50.99A4.316,4.316,0,0,0,26,52c-5.94,0-4,6-4,6-6.93-2.97-9,5-9,5-3.84-3.84-9.63-2.12-9.98-2.01L17,47a9.991,9.991,0,0,0,8,4C25.14,51,25.28,51,25.42,50.99Z" style="fill:#008f57"/><path d="M17,47,3.02,60.99,3,61s1.96-6.04-2-10c0,0,6.97-1.07,4-8,0,0,7,.94,7-5a4.835,4.835,0,0,0,3.12,1.45A9.83,9.83,0,0,0,15,41,9.991,9.991,0,0,0,17,47Z" style="fill:#00c477"/><path d="M47,47,60.98,60.99c-.35-.11-6.14-1.83-9.98,2.01,0,0-2.07-7.97-9-5,0,0,1.94-6-4-6a4.316,4.316,0,0,0,.58-1.01c.14.01.28.01.42.01A9.991,9.991,0,0,0,47,47Z" style="fill:#008f57"/><path d="M61,61l-.02-.01L47,47a9.991,9.991,0,0,0,2-6,9.83,9.83,0,0,0-.12-1.55A4.835,4.835,0,0,0,52,38c0,5.94,7,5,7,5-2.97,6.93,4,8,4,8C59.04,54.96,61,61,61,61Z" style="fill:#00c477"/><path d="M32,1V19a9.948,9.948,0,0,0-7.48,3.37A4.086,4.086,0,0,0,23,22c4-4-2-7-2-7,6.67-2.67,3-9,3-9C29.33,6,32,1,32,1Z" style="fill:#008f57"/><path d="M41,22a4.086,4.086,0,0,0-1.52.37A9.948,9.948,0,0,0,32,19V1s2.67,5,8,5c0,0-3.67,5.33,3,8C43,14,37,18,41,22Z" style="fill:#00c477"/><path d="M22.29,31.38a9.982,9.982,0,0,0,7,7.24A9.819,9.819,0,0,0,29,41a9.994,9.994,0,0,0,3,7.14,9.921,9.921,0,0,1-6.58,2.85c-.14.01-.28.01-.42.01A10,10,0,0,1,15,41a9.83,9.83,0,0,1,.12-1.55,9.726,9.726,0,0,1,1.11-3.24,10.014,10.014,0,0,1,4.66-4.32A11.117,11.117,0,0,1,22.29,31.38Z" style="fill:#911a1c"/><path d="M41.66,26.41A10.051,10.051,0,0,1,42,29a9.819,9.819,0,0,1-.29,2.38A9.7,9.7,0,0,0,39,31a10,10,0,0,0-9.71,7.62,9.982,9.982,0,0,1-7-7.24A9.819,9.819,0,0,1,22,29a10.051,10.051,0,0,1,.34-2.59,10,10,0,0,1,19.32,0Z" style="fill:#c22026"/><circle cx="39" cy="41" r="10" style="fill:#eb2335"/><path d="M25.693,50.966C28.02,53.3,24,55.5,24,55.5c5.714,1.667,2.286,4.167,2.286,4.167C30.857,59.667,32,63,32,63V48.14A9.914,9.914,0,0,1,25.693,50.966Z" style="fill:#004a2d"/><path d="M38.309,50.965A9.961,9.961,0,0,1,32,48.136V63s1.143-3.333,5.714-3.333c0,0-3.428-2.5,2.286-4.167C40,55.5,35.979,53.3,38.309,50.965Z" style="fill:#007145"/><path d="M55,27c-2.76-2.76-.23-6.66-.01-6.98L43.112,31.891a10.035,10.035,0,0,1,4.3,3.718A2.612,2.612,0,0,1,48,36c0-4.32,5-4,5-4C50.84,26.96,55,27,55,27Z" style="fill:#004a2d"/><path d="M42,29a9.819,9.819,0,0,1-.29,2.38c-.014,0-.028,0-.042-.009a10.04,10.04,0,0,1,1.444.52L54.99,20.02,55,20s-4.12,2.88-7,0c0,0,.04,4.16-5,2,0,0,.164,2.675-1.44,4.111.031.1.072.2.1.3A10.051,10.051,0,0,1,42,29Z" style="fill:#007145"/><path d="M42,58s1.94-6-4-6a4.316,4.316,0,0,0,.58-1.01c.14.01.28.01.42.01-.233,0-.462-.019-.691-.035C35.979,53.3,40,55.5,40,55.5a10.216,10.216,0,0,0-1.768.674c.9.815.47,2.6.47,2.6,3.35-1.7,3.072,1.052,3.072,1.052a3.6,3.6,0,0,1,4.176-.875,3.482,3.482,0,0,1-.32-1.561A6.836,6.836,0,0,0,42,58Z" style="fill:#003b24"/><path d="M25.693,50.966c-.092.006-.181.02-.273.024A4.316,4.316,0,0,0,26,52c-5.94,0-4,6-4,6a6.757,6.757,0,0,0-3.755-.594,3.486,3.486,0,0,1-.319,1.544,3.6,3.6,0,0,1,4.175.875s-.278-2.752,3.073-1.052c0,0-.443-1.844.511-2.639A10.442,10.442,0,0,0,24,55.5S28.02,53.3,25.693,50.966Z" style="fill:#003b24"/><path d="M48,36a2.612,2.612,0,0,0-.586-.391A9.929,9.929,0,0,1,48.906,39.7l0,0c-.011-.082-.016-.167-.029-.248A4.835,4.835,0,0,0,52,38a5.789,5.789,0,0,0,.274,1.815,1.363,1.363,0,0,1,2.393-.244A3.6,3.6,0,0,1,57,36a3.6,3.6,0,0,1-2.333-3.571s-1.366,1.665-2.488-.407C50.76,32.143,48,32.789,48,36Z" style="fill:#003b24"/><path d="M15.12,39.45a9.726,9.726,0,0,1,1.11-3.24,1.638,1.638,0,0,0-.23.18c0-3.4-3.1-3.925-4.412-3.994a1.346,1.346,0,0,1-2.255.033A3.6,3.6,0,0,1,7,36a3.6,3.6,0,0,1,2.333,3.571,1.363,1.363,0,0,1,2.393.244A5.789,5.789,0,0,0,12,38,4.835,4.835,0,0,0,15.12,39.45Z" style="fill:#003b24"/><path d="M34,38a9.947,9.947,0,0,1,2.587-6.694A9.993,9.993,0,1,0,46.413,47.7,9.966,9.966,0,0,1,34,38Z" style="fill:#c22026"/><path d="M33,19.054V6a1,1,0,0,0-2,0V19.054c.329-.032.662-.054,1-.054S32.671,19.022,33,19.054Z" style="fill:#007145"/><path d="M58.706,57.292,47.562,46.148a10.085,10.085,0,0,1-1.212,1.616L57.292,58.706a1,1,0,0,0,1.414-1.414Z" style="fill:#007145"/><path d="M16.436,46.149,5.293,57.292a1,1,0,1,0,1.414,1.414l10.94-10.94c-.226-.246-.446-.5-.647-.766A10.193,10.193,0,0,1,16.436,46.149Z" style="fill:#007145"/><path d="M38,33a2,2,0,0,0,2,2c2.757,0,5,2.557,5,5.7a6.3,6.3,0,0,1-.51,2.508,2,2,0,1,0,3.672,1.584,10.238,10.238,0,0,0,.83-3.941,9.987,9.987,0,0,0-9.326-9.817A2,2,0,0,0,38,33Z" style="fill:#ff4758"/><ellipse cx="44.5" cy="37.5" rx="1.5" ry="2.5" transform="translate(-12.788 27.274) rotate(-30)" style="fill:#2a2e33"/><path d="M36,27a9.95,9.95,0,0,0-7.106,2.975,2.9,2.9,0,0,1-3.742.443,9.651,9.651,0,0,1-2.932-3.4A10.013,10.013,0,0,0,29.29,38.62,10,10,0,0,1,39,31a9.7,9.7,0,0,1,2.71.38A9.817,9.817,0,0,0,42,29.013,9.942,9.942,0,0,0,36,27Z" style="fill:#ae0000"/><path d="M23.717,27.869a2,2,0,0,0,2.58-1.16A6.045,6.045,0,0,1,32.021,23,6.2,6.2,0,0,1,37.3,25.811a1.993,1.993,0,0,0,3.688-1.158A9.808,9.808,0,0,0,39.48,22.37a9.958,9.958,0,0,0-5.255-3.119c-.084-.018-.168-.032-.251-.048-.261-.052-.524-.1-.791-.13-.342-.038-.686-.061-1.033-.065-.048,0-.094-.008-.142-.008l-.052,0c-.318,0-.63.021-.94.051-.082.008-.164.018-.247.028a9.963,9.963,0,0,0-8.334,7.045A2,2,0,0,0,23.717,27.869Z" style="fill:#eb2335"/><ellipse cx="31.5" cy="22" rx="2.5" ry="1" style="fill:#2a2e33"/><path d="M29,41a9.819,9.819,0,0,1,.29-2.38,9.982,9.982,0,0,1-7-7.24,11.117,11.117,0,0,0-1.4.51,9.871,9.871,0,0,0-2.3,1.451,9.973,9.973,0,0,0,6.7,6.279c.018-.076.045-.149.065-.225a9.916,9.916,0,0,0,1.373,8.223,8.426,8.426,0,0,1-4.511,2.973A9.951,9.951,0,0,0,25,51c.14,0,.28,0,.42-.01a9.88,9.88,0,0,0,3.729-.892A10,10,0,0,0,32,48.14,9.994,9.994,0,0,1,29,41Z" style="fill:#6e1415"/><path d="M23.854,49.169a2,2,0,0,0-1.1-2.6A6.014,6.014,0,0,1,19.189,39.5a2,2,0,0,0-3.852-1.054c-.009.034-.022.067-.03.1a9.8,9.8,0,0,0-.21,1.1c-.01.073-.018.147-.026.22A10.009,10.009,0,0,0,15,41c0,.271.012.54.033.806.006.066.016.13.022.2.021.2.044.408.077.608.009.058.022.114.032.17.038.213.08.423.132.631.009.036.019.072.029.108.06.231.126.459.2.683l.012.037a9.992,9.992,0,0,0,3.921,5.085l.038.024a9.972,9.972,0,0,0,.912.534c.024.012.047.026.071.039.28.142.571.264.865.38a1.973,1.973,0,0,0,2.508-1.132Z" style="fill:#ae0000"/><ellipse cx="19.5" cy="44.5" rx="1.5" ry="2.5" transform="translate(-19.637 15.712) rotate(-30)" style="fill:#111214"/><ellipse cx="40.682" cy="45.708" rx="0.825" ry="1.148" transform="translate(-20.406 42.175) rotate(-45.02)" style="fill:#f6fafd"/><ellipse cx="37.684" cy="42.695" rx="1.642" ry="2.286" transform="translate(-19.153 39.171) rotate(-45.02)" style="fill:#f6fafd"/><path d="M45.8,36.75c-.69-1.2-1.832-1.829-2.549-1.415a1.172,1.172,0,0,0-.523.884A2.7,2.7,0,0,1,44.8,37.75a3.249,3.249,0,0,1,.474,2.031.971.971,0,0,0,.477-.116C46.467,39.251,46.489,37.946,45.8,36.75Z" style="fill:#414952"/><path d="M43.2,38.25a3.249,3.249,0,0,1-.474-2.031.971.971,0,0,0-.477.116c-.717.414-.739,1.719-.049,2.915s1.832,1.829,2.549,1.415a1.172,1.172,0,0,0,.523-.884A2.7,2.7,0,0,1,43.2,38.25Z" style="fill:#c22026"/><path d="M33.653,22.5A.657.657,0,0,0,34,22c0-.552-1.119-1-2.5-1s-2.5.448-2.5,1a.657.657,0,0,0,.347.5A4.059,4.059,0,0,1,31.5,22,4.059,4.059,0,0,1,33.653,22.5Z" style="fill:#414952"/><path d="M33.653,22.5A4.059,4.059,0,0,1,31.5,23a4.059,4.059,0,0,1-2.153-.5A.657.657,0,0,0,29,23c0,.552,1.119,1,2.5,1s2.5-.448,2.5-1A.657.657,0,0,0,33.653,22.5Z" style="fill:#ae0000"/><ellipse cx="36.684" cy="23.695" rx="1.642" ry="2.286" transform="translate(-6.007 32.894) rotate(-45.02)" style="fill:#f6fafd"/><path d="M18.2,45.25c.69,1.2,1.832,1.829,2.549,1.415a1.172,1.172,0,0,0,.523-.884A2.7,2.7,0,0,1,19.2,44.25a3.249,3.249,0,0,1-.474-2.031.971.971,0,0,0-.477.116C17.533,42.749,17.511,44.054,18.2,45.25Z" style="fill:#2a2e33"/><path d="M20.8,43.75a3.249,3.249,0,0,1,.474,2.031.971.971,0,0,0,.477-.116c.717-.414.739-1.719.049-2.915s-1.832-1.829-2.549-1.415a1.172,1.172,0,0,0-.523.884A2.7,2.7,0,0,1,20.8,43.75Z" style="fill:#6e1415"/><ellipse cx="38.682" cy="26.708" rx="0.825" ry="1.148" transform="translate(-7.553 35.19) rotate(-45.02)" style="fill:#f6fafd"/><ellipse cx="19.684" cy="37.695" rx="1.642" ry="2.286" transform="translate(-20.893 24.973) rotate(-45.02)" style="fill:#f6fafd"/></g></svg>