<svg xmlns="http://www.w3.org/2000/svg" viewBox="0 0 64 64"><g id="_07-chimney" data-name="07-chimney"><path d="M9,57H5a3.906,3.906,0,0,0-.97.12L4,57V55a4,4,0,0,1,4-4H9v6Z" style="fill:#bcc1e3"/><path d="M11,63H1V61a4,4,0,0,1,3.03-3.88A3.906,3.906,0,0,1,5,57H9v4A2.006,2.006,0,0,0,11,63Z" style="fill:#ebebff"/><path d="M63,57v6H53a2.006,2.006,0,0,0,2-2V51h2A6,6,0,0,1,63,57Z" style="fill:#ebebff"/><rect x="9" y="21" width="5" height="9" style="fill:#40231b"/><path d="M49,28.71a7.685,7.685,0,0,0,.11,1.27L49,30H43V21h6Z" style="fill:#40231b"/><path d="M23,54v9H11a2.006,2.006,0,0,1-2-2V54H23Z" style="fill:#5c3227"/><polygon points="14 42 14 54 9 54 9 51 9 42 14 42" style="fill:#5c3227"/><path d="M38.02,39A4.9,4.9,0,0,0,41,38v4H23V30H33v4a5,5,0,0,0,5,5Z" style="fill:#61362b"/><polygon points="50 42 50 54 41 54 32 54 32 42 41 42 50 42" style="fill:#5c3227"/><path d="M55,54v7a2.006,2.006,0,0,1-2,2H41V54H55Z" style="fill:#5c3227"/><polygon points="41 54 41 63 23 63 23 54 32 54 41 54" style="fill:#61362b"/><polygon points="55 54 50 54 50 42 55 42 55 51 55 54" style="fill:#61362b"/><polygon points="32 42 32 54 23 54 14 54 14 42 23 42 32 42" style="fill:#61362b"/><polygon points="23 30 23 42 14 42 9 42 9 30 14 30 23 30" style="fill:#5c3227"/><path d="M55.01,35.93,55,36v6H41V38a4.929,4.929,0,0,0,2-3.98V30h6l.11-.02A7.189,7.189,0,0,0,55.01,35.93Z" style="fill:#5c3227"/><path d="M31,21a2.015,2.015,0,0,0-2,2v.5a4.5,4.5,0,0,1-9,0V21H14v9H32V21.279A1.975,1.975,0,0,0,31,21Z" style="fill:#4a281f"/><path d="M33,23a2,2,0,0,0-1-1.721V30h1Z" style="fill:#61362b"/><rect x="15" y="43" width="16" height="10" rx="2" ry="2" style="fill:#784132"/><rect x="24" y="31" width="16" height="10" rx="2" ry="2" style="fill:#784132"/><rect x="33" y="43" width="16" height="10" rx="2" ry="2" style="fill:#915041"/><rect x="24" y="55" width="16" height="7" rx="2" ry="2" style="fill:#784132"/><path d="M55,55H44a2,2,0,0,0-2,2v3a2,2,0,0,0,2,2H54.721A1.975,1.975,0,0,0,55,61Z" style="fill:#784132"/><path d="M9,55H20a2,2,0,0,1,2,2v3a2,2,0,0,1-2,2H9.279A1.975,1.975,0,0,1,9,61Z" style="fill:#784132"/><path d="M20,31H9V41H20a2,2,0,0,0,2-2V33A2,2,0,0,0,20,31Z" style="fill:#915041"/><path d="M44,41H55V31H44a2,2,0,0,0-2,2v6A2,2,0,0,0,44,41Z" style="fill:#784132"/><path d="M53,43a2,2,0,0,0-2,2v6a2,2,0,0,0,2,2h2V43Z" style="fill:#784132"/><path d="M11,53a2,2,0,0,0,2-2V45a2,2,0,0,0-2-2H9V53Z" style="fill:#784132"/><path d="M15,27a2,2,0,0,0,2,2H29a2,2,0,0,0,2-2V21H15Z" style="fill:#5c3227"/><path d="M33,27a2,2,0,0,0,2,2H47a2,2,0,0,0,2-2V21H33Z" style="fill:#4a281f"/><path d="M9,29h2a2,2,0,0,0,2-2V21H9Z" style="fill:#6b3a2d"/><path d="M60,60a2,2,0,0,1-2-2V51.09A6,6,0,0,0,57,51H55V61a2.006,2.006,0,0,1-2,2H63V60Z" style="fill:#ced1ea"/><path d="M11,63a2.006,2.006,0,0,1-2-2V57H7v2a2,2,0,0,1-2,2H1v2Z" style="fill:#ced1ea"/><path d="M8,51v3a2,2,0,0,1-2,2H4v1l.03.12A3.906,3.906,0,0,1,5,57H9V51Z" style="fill:#a4afe6"/><rect x="17" y="43" width="12" height="2" rx="1" ry="1" style="fill:#915041"/><rect x="17" y="51" width="12" height="2" rx="1" ry="1" style="fill:#915041"/><rect x="25" y="43" width="4" height="2" rx="1" ry="1" style="fill:#ab5e4d"/><rect x="26" y="39" width="12" height="2" rx="1" ry="1" style="fill:#915041"/><rect x="30" y="39" width="4" height="2" rx="1" ry="1" style="fill:#ab5e4d"/><rect x="25" y="35" width="4" height="2" rx="1" ry="1" style="fill:#ab5e4d"/><rect x="9" y="31" width="12" height="2" rx="1" ry="1" style="fill:#ab5e4d"/><rect x="17" y="31" width="4" height="2" rx="1" ry="1" style="fill:#ba6654"/><rect x="11" y="39" width="8" height="2" rx="1" ry="1" style="fill:#ab5e4d"/><rect x="17" y="39" width="4" height="2" rx="1" ry="1" style="fill:#ba6654"/><rect x="11" y="35" width="4" height="2" rx="1" ry="1" style="fill:#ba6654"/><rect x="17" y="51" width="4" height="2" rx="1" ry="1" style="fill:#ab5e4d"/><rect x="35" y="43" width="12" height="2" rx="1" ry="1" style="fill:#ab5e4d"/><rect x="44" y="55" width="10" height="2" rx="1" ry="1" style="fill:#915041"/><rect x="10" y="55" width="10" height="2" rx="1" ry="1" style="fill:#915041"/><rect x="27" y="55" width="10" height="2" rx="1" ry="1" style="fill:#915041"/><rect x="37" y="43" width="4" height="2" rx="1" ry="1" style="fill:#ba6654"/><rect x="43" y="39" width="12" height="2" rx="1" ry="1" style="fill:#915041"/><rect x="45" y="39" width="4" height="2" rx="1" ry="1" style="fill:#ba6654"/><rect x="48" y="35" width="4" height="2" rx="1" ry="1" style="fill:#915041"/><rect x="43" y="51" width="4" height="2" rx="1" ry="1" style="fill:#ba6654"/><rect x="35" y="48" width="4" height="2" rx="1" ry="1" style="fill:#ba6654"/><rect x="26" y="55" width="4" height="2" rx="1" ry="1" style="fill:#ba6654"/><rect x="35" y="60" width="4" height="2" rx="1" ry="1" style="fill:#ba6654"/><rect x="45" y="55" width="4" height="2" rx="1" ry="1" style="fill:#ab5e4d"/><rect x="17" y="55" width="4" height="2" rx="1" ry="1" style="fill:#ab5e4d"/><path d="M61.5,59.5A1.5,1.5,0,0,1,60,58V57a1.482,1.482,0,0,0-.5-1.119,1.5,1.5,0,1,1,2-2.237A4.507,4.507,0,0,1,63,57v1A1.5,1.5,0,0,1,61.5,59.5Z" style="fill:#fafaff"/><path d="M9,21H7a4,4,0,0,1-3.97-3.52A3.994,3.994,0,0,0,5,18h6a4,4,0,0,0,4-4V11.5a2.5,2.5,0,0,1,5,0V21H9Z" style="fill:#ad8451"/><path d="M49,20v1H43V20a3,3,0,0,1,6,0Z" style="fill:#ad8451"/><path d="M17.5,9A2.492,2.492,0,0,0,15,11.5V14a4,4,0,0,1-4,4H5a3.994,3.994,0,0,1-1.97-.52,3.989,3.989,0,0,0,1.159,2.345A1.984,1.984,0,0,0,5,20h6a5,5,0,0,0,5-5v-.5a1.5,1.5,0,0,1,3,0V21h1V11.5A2.5,2.5,0,0,0,17.5,9Z" style="fill:#8f6d43"/><path d="M49,20a3,3,0,0,0-6,0v1h1.023a2.362,2.362,0,0,1,.564-1.34A1.891,1.891,0,0,1,46,19a2.094,2.094,0,0,1,1.978,2H49Z" style="fill:#8f6d43"/><path d="M3.03,17.48A4.007,4.007,0,0,1,1,14V7A6,6,0,0,1,7,1H57a6,6,0,0,1,6,6V29a7,7,0,0,1-7.22,7,6.479,6.479,0,0,1-.77-.07,7.189,7.189,0,0,1-5.9-5.95A7.685,7.685,0,0,1,49,28.71V20a3,3,0,0,0-6,0V34.02A5,5,0,0,1,38.02,39H38a5,5,0,0,1-5-5V23a2.006,2.006,0,0,0-2-2,2.015,2.015,0,0,0-2,2v.5a4.5,4.5,0,0,1-9,0v-12a2.5,2.5,0,1,0-5,0V14a4,4,0,0,1-4,4H5A3.994,3.994,0,0,1,3.03,17.48Z" style="fill:#ebebff"/><path d="M57,1H7A6,6,0,0,0,1,7v4A6,6,0,0,1,7,5H57a6,6,0,0,1,6,6V7A6,6,0,0,0,57,1Z" style="fill:#f5f5ff"/><path d="M41,35a4.9,4.9,0,0,1-2.98,1H38a5,5,0,0,1-5-5v3a5,5,0,0,0,5,5h.02A5,5,0,0,0,43,34.02v-3A4.929,4.929,0,0,1,41,35Z" style="fill:#ced1ea"/><path d="M49,17a3,3,0,0,0-6,0v3a3,3,0,0,1,6,0V17Z" style="fill:#ced1ea"/><path d="M17.5,6A2.492,2.492,0,0,0,15,8.5V11a4,4,0,0,1-4,4H5a4,4,0,0,1-4-4v3a4,4,0,0,0,4,4h6a4,4,0,0,0,4-4V11.5a2.5,2.5,0,0,1,5,0v-3A2.5,2.5,0,0,0,17.5,6Z" style="fill:#ced1ea"/><path d="M55.78,33a6.479,6.479,0,0,1-.77-.07,7.189,7.189,0,0,1-5.9-5.95A7.685,7.685,0,0,1,49,25.71v3a7.685,7.685,0,0,0,.11,1.27,7.189,7.189,0,0,0,5.9,5.95,6.479,6.479,0,0,0,.77.07A7,7,0,0,0,63,29V26A7,7,0,0,1,55.78,33Z" style="fill:#ced1ea"/><path d="M31,18a2.015,2.015,0,0,0-2,2v.5a4.5,4.5,0,0,1-9,0v3a4.5,4.5,0,0,0,9,0V23a2.015,2.015,0,0,1,2-2,2.006,2.006,0,0,1,2,2V20A2.006,2.006,0,0,0,31,18Z" style="fill:#ced1ea"/><path d="M57,33H56a2,2,0,0,1,0-4h1a2,2,0,0,0,2-2V18a2,2,0,0,1,4,0v9A6.006,6.006,0,0,1,57,33Z" style="fill:#fafaff"/><path d="M61,15a2,2,0,0,1-2-2V12a2,2,0,0,1,4,0v1A2,2,0,0,1,61,15Z" style="fill:#fafaff"/><rect x="46" y="1" width="6" height="4" rx="2" ry="2" style="fill:#f6fafd"/><rect x="14" y="1" width="30" height="4" rx="2" ry="2" style="fill:#f6fafd"/><path d="M7,1A2,2,0,0,1,7,5,2,2,0,0,0,5,7v4a2,2,0,0,1-4,0V7A6.006,6.006,0,0,1,7,1Z" style="fill:#fafaff"/><path d="M37,36a2,2,0,0,1,0-4,2,2,0,0,0,2-2V26a2,2,0,0,1,4,0v4A6.006,6.006,0,0,1,37,36Z" style="fill:#fafaff"/><path d="M41,23a2,2,0,0,1-2-2V20a2,2,0,0,1,4,0v1A2,2,0,0,1,41,23Z" style="fill:#fafaff"/><path d="M24,25a2,2,0,0,1,0-4,1,1,0,0,0,1-1V16a2,2,0,0,1,4,0v4A5.006,5.006,0,0,1,24,25Z" style="fill:#fafaff"/></g></svg>