<svg xmlns="http://www.w3.org/2000/svg" viewBox="0 0 64 64"><g id="_08-sock" data-name="08-sock"><rect x="1" y="1" width="62" height="5" rx="2.5" ry="2.5" style="fill:#915041"/><path d="M60.5,4H3.5A2.5,2.5,0,0,1,1.211,2.5,2.5,2.5,0,0,0,3.5,6h57a2.5,2.5,0,0,0,2.289-3.5A2.5,2.5,0,0,1,60.5,4Z" style="fill:#61362b"/><rect x="15" y="1" width="29" height="2" rx="1" ry="1" style="fill:#b46e5a"/><rect x="46" y="1" width="5" height="2" rx="1" ry="1" style="fill:#b46e5a"/><path d="M43.46,3v.02a7.975,7.975,0,0,0-6.62,4.42A3.94,3.94,0,0,1,36,5a4,4,0,0,1,7.46-2Z" style="fill:#e6b269"/><path d="M47,11a5,5,0,0,1,4.56,2.95l-.1.05A3.98,3.98,0,0,1,48,16H26a3.98,3.98,0,0,1-3.46-2l-.1-.05A5,5,0,0,1,27,11Z" style="fill:#007145"/><path d="M50,15.36A4.508,4.508,0,0,0,45.929,13H28.071A4.508,4.508,0,0,0,24,15.36l.089.04c.039.06.086.115.129.173A3.962,3.962,0,0,0,26,16H48a3.962,3.962,0,0,0,1.782-.427c.043-.058.09-.113.129-.173Z" style="fill:#2a2e33"/><path d="M52,16v7a4,4,0,0,1-4,4H26a4,4,0,0,1-4-4V16a5.026,5.026,0,0,1,.44-2.05l.1.05A3.98,3.98,0,0,0,26,16H48a3.98,3.98,0,0,0,3.46-2l.1-.05A5.026,5.026,0,0,1,52,16Z" style="fill:#009e60"/><path d="M18.69,62.4a10.355,10.355,0,0,1-3.48.6H14.4A10.4,10.4,0,0,1,9.06,43.68C9.39,46.65,11.15,58.51,19,62l.09.26Z" style="fill:#009e60"/><path d="M46,42h1.57a19.963,19.963,0,0,1-11.5,14.16L36,56V52.67C36,46.78,40.11,42,46,42Z" style="fill:#009e60"/><path d="M48,27V37.87A20.166,20.166,0,0,1,47.57,42H46c-5.89,0-10,4.78-10,10.67V56l.07.16c-.45.21-.91.39-1.38.56l-15.6,5.54L19,62c-7.85-3.49-9.61-15.35-9.94-18.32a10.03,10.03,0,0,1,2.18-.99l5-1.59A13.992,13.992,0,0,0,26,27.76V27H48Z" style="fill:#eb2335"/><path d="M55,8a3.992,3.992,0,0,1-3,3.87h-.05A8.3,8.3,0,0,0,52,11a7.979,7.979,0,0,0-3.11-6.33L49,4.54A3.994,3.994,0,0,1,55,8Z" style="fill:#e6b269"/><path d="M35.86,14.17a2.109,2.109,0,0,1,.13.94,70.661,70.661,0,0,1-1.5,8.39C34,26,33.04,27,31.24,27A3.379,3.379,0,0,1,28,23.5a12.325,12.325,0,0,1,2.49-7.43,14.076,14.076,0,0,1,2.68-2.71A1.7,1.7,0,0,1,34.21,13,1.8,1.8,0,0,1,35.86,14.17Z" style="fill:#ffd48a"/><path d="M60,25.5A3.379,3.379,0,0,1,56.76,29c-1.8,0-2.76-1-3.25-3.5a70.661,70.661,0,0,1-1.5-8.39.615.615,0,0,1-.01-.13v-.07a1.912,1.912,0,0,1,.31-1.06A1.752,1.752,0,0,1,53.79,15a1.7,1.7,0,0,1,1.04.36A12.875,12.875,0,0,1,60,25.5Z" style="fill:#ffd48a"/><path d="M36.84,7.44a7.975,7.975,0,0,1,6.62-4.42c.18-.01.36-.02.54-.02a8,8,0,0,1,8,8,8.3,8.3,0,0,1-.05.87.57.57,0,0,1-.01.13A8,8,0,0,1,36,11,7.878,7.878,0,0,1,36.84,7.44Zm6.86,4.74,1.66-1.49-1.92-.66Z" style="fill:#e6b269"/><path d="M48.95,14.845a5.775,5.775,0,0,0-5.185-6.279,5.758,5.758,0,0,0-6.715,4.589,5.048,5.048,0,0,0,.133,2.035,7.946,7.946,0,0,0,9.169,3.444A5.273,5.273,0,0,0,48.95,14.845ZM43.7,12.18l-.26-2.15,1.92.66Z" style="fill:#ffd48a"/><polygon points="45.36 10.69 43.7 12.18 43.44 10.03 45.36 10.69" style="fill:#333940"/><path d="M54,8a3,3,0,0,0-3-3,2.963,2.963,0,0,0-1.437.382,7.967,7.967,0,0,1,2.419,5.44A2.99,2.99,0,0,0,54,8Z" style="fill:#ab8246"/><polygon points="43.7 12.18 45.36 10.69 43.44 10.03 43.7 12.18" style="fill:none"/><path d="M42.562,3.14A2.985,2.985,0,0,0,37.23,5a2.925,2.925,0,0,0,.315,1.3A7.951,7.951,0,0,1,42.562,3.14Z" style="fill:#ab8246"/><path d="M36.261,13H35a1.968,1.968,0,0,0-.451.056A1.82,1.82,0,0,1,35.86,14.17a2.109,2.109,0,0,1,.13.94c-.06.617-.141,1.254-.234,1.89H37a1.983,1.983,0,0,0,1.256-.455A7.972,7.972,0,0,1,36.63,14.12,7.729,7.729,0,0,1,36.261,13Z" style="fill:#8a6938"/><path d="M55.593,24.762l-1.056-5.81a2.5,2.5,0,0,1,1.354-2.691,13.238,13.238,0,0,0-1.061-.9A1.7,1.7,0,0,0,53.79,15a1.752,1.752,0,0,0-1.48.85A1.912,1.912,0,0,0,52,16.91v.07a.615.615,0,0,0,.01.13,70.661,70.661,0,0,0,1.5,8.39C54,28,54.96,29,56.76,29a3.277,3.277,0,0,0,3.092-2.51,2.717,2.717,0,0,1-4.259-1.728Z" style="fill:#e6b269"/><path d="M52,13h-.254a7.917,7.917,0,0,1-3.871,5h4.234c-.036-.3-.07-.6-.1-.89a.615.615,0,0,1-.01-.13v-.07a2,2,0,0,1,.076-.534A1,1,0,0,1,52,16Z" style="fill:#8a6938"/><path d="M53.79,15a1.7,1.7,0,0,1,1.04.36l.169.132A2.5,2.5,0,0,0,52.5,13H52v3a1,1,0,0,0,.076.376,1.81,1.81,0,0,1,.234-.526A1.752,1.752,0,0,1,53.79,15Z" style="fill:#c99c5c"/><path d="M35.86,14.17A1.8,1.8,0,0,0,34.21,13a1.7,1.7,0,0,0-1.04.36A14.276,14.276,0,0,0,31.9,14.474l.179.045a1.994,1.994,0,0,1,1.463,2.394c-.4,1.7-.97,4.2-1.29,6.052a2,2,0,0,1-2.361,1.612l-1.818-.363A3.316,3.316,0,0,0,31.24,27c1.8,0,2.76-1,3.25-3.5a70.661,70.661,0,0,0,1.5-8.39A2.109,2.109,0,0,0,35.86,14.17Z" style="fill:#e6b269"/><path d="M48.913,4.685a7.94,7.94,0,0,0-4.89-1.67c-.18,0-.36.01-.54.02a7.951,7.951,0,0,0-6.011,3.408A7.99,7.99,0,0,1,48.584,17.579a7.893,7.893,0,0,0,3.379-5.564.575.575,0,0,0,.01-.13,8.3,8.3,0,0,0,.05-.87A7.979,7.979,0,0,0,48.913,4.685Z" style="fill:#fac172"/><path d="M22.54,14l-.1-.05A5.026,5.026,0,0,0,22,16v7a3.982,3.982,0,0,0,2,3.446V15.463A3.986,3.986,0,0,1,22.54,14Z" style="fill:#00c477"/><path d="M26.247,21.779a1.991,1.991,0,0,0,1.8,2.2A3.6,3.6,0,0,1,28,23.5a12.325,12.325,0,0,1,2.49-7.43c.019-.025.038-.045.057-.07H27.065a1.989,1.989,0,0,0-.263.779Z" style="fill:#00613b"/><path d="M47.883,18a7.969,7.969,0,0,1-9.627-1.45A1.983,1.983,0,0,1,37,17H35.756c-.475,3.279-1.266,6.5-1.266,6.5C34,26,33.04,27,31.24,27h3.025a2,2,0,0,0,1.98-1.717L37,19l.828.828A4,4,0,0,0,40.657,21h6.9a2,2,0,0,1,1.9,1.368l1.2,3.6A3.977,3.977,0,0,0,52,23V18H47.875Z" style="fill:#00613b"/><path d="M13.331,56.872a8.29,8.29,0,0,1-6.759-6.249,14.933,14.933,0,0,1-.315-4.473A10.4,10.4,0,0,0,14.4,63h.81a10.355,10.355,0,0,0,3.48-.6l.4-.14L19,62A13.3,13.3,0,0,1,13.331,56.872Z" style="fill:#00613b"/><path d="M42.216,42.738a15.768,15.768,0,0,1-6.074,8.128A12.279,12.279,0,0,0,36,52.67V56l.07.16A19.963,19.963,0,0,0,47.57,42H46A9.923,9.923,0,0,0,42.216,42.738Z" style="fill:#00613b"/><path d="M36,52.67a12.279,12.279,0,0,1,.142-1.8c-3.993,2.926-10.435,5.486-20.85,6.118a8.635,8.635,0,0,1-1.961-.112A13.3,13.3,0,0,0,19,62l.09.26,15.6-5.54c.47-.17.93-.35,1.38-.56L36,56Z" style="fill:#c22026"/><path d="M31.24,27H26v.76A13.984,13.984,0,0,1,25.338,32h8.927a8.378,8.378,0,0,1,8.378,8.378,9.111,9.111,0,0,1-.427,2.36A9.923,9.923,0,0,1,46,42h1.57A20.166,20.166,0,0,0,48,37.87V27Z" style="fill:#ae0000"/><path d="M55.069,16.95c-.038.03-.067.066-.1.1a2.484,2.484,0,0,0-.453,1.229,1.489,1.489,0,0,0,.315.78l.155.2a1.5,1.5,0,0,0,2.684-.956A13.915,13.915,0,0,0,56.3,16.66,1.492,1.492,0,0,0,55.069,16.95Z" style="fill:#ffe8bf"/><path d="M57.152,19.655a1.5,1.5,0,0,0-.669,2.013,16.653,16.653,0,0,1,.789,1.839,1.5,1.5,0,0,0,2.616.389,12.11,12.11,0,0,0-1.366-4.225A1.491,1.491,0,0,0,57.152,19.655Z" style="fill:#ffe8bf"/><path d="M30.6,17.529a1.5,1.5,0,0,0,2.1-.273l.155-.2a1.494,1.494,0,0,0-1.114-2.428,13.444,13.444,0,0,0-1.254,1.44c-.145.2-.287.4-.428.616A1.493,1.493,0,0,0,30.6,17.529Z" style="fill:#ffe8bf"/><path d="M29,22.5a1.5,1.5,0,0,0,1.412-.995,16.653,16.653,0,0,1,.789-1.839,1.5,1.5,0,0,0-.669-2.013,1.478,1.478,0,0,0-.99-.119,12.185,12.185,0,0,0-1.469,4.636A1.442,1.442,0,0,0,29,22.5Z" style="fill:#ffe8bf"/><circle cx="48" cy="10" r="1" style="fill:#333940"/><circle cx="42" cy="8" r="1" style="fill:#333940"/><path d="M44.034,12.552a.5.5,0,0,1-.334.128.493.493,0,0,1-.176-.032.5.5,0,0,1-.32-.408l-.015-.123L42.543,13.8c-.079.13-.521.369-1.65-.019a.5.5,0,0,0-.326.946,3.152,3.152,0,0,0,2.127.14,3.311,3.311,0,0,0,1.715,1.18.477.477,0,0,0,.161.027.5.5,0,0,0,.16-.974c-.856-.29-1.272-.779-1.263-.918l.657-1.706Z" style="fill:#61362b"/><path d="M45.522,10.217,43.6,9.557a.5.5,0,0,0-.66.533l.246,2.027.015.123a.5.5,0,0,0,.32.408.493.493,0,0,0,.176.032.5.5,0,0,0,.334-.128l.09-.08,1.57-1.41a.5.5,0,0,0-.172-.845ZM44.068,11.85l-.368.33-.059-.49-.2-1.66,1.92.66Z" style="fill:#92563a"/><path d="M23.638,51.5l-.255.5h-.392a.183.183,0,0,0-.132.312l.314.307-.115.563a.186.186,0,0,0,.3.181l.451-.332.452.332a.186.186,0,0,0,.295-.181l-.115-.563.314-.307A.183.183,0,0,0,24.618,52h-.392l-.255-.5A.188.188,0,0,0,23.638,51.5Z" style="fill:#fffefe"/><path d="M30.638,44.5l-.255.5h-.392a.183.183,0,0,0-.132.312l.314.307-.115.563a.186.186,0,0,0,.3.181l.451-.332.452.332a.186.186,0,0,0,.295-.181l-.115-.563.314-.307A.183.183,0,0,0,31.618,45h-.392l-.255-.5A.188.188,0,0,0,30.638,44.5Z" style="fill:#fffefe"/><path d="M30.638,39.5l-.255.5h-.392a.183.183,0,0,0-.132.312l.314.307-.115.563a.186.186,0,0,0,.3.181l.451-.332.452.332a.186.186,0,0,0,.295-.181l-.115-.563.314-.307A.183.183,0,0,0,31.618,40h-.392l-.255-.5A.188.188,0,0,0,30.638,39.5Z" style="fill:#fffefe"/><path d="M33.638,34.5l-.255.5h-.392a.183.183,0,0,0-.132.312l.314.307-.115.563a.186.186,0,0,0,.3.181l.451-.332.452.332a.186.186,0,0,0,.3-.181l-.115-.563.314-.307A.183.183,0,0,0,34.618,35h-.392l-.255-.5A.188.188,0,0,0,33.638,34.5Z" style="fill:#fffefe"/><path d="M44.638,38.5l-.255.5h-.392a.183.183,0,0,0-.132.312l.314.307-.115.563a.186.186,0,0,0,.3.181l.451-.332.452.332a.186.186,0,0,0,.3-.181l-.115-.563.314-.307A.183.183,0,0,0,45.618,39h-.392l-.255-.5A.188.188,0,0,0,44.638,38.5Z" style="fill:#a4afe6"/><path d="M40.638,28.5l-.255.5h-.392a.183.183,0,0,0-.132.312l.314.307-.115.563a.186.186,0,0,0,.3.181l.451-.332.452.332a.186.186,0,0,0,.3-.181l-.115-.563.314-.307A.183.183,0,0,0,41.618,29h-.392l-.255-.5A.188.188,0,0,0,40.638,28.5Z" style="fill:#a4afe6"/><path d="M23.083,41.694l-.513.167-.268-.268a.176.176,0,0,0-.3.123l0,.423-.462.3a.18.18,0,0,0,.077.325l.535.082.081.534a.179.179,0,0,0,.325.077l.3-.462.423,0a.175.175,0,0,0,.123-.3l-.267-.267.166-.513A.182.182,0,0,0,23.083,41.694Z" style="fill:#fffefe"/><path d="M14.638,49.5l-.255.5h-.392a.183.183,0,0,0-.132.312l.314.307-.115.563a.186.186,0,0,0,.295.181l.451-.332.452.332a.186.186,0,0,0,.295-.181l-.115-.563.314-.307A.183.183,0,0,0,15.618,50h-.392l-.255-.5A.188.188,0,0,0,14.638,49.5Z" style="fill:#fffefe"/><path d="M36.721,43.752,36.6,44h-.2a.091.091,0,0,0-.066.155l.157.153-.058.281a.093.093,0,0,0,.147.091l.225-.166.226.166a.093.093,0,0,0,.147-.091l-.058-.281.157-.153A.091.091,0,0,0,37.21,44h-.2l-.126-.248A.094.094,0,0,0,36.721,43.752Z" style="fill:#fffefe"/><path d="M15.721,44.752,15.6,45h-.2a.091.091,0,0,0-.066.155l.157.153-.058.281a.093.093,0,0,0,.147.091l.225-.166.226.166a.093.093,0,0,0,.147-.091l-.058-.281.157-.153A.091.091,0,0,0,16.21,45h-.2l-.126-.248A.094.094,0,0,0,15.721,44.752Z" style="fill:#d0daed"/><path d="M24.721,46.752,24.6,47h-.2a.091.091,0,0,0-.066.155l.157.153-.058.281a.093.093,0,0,0,.147.091l.225-.166.226.166a.093.093,0,0,0,.147-.091l-.058-.281.157-.153A.091.091,0,0,0,25.21,47h-.2l-.126-.248A.094.094,0,0,0,24.721,46.752Z" style="fill:#fffefe"/><path d="M33.721,49.752,33.6,50h-.2a.091.091,0,0,0-.066.155l.157.153-.058.281a.093.093,0,0,0,.147.091l.225-.166.226.166a.093.093,0,0,0,.147-.091l-.058-.281.157-.153A.091.091,0,0,0,34.21,50h-.2l-.126-.248A.094.094,0,0,0,33.721,49.752Z" style="fill:#d0daed"/><path d="M28.347,55.459l.083.256-.133.134a.088.088,0,0,0,.061.151l.212,0,.152.231a.09.09,0,0,0,.163-.039l.04-.267.268-.041a.09.09,0,0,0,.038-.162L29,55.567l0-.211a.088.088,0,0,0-.151-.061l-.134.133-.256-.083A.091.091,0,0,0,28.347,55.459Z" style="fill:#a4afe6"/><path d="M20.347,57.459l.083.256-.133.134a.088.088,0,0,0,.061.151l.212,0,.152.231a.09.09,0,0,0,.163-.039l.04-.267.268-.041a.09.09,0,0,0,.038-.162L21,57.567l0-.211a.088.088,0,0,0-.151-.061l-.134.133-.256-.083A.091.091,0,0,0,20.347,57.459Z" style="fill:#a4afe6"/><path d="M26.721,33.752,26.6,34h-.2a.091.091,0,0,0-.066.155l.157.153-.058.281a.093.093,0,0,0,.147.091l.225-.166.226.166a.093.093,0,0,0,.147-.091l-.058-.281.157-.153A.091.091,0,0,0,27.21,34h-.2l-.126-.248A.094.094,0,0,0,26.721,33.752Z" style="fill:#d0daed"/><path d="M38.721,35.752,38.6,36h-.2a.091.091,0,0,0-.066.155l.157.153-.058.281a.093.093,0,0,0,.147.091l.225-.166.226.166a.093.093,0,0,0,.147-.091l-.058-.281.157-.153A.091.091,0,0,0,39.21,36h-.2l-.126-.248A.094.094,0,0,0,38.721,35.752Z" style="fill:#fffefe"/><path d="M31.721,29.752,31.6,30h-.2a.091.091,0,0,0-.066.155l.157.153-.058.281a.093.093,0,0,0,.147.091l.225-.166.226.166a.093.093,0,0,0,.147-.091l-.058-.281.157-.153A.091.091,0,0,0,32.21,30h-.2l-.126-.248A.094.094,0,0,0,31.721,29.752Z" style="fill:#a4afe6"/><path d="M44.347,31.459l.083.256-.133.134a.088.088,0,0,0,.061.151l.212,0,.152.231a.09.09,0,0,0,.163-.039l.04-.267.268-.041a.09.09,0,0,0,.038-.162L45,31.567l0-.211a.088.088,0,0,0-.151-.061l-.134.133-.256-.083A.091.091,0,0,0,44.347,31.459Z" style="fill:#a4afe6"/><path d="M28,11c0-.368-.057-9-5-9H21.61a3.6,3.6,0,0,0-2,6.6L24,11.535V12l0,.013A4.961,4.961,0,0,1,27,11Zm-2.445-.832-4.84-3.23A1.594,1.594,0,0,1,20,5.61,1.612,1.612,0,0,1,21.61,4H23c2.439,0,3,5.176,3,7A1,1,0,0,0,25.555,10.168Z" style="fill:#ae0000"/><ellipse cx="11.684" cy="46.695" rx="1.642" ry="2.286" transform="translate(-29.604 21.953) rotate(-45.02)" style="fill:#f6fafd"/><ellipse cx="48.427" cy="6.208" rx="0.413" ry="0.574" transform="translate(9.804 36.075) rotate(-45.02)" style="fill:#f6fafd"/><ellipse cx="49.682" cy="7.708" rx="0.825" ry="1.148" transform="translate(9.111 37.402) rotate(-45.02)" style="fill:#f6fafd"/></g></svg>