<svg xmlns="http://www.w3.org/2000/svg" viewBox="0 0 64 64"><g id="_10-christmas_ball" data-name="10-christmas ball"><path d="M27,15c0,1.1,2.24,2,5,2s5-.9,5-2V13.5a25,25,0,1,1-10,0Z" style="fill:#008f57"/><ellipse cx="32" cy="5" rx="2" ry="4" style="fill:#fafcff"/><path d="M37,13.5V15c0,1.1-2.24,2-5,2s-5-.9-5-2V11a2.006,2.006,0,0,1,2-2h6a2.006,2.006,0,0,1,2,2Z" style="fill:#dbdbee"/><path d="M32,13c-2.76,0-5-.9-5-2v4c0,1.1,2.24,2,5,2s5-.9,5-2V11C37,12.1,34.76,13,32,13Z" style="fill:#a4afe6"/><path d="M37,13.5v1.124a21,21,0,1,1-10,0V13.5a25,25,0,1,0,10,0Z" style="fill:#004a2d"/><circle cx="39.5" cy="27.5" r="8.5" style="fill:#00c477"/><ellipse cx="32" cy="5" rx="1.5" ry="3.5" style="fill:none"/><path d="M34.5,5C34.5,2.477,33.4.5,32,.5S29.5,2.477,29.5,5a5.521,5.521,0,0,0,1.361,4h2.278A5.521,5.521,0,0,0,34.5,5Zm-4,0c0-2,.792-3.5,1.5-3.5S33.5,3,33.5,5,32.708,8.5,32,8.5,30.5,7,30.5,5Z" style="fill:#f0af4c"/><path d="M46,28H43.414l1.293-1.293a1,1,0,0,0-1.414-1.414L42,26.586V24a1,1,0,0,0-2,0v4.586l-1,1V27a1,1,0,0,0-2,0v4.586l-5,5-5-5V27a1,1,0,0,0-2,0v2.586l-1-1V24a1,1,0,0,0-2,0v2.586l-1.293-1.293a1,1,0,0,0-1.414,1.414L20.586,28H18a1,1,0,0,0,0,2h4.586l1,1H21a1,1,0,0,0,0,2h4.586l5,5-5,5H21a1,1,0,0,0,0,2h2.586l-1,1H19a1,1,0,0,0,0,2h1.586l-1.293,1.293a1,1,0,1,0,1.414,1.414L22,49.414V51a1,1,0,0,0,2,0V47.414l1-1V49a1,1,0,0,0,2,0V44.414l5-5,5,5V49a1,1,0,0,0,2,0V46.414l1,1V51a1,1,0,0,0,2,0V49.414l1.293,1.293a1,1,0,0,0,1.414-1.414L43.414,48H45a1,1,0,0,0,0-2H41.414l-1-1H43a1,1,0,0,0,0-2H38.414l-5-5,5-5H43a1,1,0,0,0,0-2H40.414l1-1H46a1,1,0,0,0,0-2Z" style="fill:#a4afe6"/><path d="M50,37H47.414l2.293-2.293a1,1,0,0,0-1.414-1.414L44.586,37H42.414l4.293-4.293a1,1,0,0,0-1.414-1.414L39.586,37h-.717l.963-1.445a1,1,0,1,0-1.664-1.11L36.465,37H33V33.535l2.555-1.7a1,1,0,1,0-1.11-1.664L33,31.132v-.718l5.707-5.707a1,1,0,0,0-1.414-1.414L33,27.586V25.414l3.707-3.707a1,1,0,0,0-1.414-1.414L33,22.586V20a1,1,0,0,0-2,0v2.586l-2.293-2.293a1,1,0,0,0-1.414,1.414L31,25.414v2.172l-4.293-4.293a1,1,0,0,0-1.414,1.414L31,30.414v.718l-1.445-.964a1,1,0,0,0-1.11,1.664L31,33.535V37H27.535l-1.7-2.555a1,1,0,0,0-1.664,1.11L25.131,37h-.717l-5.707-5.707a1,1,0,0,0-1.414,1.414L21.586,37H19.414l-3.707-3.707a1,1,0,0,0-1.414,1.414L16.586,37H14a1,1,0,0,0,0,2h2.586l-2.293,2.293a1,1,0,1,0,1.414,1.414L19.414,39h2.172l-4.293,4.293a1,1,0,1,0,1.414,1.414L24.414,39h.717l-.963,1.445a1,1,0,0,0,1.664,1.11L27.535,39H31v3.465l-2.555,1.7a1,1,0,0,0,1.11,1.664L31,44.868v.718l-5.707,5.707a1,1,0,0,0,1.414,1.414L31,48.414v2.172l-3.707,3.707a1,1,0,0,0,1.414,1.414L31,53.414V56a1,1,0,0,0,2,0V53.414l2.293,2.293a1,1,0,0,0,1.414-1.414L33,50.586V48.414l4.293,4.293a1,1,0,0,0,1.414-1.414L33,45.586v-.718l1.445.964a1,1,0,1,0,1.11-1.664L33,42.465V39h3.465l1.7,2.555a1,1,0,1,0,1.664-1.11L38.869,39h.717l5.707,5.707a1,1,0,0,0,1.414-1.414L42.414,39h2.172l3.707,3.707a1,1,0,0,0,1.414-1.414L47.414,39H50a1,1,0,0,0,0-2Z" style="fill:#dbdbee"/><path d="M38.414,33H43a1,1,0,0,0,0-2H40.414l1-1H46a1,1,0,0,0,0-2H43.414l1.293-1.293a1,1,0,0,0-1.414-1.414L42,26.586V24a1,1,0,0,0-2,0v4.586l-1,1V27a1,1,0,0,0-2,0v4.586l-2.659,2.659A8.522,8.522,0,0,0,36.118,35.3Z" style="fill:#ebebff"/><path d="M45.293,31.293l-4.616,4.616a8.5,8.5,0,0,0,6.251-4.281,1,1,0,0,0-1.635-.335Z" style="fill:#fffefe"/><path d="M39.536,36l.3-.443a1,1,0,1,0-1.664-1.11l-.842,1.264A8.472,8.472,0,0,0,39.5,36Z" style="fill:#fffefe"/><path d="M35.555,31.832a1,1,0,1,0-1.11-1.664L33,31.132v-.718l5.707-5.707a1,1,0,0,0-1.414-1.414L33,27.586V25.414l3.707-3.707a1,1,0,0,0-1.414-1.414L33,22.586v-.558a8.478,8.478,0,0,0,.319,11.3Z" style="fill:#fffefe"/><path d="M29,12.589V9a2.006,2.006,0,0,0-2,2C27,11.649,27.792,12.223,29,12.589Z" style="fill:#c3c3ee"/><path d="M29,13v-.411c-1.208-.366-2-.94-2-1.589v4c0,1.1,2.24,2,5,2s5-.9,5-2H31A2,2,0,0,1,29,13Z" style="fill:#8192e6"/><ellipse cx="50.684" cy="29.695" rx="1.642" ry="2.286" transform="translate(-6.147 44.556) rotate(-45.02)" style="fill:#f6fafd"/><ellipse cx="51.682" cy="33.708" rx="0.825" ry="1.148" transform="translate(-8.694 46.438) rotate(-45.02)" style="fill:#f6fafd"/><ellipse cx="34.427" cy="11.208" rx="0.413" ry="0.574" transform="translate(2.164 27.638) rotate(-45.02)" style="fill:#f6fafd"/><path d="M27.293,55.707a1,1,0,0,0,1.4.008c-.543-.086-1.079-.189-1.607-.316A1,1,0,0,0,27.293,55.707Z" style="fill:#a4afe6"/><path d="M36,56a.981.981,0,0,0,.912-.6c-.528.127-1.064.23-1.607.316A1,1,0,0,0,36,56Z" style="fill:#a4afe6"/><path d="M31,55.95V56a1,1,0,0,0,2,0v-.05c-.334.015-.662.05-1,.05S31.334,55.965,31,55.95Z" style="fill:#a4afe6"/></g></svg>