<svg xmlns="http://www.w3.org/2000/svg" viewBox="0 0 64 64"><g id="_14-glove" data-name="14-glove"><path d="M55,51v4a4,4,0,0,1-4,4H35V55a4,4,0,0,0-4-4H30l1.84-2.95c.22-.35.43-.7.62-1.05H51A4,4,0,0,1,55,51Z" style="fill:#ccf"/><path d="M35,55v4a4,4,0,0,1-4,4H9a4,4,0,0,1-4-4V55a4,4,0,0,1,4-4H31A4,4,0,0,1,35,55Z" style="fill:#ebebff"/><path d="M63,22.77v.44a4.783,4.783,0,0,1-1.18,3.14L56,33l-.02.13a29.849,29.849,0,0,1-4.14,10.92L50,47H32.46a29.678,29.678,0,0,0,3.52-9.87L36,37l5.82-6.65A4.783,4.783,0,0,0,43,27.21v-.44a4.765,4.765,0,0,0-8.43-3.05L31,28V20A14.953,14.953,0,0,0,23.84,7.22,15,15,0,0,1,51,16v8l3.57-4.28A4.765,4.765,0,0,1,63,22.77Z" style="fill:#ae0000"/><path d="M32.46,47c-.19.35-.4.7-.62,1.05L30,51H9L6.7,48.12A25.993,25.993,0,0,1,1,31.88V20a15,15,0,0,1,30,0v8l3.57-4.28A4.765,4.765,0,0,1,43,26.77v.44a4.783,4.783,0,0,1-1.18,3.14L36,37l-.02.13A29.678,29.678,0,0,1,32.46,47Z" style="fill:#eb2335"/><path d="M33,60H12a3,3,0,0,1-3-3V53a2,2,0,0,1,2-2H9a4,4,0,0,0-4,4v4a4,4,0,0,0,4,4H31a4,4,0,0,0,4-4V58A2,2,0,0,1,33,60Z" style="fill:#ccf"/><path d="M28,19v6a3,3,0,0,0,3,3V20A15.018,15.018,0,0,0,16,5c-.311,0-.612.036-.917.055A13.991,13.991,0,0,1,28,19Z" style="fill:#c22026"/><path d="M41.551,23.517a4.446,4.446,0,0,0-4.632-1.324,8.9,8.9,0,0,1,2.564,1.019,3.951,3.951,0,0,1,.892,5.819l-4.427,5.534a17.483,17.483,0,0,0-2.934,5.394L32.9,40.3A8.336,8.336,0,0,1,24.992,46H20.017a16.084,16.084,0,0,1-9.961-3.306A15.745,15.745,0,0,1,4,30.292V16A10.983,10.983,0,0,1,9.366,6.565,14.976,14.976,0,0,0,1,20V31.88A25.993,25.993,0,0,0,6.7,48.12L9,51H30l1.84-2.95c.22-.35.43-.7.62-1.05.237-.413.459-.835.678-1.258a28.225,28.225,0,0,0,2.853-8.684L36,37l5.82-6.65A4.766,4.766,0,0,0,43,27.21h0A5.234,5.234,0,0,0,41.551,23.517Z" style="fill:#c22026"/><path d="M53,55H42.051A3.051,3.051,0,0,1,39,51.949a2.288,2.288,0,0,0-.671-1.62,2.292,2.292,0,0,1-.287-2.892L38.333,47H32.46c-.19.35-.4.7-.62,1.05L30,51h1a4,4,0,0,1,4,4v4H51a4,4,0,0,0,4-4V53A2,2,0,0,1,53,55Z" style="fill:#a4afe6"/><path d="M48,15v6a3,3,0,0,0,3,3V16A15.005,15.005,0,0,0,36,1c-.311,0-.612.036-.917.055A13.991,13.991,0,0,1,48,15Z" style="fill:#911a1c"/><path d="M61.54,19.5a4.45,4.45,0,0,0-4.621-1.31,8.9,8.9,0,0,1,2.564,1.019,3.951,3.951,0,0,1,.892,5.819l-4.427,5.533a17.5,17.5,0,0,0-2.934,5.4L52.9,36.3A8.336,8.336,0,0,1,44.992,42H42.953a2.336,2.336,0,0,1-2.3-2.721c.116-.694.214-1.4.332-2.1l.02-.13,5.82-6.65A4.766,4.766,0,0,0,48,27.26v-.233a4.941,4.941,0,0,0-3.046-4.653,4.734,4.734,0,0,0-4.229.394A4.75,4.75,0,0,1,43,26.82v.44a4.766,4.766,0,0,1-1.18,3.14L36,37.05l-.02.13a29.682,29.682,0,0,1-1.055,4.232A29.516,29.516,0,0,1,32.46,47H33c-.009.016,2.009-.016,2,0H50l1.84-2.95a29.849,29.849,0,0,0,4.14-10.92L56,33l5.82-6.65A4.766,4.766,0,0,0,63,23.21h0A5.232,5.232,0,0,0,61.54,19.5Z" style="fill:#911a1c"/><path d="M34.57,23.77A4.778,4.778,0,0,1,36,22.616V20.05A15.036,15.036,0,0,0,25.213,5.655,15.013,15.013,0,0,0,23.84,7.27,14.953,14.953,0,0,1,31,20.05v8Z" style="fill:#911a1c"/><path d="M31,51H28a2,2,0,0,0,0,4h3v3a2,2,0,1,0,4,0V55A4,4,0,0,0,31,51Z" style="fill:#fff"/><path d="M20,53a2,2,0,0,0,2,2h1a2,2,0,0,0,0-4H22A2,2,0,0,0,20,53Z" style="fill:#fff"/><path d="M29,33.5H26.941l1.476-2.224a.5.5,0,1,0-.834-.552L25.742,33.5H23.809l1.638-3.276a.5.5,0,0,0-.894-.448L22.691,33.5H18.207l2-2H23a.5.5,0,0,0,0-1H21.207l2-2H25a.5.5,0,0,0,0-1H23.5V26a.5.5,0,0,0-1,0v1.793l-2,2V28a.5.5,0,0,0-1,0v2.793l-2,2V28.309l3.724-1.862a.5.5,0,1,0-.448-.894L17.5,27.191V25.334l2.784-1.922a.5.5,0,0,0-.568-.824L17.5,24.118V22a.5.5,0,0,0-1,0v2.059l-2.224-1.476a.5.5,0,1,0-.552.834L16.5,25.258v1.933l-3.276-1.638a.5.5,0,1,0-.448.894L16.5,28.309v4.484l-2-2V28a.5.5,0,0,0-1,0v1.793l-2-2V26a.5.5,0,0,0-1,0v1.5H9a.5.5,0,0,0,0,1h1.793l2,2H11a.5.5,0,0,0,0,1h2.793l2,2H11.309L9.447,29.776a.5.5,0,1,0-.894.448L10.191,33.5H8.334L6.412,30.716a.5.5,0,0,0-.824.568L7.118,33.5H5a.5.5,0,0,0,0,1H7.059L5.583,36.724a.5.5,0,0,0,.834.552L8.258,34.5h1.933L8.553,37.776a.5.5,0,1,0,.894.448L11.309,34.5h4.484l-2,2H11a.5.5,0,0,0,0,1h1.793l-2,2H9a.5.5,0,0,0,0,1h1.5V42a.5.5,0,0,0,1,0V40.207l2-2V40a.5.5,0,0,0,1,0V37.207l2-2v4.484l-3.724,1.862a.5.5,0,1,0,.448.894L16.5,40.809v1.857l-2.784,1.923a.5.5,0,1,0,.568.822l2.216-1.53V46a.5.5,0,0,0,1,0V43.941l2.224,1.476a.5.5,0,1,0,.552-.834L17.5,42.741V40.809l3.276,1.638a.5.5,0,1,0,.448-.894L17.5,39.691V35.207l2,2V40a.5.5,0,0,0,1,0V38.207l2,2V42a.5.5,0,0,0,1,0V40.5H25a.5.5,0,0,0,0-1H23.207l-2-2H23a.5.5,0,0,0,0-1H20.207l-2-2h4.484l1.862,3.724a.5.5,0,0,0,.894-.448L23.809,34.5h1.857l1.922,2.784A.5.5,0,0,0,28,37.5a.491.491,0,0,0,.284-.089.5.5,0,0,0,.128-.7L26.882,34.5H29a.5.5,0,0,0,0-1Z" style="fill:#ebebff"/><path d="M51,47H48a2,2,0,0,0,0,4h3v2a2,2,0,1,0,4,0V51A4,4,0,0,0,51,47Z" style="fill:#ebebff"/><path d="M40,49a2,2,0,0,0,2,2h1a2,2,0,0,0,0-4H42A2,2,0,0,0,40,49Z" style="fill:#ebebff"/></g></svg>