<svg xmlns="http://www.w3.org/2000/svg" viewBox="0 0 64 64"><g id="_15-gift" data-name="15-gift"><path d="M26.81,2.13,29,6H28a2.006,2.006,0,0,0-2,2V6s-1-3-7-3H18V2.86A1.974,1.974,0,0,1,20.07,1h4.84A2.067,2.067,0,0,1,26.81,2.13Z" style="fill:#911a1c"/><path d="M35,6l2.19-3.87A2.067,2.067,0,0,1,39.09,1h4.84A1.974,1.974,0,0,1,46,2.86V3H45c-6,0-7,3-7,3V8a2.006,2.006,0,0,0-2-2Z" style="fill:#911a1c"/><path d="M53,11v1.33A1.882,1.882,0,0,1,50.96,14H47.82a1.469,1.469,0,0,0,.18-.71V4.71A1.469,1.469,0,0,0,47.82,4h3.14A1.882,1.882,0,0,1,53,5.67Z" style="fill:#c22026"/><path d="M38,9v1a2.006,2.006,0,0,1-2,2H28a2.006,2.006,0,0,1-2-2V8a2.006,2.006,0,0,1,2-2h8a2.006,2.006,0,0,1,2,2Z" style="fill:#c22026"/><path d="M13.04,4h3.14a1.469,1.469,0,0,0-.18.71v8.58a1.469,1.469,0,0,0,.18.71H13.04A1.882,1.882,0,0,1,11,12.33V5.67A1.882,1.882,0,0,1,13.04,4Z" style="fill:#c22026"/><path d="M47.82,4a1.469,1.469,0,0,1,.18.71v8.58a1.469,1.469,0,0,1-.18.71A2.046,2.046,0,0,1,46,15H45a14.828,14.828,0,0,1-1.98-.12v-.01C38.77,14.31,38,12,38,12V6s1-3,7-3h1A2.046,2.046,0,0,1,47.82,4Z" style="fill:#c22026"/><path d="M19,3c6,0,7,3,7,3v6s-.77,2.31-5.02,2.87v.01A14.828,14.828,0,0,1,19,15H18a2.046,2.046,0,0,1-1.82-1,1.469,1.469,0,0,1-.18-.71V4.71A1.469,1.469,0,0,1,16.18,4,2.046,2.046,0,0,1,18,3Z" style="fill:#c22026"/><path d="M36,12a2.006,2.006,0,0,0,2-2v2s.77,2.31,5.02,2.87v.01L43,15l3,2V34l-4-3-4,3V17l-5-5Z" style="fill:#f2c373"/><path d="M28,12h3l-5,5V34l-4-3-4,3V17l3-2-.02-.12v-.01C25.23,14.31,26,12,26,12V10A2.006,2.006,0,0,0,28,12Z" style="fill:#f2c373"/><path d="M59.2,12.44l2.87,3.45A3.989,3.989,0,0,1,63,18.45V19c0-1.1-.9-2-3-2H46l-3-2,.02-.12A14.828,14.828,0,0,0,45,15h1a2.046,2.046,0,0,0,1.82-1h3.14A1.882,1.882,0,0,0,53,12.33V11h3.13A4.012,4.012,0,0,1,59.2,12.44Z" style="fill:#009e60"/><polygon points="33 12 38 17 26 17 31 12 33 12" style="fill:#009e60"/><path d="M1,18.45a3.989,3.989,0,0,1,.93-2.56L4.8,12.44A4.012,4.012,0,0,1,7.87,11H11v1.33A1.882,1.882,0,0,0,13.04,14h3.14A2.046,2.046,0,0,0,18,15h1a14.828,14.828,0,0,0,1.98-.12L21,15l-3,2H3a2.006,2.006,0,0,0-2,2Z" style="fill:#009e60"/><path d="M18,17V29H3a2.006,2.006,0,0,1-2-2V19a2.006,2.006,0,0,1,2-2Z" style="fill:#00613b"/><path d="M63,19v8a2.006,2.006,0,0,1-2,2H46V17H60C62.1,17,63,17.9,63,19Z" style="fill:#00613b"/><rect x="26" y="17" width="12" height="12" style="fill:#00613b"/><path d="M60,29V59a4,4,0,0,1-4,4H8a4,4,0,0,1-4-4V29H18v5l4-3,4,3V29H38v5l4-3,4,3V29Z" style="fill:#eb2335"/><path d="M32.97,36.6,33.99,39h1.99a1,1,0,0,1,.68,1.76l-1.41,1.38.53,2.58a1.078,1.078,0,0,1-1.71,1.06L32,44.26l-2.07,1.52a1.078,1.078,0,0,1-1.71-1.06l.53-2.58-1.41-1.38A1,1,0,0,1,28.02,39h1.99l1.02-2.4A1.084,1.084,0,0,1,32.97,36.6Z" style="fill:#f0af4c"/><path d="M50,9V4.71A1.469,1.469,0,0,0,49.82,4h-2a1.469,1.469,0,0,1,.18.71v8.58a1.469,1.469,0,0,1-.18.71h2a1.469,1.469,0,0,0,.18-.71Z" style="fill:#911a1c"/><path d="M14,9V4.71A1.469,1.469,0,0,1,14.18,4h2a1.469,1.469,0,0,0-.18.71v8.58a1.469,1.469,0,0,0,.18.71h-2a1.469,1.469,0,0,1-.18-.71Z" style="fill:#911a1c"/><rect x="46" y="29" width="14" height="4" style="fill:#911a1c"/><path d="M8,43V37a4,4,0,0,1,4-4h3v5l5-3,5,3V33.25L24.667,33,22,31l-2.667,2L18,34V29H4V59a4,4,0,0,0,4,4H56a4,4,0,0,0,4-4H24A16,16,0,0,1,8,43Z" style="fill:#911a1c"/><polygon points="35 38 40 35 45 38 45 33.25 44.667 33 42 31 39.333 33 38 34 38 33 38 29 26 29 26 33 35 33 35 38" style="fill:#911a1c"/><path d="M54.97,36.6,55.99,39h1.99a1,1,0,0,1,.68,1.76l-1.41,1.38.53,2.58a1.078,1.078,0,0,1-1.71,1.06L54,44.26l-2.07,1.52a1.078,1.078,0,0,1-1.71-1.06l.53-2.58-1.41-1.38A1,1,0,0,1,50.02,39h1.99l1.02-2.4A1.084,1.084,0,0,1,54.97,36.6Z" style="fill:#f0af4c"/><path d="M43.97,50.6,44.99,53h1.99a1,1,0,0,1,.68,1.76l-1.41,1.38.53,2.58a1.078,1.078,0,0,1-1.71,1.06L43,58.26l-2.07,1.52a1.078,1.078,0,0,1-1.71-1.06l.53-2.58-1.41-1.38A1,1,0,0,1,39.02,53h1.99l1.02-2.4A1.084,1.084,0,0,1,43.97,50.6Z" style="fill:#f0af4c"/><path d="M32.97,36.6,33.99,39h1.99a1,1,0,0,1,.68,1.76l-1.41,1.38.53,2.58a1.078,1.078,0,0,1-1.71,1.06L32,44.26l-2.07,1.52a1.078,1.078,0,0,1-1.71-1.06l.53-2.58-1.41-1.38A1,1,0,0,1,28.02,39h1.99l1.02-2.4A1.084,1.084,0,0,1,32.97,36.6Z" style="fill:#f0af4c"/><path d="M11.97,36.6,12.99,39h1.99a1,1,0,0,1,.68,1.76l-1.41,1.38.53,2.58a1.078,1.078,0,0,1-1.71,1.06L11,44.26,8.93,45.78a1.078,1.078,0,0,1-1.71-1.06l.53-2.58L6.34,40.76A1,1,0,0,1,7.02,39H9.01l1.02-2.4A1.084,1.084,0,0,1,11.97,36.6Z" style="fill:#f0af4c"/><path d="M21.97,50.6,22.99,53h1.99a1,1,0,0,1,.68,1.76l-1.41,1.38.53,2.58a1.078,1.078,0,0,1-1.71,1.06L21,58.26l-2.07,1.52a1.078,1.078,0,0,1-1.71-1.06l.53-2.58-1.41-1.38A1,1,0,0,1,17.02,53h1.99l1.02-2.4A1.084,1.084,0,0,1,21.97,50.6Z" style="fill:#f0af4c"/><path d="M1,19v1H13a2,2,0,0,1,2,2v7h3V17H3A2.006,2.006,0,0,0,1,19Z" style="fill:#004a2d"/><path d="M51,20H63V19c0-1.1-.9-2-3-2H46V29h3V22A2,2,0,0,1,51,20Z" style="fill:#004a2d"/><path d="M26,29h2V22a2,2,0,0,1,2-2h4a2,2,0,0,1,2,2v7h2V17H26Z" style="fill:#004a2d"/><rect x="56" y="40" width="4" height="18" rx="2" ry="2" style="fill:#ff5968"/><rect x="56" y="34" width="4" height="5" rx="2" ry="2" style="fill:#ff5968"/><path d="M36,11H28a2.006,2.006,0,0,1-2-2v1a2.006,2.006,0,0,0,2,2h8a2.006,2.006,0,0,0,2-2V9A2.006,2.006,0,0,1,36,11Z" style="fill:#c99c5c"/><path d="M36,6H28a2.006,2.006,0,0,0-2,2V9a2.006,2.006,0,0,1,2-2h8a2.006,2.006,0,0,1,2,2V8A2.006,2.006,0,0,0,36,6Z" style="fill:#f2c373"/><path d="M47.82,4A2.046,2.046,0,0,0,46,3H45c-6,0-7,3-7,3V8s1-3,7-3h1a2.046,2.046,0,0,1,1.82,1,1.469,1.469,0,0,1,.18.71v-2A1.469,1.469,0,0,0,47.82,4Z" style="fill:#ffd48a"/><path d="M19,3H18a2.046,2.046,0,0,0-1.82,1,1.469,1.469,0,0,0-.18.71v2A1.469,1.469,0,0,1,16.18,6,2.046,2.046,0,0,1,18,5h1c6,0,7,3,7,3V6S25,3,19,3Z" style="fill:#ffd48a"/><path d="M46,13H45a14.828,14.828,0,0,1-1.98-.12v-.01C38.77,12.31,38,10,38,10v2s.77,2.31,5.02,2.87v.01A14.828,14.828,0,0,0,45,15h1a2.046,2.046,0,0,0,1.82-1,1.469,1.469,0,0,0,.18-.71v-2a1.469,1.469,0,0,1-.18.71A2.046,2.046,0,0,1,46,13Z" style="fill:#f2c373"/><path d="M20.98,12.87v.01A14.828,14.828,0,0,1,19,13H18a2.046,2.046,0,0,1-1.82-1,1.469,1.469,0,0,1-.18-.71v2a1.469,1.469,0,0,0,.18.71A2.046,2.046,0,0,0,18,15h1a14.828,14.828,0,0,0,1.98-.12v-.01C25.23,14.31,26,12,26,12V10S25.23,12.31,20.98,12.87Z" style="fill:#f2c373"/><path d="M43.02,14.88v-.01C38.77,14.31,38,12,38,12V10a2.006,2.006,0,0,1-2,2H33l5,5h8l-3-2Z" style="fill:#c99c5c"/><path d="M28,12a2.006,2.006,0,0,1-2-2v2s-.77,2.31-5.02,2.87v.01L21,15l-3,2h8l5-5Z" style="fill:#c99c5c"/><path d="M47.82,16h3.14A1.882,1.882,0,0,0,53,14.33v-2A1.882,1.882,0,0,1,50.96,14H47.82A2.046,2.046,0,0,1,46,15H45a14.828,14.828,0,0,1-1.98-.12L43,15l3,2A2.046,2.046,0,0,0,47.82,16Z" style="fill:#00613b"/><polygon points="31 12 29 14 31 14 33 14 35 14 33 12 31 12" style="fill:#00613b"/><path d="M20.98,14.88A14.828,14.828,0,0,1,19,15H18a2.046,2.046,0,0,1-1.82-1H13.04A1.882,1.882,0,0,1,11,12.33v2A1.882,1.882,0,0,0,13.04,16h3.14A2.046,2.046,0,0,0,18,17l3-2Z" style="fill:#00613b"/><path d="M36,12H33l2,2h1a2.006,2.006,0,0,0,2-2V10A2.006,2.006,0,0,1,36,12Z" style="fill:#a67d44"/><path d="M43.02,14.88v-.01C38.77,14.31,38,12,38,12v2s.77,2.31,5.02,2.87v.01A14.828,14.828,0,0,0,45,17h1l-3-2Z" style="fill:#a67d44"/><path d="M26,12a2.006,2.006,0,0,0,2,2h1l2-2H28a2.006,2.006,0,0,1-2-2v2Z" style="fill:#a67d44"/><path d="M20.98,16.87C25.23,16.31,26,14,26,14V12s-.77,2.31-5.02,2.87v.01L21,15l-3,2h1a14.828,14.828,0,0,0,1.98-.12Z" style="fill:#a67d44"/><rect x="1" y="25" width="14" height="2" style="fill:#f2c373"/><rect x="49" y="25" width="14" height="2" style="fill:#f2c373"/><rect x="28" y="25" width="8" height="2" style="fill:#f2c373"/><rect x="15" y="25" width="3" height="2" style="fill:#ad8451"/><rect x="46" y="25" width="3" height="2" style="fill:#ad8451"/><rect x="36" y="25" width="2" height="2" style="fill:#ad8451"/><rect x="26" y="25" width="2" height="2" style="fill:#ad8451"/><polygon points="39.293 17 39.5 17.207 39.5 32.875 40.5 32.125 40.5 17 39.293 17" style="fill:#c22026"/><polygon points="43.232 17 43.5 17.229 43.5 32.125 44.5 32.875 44.5 17 43.232 17" style="fill:#c22026"/><path d="M37.044,11.7,43.232,17H44.5v-.229l-2.41-2.066C38.661,13.959,38,12,38,12v-.8l-.264-.227A2,2,0,0,1,37.044,11.7Z" style="fill:#911a1c"/><polygon points="40.5 17 40.5 16.793 35.707 12 34.293 12 39.293 17 40.5 17" style="fill:#911a1c"/><polygon points="20.768 17 19.5 17 19.5 32.875 20.5 32.125 20.5 17.229 20.768 17" style="fill:#c22026"/><polygon points="24.707 17 23.5 17 23.5 32.125 24.5 32.875 24.5 17.207 24.707 17" style="fill:#c22026"/><polygon points="23.5 16.793 23.5 17 24.707 17 29.707 12 28.293 12 23.5 16.793" style="fill:#911a1c"/><path d="M19.5,17h1.268l6.188-5.3a2,2,0,0,1-.692-.724L26,11.2V12s-.661,1.959-4.09,2.705L19.5,16.771Z" style="fill:#911a1c"/><rect x="45" y="5" width="3" height="8" rx="1.5" ry="1.5" style="fill:#ff3345"/><rect x="16" y="5" width="3" height="8" rx="1.5" ry="1.5" style="fill:#ff3345"/><rect x="29" y="6" width="6" height="1" rx="0.5" ry="0.5" style="fill:#faf180"/><rect x="29" y="11" width="6" height="1" rx="0.5" ry="0.5" style="fill:#faf180"/><path d="M50.96,4H47.82a1.469,1.469,0,0,1,.18.71V6h2.96A1.882,1.882,0,0,1,53,7.67v-2A1.882,1.882,0,0,0,50.96,4Z" style="fill:#c99c5c"/><path d="M16.18,4H13.04A1.882,1.882,0,0,0,11,5.67v2A1.882,1.882,0,0,1,13.04,6H16V4.71A1.469,1.469,0,0,1,16.18,4Z" style="fill:#c99c5c"/><path d="M50.96,12H48v1.29a1.469,1.469,0,0,1-.18.71h3.14A1.882,1.882,0,0,0,53,12.33v-2A1.882,1.882,0,0,1,50.96,12Z" style="fill:#c99c5c"/><path d="M11,10.33v2A1.882,1.882,0,0,0,13.04,14h3.14a1.469,1.469,0,0,1-.18-.71V12H13.04A1.882,1.882,0,0,1,11,10.33Z" style="fill:#c99c5c"/><path d="M26,2a.987.987,0,0,0-.829-.966A2.272,2.272,0,0,0,24.91,1H20.07A1.974,1.974,0,0,0,18,2.86V3h7A1,1,0,0,0,26,2Z" style="fill:#c22026"/><path d="M43.93,1H39.09a2.272,2.272,0,0,0-.261.034A.987.987,0,0,0,38,2a1,1,0,0,0,1,1h7V2.86A1.974,1.974,0,0,0,43.93,1Z" style="fill:#c22026"/><path d="M45.07,59.78A1.08,1.08,0,0,0,46.793,59H44.008Z" style="fill:#c99c5c"/><path d="M40.93,59.78,41.992,59H39.207A1.08,1.08,0,0,0,40.93,59.78Z" style="fill:#c99c5c"/><path d="M6.34,40.76l1.41,1.38-.53,2.58A1.07,1.07,0,0,0,8.29,46,16.087,16.087,0,0,1,8,43V39H7.02A1,1,0,0,0,6.34,40.76Z" style="fill:#c99c5c"/><path d="M21.772,58.827l1.3.953A1.08,1.08,0,0,0,24.793,59H24A16.046,16.046,0,0,1,21.772,58.827Z" style="fill:#c99c5c"/><path d="M18.93,59.78l1.593-1.17a15.881,15.881,0,0,1-3.071-1.021L17.22,58.72A1.078,1.078,0,0,0,18.93,59.78Z" style="fill:#c99c5c"/><path d="M57.78,44.72l-.53-2.58,1.41-1.38a1.129,1.129,0,0,0,.3-.506A1.974,1.974,0,0,0,58,40a2,2,0,0,0-2,2v3.729l.07.051A1.078,1.078,0,0,0,57.78,44.72Z" style="fill:#faf180"/><path d="M57.833,54.5l-.254.5h-.392a.183.183,0,0,0-.132.312l.313.307-.114.563a.185.185,0,0,0,.294.181L58,56.031l.452.332a.185.185,0,0,0,.294-.181l-.114-.563.313-.307A.183.183,0,0,0,58.813,55h-.392l-.254-.5A.188.188,0,0,0,57.833,54.5Z" style="fill:#faf180"/><path d="M38.833,48.5l-.254.5h-.392a.183.183,0,0,0-.132.312l.313.307-.114.563a.185.185,0,0,0,.294.181L39,50.031l.452.332a.185.185,0,0,0,.294-.181l-.114-.563.313-.307A.183.183,0,0,0,39.813,49h-.392l-.254-.5A.188.188,0,0,0,38.833,48.5Z" style="fill:#ffd45d"/><path d="M16.833,41.5l-.254.5h-.392a.183.183,0,0,0-.132.312l.313.307-.114.563a.185.185,0,0,0,.294.181L17,43.031l.452.332a.185.185,0,0,0,.294-.181l-.114-.563.313-.307A.183.183,0,0,0,17.813,42h-.392l-.254-.5A.188.188,0,0,0,16.833,41.5Z" style="fill:#ffd45d"/><path d="M27.833,34.5l-.254.5h-.392a.183.183,0,0,0-.132.312l.313.307-.114.563a.185.185,0,0,0,.294.181L28,36.031l.452.332a.185.185,0,0,0,.294-.181l-.114-.563.313-.307A.183.183,0,0,0,28.813,35h-.392l-.254-.5A.188.188,0,0,0,27.833,34.5Z" style="fill:#ffd45d"/><path d="M31.083,52.694l-.513.167-.268-.268a.176.176,0,0,0-.3.123l0,.423-.462.3a.18.18,0,0,0,.077.325l.535.082.081.534a.179.179,0,0,0,.325.077l.3-.462.423,0a.175.175,0,0,0,.123-.3l-.267-.267.166-.513A.182.182,0,0,0,31.083,52.694Z" style="fill:#ffd45d"/><path d="M8.833,54.5l-.254.5H8.187a.183.183,0,0,0-.132.312l.313.307-.114.563a.185.185,0,0,0,.294.181L9,56.031l.452.332a.185.185,0,0,0,.294-.181l-.114-.563.313-.307A.183.183,0,0,0,9.813,55H9.421l-.254-.5A.188.188,0,0,0,8.833,54.5Z" style="fill:#f0af4c"/><path d="M43.917,46.752,43.79,47h-.2a.091.091,0,0,0-.066.155l.156.153-.057.281a.093.093,0,0,0,.147.091L44,47.514l.225.166a.093.093,0,0,0,.147-.091l-.057-.281.156-.153A.091.091,0,0,0,44.405,47h-.2l-.127-.248A.093.093,0,0,0,43.917,46.752Z" style="fill:#ffd45d"/><path d="M26.917,49.752,26.79,50h-.2a.091.091,0,0,0-.066.155l.156.153-.057.281a.093.093,0,0,0,.147.091L27,50.514l.225.166a.093.093,0,0,0,.147-.091l-.057-.281.156-.153A.091.091,0,0,0,27.405,50h-.2l-.127-.248A.093.093,0,0,0,26.917,49.752Z" style="fill:#ffd45d"/><path d="M7.917,30.752,7.79,31H7.6a.091.091,0,0,0-.066.155l.156.153-.057.281a.093.093,0,0,0,.147.091L8,31.514l.225.166a.093.093,0,0,0,.147-.091l-.057-.281.156-.153A.091.091,0,0,0,8.4,31H8.21l-.127-.248A.093.093,0,0,0,7.917,30.752Z" style="fill:#f0af4c"/><path d="M6.917,47.752,6.79,48H6.6a.091.091,0,0,0-.066.155l.156.153-.057.281a.093.093,0,0,0,.147.091L7,48.514l.225.166a.093.093,0,0,0,.147-.091l-.057-.281.156-.153A.091.091,0,0,0,7.405,48h-.2l-.127-.248A.093.093,0,0,0,6.917,47.752Z" style="fill:#f0af4c"/><path d="M51.347,51.459l.083.256-.133.134a.088.088,0,0,0,.061.151l.212,0,.152.231a.09.09,0,0,0,.163-.039l.04-.267.268-.041a.09.09,0,0,0,.038-.162L52,51.567l0-.211a.088.088,0,0,0-.151-.061l-.134.133-.256-.083A.091.091,0,0,0,51.347,51.459Z" style="fill:#ffd45d"/><path d="M49.347,56.459l.083.256-.133.134a.088.088,0,0,0,.061.151l.212,0,.152.231a.09.09,0,0,0,.163-.039l.04-.267.268-.041a.09.09,0,0,0,.038-.162L50,56.567l0-.211a.088.088,0,0,0-.151-.061l-.134.133-.256-.083A.091.091,0,0,0,49.347,56.459Z" style="fill:#ffd45d"/><path d="M12.347,58.459l.083.256-.133.134a.088.088,0,0,0,.061.151l.212,0,.152.231a.09.09,0,0,0,.163-.039l.04-.267.268-.041a.09.09,0,0,0,.038-.162L13,58.567l0-.211a.088.088,0,0,0-.151-.061l-.134.133-.256-.083A.091.091,0,0,0,12.347,58.459Z" style="fill:#f0af4c"/><path d="M34.347,60.459l.083.256-.133.134a.088.088,0,0,0,.061.151l.212,0,.152.231a.09.09,0,0,0,.163-.039l.04-.267.268-.041a.09.09,0,0,0,.038-.162L35,60.567l0-.211a.088.088,0,0,0-.151-.061l-.134.133-.256-.083A.091.091,0,0,0,34.347,60.459Z" style="fill:#f0af4c"/><path d="M15.347,47.459l.083.256-.133.134a.088.088,0,0,0,.061.151l.212,0,.152.231a.09.09,0,0,0,.163-.039l.04-.267.268-.041a.09.09,0,0,0,.038-.162L16,47.567l0-.211a.088.088,0,0,0-.151-.061l-.134.133-.256-.083A.091.091,0,0,0,15.347,47.459Z" style="fill:#ffd45d"/><path d="M45.917,38.752,45.79,39h-.2a.091.091,0,0,0-.066.155l.156.153-.057.281a.093.093,0,0,0,.147.091L46,39.514l.225.166a.093.093,0,0,0,.147-.091l-.057-.281.156-.153A.091.091,0,0,0,46.405,39h-.2l-.127-.248A.093.093,0,0,0,45.917,38.752Z" style="fill:#ffd45d"/><path d="M53.917,33.752,53.79,34h-.2a.091.091,0,0,0-.066.155l.156.153-.057.281a.093.093,0,0,0,.147.091L54,34.514l.225.166a.093.093,0,0,0,.147-.091l-.057-.281.156-.153A.091.091,0,0,0,54.405,34h-.2l-.127-.248A.093.093,0,0,0,53.917,33.752Z" style="fill:#ffd45d"/><path d="M50.347,31.459l.083.256-.133.134a.088.088,0,0,0,.061.151l.212,0,.152.231a.09.09,0,0,0,.163-.039l.04-.267.268-.041a.09.09,0,0,0,.038-.162L51,31.567l0-.211a.088.088,0,0,0-.151-.061l-.134.133-.256-.083A.091.091,0,0,0,50.347,31.459Z" style="fill:#f0af4c"/></g></svg>