<?xml version="1.0" encoding="utf-8"?>
<!-- Generator: Adobe Illustrator 16.0.0, SVG Export Plug-In . SVG Version: 6.00 Build 0)  -->
<!DOCTYPE svg PUBLIC "-//W3C//DTD SVG 1.1//EN" "http://www.w3.org/Graphics/SVG/1.1/DTD/svg11.dtd">
<svg version="1.1" id="Layer_1" xmlns="http://www.w3.org/2000/svg" xmlns:xlink="http://www.w3.org/1999/xlink" x="0px" y="0px"
	 width="64px" height="64px" viewBox="0 0 64 64" enable-background="new 0 0 64 64" xml:space="preserve">
<path fill="#741112" d="M29.633,16.417c0,0,0.025,0.172,0.047,0.493c0.118,1.693,0.17,7.513-3.797,13.895
	c-4.721,7.594-11.268,7.937-13.562,17.252c-2.293,9.314-2.479,11.966-2.499,13.314c-0.02,1.352,4.116-6.445,5.022-4.849
	c0.906,1.595-1.42,6.522-1.42,6.522s9.554-13.136,12.128-17.908c1.347-2.498,10.251-25.252,5.727-28.476"/>
<path fill="#BB2025" d="M27.173,21.514c0,0,0.022,0.054,0.042,0.176c0.113,0.642,0.215,3.138-2.947,9.159
	c-3.761,7.163-9.079,12.653-10.85,18.586c-1.771,5.934-1.895,7.242-1.897,7.847c-0.002,0.605,3.281-6.167,4.034-6.212
	c0.753-0.044-1.089,4.002-1.089,4.002S22.1,41.55,24.144,37.37c1.07-2.189,8.08-19.377,4.37-17.093"/>
<path fill="#214620" d="M57.727,31.215c0-1.231-0.411-2.366-1.104-3.275c0.281-0.655,0.438-1.376,0.438-2.133
	c0-1.698-0.783-3.212-2.007-4.203c-0.045-1.935-1.105-3.616-2.669-4.534c-0.028-2.654-1.966-4.85-4.507-5.275
	c-0.826-1.929-2.741-3.282-4.973-3.282c-0.274,0-0.545,0.022-0.81,0.061c-0.98-1.371-2.586-2.264-4.399-2.264
	c-0.779,0-1.52,0.167-2.188,0.463c-0.9-0.668-2.014-1.063-3.221-1.063c-1.206,0-2.32,0.395-3.22,1.063
	c-0.669-0.296-1.409-0.463-2.188-0.463c-1.813,0-3.417,0.894-4.399,2.264c-0.264-0.039-0.534-0.061-0.809-0.061
	c-2.231,0-4.147,1.353-4.974,3.282c-2.54,0.426-4.479,2.621-4.507,5.275c-1.563,0.918-2.623,2.6-2.669,4.534
	c-1.223,0.991-2.006,2.505-2.006,4.203c0,0.757,0.157,1.478,0.438,2.133c-0.693,0.909-1.105,2.044-1.105,3.275
	c0,1.141,0.353,2.195,0.955,3.068c-0.185,0.547-0.288,1.131-0.288,1.74c0,1.697,0.783,3.212,2.006,4.202
	c0.046,1.934,1.106,3.617,2.669,4.534c0.028,2.655,1.967,4.849,4.507,5.276c0.826,1.93,2.742,3.28,4.974,3.28
	c0.275,0,0.545-0.02,0.809-0.061c0.981,1.371,2.585,2.265,4.399,2.265c0.779,0,1.519-0.168,2.188-0.464
	c0.9,0.669,2.014,1.064,3.22,1.064c1.207,0,2.32-0.396,3.221-1.064c0.668,0.296,1.408,0.464,2.188,0.464
	c1.813,0,3.419-0.894,4.399-2.265c0.265,0.041,0.535,0.061,0.81,0.061c2.231,0,4.146-1.351,4.973-3.28
	c2.541-0.428,4.479-2.621,4.507-5.276c1.563-0.917,2.624-2.601,2.669-4.534c1.224-0.99,2.007-2.505,2.007-4.202
	c0-0.609-0.103-1.193-0.287-1.74C57.374,33.41,57.727,32.356,57.727,31.215z M37.695,44.703c-1.207,0-2.319,0.396-3.221,1.063
	c-0.668-0.296-1.408-0.462-2.188-0.462c-0.779,0-1.519,0.166-2.188,0.462c-0.899-0.667-2.014-1.063-3.22-1.063
	c-0.275,0-0.545,0.021-0.809,0.061c-0.815-1.139-2.06-1.947-3.499-2.188c-0.457-1.066-1.246-1.956-2.238-2.538
	c-0.017-1.674-0.795-3.166-2.004-4.146c-0.026-1.089-0.373-2.1-0.952-2.938c0.185-0.546,0.287-1.13,0.287-1.739
	c0-0.758-0.156-1.479-0.438-2.133c0.668-0.877,1.074-1.964,1.103-3.146c1.209-0.98,1.987-2.471,2.004-4.145
	c0.992-0.583,1.781-1.472,2.238-2.538c1.438-0.241,2.684-1.049,3.499-2.188c0.264,0.039,0.534,0.061,0.809,0.061
	c1.207,0,2.321-0.396,3.22-1.064c0.669,0.297,1.409,0.463,2.188,0.463c0.779,0,1.52-0.166,2.188-0.463
	c0.901,0.668,2.014,1.064,3.221,1.064c0.275,0,0.546-0.021,0.81-0.061c0.815,1.138,2.061,1.946,3.498,2.188
	c0.458,1.065,1.247,1.955,2.238,2.538c0.018,1.674,0.794,3.165,2.005,4.145c0.027,1.182,0.434,2.269,1.102,3.146
	c-0.281,0.654-0.438,1.375-0.438,2.133c0,0.609,0.103,1.193,0.287,1.739c-0.578,0.838-0.926,1.849-0.951,2.938
	c-1.211,0.979-1.987,2.472-2.005,4.146c-0.991,0.582-1.78,1.472-2.238,2.538c-1.438,0.24-2.683,1.049-3.498,2.188
	C38.241,44.724,37.971,44.703,37.695,44.703z"/>
<path fill="#256130" d="M52.233,31.15c0-0.965-0.323-1.855-0.867-2.568c0.221-0.512,0.344-1.079,0.344-1.672
	c0-1.331-0.613-2.518-1.573-3.296c-0.036-1.515-0.867-2.833-2.093-3.555c-0.021-2.082-1.542-3.802-3.533-4.136
	c-0.647-1.513-2.15-2.573-3.898-2.573c-0.216,0-0.428,0.016-0.636,0.047c-0.769-1.073-2.026-1.774-3.447-1.774
	c-0.613,0-1.192,0.13-1.718,0.363c-0.704-0.524-1.578-0.834-2.524-0.834c-0.946,0-1.819,0.311-2.524,0.834
	c-0.525-0.233-1.105-0.363-1.716-0.363c-1.422,0-2.68,0.701-3.449,1.774c-0.208-0.031-0.419-0.047-0.635-0.047
	c-1.75,0-3.251,1.06-3.899,2.573c-1.992,0.334-3.512,2.054-3.534,4.136c-1.226,0.721-2.056,2.04-2.092,3.555
	c-0.959,0.778-1.573,1.965-1.573,3.296c0,0.594,0.123,1.16,0.343,1.672c-0.543,0.713-0.866,1.603-0.866,2.568
	c0,0.893,0.277,1.722,0.749,2.405c-0.145,0.43-0.225,0.887-0.225,1.363c0,1.332,0.614,2.52,1.573,3.296
	c0.036,1.517,0.867,2.835,2.092,3.555c0.022,2.083,1.542,3.803,3.534,4.136c0.647,1.514,2.149,2.572,3.899,2.572
	c0.216,0,0.427-0.016,0.635-0.046c0.769,1.074,2.026,1.773,3.449,1.773c0.611,0,1.191-0.129,1.716-0.362
	c0.705,0.524,1.579,0.835,2.524,0.835c0.946,0,1.82-0.311,2.524-0.835c0.525,0.233,1.104,0.362,1.718,0.362
	c1.421,0,2.679-0.699,3.447-1.773c0.208,0.03,0.42,0.046,0.636,0.046c1.748,0,3.251-1.059,3.898-2.572
	c1.991-0.333,3.512-2.055,3.533-4.136c1.226-0.72,2.057-2.038,2.093-3.555c0.96-0.776,1.573-1.964,1.573-3.296
	c0-0.477-0.08-0.934-0.226-1.363C51.957,32.872,52.233,32.043,52.233,31.15z M36.529,41.726c-0.948,0-1.821,0.311-2.526,0.834
	c-0.525-0.233-1.104-0.362-1.716-0.362c-0.611,0-1.191,0.129-1.715,0.362c-0.706-0.523-1.58-0.834-2.525-0.834
	c-0.216,0-0.428,0.016-0.634,0.046c-0.639-0.891-1.616-1.524-2.744-1.714c-0.358-0.837-0.977-1.532-1.753-1.99
	c-0.014-1.313-0.624-2.481-1.572-3.25c-0.02-0.854-0.292-1.647-0.747-2.304c0.146-0.428,0.226-0.886,0.226-1.363
	c0-0.594-0.123-1.159-0.343-1.672c0.523-0.688,0.842-1.54,0.864-2.466c0.949-0.769,1.559-1.938,1.572-3.25
	c0.776-0.458,1.396-1.154,1.753-1.99c1.128-0.189,2.104-0.824,2.744-1.716c0.207,0.031,0.418,0.047,0.634,0.047
	c0.946,0,1.82-0.31,2.525-0.833c0.524,0.233,1.104,0.363,1.715,0.363c0.611,0,1.19-0.13,1.716-0.363
	c0.705,0.524,1.578,0.833,2.526,0.833c0.216,0,0.426-0.016,0.633-0.047c0.639,0.892,1.615,1.526,2.743,1.716
	c0.357,0.836,0.977,1.533,1.753,1.99c0.016,1.313,0.625,2.481,1.572,3.25c0.022,0.926,0.341,1.778,0.864,2.466
	c-0.22,0.513-0.343,1.079-0.343,1.672c0,0.477,0.081,0.935,0.226,1.363c-0.454,0.657-0.727,1.45-0.747,2.304
	c-0.947,0.769-1.557,1.938-1.572,3.25c-0.776,0.458-1.396,1.153-1.753,1.99c-1.128,0.189-2.104,0.823-2.743,1.714
	C36.955,41.741,36.745,41.726,36.529,41.726z"/>
<g>
	<circle fill="#DCAB69" cx="30.579" cy="49.019" r="5.197"/>
	<g>
		<path fill="#BB2025" d="M30.126,47.228c1.633-0.583,3.195-1.051,4.576-1.385c-1.337-1.736-3.686-2.496-5.861-1.723
			c-2.189,0.78-3.53,2.876-3.451,5.081C26.738,48.54,28.358,47.856,30.126,47.228z"/>
		<path fill="#BB2025" d="M31.361,50.693c-1.769,0.629-3.455,1.125-4.917,1.466c1.333,1.756,3.698,2.534,5.886,1.754
			c2.175-0.776,3.514-2.851,3.452-5.04C34.499,49.485,32.994,50.11,31.361,50.693z"/>
	</g>
	<g>
		<path fill="#741112" d="M29.658,46.434c1.564-0.559,3.077-0.975,4.438-1.242c-1.375-1.261-3.382-1.738-5.261-1.068
			c-1.878,0.669-3.132,2.309-3.4,4.153C26.659,47.625,28.094,46.991,29.658,46.434z"/>
		<path fill="#741112" d="M31.5,51.603c-1.564,0.559-3.077,0.977-4.437,1.244c1.374,1.261,3.382,1.738,5.261,1.068
			c1.878-0.669,3.132-2.309,3.4-4.155C34.501,50.413,33.065,51.046,31.5,51.603z"/>
	</g>
	<path fill="#741112" d="M25.396,49.417c0.035,0.45,0.128,0.901,0.287,1.347c0.158,0.444,0.372,0.854,0.628,1.223
		c1.452-0.401,3.08-0.916,4.782-1.524c1.703-0.605,3.29-1.236,4.669-1.843c-0.035-0.45-0.129-0.901-0.288-1.345
		c-0.157-0.444-0.371-0.854-0.627-1.225c-1.452,0.403-3.08,0.918-4.783,1.524C28.361,48.182,26.776,48.813,25.396,49.417z"/>
	<g>
		<path fill="#741112" d="M25.994,51.559c0,0-0.589-3.932,1.152-1.28c1.742,2.649,0.854-0.559,0.856-0.64
			c0.003-0.082-0.491-2.095,0.772-0.25c1.264,1.848,1.694,1.354,1.653-0.28c-0.04-1.635,0.075-2.117,1.159-0.239
			c1.084,1.875,1.167,0.231,1.135-0.575s-0.498-2.29,0.736-0.262c1.232,2.026,0.8,0.633,0.678-0.246
			c-0.121-0.877-0.275-2.178,0.805-0.282c1.077,1.896,0.782,0.449,0.434-0.534"/>
		<path fill="#F1F2F2" d="M25.994,51.559c0,0-0.097-0.441-0.134-1.234c-0.004-0.198-0.006-0.419,0.044-0.662
			c0.031-0.115,0.063-0.266,0.223-0.351c0.178-0.066,0.325,0.043,0.437,0.123c0.451,0.37,0.748,0.939,1.17,1.438
			c0.103,0.12,0.227,0.247,0.333,0.307c0.025-0.032-0.025,0.059,0-0.027c0.015-0.049,0.016-0.143,0.011-0.222
			c-0.023-0.341-0.108-0.708-0.199-1.079c-0.054-0.219-0.077-0.374-0.116-0.593c-0.016-0.102-0.028-0.207-0.033-0.318
			c0.013-0.119-0.039-0.216,0.105-0.424c0.03-0.044,0.13-0.084,0.2-0.092c0.05,0.007,0.103,0.02,0.151,0.037
			c0.076,0.036,0.118,0.074,0.176,0.115c0.081,0.079,0.167,0.162,0.231,0.246c0.144,0.165,0.264,0.349,0.387,0.514
			c0.244,0.345,0.496,0.684,0.799,0.918c0.07,0.058,0.155,0.099,0.198,0.102c0.045-0.004,0.044,0.017,0.084-0.045
			c0.076-0.104,0.116-0.326,0.134-0.526c0.041-0.415-0.001-0.854,0.008-1.32c0.009-0.235-0.003-0.452,0.085-0.741l0.056-0.121
			c0.044-0.052,0.086-0.105,0.157-0.138c0.187-0.071,0.302,0.009,0.374,0.049c0.138,0.097,0.212,0.192,0.291,0.287
			c0.295,0.379,0.507,0.791,0.737,1.162c0.116,0.19,0.235,0.353,0.366,0.479c0.176,0.096,0.033,0.133,0.152-0.04
			c0.107-0.356,0.108-0.815,0.086-1.227l-0.072-0.632c-0.013-0.108-0.023-0.221-0.026-0.342c0.006-0.069-0.006-0.13,0.051-0.257
			c0.166-0.246,0.426-0.06,0.425-0.042c0.366,0.371,0.531,0.716,0.755,1.07c0.204,0.338,0.418,0.715,0.632,0.933
			c0.021,0.022-0.006-0.01-0.013,0.003c0.008,0.008-0.041-0.009-0.074,0.015c-0.037,0.029-0.038,0.049-0.04,0.041
			c-0.009,0.031,0.001-0.031,0.001-0.059c-0.003-0.084-0.013-0.173-0.025-0.264c-0.028-0.185-0.057-0.367-0.085-0.546
			c-0.056-0.368-0.097-0.714-0.11-1.065c0.018-0.181-0.055-0.334,0.129-0.578c0.224-0.105,0.291,0.049,0.361,0.086
			c0.057,0.064,0.118,0.128,0.16,0.194c0.186,0.26,0.32,0.521,0.453,0.762c0.132,0.242,0.253,0.466,0.386,0.656
			c0.062,0.093,0.144,0.193,0.201,0.224c0.026,0.045,0.043-0.129,0.03-0.204c-0.037-0.386-0.129-0.688-0.182-0.89
			c-0.06-0.202-0.092-0.311-0.092-0.311s0.039,0.105,0.111,0.305c0.064,0.201,0.175,0.491,0.238,0.888
			c0.01,0.049,0.008,0.104,0.011,0.158c-0.006,0.031-0.008,0.062-0.02,0.094c-0.026,0.043-0.067,0.071-0.115,0.055
			c-0.139-0.057-0.197-0.155-0.277-0.248c-0.151-0.19-0.288-0.411-0.434-0.643c-0.147-0.232-0.298-0.482-0.485-0.712
			c-0.044-0.062-0.098-0.107-0.145-0.16c-0.044-0.048-0.121-0.059-0.056-0.064c-0.015,0.018-0.038,0.232-0.021,0.378
			c0.023,0.323,0.078,0.677,0.144,1.026c0.034,0.18,0.069,0.362,0.105,0.548c0.017,0.096,0.03,0.193,0.038,0.301
			c-0.007,0.067,0.016,0.104-0.035,0.224c0.029,0.035-0.186,0.16-0.225,0.117c-0.048-0.011-0.129-0.049-0.138-0.065
			c-0.343-0.323-0.516-0.657-0.749-1c-0.217-0.325-0.447-0.727-0.678-0.954c-0.066-0.057,0.057,0.072,0.161-0.073
			c0.014-0.028,0.002,0.019,0.003,0.056c0.004,0.092,0.013,0.192,0.027,0.296l0.082,0.654c0.023,0.452,0.046,0.891-0.093,1.39
			c-0.057,0.12-0.093,0.292-0.336,0.392c-0.272,0.058-0.394-0.086-0.502-0.16c-0.194-0.178-0.338-0.385-0.458-0.574
			c-0.246-0.39-0.456-0.778-0.718-1.109c-0.06-0.081-0.134-0.16-0.181-0.193c-0.02-0.02-0.018,0.011,0.06-0.019
			c0.02-0.012,0.031-0.011,0.033-0.027c-0.002,0.01-0.007,0.022-0.013,0.033c-0.049,0.141-0.061,0.383-0.065,0.594
			c-0.015,0.43,0.025,0.887-0.025,1.354c-0.034,0.234-0.046,0.472-0.223,0.733c-0.069,0.137-0.312,0.245-0.478,0.205
			c-0.173-0.028-0.283-0.108-0.382-0.182c-0.384-0.303-0.638-0.677-0.878-1.019c-0.126-0.175-0.234-0.344-0.362-0.494
			c-0.06-0.082-0.126-0.14-0.188-0.208c-0.051-0.063-0.149-0.049-0.005-0.09c0.016-0.042-0.02,0.083-0.012,0.159
			c0,0.09,0.008,0.184,0.02,0.278c0.024,0.174,0.054,0.407,0.09,0.565c0.079,0.383,0.154,0.756,0.168,1.144
			c0,0.1,0.004,0.192-0.032,0.314c-0.012,0.054-0.035,0.125-0.134,0.189c-0.076,0.059-0.177,0.021-0.248,0.005
			c-0.199-0.118-0.304-0.258-0.418-0.395c-0.433-0.544-0.691-1.118-1.077-1.475c-0.093-0.082-0.206-0.149-0.28-0.12
			c-0.078,0.029-0.134,0.145-0.163,0.251c-0.061,0.219-0.073,0.438-0.081,0.634C25.924,51.109,25.994,51.559,25.994,51.559z"/>
	</g>
	<circle fill="#EBC257" cx="29.683" cy="46.876" r="0.324"/>
	<circle fill="#EBC257" cx="28.296" cy="47.404" r="0.268"/>
	<circle fill="#EBC257" cx="27.053" cy="47.954" r="0.223"/>
	<circle fill="#EBC257" cx="26.009" cy="48.455" r="0.182"/>
	<circle fill="#EBC257" cx="31.336" cy="46.352" r="0.268"/>
	<circle fill="#EBC257" cx="32.76" cy="45.92" r="0.224"/>
	<circle fill="#EBC257" cx="33.989" cy="45.609" r="0.182"/>
	<circle fill="#EBC257" cx="31.137" cy="51.27" r="0.324"/>
	<circle fill="#EBC257" cx="29.731" cy="51.741" r="0.268"/>
	<circle fill="#EBC257" cx="28.42" cy="52.099" r="0.223"/>
	<circle fill="#EBC257" cx="27.294" cy="52.371" r="0.182"/>
	<circle fill="#EBC257" cx="32.751" cy="50.632" r="0.268"/>
	<circle fill="#EBC257" cx="34.126" cy="50.065" r="0.223"/>
	<circle fill="#EBC257" cx="35.275" cy="49.53" r="0.182"/>
	
		<ellipse transform="matrix(0.942 -0.3355 0.3355 0.942 -14.1964 12.7412)" opacity="0.1" fill="#F1F2F2" cx="29.781" cy="47.461" rx="3.803" ry="3.075"/>
	
		<ellipse transform="matrix(0.9421 -0.3353 0.3353 0.9421 -13.8494 12.2943)" opacity="0.15" fill="#F1F2F2" cx="28.676" cy="46.25" rx="1.638" ry="1.182"/>
</g>
<g>
	<circle fill="#DCAB69" cx="55.03" cy="22.013" r="3.627"/>
	<g>
		<path fill="#BB2025" d="M53.922,21.353c0.52-1.093,1.059-2.095,1.575-2.941c-1.517-0.196-3.051,0.586-3.742,2.043
			c-0.695,1.464-0.322,3.16,0.804,4.209C52.897,23.672,53.36,22.536,53.922,21.353z"/>
		<path fill="#BB2025" d="M56.243,22.454c-0.563,1.184-1.149,2.26-1.704,3.149c1.524,0.209,3.074-0.574,3.77-2.039
			c0.69-1.456,0.327-3.14-0.783-4.19C57.195,20.308,56.761,21.361,56.243,22.454z"/>
	</g>
	<g>
		<path fill="#741112" d="M53.3,21.192c0.497-1.047,1.037-1.999,1.576-2.804c-1.3,0.057-2.525,0.812-3.123,2.069
			s-0.405,2.686,0.373,3.728C52.408,23.26,52.803,22.239,53.3,21.192z"/>
		<path fill="#741112" d="M56.76,22.833c-0.497,1.047-1.037,2-1.575,2.804c1.299-0.057,2.526-0.812,3.123-2.069
			c0.596-1.257,0.406-2.686-0.372-3.728C57.652,20.766,57.257,21.786,56.76,22.833z"/>
	</g>
	<path fill="#741112" d="M52.67,24.767c0.238,0.205,0.507,0.382,0.805,0.522c0.298,0.141,0.604,0.238,0.914,0.294
		c0.519-0.916,1.066-1.972,1.608-3.112c0.541-1.14,1.012-2.233,1.393-3.214c-0.237-0.205-0.508-0.381-0.804-0.522
		c-0.299-0.141-0.605-0.238-0.915-0.293c-0.517,0.916-1.066,1.972-1.607,3.112S53.051,23.787,52.67,24.767z"/>
	<circle fill="#EBC257" cx="53.531" cy="21.399" r="0.226"/>
	<circle fill="#EBC257" cx="53.107" cy="22.342" r="0.187"/>
	<circle fill="#EBC257" cx="52.765" cy="23.228" r="0.156"/>
	<circle fill="#EBC257" cx="52.497" cy="23.99" r="0.126"/>
	<circle fill="#EBC257" cx="54.088" cy="20.323" r="0.187"/>
	<circle fill="#EBC257" cx="54.577" cy="19.408" r="0.156"/>
	<circle fill="#EBC257" cx="55.03" cy="18.648" r="0.126"/>
	<circle fill="#EBC257" cx="56.416" cy="22.849" r="0.226"/>
	<circle fill="#EBC257" cx="55.954" cy="23.774" r="0.187"/>
	<circle fill="#EBC257" cx="55.484" cy="24.598" r="0.156"/>
	<circle fill="#EBC257" cx="55.063" cy="25.288" r="0.127"/>
	<circle fill="#EBC257" cx="56.898" cy="21.737" r="0.187"/>
	<circle fill="#EBC257" cx="57.297" cy="20.779" r="0.156"/>
	<circle fill="#EBC257" cx="57.6" cy="19.948" r="0.127"/>
	
		<ellipse transform="matrix(0.4288 -0.9034 0.9034 0.4288 11.2223 61.026)" opacity="0.1" fill="#F1F2F2" cx="53.868" cy="21.639" rx="2.655" ry="2.146"/>
	
		<ellipse transform="matrix(0.4284 -0.9036 0.9036 0.4284 10.6317 59.9793)" opacity="0.15" fill="#F1F2F2" cx="52.724" cy="21.586" rx="1.143" ry="0.825"/>
</g>
<g>
	<circle fill="#DCAB69" cx="11.068" cy="37.745" r="4.219"/>
	<g>
		<path fill="#BB2025" d="M11.835,36.457c1.271,0.603,2.437,1.231,3.421,1.833c0.229-1.765-0.683-3.551-2.376-4.354
			c-1.704-0.809-3.676-0.375-4.896,0.936C9.138,35.266,10.459,35.804,11.835,36.457z"/>
		<path fill="#BB2025" d="M10.555,39.154c-1.376-0.651-2.629-1.334-3.664-1.979c-0.244,1.774,0.668,3.576,2.372,4.385
			c1.693,0.803,3.653,0.38,4.875-0.913C13.05,40.264,11.827,39.758,10.555,39.154z"/>
	</g>
	<g>
		<path fill="#741112" d="M12.022,35.733c1.218,0.578,2.325,1.207,3.26,1.832c-0.065-1.51-0.944-2.938-2.406-3.631
			c-1.462-0.695-3.123-0.474-4.336,0.432C9.617,34.694,10.805,35.154,12.022,35.733z"/>
		<path fill="#741112" d="M10.113,39.758c-1.219-0.577-2.325-1.206-3.261-1.833c0.065,1.512,0.944,2.938,2.407,3.631
			c1.462,0.696,3.123,0.474,4.335-0.432C12.518,40.796,11.331,40.336,10.113,39.758z"/>
	</g>
	<path fill="#741112" d="M7.863,34.999c-0.237,0.278-0.443,0.593-0.607,0.938s-0.277,0.704-0.342,1.063
		c1.065,0.604,2.294,1.242,3.62,1.871c1.326,0.629,2.598,1.178,3.738,1.621c0.237-0.278,0.443-0.591,0.607-0.938
		c0.164-0.345,0.276-0.701,0.341-1.063c-1.064-0.603-2.293-1.24-3.619-1.869C10.275,35.991,9.003,35.444,7.863,34.999z"/>
	<circle fill="#EBC257" cx="11.781" cy="36.002" r="0.263"/>
	<circle fill="#EBC257" cx="10.684" cy="35.508" r="0.218"/>
	<circle fill="#EBC257" cx="9.655" cy="35.111" r="0.181"/>
	<circle fill="#EBC257" cx="8.767" cy="34.8" r="0.147"/>
	<circle fill="#EBC257" cx="13.033" cy="36.649" r="0.218"/>
	<circle fill="#EBC257" cx="14.098" cy="37.219" r="0.182"/>
	<circle fill="#EBC257" cx="14.982" cy="37.746" r="0.147"/>
	<circle fill="#EBC257" cx="10.096" cy="39.358" r="0.263"/>
	<circle fill="#EBC257" cx="9.019" cy="38.821" r="0.218"/>
	<circle fill="#EBC257" cx="8.06" cy="38.275" r="0.181"/>
	<circle fill="#EBC257" cx="7.258" cy="37.784" r="0.148"/>
	<circle fill="#EBC257" cx="11.388" cy="39.918" r="0.218"/>
	<circle fill="#EBC257" cx="12.503" cy="40.383" r="0.181"/>
	<circle fill="#EBC257" cx="13.47" cy="40.734" r="0.148"/>
	
		<ellipse transform="matrix(0.9034 0.4287 -0.4287 0.9034 16.7141 -1.4169)" opacity="0.1" fill="#F1F2F2" cx="11.502" cy="36.393" rx="3.087" ry="2.497"/>
	
		<ellipse transform="matrix(0.9033 0.4289 -0.4289 0.9033 16.1566 -1.5709)" opacity="0.15" fill="#F1F2F2" cx="11.564" cy="35.063" rx="1.33" ry="0.96"/>
</g>
<polygon fill="#EBC257" points="4.746,21.607 5.89,24.982 8.51,25.371 8.12,22.751 "/>
<polygon fill="#D1B26D" points="4.746,21.607 4.746,21.607 5.89,24.982 8.51,25.371 "/>
<polygon fill="#EBC257" points="3.811,27.863 7.373,27.769 8.519,25.38 5.901,24.978 "/>
<polygon fill="#D1B26D" points="3.811,27.863 3.811,27.863 7.373,27.769 8.519,25.38 "/>
<polygon fill="#EBC257" points="9.523,30.608 10.469,27.171 8.52,25.38 7.372,27.768 "/>
<polygon fill="#D1B26D" points="9.523,30.607 9.523,30.608 10.469,27.171 8.52,25.38 "/>
<polygon fill="#EBC257" points="13.792,26.091 10.821,24.188 8.515,25.391 10.428,27.153 "/>
<polygon fill="#D1B26D" points="13.785,26.083 13.785,26.083 10.811,24.202 8.507,25.383 "/>
<polygon fill="#EBC257" points="11.011,20.674 8.12,22.758 8.516,25.376 10.906,24.236 "/>
<polygon fill="#D1B26D" points="11.011,20.674 11.011,20.674 8.12,22.758 8.516,25.376 "/>
<polygon fill="#EBC257" points="36.351,37.938 37.044,39.983 38.632,40.219 38.396,38.633 "/>
<polygon fill="#D1B26D" points="36.351,37.938 36.351,37.938 37.044,39.983 38.632,40.219 "/>
<polygon fill="#EBC257" points="35.784,41.731 37.942,41.673 38.637,40.226 37.051,39.981 "/>
<polygon fill="#D1B26D" points="35.784,41.731 35.784,41.731 37.942,41.673 38.637,40.226 "/>
<polygon fill="#EBC257" points="39.246,43.393 39.819,41.31 38.637,40.226 37.942,41.671 "/>
<polygon fill="#D1B26D" points="39.246,43.393 39.246,43.393 39.819,41.31 38.637,40.226 "/>
<polygon fill="#EBC257" points="41.833,40.656 40.032,39.501 38.635,40.231 39.793,41.3 "/>
<polygon fill="#D1B26D" points="41.828,40.65 41.828,40.65 40.025,39.512 38.63,40.228 "/>
<polygon fill="#EBC257" points="40.147,37.372 38.396,38.637 38.635,40.224 40.084,39.531 "/>
<polygon fill="#D1B26D" points="40.147,37.372 40.147,37.372 38.396,38.637 38.635,40.224 "/>
<polygon fill="#EBC257" points="36.484,52.555 39.614,54.099 41.698,52.555 39.614,51.01 "/>
<polygon fill="#D1B26D" points="36.484,52.555 36.484,52.555 39.614,54.099 41.698,52.555 "/>
<polygon fill="#EBC257" points="40.17,57.536 42.569,55.002 41.711,52.555 39.619,54.089 "/>
<polygon fill="#D1B26D" points="40.17,57.536 40.17,57.536 42.569,55.002 41.711,52.555 "/>
<polygon fill="#EBC257" points="46.027,55.48 44.303,52.445 41.711,52.555 42.569,55.002 "/>
<polygon fill="#D1B26D" points="46.027,55.48 46.027,55.48 44.303,52.445 41.711,52.555 "/>
<polygon fill="#EBC257" points="45.854,49.396 42.479,50.133 41.715,52.564 44.262,52.46 "/>
<polygon fill="#EBC257" points="40.178,47.568 39.618,51.014 41.706,52.555 42.571,50.108 "/>
<polygon fill="#D1B26D" points="40.178,47.568 40.178,47.568 39.618,51.014 41.706,52.555 "/>
<polygon fill="#EBC257" points="45.133,29.749 47.559,29.83 48.437,28.254 46.675,27.873 "/>
<polygon fill="#D1B26D" points="45.133,29.749 45.133,29.749 47.559,29.83 48.437,28.254 "/>
<polygon fill="#EBC257" points="48.895,31.847 49.688,29.556 48.444,28.251 47.559,29.822 "/>
<polygon fill="#D1B26D" points="48.895,31.847 48.895,31.847 49.688,29.556 48.444,28.251 "/>
<polygon fill="#EBC257" points="52.016,28.868 50.054,27.44 48.444,28.251 49.688,29.556 "/>
<polygon fill="#D1B26D" points="52.016,28.868 52.016,28.868 50.054,27.44 48.444,28.251 "/>
<polygon fill="#EBC257" points="50.164,25.063 48.237,26.498 48.45,28.256 50.033,27.462 "/>
<polygon fill="#D1B26D" points="50.158,25.065 50.158,25.065 48.244,26.508 48.443,28.259 "/>
<polygon fill="#EBC257" points="46.045,25.533 46.678,27.875 48.44,28.252 48.289,26.456 "/>
<polygon fill="#D1B26D" points="46.045,25.533 46.045,25.533 46.678,27.875 48.44,28.252 "/>
<path fill="#741112" d="M33.156,15.64c0,0,0.008,0.133,0.046,0.374c0.196,1.271,1.216,5.554,6.238,9.274
	c5.976,4.424,12.39,3.084,16.326,9.364c3.939,6.278,4.606,8.18,4.872,9.166c0.268,0.985-5.176-3.732-5.763-2.339
	c-0.586,1.391,2.577,4.439,2.577,4.439s-11.683-7.316-15.057-10.194c-1.767-1.506-14.587-16.038-10.792-19.505"/>
<path fill="#BB2025" d="M33.334,17.171c0,0-0.016,0.041-0.026,0.124c-0.055,0.438,0.038,2.082,3.33,5.424
	c3.916,3.975,9.111,6.578,11.145,10.117c2.033,3.54,2.24,4.369,2.287,4.762c0.046,0.394-3.41-3.415-4.092-3.307
	c-0.682,0.109,1.275,2.408,1.275,2.408s-7.873-7.41-10.022-9.757c-1.126-1.23-8.707-11.139-5.196-10.331"/>
<path fill="#FFFFFF" d="M19.597,30.235c0,0.375-0.304,0.679-0.679,0.679h-1.401c-0.375,0-0.68-0.304-0.68-0.679l0,0
	c0-0.375,0.305-0.68,0.68-0.68h1.401C19.293,29.556,19.597,29.86,19.597,30.235L19.597,30.235z"/>
<path fill="#EBC257" d="M20.064,45.025c0,0.486,0.394,0.88,0.879,0.88l0,0c0.486,0,0.88-0.394,0.88-0.88v-0.326
	c0-0.486-0.394-0.879-0.88-0.879l0,0c-0.485,0-0.879,0.393-0.879,0.879V45.025z"/>
<path fill="#EBC257" d="M49.688,44.86c0,0.313-0.252,0.566-0.565,0.566H48.81c-0.312,0-0.565-0.254-0.565-0.566l0,0
	c0-0.311,0.254-0.564,0.565-0.564h0.313C49.437,44.296,49.688,44.55,49.688,44.86L49.688,44.86z"/>
<path fill="#FFFFFF" d="M51.203,15.824c0,0.496-0.401,0.896-0.898,0.896h-0.151c-0.494,0-0.896-0.401-0.896-0.896l0,0
	c0-0.496,0.402-0.898,0.896-0.898h0.151C50.802,14.926,51.203,15.328,51.203,15.824L51.203,15.824z"/>
<path fill="#741112" d="M14.279,21.127c0,0.44-0.357,0.797-0.797,0.797l0,0c-0.44,0-0.797-0.357-0.797-0.797v-0.489
	c0-0.441,0.357-0.798,0.797-0.798l0,0c0.44,0,0.797,0.357,0.797,0.798V21.127z"/>
<path fill="#741112" d="M44.615,49.774c0,0.5-0.405,0.903-0.903,0.903h-0.238c-0.499,0-0.902-0.403-0.902-0.903l0,0
	c0-0.498,0.403-0.901,0.902-0.901h0.238C44.21,48.873,44.615,49.276,44.615,49.774L44.615,49.774z"/>
<path fill="#EBC257" d="M36.351,9.281c0,0.541-0.438,0.979-0.979,0.979h-0.884c-0.54,0-0.979-0.438-0.979-0.979l0,0
	c0-0.542,0.438-0.979,0.979-0.979h0.884C35.912,8.301,36.351,8.739,36.351,9.281L36.351,9.281z"/>
<polygon fill="#D1B26D" points="45.844,49.393 45.844,49.393 42.481,50.151 41.705,52.564 "/>
<path fill="#741112" d="M30.658,13.139C28.565,6.704,9.222,8.045,12.949,9.688c3.728,1.641-0.095,4.832,3.853,15.096
	c3.948,10.266,15.16-8.211,15.16-8.211L30.658,13.139z M21.272,19.806c-2.029-5.276-0.064-6.917-1.98-7.76
	c-1.916-0.844,8.028-1.533,9.104,1.774l0.669,1.765C29.064,15.586,23.301,25.083,21.272,19.806z"/>
<path fill="#741112" d="M33.132,16.675c2.093,6.435,21.437,5.093,17.709,3.451c-3.727-1.643,0.096-4.833-3.852-15.097
	C43.041-5.235,31.83,13.24,31.83,13.24L33.132,16.675z M42.518,10.007c2.029,5.276,0.064,6.917,1.98,7.761
	c1.917,0.844-8.027,1.533-9.103-1.774l-0.669-1.766C34.727,14.228,40.489,4.731,42.518,10.007z"/>
<path fill="#BB2025" d="M33.943,16.304c1.688,5.118,17.301,4.05,14.293,2.745c-3.008-1.306,0.076-3.843-3.109-12.006
	c-3.187-8.162-12.235,6.531-12.235,6.531L33.943,16.304z M43.451,10.007c2.06,5.276,0.066,6.917,2.01,7.761
	c1.944,0.844-8.147,1.533-9.238-1.774l-0.68-1.766C35.543,14.228,41.393,4.731,43.451,10.007z"/>
<path fill="#EBC257" d="M25.024,17.953c0.54,0,0.979,0.439,0.979,0.979v0.882c0,0.541-0.439,0.98-0.979,0.98l0,0
	c-0.542,0-0.979-0.439-0.979-0.98v-0.882C24.044,18.392,24.482,17.953,25.024,17.953L25.024,17.953z"/>
<path fill="#BB2025" d="M29.847,13.51c-1.688-5.117-17.301-4.05-14.293-2.744c3.008,1.305-0.077,3.843,3.109,12.005
	c3.186,8.162,12.235-6.53,12.235-6.53L29.847,13.51z M20.339,19.806c-2.061-5.276-0.066-6.917-2.01-7.76
	c-1.944-0.844,8.147-1.533,9.239,1.774l0.679,1.765C28.247,15.586,22.399,25.083,20.339,19.806z"/>
<path fill="#741112" d="M33.237,12.586c0,0-5.435,0-3.925,3.633c1.509,3.632-2.868,5.677,1.509,3.632
	c4.376-2.042,6.271-0.551,5.626-3.228C35.803,13.949,33.237,12.586,33.237,12.586z"/>
<path fill="#BB2025" d="M32.982,14.907c0,0-3.596,0-2.598,2.085c1,2.085-1.897,3.258,1,2.085c2.897-1.174,4.15-0.317,3.724-1.853
	C34.68,15.689,32.982,14.907,32.982,14.907z"/>
</svg>
