<svg xmlns="http://www.w3.org/2000/svg" viewBox="0 0 64 64"><g id="_20-sleigh_pulled" data-name="20-sleigh pulled"><path d="M24,13H22a7.627,7.627,0,0,1-3.5-.71A2.776,2.776,0,0,1,17,9.8,2.808,2.808,0,0,1,19.8,7H21C24,7,24,13,24,13Z" style="fill:#00c477"/><path d="M28.2,7A2.808,2.808,0,0,1,31,9.8a2.776,2.776,0,0,1-1.5,2.49A7.627,7.627,0,0,1,26,13H24s0-6,3-6Z" style="fill:#00c477"/><path d="M28,25H26a7.627,7.627,0,0,1-3.5-.71A2.776,2.776,0,0,1,21,21.8,2.808,2.808,0,0,1,23.8,19H25c2.23,0,2.8,3.31,2.95,5.01C28,24.6,28,25,28,25Z" style="fill:#00c477"/><path d="M26,13h3.75a14.263,14.263,0,0,0-1.45,4H14a1,1,0,0,1-1-1V14a1,1,0,0,1,1-1H26Z" style="fill:#009e60"/><path d="M15,17H28.3a16.314,16.314,0,0,0-.27,2L28,24l-.05.01C27.8,22.31,27.23,19,25,19H23.8A2.808,2.808,0,0,0,21,21.8a2.776,2.776,0,0,0,1.5,2.49A7.627,7.627,0,0,0,26,25H18a1,1,0,0,0-1,1v2a1,1,0,0,0,1,1h1V43a2,2,0,0,0,1.89,1.99.66.66,0,0,1-.14.01A5.757,5.757,0,0,1,15,39.25V17Z" style="fill:#eb2335"/><path d="M32.2,19A2.808,2.808,0,0,1,35,21.8a2.776,2.776,0,0,1-1.5,2.49A7.627,7.627,0,0,1,30,25H28s0-6,3-6Z" style="fill:#00c477"/><polygon points="32 25 32 29 30 29 26 29 24 29 24 25 26 25 28 25 30 25 32 25" style="fill:#ebebff"/><path d="M63,54.5V58a5,5,0,0,1-5,5H7a6,6,0,0,1-6-6V56a6,6,0,0,1,6-6h.5A1.5,1.5,0,0,1,9,51.5v.05A1.453,1.453,0,0,1,7.54,53H7.5A3.517,3.517,0,0,0,4,56.5,3.5,3.5,0,0,0,7.5,60H57a3,3,0,0,0,3-3V54.5a1.5,1.5,0,0,1,3,0Z" style="fill:#f0af4c"/><path d="M53.69,16.97l.51-.65A5.973,5.973,0,0,1,58.93,14H61a2.006,2.006,0,0,1,2,2,2.015,2.015,0,0,1-2,2H59.02a2.009,2.009,0,0,0-1.62.83l-4.44,6.14-4.37,6.06A11.992,11.992,0,0,1,38.86,36H34.95a4.012,4.012,0,0,0-3.82,2.82L30.12,42.1A9.775,9.775,0,0,1,11.03,40q-.03-.39-.03-.78V32a3,3,0,0,0-3-3,1,1,0,0,0-1,1v2a2,2,0,0,1,0,4H6a3,3,0,0,1-3-3V29a4,4,0,0,1,4-4H9a6,6,0,0,1,6,6v8.25A5.757,5.757,0,0,0,20.75,45a.66.66,0,0,0,.14-.01A5.728,5.728,0,0,0,26,41.59a5.124,5.124,0,0,0,.25-.65l1.45-4.7a6,6,0,0,1,2.34-3.18A5.923,5.923,0,0,1,33.43,32h4.66a7.978,7.978,0,0,0,6.31-3.09Z" style="fill:#ffd48a"/><path d="M28.3,17a14.263,14.263,0,0,1,1.45-4A12.846,12.846,0,0,1,41,6c.34,0,.67.01,1,.04.25.02.49.05.73.08-1.49.7-8.42,4.09-5.73,5.88,2.63,1.75,6.03-4.18,6.83-5.67.38.09.75.2,1.12.32C44.82,8.55,44.66,14,47,14c1.62,0,.62-4.57.18-6.32a13.907,13.907,0,0,1,6.51,9.29L44.4,28.91A7.978,7.978,0,0,1,38.09,32H37V29h1a1,1,0,0,0,1-1V26a1,1,0,0,0-1-1H30a7.627,7.627,0,0,0,3.5-.71A2.776,2.776,0,0,0,35,21.8,2.808,2.808,0,0,0,32.2,19H31c-3,0-3,6-3,6s0-.4-.05-.99L28,24l.03-5A16.314,16.314,0,0,1,28.3,17Z" style="fill:#c22026"/><path d="M16.63,53.64a7.869,7.869,0,0,1-2.73-1.48A7.969,7.969,0,0,1,11,46V40h.03a9.777,9.777,0,0,0,19.09,2.1l1.01-3.28A4.012,4.012,0,0,1,34.95,36h3.91a11.992,11.992,0,0,0,9.73-4.97l4.37-6.06L53,25V36A17.97,17.97,0,0,1,42.28,52.45a16.343,16.343,0,0,1-3,1.03A17.789,17.789,0,0,1,35,54H19A8.044,8.044,0,0,1,16.63,53.64Z" style="fill:#c22026"/><path d="M44.95,6.65c-.37-.12-.74-.23-1.12-.32-.36-.08-.73-.15-1.1-.21-.24-.03-.48-.06-.73-.08V1h3l6,2L47,7s.07.26.18.68A12.885,12.885,0,0,0,44.95,6.65Z" style="fill:#c22026"/><path d="M47.18,7.68C47.62,9.43,48.62,14,47,14c-2.34,0-2.18-5.45-2.05-7.35A12.885,12.885,0,0,1,47.18,7.68Z" style="fill:#911a1c"/><path d="M42.28,52.45,47,60H43l-3.72-6.52A16.343,16.343,0,0,0,42.28,52.45Z" style="fill:#ad8451"/><path d="M42.73,6.12c.37.06.74.13,1.1.21-.8,1.49-4.2,7.42-6.83,5.67C34.31,10.21,41.24,6.82,42.73,6.12Z" style="fill:#911a1c"/><path d="M39,26v2a1,1,0,0,1-1,1H32V25h6A1,1,0,0,1,39,26Z" style="fill:#00c477"/><path d="M37,29v3H33.43a5.923,5.923,0,0,0-3.39,1.06L30,33V29h7Z" style="fill:#009e60"/><path d="M30,33l.04.06a6,6,0,0,0-2.34,3.18l-1.45,4.7a5.124,5.124,0,0,1-.25.65V29h4Z" style="fill:#bcc1e3"/><rect x="27" y="54" width="3" height="6" style="fill:#ad8451"/><path d="M26,29V41.59a5.728,5.728,0,0,1-5.11,3.4A2,2,0,0,1,19,43V29h7Z" style="fill:#009e60"/><path d="M24,25v4H18a1,1,0,0,1-1-1V26a1,1,0,0,1,1-1Z" style="fill:#00c477"/><path d="M16.63,53.64,13,60H9l4.9-7.84A7.869,7.869,0,0,0,16.63,53.64Z" style="fill:#ad8451"/><path d="M60,54.5V57a3,3,0,0,1-3,3H7.5A3.5,3.5,0,0,1,4,56.5,3.517,3.517,0,0,1,7.5,53h.04A1.453,1.453,0,0,0,9,51.55V51.5a1.49,1.49,0,0,0-.175-.69A2,2,0,0,1,7,52a4,4,0,0,0-4,4v1a4,4,0,0,0,4,4H57a4,4,0,0,0,4-4V55a2,2,0,0,1,1.19-1.825A1.489,1.489,0,0,0,60,54.5Z" style="fill:#c99c5c"/><path d="M52.96,24.97l-4.37,6.06A11.992,11.992,0,0,1,38.86,36H34.95a4.012,4.012,0,0,0-3.82,2.82L30.12,42.1A9.775,9.775,0,0,1,11.03,40H11v6a7.969,7.969,0,0,0,2.9,6.16,7.869,7.869,0,0,0,2.73,1.48A8.044,8.044,0,0,0,19,54h1a2,2,0,0,1,0-4h5.811a10.154,10.154,0,0,0,10.1-9.144L36,40h4a21.173,21.173,0,0,0,13-4.188V25Z" style="fill:#911a1c"/><path d="M61,25a3.017,3.017,0,0,1-3-3V21a1,1,0,0,1,2,0v1a.957.957,0,0,0,.288.694A.978.978,0,0,0,61,23a1,1,0,0,0,1-1V16H59a1,1,0,0,1,0-2h4a1,1,0,0,1,1,1v7A3,3,0,0,1,61,25Z" style="fill:#c99c5c"/><path d="M51.8,12.237C50.489,15.225,47.748,18.477,42,19c-7.5.682-11.739-.959-13.682-2.073-.006.024-.013.048-.018.073a16.314,16.314,0,0,0-.27,2L28,24l-.05.01c.05.59.05.99.05.99s0-6,3-6h1.2A2.808,2.808,0,0,1,35,21.8a2.776,2.776,0,0,1-1.5,2.49A7.627,7.627,0,0,1,30,25h8a1,1,0,0,1,1,1v2a1,1,0,0,1-1,1H37v3h1.09a7.978,7.978,0,0,0,6.31-3.09l9.29-11.94A14.484,14.484,0,0,0,51.8,12.237Z" style="fill:#911a1c"/><path d="M31,21a1.943,1.943,0,0,1,2,1.867,1.839,1.839,0,0,1-1.071,1.66,5.779,5.779,0,0,1-2.5.473H29s-1-4,1.143-4Z" style="fill:#009e60"/><path d="M25,21a1.943,1.943,0,0,0-2,1.867,1.839,1.839,0,0,0,1.071,1.66,5.779,5.779,0,0,0,2.5.473H27s1-4-1.143-4Z" style="fill:#009e60"/><polygon points="30 27 26 27 24 27 24 29 26 29 30 29 32 29 32 27 30 27" style="fill:#ccf"/><path d="M38,27H32v2h6a1,1,0,0,0,1-1V26A1,1,0,0,1,38,27Z" style="fill:#007145"/><path d="M19,27H18a1,1,0,0,1-1-1v2a1,1,0,0,0,1,1h6V27Z" style="fill:#007145"/><path d="M28,15v2h.3a14.606,14.606,0,0,1,.558-2Z" style="fill:#007145"/><polygon points="26 15 22 15 20 15 20 17 22 17 26 17 28 17 28 15 26 15" style="fill:#ccf"/><path d="M15,15H14a1,1,0,0,1-1-1v2a1,1,0,0,0,1,1h6V15Z" style="fill:#007145"/><path d="M15,62a1,1,0,0,0-1-1H7a4,4,0,0,1-4-4V56a3.987,3.987,0,0,1,3.505-3.95.99.99,0,0,0-.776-1.8A6.5,6.5,0,0,0,7.5,63H14A1,1,0,0,0,15,62Z" style="fill:#ffe0ab"/><path d="M25,62a1,1,0,0,0-1-1H17a1,1,0,0,0,0,2h7A1,1,0,0,0,25,62Z" style="fill:#ffd48a"/><rect x="61" y="54" width="2" height="5" rx="1" ry="1" style="fill:#ffd48a"/><rect x="42" y="61" width="15" height="2" rx="1" ry="1" style="fill:#ffd48a"/><path d="M43.6,54.554l-1.315-2.1a16.343,16.343,0,0,1-3,1.03l1.431,2.507A3.987,3.987,0,0,0,43.6,54.554Z" style="fill:#8f6d43"/><rect x="27" y="54" width="3" height="2" style="fill:#8f6d43"/><path d="M13.9,52.16l-1.264,2.022.164.218a3.98,3.98,0,0,0,2.528,1.521l1.3-2.281A7.869,7.869,0,0,1,13.9,52.16Z" style="fill:#8f6d43"/><path d="M48.313,45.76a2,2,0,0,0-2.821.2C44.118,47.534,41.525,49.672,34.9,50a2,2,0,0,0,.1,4h.029l.074,0a29.857,29.857,0,0,0,3.755-.426c.141-.031.284-.056.423-.091a16.343,16.343,0,0,0,3-1.03A17.982,17.982,0,0,0,48.991,47.3,1.984,1.984,0,0,0,48.313,45.76Z" style="fill:#ff2a32"/><path d="M50.742,40.143a2,2,0,0,0-2.6,1.115c-.126.315-.257.63-.393.94a1.983,1.983,0,0,0,3.093,2.329,17.851,17.851,0,0,0,1.151-2.618A2,2,0,0,0,50.742,40.143Z" style="fill:#ff2a32"/><path d="M55.8,17.544,46.087,30.032a10,10,0,0,1-8.113,3.858l-4.474-.1a4,4,0,0,0-3.4,2.55L27.9,42.06A7.707,7.707,0,0,1,13,39.293V31a4,4,0,0,0-4-4H7a2,2,0,0,0-2,2v4a1,1,0,0,0,1,1H9a2.015,2.015,0,0,0-2-2V30a1,1,0,0,1,1-1,3,3,0,0,1,3,3v7.22q0,.39.03.78a9.777,9.777,0,0,0,19.09,2.1l1.01-3.28A4.012,4.012,0,0,1,34.95,36h3.91a11.992,11.992,0,0,0,9.73-4.97l4.37-6.06,4.44-6.14A2.009,2.009,0,0,1,59.02,18H61a2.015,2.015,0,0,0,2-2H58.956A4,4,0,0,0,55.8,17.544Z" style="fill:#f0af4c"/><path d="M51,3,48,2l-.442,1.325a2,2,0,0,1-2.289,1.329L42,4V6.04c.25.02.49.05.73.08.37.06.74.13,1.1.21.38.09.75.2,1.12.32a12.885,12.885,0,0,1,2.23,1.03C47.07,7.26,47,7,47,7Z" style="fill:#911a1c"/><path d="M30,31v2l.04.06A5.923,5.923,0,0,1,33.43,32H37V31Z" style="fill:#007145"/><path d="M30,31h-.5A5.479,5.479,0,0,0,26,32.257V41.59a5.124,5.124,0,0,0,.25-.65l1.45-4.7a6,6,0,0,1,2.34-3.18L30,33Z" style="fill:#a4afe6"/><path d="M24,36.5a5.5,5.5,0,0,1-5,5.475V43a2,2,0,0,0,1.89,1.99A5.728,5.728,0,0,0,26,41.59V32.257A5.491,5.491,0,0,0,24,36.5Z" style="fill:#007145"/><rect x="20" y="13" width="8" height="2" style="fill:#ebebff"/><path d="M27,9a1.943,1.943,0,0,1,2,1.867,1.839,1.839,0,0,1-1.071,1.66,5.779,5.779,0,0,1-2.5.473H25s-1-4,1.143-4Z" style="fill:#009e60"/><path d="M21,9a1.943,1.943,0,0,0-2,1.867,1.839,1.839,0,0,0,1.071,1.66,5.779,5.779,0,0,0,2.5.473H23s1-4-1.143-4Z" style="fill:#009e60"/><path d="M28.03,19a16.314,16.314,0,0,1,.27-2H15v3h6.676A2.785,2.785,0,0,1,23.8,19H25a2.135,2.135,0,0,1,1.774,1h1.25Z" style="fill:#c22026"/><path d="M30.192,13.96a1.844,1.844,0,0,0-.173,1.03,1.588,1.588,0,0,0,.508.832,4.17,4.17,0,0,0,2,.994A10.762,10.762,0,0,0,34.779,17a1.434,1.434,0,0,0,.9-.2,1.037,1.037,0,0,0,.291-1.043,3.546,3.546,0,0,0-.5-1.022,13.808,13.808,0,0,1-1.285-2.764,1.418,1.418,0,0,0-.548-.869,1.015,1.015,0,0,0-.432-.1,1.507,1.507,0,0,0-1.384.523l-.81,1.1A6.973,6.973,0,0,0,30.192,13.96Z" style="fill:#eb2335"/><path d="M40.7,14.849a.8.8,0,0,1,.293.555,1.729,1.729,0,0,1-.249,1.127,1.6,1.6,0,0,1-.842.566c-.735.256-1.9.765-2.549-.006a1.759,1.759,0,0,1-.337-1.288,1.42,1.42,0,0,1,.626-1.066,1.38,1.38,0,0,1,.491-.141C38.634,14.525,40.07,14.329,40.7,14.849Z" style="fill:#eb2335"/><ellipse cx="50.684" cy="14.695" rx="1.642" ry="2.286" transform="translate(4.463 40.159) rotate(-45.02)" style="fill:#f6fafd"/><ellipse cx="46.682" cy="15.708" rx="0.825" ry="1.148" transform="translate(2.573 37.625) rotate(-45.02)" style="fill:#f6fafd"/><ellipse cx="32.427" cy="14.208" rx="0.413" ry="0.574" transform="translate(-0.545 27.103) rotate(-45.02)" style="fill:#f6fafd"/></g></svg>