<svg xmlns="http://www.w3.org/2000/svg" viewBox="0 0 64 64"><g id="_22-sofa" data-name="22-sofa"><path d="M12,33a4,4,0,0,0-3.03-3.88L9,29V22.72a3.6,3.6,0,0,0,.55,1.63A105.975,105.975,0,0,1,15,37H12V33Z" style="fill:#004a2d"/><path d="M29.33,28.8a1.25,1.25,0,0,0,1.48-1.81l-1.64-2.57,1.02-2.05a1.165,1.165,0,0,0-1.48-1.63l-2.22.79-2.11-2.19a1.3,1.3,0,0,0-2.17.77l-.17,2.98-2.22.79a1.131,1.131,0,0,0-.05,2.16l2.14.94.45,2.99a1.3,1.3,0,0,0,2.34.47l1.7-2.46Zm13.5,4.5a3.481,3.481,0,0,1,.16,1.2c-.13,1.3-1.58,2.08-2.9,2.5H15A105.975,105.975,0,0,0,9.55,24.35,3.6,3.6,0,0,1,9,22.72v-.06a3.1,3.1,0,0,1,.28-1.02A12.789,12.789,0,0,1,14,16.21a17.235,17.235,0,0,1,3.04-1.59,27.149,27.149,0,0,1,10.83-1.6,25.144,25.144,0,0,1,8.05,1.36,2.886,2.886,0,0,1,.98.52,3.029,3.029,0,0,1,.68,1.11c.27.66.53,1.32.78,1.99.1.27.2.54.29.81q.27.72.51,1.44c.04.11.08.22.11.33.21.6.4,1.21.59,1.82.2.63.39,1.26.58,1.9.75,2.55,1.42,5.12,2.06,7.7C42.61,32.43,42.72,32.87,42.83,33.3Z" style="fill:#f2c373"/><path d="M30.81,26.99a1.25,1.25,0,0,1-1.48,1.81l-2.93-.82-1.7,2.46a1.3,1.3,0,0,1-2.34-.47l-.45-2.99-2.14-.94a1.131,1.131,0,0,1,.05-2.16l2.22-.79.17-2.98a1.3,1.3,0,0,1,2.17-.77l2.11,2.19,2.22-.79a1.165,1.165,0,0,1,1.48,1.63l-1.02,2.05Z" style="fill:#ae0000"/><polygon points="22 53 20 61 17.2 61 18 53 22 53" style="fill:#61362b"/><polygon points="46 53 46.8 61 44 61 42 53 46 53" style="fill:#61362b"/><polygon points="17.2 61 17 63 11 63 11 53 18 53 17.2 61" style="fill:#b46e5a"/><path d="M11,53V63H9L8,53v-.13A3.657,3.657,0,0,0,9,53Z" style="fill:#915041"/><path d="M56,52.87V53L55,63H53V53h2A3.657,3.657,0,0,0,56,52.87Z" style="fill:#915041"/><polygon points="46.8 61 46 53 53 53 53 63 47 63 46.8 61" style="fill:#b46e5a"/><path d="M56,52.87A3.657,3.657,0,0,1,55,53H9a3.657,3.657,0,0,1-1-.13A3.992,3.992,0,0,1,5,49V36a1,1,0,0,0-1-1,3,3,0,0,1,0-6H8a3.906,3.906,0,0,1,.97.12A4,4,0,0,1,12,33v4H11a2.006,2.006,0,0,0-2,2v6a2.006,2.006,0,0,0,2,2H53a2.006,2.006,0,0,0,2-2V39a2.006,2.006,0,0,0-2-2H52V33a4,4,0,0,1,3.03-3.88A3.906,3.906,0,0,1,56,29h4.08A2.923,2.923,0,0,1,63,31.92v.07A3,3,0,0,1,60,35a1,1,0,0,0-1,1V49A3.992,3.992,0,0,1,56,52.87Z" style="fill:#009e60"/><path d="M16.96,1H22a8,8,0,0,0-8,8v7.21a12.789,12.789,0,0,0-4.72,5.43A3.1,3.1,0,0,0,9,22.66V10C9,5.03,12.56,1,16.96,1Z" style="fill:#007145"/><path d="M52,35v2H50V9a8,8,0,0,0-8-8h5.04C51.44,1,55,5.03,55,10V29l.03.12A4,4,0,0,0,52,33Z" style="fill:#007145"/><path d="M42.99,34.5a3.481,3.481,0,0,0-.16-1.2c-.11-.43-.22-.87-.33-1.3-.64-2.58-1.31-5.15-2.06-7.7-.18-.64-.38-1.27-.58-1.9-.18-.61-.38-1.22-.59-1.82-.03-.11-.07-.22-.11-.33q-.24-.735-.51-1.44c-.09-.27-.19-.54-.29-.81-.25-.67-.51-1.33-.78-1.99a3.029,3.029,0,0,0-.68-1.11,2.886,2.886,0,0,0-.98-.52,25.144,25.144,0,0,0-8.05-1.36,27.149,27.149,0,0,0-10.83,1.6A17.235,17.235,0,0,0,14,16.21V9a8,8,0,0,1,8-8H42a8,8,0,0,1,8,8V37H40.09C41.41,36.58,42.86,35.8,42.99,34.5Z" style="fill:#ae0000"/><path d="M14,47H11a2.006,2.006,0,0,1-2-2V39a2.006,2.006,0,0,1,2-2h3a2.006,2.006,0,0,0-2,2v6A2.006,2.006,0,0,0,14,47Z" style="fill:#911a1c"/><path d="M53,37a2.006,2.006,0,0,1,2,2v6a2.006,2.006,0,0,1-2,2H50a2.006,2.006,0,0,0,2-2V39a2.006,2.006,0,0,0-2-2h3Z" style="fill:#911a1c"/><path d="M15,37H50a2.006,2.006,0,0,1,2,2v6a2.006,2.006,0,0,1-2,2H14a2.006,2.006,0,0,1-2-2V39a2.006,2.006,0,0,1,2-2Z" style="fill:#eb2335"/><path d="M50,44H14a2.006,2.006,0,0,1-2-2v3a2.006,2.006,0,0,0,2,2H50a2.006,2.006,0,0,0,2-2V42A2.006,2.006,0,0,1,50,44Z" style="fill:#911a1c"/><path d="M50,37H14a2.006,2.006,0,0,0-2,2v3a2.006,2.006,0,0,1,2-2H50a2.006,2.006,0,0,1,2,2V39A2.006,2.006,0,0,0,50,37Z" style="fill:#ff2a32"/><rect x="16" y="37" width="24" height="3" rx="1.5" ry="1.5" style="fill:#ff5968"/><rect x="42" y="37" width="5" height="3" rx="1.5" ry="1.5" style="fill:#ff5968"/><path d="M15.67,4.119A7.979,7.979,0,0,1,22,1H16.96C12.56,1,9,5.03,9,10v2A8,8,0,0,1,15.67,4.119Z" style="fill:#009e60"/><path d="M48.33,4.119A8,8,0,0,1,55,12V10c0-4.97-3.56-9-7.96-9H42A7.979,7.979,0,0,1,48.33,4.119Z" style="fill:#009e60"/><path d="M15.67,4.119A8.1,8.1,0,0,1,17,4H47a8.1,8.1,0,0,1,1.33.119A7.979,7.979,0,0,0,42,1H22A7.979,7.979,0,0,0,15.67,4.119Z" style="fill:#eb2335"/><rect x="21" y="1" width="14" height="3" rx="1.5" ry="1.5" style="fill:#ff5968"/><rect x="37" y="1" width="6" height="3" rx="1.5" ry="1.5" style="fill:#ff5968"/><path d="M55,27a5,5,0,0,0-5,5v5h2V33a4,4,0,0,1,3.03-3.88L55,29Z" style="fill:#004a2d"/><path d="M46.565,29.329a67,67,0,0,0-3.508-10.848A3.991,3.991,0,0,0,39.356,16H37.575l0,.01c.27.66.53,1.32.78,1.99.1.27.2.54.29.81q.27.705.51,1.44c.04.11.08.22.11.33.21.6.41,1.21.59,1.82.2.63.4,1.26.58,1.9.75,2.55,1.42,5.12,2.06,7.7.11.43.22.87.33,1.3a3.481,3.481,0,0,1,.16,1.2c-.13,1.3-1.58,2.08-2.9,2.5H50V32C47.814,32,47,31.471,46.565,29.329Z" style="fill:#911a1c"/><path d="M7,41v4a4,4,0,0,0,4,4H53a4,4,0,0,0,4-4V41a2,2,0,0,0-2-2v6a2.006,2.006,0,0,1-2,2H11a2.006,2.006,0,0,1-2-2V39A2,2,0,0,0,7,41Z" style="fill:#004a2d"/><path d="M3,32H8a2,2,0,0,1,2,2v3.279A1.975,1.975,0,0,1,11,37h1V33a4,4,0,0,0-3.03-3.88A3.906,3.906,0,0,0,8,29H4a3,3,0,0,0-3,3,2.958,2.958,0,0,0,.219,1.108A1.993,1.993,0,0,1,3,32Z" style="fill:#00c477"/><path d="M63,31.92A2.923,2.923,0,0,0,60.08,29H56a3.906,3.906,0,0,0-.97.12A4,4,0,0,0,52,33v4h1a1.975,1.975,0,0,1,1,.279V34a2,2,0,0,1,2-2h5a1.993,1.993,0,0,1,1.781,1.108A3.009,3.009,0,0,0,63,31.99Z" style="fill:#00c477"/><rect x="12" y="49" width="40" height="4" rx="2" ry="2" style="fill:#008f57"/><rect x="55" y="29" width="6" height="3" rx="1.5" ry="1.5" style="fill:#00db85"/><rect x="3" y="29" width="6" height="3" rx="1.5" ry="1.5" style="fill:#00db85"/><path d="M7,51V37a2,2,0,0,0-2-2H4a1,1,0,0,1,1,1V49a3.992,3.992,0,0,0,3,3.87A3.657,3.657,0,0,0,9,53,2,2,0,0,1,7,51Z" style="fill:#008f57"/><path d="M57,37V51a2,2,0,0,1-2,2,3.657,3.657,0,0,0,1-.13A3.992,3.992,0,0,0,59,49V36a1,1,0,0,1,1-1H59A2,2,0,0,0,57,37Z" style="fill:#008f57"/><path d="M12.235,23.708A20.625,20.625,0,0,1,23,17a29.039,29.039,0,0,1,15.251.722c-.217-.574-.439-1.144-.671-1.712a3.029,3.029,0,0,0-.68-1.11,2.886,2.886,0,0,0-.98-.52,25.144,25.144,0,0,0-8.05-1.36,27.149,27.149,0,0,0-10.83,1.6A17.235,17.235,0,0,0,14,16.21a12.789,12.789,0,0,0-4.72,5.43A3.1,3.1,0,0,0,9,22.66v.06a2.016,2.016,0,0,0,.031.28h1.681A2,2,0,0,1,12.235,23.708Z" style="fill:#ffd48a"/><path d="M42.967,34H27.8a16.765,16.765,0,0,1-15.262-9.828A2.023,2.023,0,0,0,10.712,23H9.031a4.347,4.347,0,0,0,.519,1.35A105.975,105.975,0,0,1,15,37H40.09c1.32-.42,2.77-1.2,2.9-2.5A2.2,2.2,0,0,0,42.967,34Z" style="fill:#e6b269"/><path d="M27.557,14.239a1.954,1.954,0,0,0-1.528,1.254,1.936,1.936,0,0,0,1.016,1.853,21.089,21.089,0,0,0,3.308,1.459C32.69,19.86,34.71,21.927,37.264,22a.708.708,0,0,0,.491-.118.76.76,0,0,0,.2-.5,6.577,6.577,0,0,0-1.2-4.614,6.038,6.038,0,0,0-3.858-2.43A13.564,13.564,0,0,0,27.557,14.239Z" style="fill:#ffe7bf"/><path d="M48.181,7.981c-.015-.031-.031-.062-.047-.092-.467-.881-.73-1.323-1.744-1.6A10.6,10.6,0,0,0,43.4,6c-.649.011-1.614.05-2.048.653A2.161,2.161,0,0,0,41,7.891a1.282,1.282,0,0,0,.468.865,23.73,23.73,0,0,0,2.2,2.036l3.3,2.811c.29.247.666.508,1.007.348a.925.925,0,0,0,.346-.348,4.58,4.58,0,0,0,.67-2.807A7.311,7.311,0,0,0,48.181,7.981Z" style="fill:#c90000"/><path d="M46,53l.8,8,.2,2h2V59a4,4,0,0,1,4-4V53Z" style="fill:#7a4b3d"/><path d="M56,53v-.13A3.657,3.657,0,0,1,55,53H53v2h2.8Z" style="fill:#69392f"/><path d="M46,53H42l.5,2.018a2,2,0,0,1,1.775,1.653L45,61h1.8Z" style="fill:#42251d"/><path d="M18,53l-.8,8L17,63H15V59a4,4,0,0,0-4-4V53Z" style="fill:#7a4b3d"/><path d="M8,53v-.13A3.657,3.657,0,0,0,9,53h2v2H8.2Z" style="fill:#69392f"/><path d="M18,53h4l-.5,2.018a2,2,0,0,0-1.775,1.653L19,61H17.2Z" style="fill:#42251d"/><path d="M42,8.5h.5V9a.5.5,0,0,0,1,0V8.5H44a.5.5,0,0,0,0-1h-.5V7a.5.5,0,0,0-1,0v.5H42a.5.5,0,0,0,0,1Z" style="fill:#009e60"/><path d="M44,19.5h-.5V19a.5.5,0,0,0-1,0v.5H42a.5.5,0,0,0,0,1h.5V21a.5.5,0,0,0,1,0v-.5H44a.5.5,0,0,0,0-1Z" style="fill:#007145"/><path d="M33,7.5h-.5V7a.5.5,0,0,0-1,0v.5H31a.5.5,0,0,0,0,1h.5V9a.5.5,0,0,0,1,0V8.5H33a.5.5,0,0,0,0-1Z" style="fill:#009e60"/><path d="M22,7.5h-.5V7a.5.5,0,0,0-1,0v.5H20a.5.5,0,0,0,0,1h.5V9a.5.5,0,0,0,1,0V8.5H22a.5.5,0,0,0,0-1Z" style="fill:#009e60"/><path d="M44,31.5h-.5V31a.5.5,0,0,0-1,0v.5h-.128c.042.167.087.333.128.5.11.43.22.87.33,1.3.015.057.025.116.039.174A.516.516,0,0,0,43,33.5a.5.5,0,0,0,.5-.5v-.5H44a.5.5,0,0,0,0-1Z" style="fill:#007145"/></g></svg>