<svg xmlns="http://www.w3.org/2000/svg" viewBox="0 0 64 64"><g id="_23-sweater" data-name="23-sweater"><path d="M23.75,28.25a2.266,2.266,0,0,1-.28,2.48,1.375,1.375,0,0,1-.35.27,1.375,1.375,0,0,1,.35.27,2.266,2.266,0,0,1,.28,2.48,2.266,2.266,0,0,1-2.48-.28,1.375,1.375,0,0,1-.27-.35,1.375,1.375,0,0,1-.27.35,2.266,2.266,0,0,1-2.48.28,2.266,2.266,0,0,1,.28-2.48,1.375,1.375,0,0,1,.35-.27,1.375,1.375,0,0,1-.35-.27,2.266,2.266,0,0,1-.28-2.48,2.266,2.266,0,0,1,2.48.28,1.375,1.375,0,0,1,.27.35,1.375,1.375,0,0,1,.27-.35A2.266,2.266,0,0,1,23.75,28.25Z" style="fill:#f2c373"/><path d="M35.67,28.33a3.015,3.015,0,0,1-.37,3.3,2.1,2.1,0,0,1-.47.37,2.1,2.1,0,0,1,.47.37,3.015,3.015,0,0,1,.37,3.3,3.015,3.015,0,0,1-3.3-.37,2.1,2.1,0,0,1-.37-.47,2.1,2.1,0,0,1-.37.47,3.015,3.015,0,0,1-3.3.37,3.015,3.015,0,0,1,.37-3.3,2.1,2.1,0,0,1,.47-.37,2.1,2.1,0,0,1-.47-.37,3.015,3.015,0,0,1-.37-3.3,3.015,3.015,0,0,1,3.3.37,2.1,2.1,0,0,1,.37.47,2.1,2.1,0,0,1,.37-.47A3.015,3.015,0,0,1,35.67,28.33Z" style="fill:#f2c373"/><path d="M45.75,28.25a2.266,2.266,0,0,1-.28,2.48,1.375,1.375,0,0,1-.35.27,1.375,1.375,0,0,1,.35.27,2.266,2.266,0,0,1,.28,2.48,2.266,2.266,0,0,1-2.48-.28,1.375,1.375,0,0,1-.27-.35,1.375,1.375,0,0,1-.27.35,2.266,2.266,0,0,1-2.48.28,2.266,2.266,0,0,1,.28-2.48,1.375,1.375,0,0,1,.35-.27,1.375,1.375,0,0,1-.35-.27,2.266,2.266,0,0,1-.28-2.48,2.266,2.266,0,0,1,2.48.28,1.375,1.375,0,0,1,.27.35,1.375,1.375,0,0,1,.27-.35A2.266,2.266,0,0,1,45.75,28.25Z" style="fill:#f2c373"/><path d="M22.15,1a9.634,9.634,0,0,1,1.61.14C22.89,1.69,20,3.9,20,9h-.13A4.085,4.085,0,0,1,18,5.46V4.41A3.673,3.673,0,0,1,18.87,2h.01a2.811,2.811,0,0,1,2.11-1Z" style="fill:#007145"/><path d="M27,2h2a41.09,41.09,0,0,0-1,8.84,37.814,37.814,0,0,1-3.99-.55C24.16,4.76,26,2,26,2V1.86A2.415,2.415,0,0,0,27,2Z" style="fill:#007145"/><path d="M35,2a41.09,41.09,0,0,1,1,8.84c-1.2.1-2.54.16-4,.16V2c1.06,0,2.13,0,3-.01Z" style="fill:#007145"/><path d="M44.03,9h.1a2.69,2.69,0,0,1-.48.24,23.24,23.24,0,0,1-3.66,1.05C39.84,4.76,38,2,38,2V1.86c.14-.06.25-.14.44-.21a9.672,9.672,0,0,1,1.8-.51C41.11,1.69,44,3.9,44,9Z" style="fill:#007145"/><path d="M26,1.86V2s-1.84,2.76-1.99,8.29a23.24,23.24,0,0,1-3.66-1.05A2.69,2.69,0,0,1,19.87,9H20c0-5.1,2.89-7.31,3.76-7.86a9.672,9.672,0,0,1,1.8.51C25.75,1.73,25.86,1.8,26,1.86Z" style="fill:#009e60"/><path d="M32,2v9c-1.46,0-2.8-.06-4-.16A41.09,41.09,0,0,1,29,2Z" style="fill:#009e60"/><path d="M39.99,10.29a37.814,37.814,0,0,1-3.99.55A41.09,41.09,0,0,0,35,2V1.99c1.17.01,2,.01,2,0a2.271,2.271,0,0,0,1-.13V2S39.84,4.76,39.99,10.29Z" style="fill:#009e60"/><path d="M46,4.41V5.46A4.085,4.085,0,0,1,44.13,9H44c0-5.1-2.89-7.31-3.76-7.86A9.634,9.634,0,0,1,41.85,1h1.16a2.811,2.811,0,0,1,2.11,1h.01A3.673,3.673,0,0,1,46,4.41Z" style="fill:#009e60"/><path d="M45.48,22.33l2.87,13.98C44.49,38.1,39.85,39,32,39s-12.49-.9-16.35-2.69l2.87-13.98C21.33,24.11,24.19,25,32,25S42.67,24.11,45.48,22.33Zm-.01,8.4a2.266,2.266,0,0,0,.28-2.48,2.266,2.266,0,0,0-2.48.28,1.375,1.375,0,0,0-.27.35,1.375,1.375,0,0,0-.27-.35,2.266,2.266,0,0,0-2.48-.28,2.266,2.266,0,0,0,.28,2.48,1.375,1.375,0,0,0,.35.27,1.375,1.375,0,0,0-.35.27,2.266,2.266,0,0,0-.28,2.48,2.266,2.266,0,0,0,2.48-.28,1.375,1.375,0,0,0,.27-.35,1.375,1.375,0,0,0,.27.35,2.266,2.266,0,0,0,2.48.28,2.266,2.266,0,0,0-.28-2.48,1.375,1.375,0,0,0-.35-.27A1.375,1.375,0,0,0,45.47,30.73Zm-10.17.9a3.015,3.015,0,0,0,.37-3.3,3.015,3.015,0,0,0-3.3.37,2.1,2.1,0,0,0-.37.47,2.1,2.1,0,0,0-.37-.47,3.015,3.015,0,0,0-3.3-.37,3.015,3.015,0,0,0,.37,3.3,2.1,2.1,0,0,0,.47.37,2.1,2.1,0,0,0-.47.37,3.015,3.015,0,0,0-.37,3.3,3.015,3.015,0,0,0,3.3-.37,2.1,2.1,0,0,0,.37-.47,2.1,2.1,0,0,0,.37.47,3.015,3.015,0,0,0,3.3.37,3.015,3.015,0,0,0-.37-3.3,2.1,2.1,0,0,0-.47-.37A2.1,2.1,0,0,0,35.3,31.63Zm-11.83-.9a2.266,2.266,0,0,0,.28-2.48,2.266,2.266,0,0,0-2.48.28,1.375,1.375,0,0,0-.27.35,1.375,1.375,0,0,0-.27-.35,2.266,2.266,0,0,0-2.48-.28,2.266,2.266,0,0,0,.28,2.48,1.375,1.375,0,0,0,.35.27,1.375,1.375,0,0,0-.35.27,2.266,2.266,0,0,0-.28,2.48,2.266,2.266,0,0,0,2.48-.28,1.375,1.375,0,0,0,.27-.35,1.375,1.375,0,0,0,.27.35,2.266,2.266,0,0,0,2.48.28,2.266,2.266,0,0,0-.28-2.48,1.375,1.375,0,0,0-.35-.27A1.375,1.375,0,0,0,23.47,30.73Z" style="fill:#c42527"/><path d="M54,55.49v2.22a4.013,4.013,0,0,1-3.35,3.95A109.694,109.694,0,0,1,33,63H31a109.694,109.694,0,0,1-17.65-1.34A4.013,4.013,0,0,1,10,57.71V55.49a5.564,5.564,0,0,0,3.7,2.87C17.18,59.23,22.64,60,31,60h2c8.36,0,13.82-.77,17.3-1.64A5.564,5.564,0,0,0,54,55.49Z" style="fill:#004a2d"/><path d="M10.88,46.31,9,51,1,49V47l1-3,.14-.08A6.857,6.857,0,0,0,7.87,47,6.927,6.927,0,0,0,10.88,46.31Z" style="fill:#007145"/><path d="M63,47v2l-8,2-1.88-4.69a6.927,6.927,0,0,0,3.01.69,6.857,6.857,0,0,0,5.73-3.08L62,44Z" style="fill:#007145"/><path d="M54,55.49a5.564,5.564,0,0,1-3.7,2.87C46.82,59.23,41.36,60,33,60H31c-8.36,0-13.82-.77-17.3-1.64A5.564,5.564,0,0,1,10,55.49,9.315,9.315,0,0,1,9,51l1.88-4.69a7.172,7.172,0,0,0,1.1-.67,6.934,6.934,0,0,0,2.48-3.56l1.19-5.77C19.51,38.1,24.15,39,32,39s12.49-.9,16.35-2.69l1.19,5.77a6.934,6.934,0,0,0,2.48,3.56,7.172,7.172,0,0,0,1.1.67L55,51A9.315,9.315,0,0,1,54,55.49Z" style="fill:#009e60"/><path d="M39.99,10.29a23.24,23.24,0,0,0,3.66-1.05A2.69,2.69,0,0,0,44.13,9a10.157,10.157,0,0,1,3.88.8A6,6,0,0,0,45,15v5l.48,2.33C42.67,24.11,39.81,25,32,25s-10.67-.89-13.48-2.67L19,20V15a6,6,0,0,0-3.01-5.2A10.157,10.157,0,0,1,19.87,9a2.69,2.69,0,0,0,.48.24,23.24,23.24,0,0,0,3.66,1.05,37.814,37.814,0,0,0,3.99.55c1.2.1,2.54.16,4,.16s2.8-.06,4-.16A37.814,37.814,0,0,0,39.99,10.29Z" style="fill:#009e60"/><path d="M18.52,22.33,15.65,36.31l-1.19,5.77a6.934,6.934,0,0,1-2.48,3.56,7.172,7.172,0,0,1-1.1.67A6.927,6.927,0,0,1,7.87,47,6.87,6.87,0,0,1,1,40.13v-.76a6.929,6.929,0,0,1,.52-2.63l8.82-21.3A10.379,10.379,0,0,1,15.99,9.8,6,6,0,0,1,19,15v5Z" style="fill:#00e088"/><path d="M53.12,46.31a7.172,7.172,0,0,1-1.1-.67,6.934,6.934,0,0,1-2.48-3.56l-1.19-5.77L45.48,22.33,45,20V15a6,6,0,0,1,3.01-5.2,10.379,10.379,0,0,1,5.65,5.64l8.82,21.3A6.929,6.929,0,0,1,63,39.37v.76A6.87,6.87,0,0,1,56.13,47,6.927,6.927,0,0,1,53.12,46.31Z" style="fill:#00e088"/><path d="M19.87,11a2.69,2.69,0,0,0,.48.24,23.24,23.24,0,0,0,3.66,1.05,37.814,37.814,0,0,0,3.99.55c1.2.1,2.54.16,4,.16s2.8-.06,4-.16a37.814,37.814,0,0,0,3.99-.55,23.24,23.24,0,0,0,3.66-1.05,2.69,2.69,0,0,0,.48-.24,3.761,3.761,0,0,0,1.543-1.859A10.232,10.232,0,0,0,44.13,9a2.69,2.69,0,0,1-.48.24,23.24,23.24,0,0,1-3.66,1.05,37.814,37.814,0,0,1-3.99.55c-1.2.1-2.54.16-4,.16s-2.8-.06-4-.16a37.814,37.814,0,0,1-3.99-.55,23.24,23.24,0,0,1-3.66-1.05A2.69,2.69,0,0,1,19.87,9a10.232,10.232,0,0,0-1.543.141A3.761,3.761,0,0,0,19.87,11Z" style="fill:#007145"/><path d="M45.908,24.413,45.48,22.33C42.67,24.11,39.81,25,32,25s-10.67-.89-13.48-2.67l-.427,2.081C21.021,26.128,24.247,27,32,27,39.8,27,43.015,26.119,45.908,24.413Z" style="fill:#fffefe"/><path d="M32,39c7.85,0,12.49-.9,16.35-2.69l-.414-2.017c-.137.067-.273.132-.428.2C43.723,36.251,39.085,37,32,37s-11.723-.749-15.527-2.514c-.139-.062-.274-.127-.409-.193L15.65,36.31C19.51,38.1,24.15,39,32,39Z" style="fill:#fffefe"/><path d="M32,29.169a2.1,2.1,0,0,0-.37-.47,3.017,3.017,0,0,0-3.3-.37,3.017,3.017,0,0,0,.37,3.3,2.1,2.1,0,0,0,.47.37H32Z" style="fill:#f2c373"/><path d="M34.831,32a2.1,2.1,0,0,0,.47-.37,3.017,3.017,0,0,0,.37-3.3,3.017,3.017,0,0,0-3.3.37,2.1,2.1,0,0,0-.37.47V32Z" style="fill:#e0ae66"/><path d="M29.169,32a2.1,2.1,0,0,0-.47.37,3.017,3.017,0,0,0-.37,3.3,3.017,3.017,0,0,0,3.3-.37A2.108,2.108,0,0,0,32,34.83V32Z" style="fill:#e0ae66"/><path d="M34.831,32H32v2.83a2.108,2.108,0,0,0,.37.471,3.017,3.017,0,0,0,3.3.37,3.017,3.017,0,0,0-.37-3.3A2.1,2.1,0,0,0,34.831,32Z" style="fill:#f2c373"/><path d="M33.835,30.165a1.508,1.508,0,0,1-.185,1.65,1.052,1.052,0,0,1-.235.185,1.052,1.052,0,0,1,.235.185,1.508,1.508,0,0,1,.185,1.65,1.508,1.508,0,0,1-1.65-.185A1.052,1.052,0,0,1,32,33.415a1.052,1.052,0,0,1-.185.235,1.508,1.508,0,0,1-1.65.185,1.508,1.508,0,0,1,.185-1.65A1.052,1.052,0,0,1,30.585,32a1.052,1.052,0,0,1-.235-.185,1.508,1.508,0,0,1-.185-1.65,1.508,1.508,0,0,1,1.65.185,1.052,1.052,0,0,1,.185.235,1.052,1.052,0,0,1,.185-.235A1.508,1.508,0,0,1,33.835,30.165Z" style="fill:#eb2335"/><circle cx="32" cy="32" r="1" style="fill:#ffba51"/><path d="M45.12,31a1.375,1.375,0,0,0,.35-.27,2.266,2.266,0,0,0,.28-2.48,2.266,2.266,0,0,0-2.48.28,1.375,1.375,0,0,0-.27.35V31Z" style="fill:#e0ae66"/><path d="M43,28.88a1.375,1.375,0,0,0-.27-.35,2.266,2.266,0,0,0-2.48-.28,2.266,2.266,0,0,0,.28,2.48,1.375,1.375,0,0,0,.35.27H43Z" style="fill:#f2c373"/><path d="M45.12,31H43v2.12a1.375,1.375,0,0,0,.27.35,2.266,2.266,0,0,0,2.48.28,2.266,2.266,0,0,0-.28-2.48A1.375,1.375,0,0,0,45.12,31Z" style="fill:#f2c373"/><path d="M40.88,31a1.375,1.375,0,0,0-.35.27,2.266,2.266,0,0,0-.28,2.48,2.266,2.266,0,0,0,2.48-.28,1.375,1.375,0,0,0,.27-.35V31Z" style="fill:#e0ae66"/><circle cx="43" cy="31" r="1" style="fill:#eb2335"/><path d="M23.12,31a1.375,1.375,0,0,0,.35-.27,2.266,2.266,0,0,0,.28-2.48,2.266,2.266,0,0,0-2.48.28,1.375,1.375,0,0,0-.27.35V31Z" style="fill:#e0ae66"/><path d="M21,28.88a1.375,1.375,0,0,0-.27-.35,2.266,2.266,0,0,0-2.48-.28,2.266,2.266,0,0,0,.28,2.48,1.375,1.375,0,0,0,.35.27H21Z" style="fill:#f2c373"/><path d="M23.12,31H21v2.12a1.375,1.375,0,0,0,.27.35,2.266,2.266,0,0,0,2.48.28,2.266,2.266,0,0,0-.28-2.48A1.375,1.375,0,0,0,23.12,31Z" style="fill:#f2c373"/><path d="M18.88,31a1.375,1.375,0,0,0-.35.27,2.266,2.266,0,0,0-.28,2.48,2.266,2.266,0,0,0,2.48-.28,1.375,1.375,0,0,0,.27-.35V31Z" style="fill:#e0ae66"/><circle cx="21" cy="31" r="1" style="fill:#eb2335"/><path d="M2.14,43.92,2,44l-.452,1.356c.432.714,1.792,2.288,5.514,2.593a1,1,0,0,1,.886,1.312l-.454,1.363L9,51l1.88-4.69A6.927,6.927,0,0,1,7.87,47,6.857,6.857,0,0,1,2.14,43.92Z" style="fill:#004a2d"/><path d="M61.86,43.92A6.857,6.857,0,0,1,56.13,47a6.927,6.927,0,0,1-3.01-.69L55,51l1.846-.462-.426-1.277a1,1,0,0,1,.887-1.312c3.186-.261,4.638-1.452,5.263-2.239L62,44Z" style="fill:#004a2d"/><path d="M15.99,9.8a10.37,10.37,0,0,0-2.584,1.533l1.2,1.444a6,6,0,0,1,1.266,5.057L12.356,34.845A7.829,7.829,0,0,1,1.782,40.528l-.775-.31A6.856,6.856,0,0,0,7.87,47a6.927,6.927,0,0,0,3.01-.69,7.172,7.172,0,0,0,1.1-.67,6.934,6.934,0,0,0,2.48-3.56l1.19-5.77,2.87-13.98L19,20V15A6,6,0,0,0,15.99,9.8Z" style="fill:#00c477"/><path d="M61.86,43.92a6.845,6.845,0,0,0,1.119-3.512l-.3.12a7.829,7.829,0,0,1-10.574-5.683l-3.52-17.011a6,6,0,0,1,1.267-5.057l1.007-1.209A10.345,10.345,0,0,0,48.01,9.8,6,6,0,0,0,45,15v5l.48,2.33,2.87,13.98,1.19,5.77a6.934,6.934,0,0,0,2.48,3.56,7.172,7.172,0,0,0,1.1.67,6.927,6.927,0,0,0,3.01.69A6.857,6.857,0,0,0,61.86,43.92Z" style="fill:#00c477"/><path d="M23.76,1.14A9.634,9.634,0,0,0,22.15,1H20.99a2.689,2.689,0,0,0-1.421.431,11.7,11.7,0,0,0,2.538,1.193A7.32,7.32,0,0,1,23.76,1.14Z" style="fill:#009e60"/><path d="M20,9a11.59,11.59,0,0,1,.31-2.714c-.2-.078-.387-.157-.556-.233a2.976,2.976,0,0,1-1.705-2.214A3.87,3.87,0,0,0,18,4.41V5.46A4.085,4.085,0,0,0,19.87,9H20Z" style="fill:#004a2d"/><path d="M19.754,6.053c.169.076.358.155.556.233a8.88,8.88,0,0,1,1.8-3.662,11.7,11.7,0,0,1-2.538-1.193A3.014,3.014,0,0,0,18.88,2h-.01a3.584,3.584,0,0,0-.821,1.839A2.976,2.976,0,0,0,19.754,6.053Z" style="fill:#007145"/><path d="M24.265,7.377a23.726,23.726,0,0,0-.255,2.913,37.814,37.814,0,0,0,3.99.55c0-1.051.054-2.05.126-2.98A36.6,36.6,0,0,1,24.265,7.377Z" style="fill:#004a2d"/><path d="M25.3,3.445a31.607,31.607,0,0,0,3.326.429C28.825,2.7,29,2,29,2H27a2.415,2.415,0,0,1-1-.14V2A8.873,8.873,0,0,0,25.3,3.445Z" style="fill:#009e60"/><path d="M25.3,3.445a17.746,17.746,0,0,0-1.031,3.932,36.6,36.6,0,0,0,3.861.483c.125-1.6.321-2.969.5-3.986A31.607,31.607,0,0,1,25.3,3.445Z" style="fill:#007145"/><path d="M35.378,3.874C35.175,2.7,35,2,35,2V1.99C34.13,2,33.06,2,32,2V4C33.23,4,34.352,3.954,35.378,3.874Z" style="fill:#009e60"/><path d="M32,4V8c1.424,0,2.707-.053,3.874-.14-.125-1.6-.321-2.969-.5-3.986C34.352,3.954,33.23,4,32,4Z" style="fill:#007145"/><path d="M32,8v3c1.46,0,2.8-.06,4-.16,0-1.051-.054-2.05-.126-2.98C34.707,7.947,33.424,8,32,8Z" style="fill:#004a2d"/><path d="M44,9a11.59,11.59,0,0,0-.31-2.714,21.021,21.021,0,0,1-3.955,1.091,23.726,23.726,0,0,1,.255,2.913,23.24,23.24,0,0,0,3.66-1.05A2.69,2.69,0,0,0,44.13,9H44Z" style="fill:#004a2d"/><path d="M38.7,3.445a21.581,21.581,0,0,0,3.189-.821A7.32,7.32,0,0,0,40.24,1.14a9.672,9.672,0,0,0-1.8.51c-.19.07-.3.15-.44.21V2A8.873,8.873,0,0,1,38.7,3.445Z" style="fill:#009e60"/><path d="M39.735,7.377A21.021,21.021,0,0,0,43.69,6.286a8.88,8.88,0,0,0-1.8-3.662,21.581,21.581,0,0,1-3.189.821A17.746,17.746,0,0,1,39.735,7.377Z" style="fill:#007145"/><path d="M22.107,2.624a21.581,21.581,0,0,0,3.189.821A8.873,8.873,0,0,1,26,2V1.86c-.14-.06-.25-.13-.44-.21a9.672,9.672,0,0,0-1.8-.51A7.32,7.32,0,0,0,22.107,2.624Z" style="fill:#00c477"/><path d="M22.107,2.624a8.88,8.88,0,0,0-1.8,3.662,21.021,21.021,0,0,0,3.955,1.091A17.746,17.746,0,0,1,25.3,3.445,21.581,21.581,0,0,1,22.107,2.624Z" style="fill:#009e60"/><path d="M20.31,6.286A11.59,11.59,0,0,0,20,9h-.13a2.69,2.69,0,0,0,.48.24,23.24,23.24,0,0,0,3.66,1.05,23.726,23.726,0,0,1,.255-2.913A21.021,21.021,0,0,1,20.31,6.286Z" style="fill:#007145"/><path d="M28.622,3.874c-.175,1.017-.371,2.391-.5,3.986C29.293,7.947,30.576,8,32,8V4C30.77,4,29.648,3.954,28.622,3.874Z" style="fill:#009e60"/><path d="M32,4V2H29s-.175.7-.378,1.874C29.648,3.954,30.77,4,32,4Z" style="fill:#00c477"/><path d="M28.126,7.86C28.054,8.79,28,9.789,28,10.84c1.2.1,2.54.16,4,.16V8C30.576,8,29.293,7.947,28.126,7.86Z" style="fill:#007145"/><path d="M35.378,3.874c.175,1.017.371,2.391.5,3.986a36.6,36.6,0,0,0,3.861-.483A17.746,17.746,0,0,0,38.7,3.445,31.607,31.607,0,0,1,35.378,3.874Z" style="fill:#009e60"/><path d="M35.378,3.874A31.607,31.607,0,0,0,38.7,3.445,8.873,8.873,0,0,0,38,2V1.86a2.271,2.271,0,0,1-1,.13c0,.01-.83.01-2,0V2S35.175,2.7,35.378,3.874Z" style="fill:#00c477"/><path d="M35.874,7.86c.072.93.122,1.929.126,2.98a37.814,37.814,0,0,0,3.99-.55,23.726,23.726,0,0,0-.255-2.913A36.6,36.6,0,0,1,35.874,7.86Z" style="fill:#007145"/><path d="M45.12,2a3.014,3.014,0,0,0-.689-.569,11.7,11.7,0,0,1-2.538,1.193,8.88,8.88,0,0,1,1.8,3.662c.2-.078.387-.157.556-.233a2.976,2.976,0,0,0,1.7-2.214A3.584,3.584,0,0,0,45.13,2Z" style="fill:#009e60"/><path d="M44.246,6.053c-.169.076-.358.155-.556.233A11.59,11.59,0,0,1,44,9h.13A4.085,4.085,0,0,0,46,5.46V4.41a3.87,3.87,0,0,0-.049-.571A2.976,2.976,0,0,1,44.246,6.053Z" style="fill:#007145"/><path d="M41.893,2.624a11.7,11.7,0,0,0,2.538-1.193A2.689,2.689,0,0,0,43.01,1H41.85a9.634,9.634,0,0,0-1.61.14A7.32,7.32,0,0,1,41.893,2.624Z" style="fill:#00c477"/><path d="M42.857,25.805c.093.932.2,1.89.309,2.86a1.638,1.638,0,0,1,.1-.135,2.266,2.266,0,0,1,2.48-.28,2.266,2.266,0,0,1-.28,2.48,1.375,1.375,0,0,1-.35.27,1.375,1.375,0,0,1,.35.27,2.266,2.266,0,0,1,.28,2.48,2.286,2.286,0,0,1-1.889.087q.149.949.31,1.877a21.935,21.935,0,0,0,3.337-1.219c.155-.07.291-.135.428-.2L45.48,22.33l.428,2.083A15.307,15.307,0,0,1,42.857,25.805Z" style="fill:#911a1c"/><path d="M20.159,35.8c.126-.712.245-1.437.357-2.168a2.306,2.306,0,0,1-2.266.115,2.266,2.266,0,0,1,.28-2.48,1.375,1.375,0,0,1,.35-.27,1.375,1.375,0,0,1-.35-.27,2.266,2.266,0,0,1-.28-2.48,2.266,2.266,0,0,1,2.48.28,1.375,1.375,0,0,1,.27.35,1.291,1.291,0,0,1,.183-.237c.108-.928.206-1.844.3-2.738a15.472,15.472,0,0,1-3.386-1.494l.427-2.081L16.064,34.293c.135.066.27.131.409.193A22.2,22.2,0,0,0,20.159,35.8Z" style="fill:#911a1c"/><path d="M53.12,46.31a7.172,7.172,0,0,1-1.1-.67,6.9,6.9,0,0,1-2.042-2.463,7.009,7.009,0,0,1-.438-1.1l-1.19-5.77a24.044,24.044,0,0,1-3.808,1.384,30.734,30.734,0,0,0,2.4,7.786A2.006,2.006,0,0,1,46.434,48,21.994,21.994,0,0,1,32,53a21.686,21.686,0,0,1-14.164-4.813,1.982,1.982,0,0,1-.531-2.516,29.456,29.456,0,0,0,2.481-7.89A24.206,24.206,0,0,1,15.65,36.31l-1.19,5.77a7.009,7.009,0,0,1-.438,1.1A6.9,6.9,0,0,1,11.98,45.64a7.172,7.172,0,0,1-1.1.67L9,51a9.315,9.315,0,0,0,1,4.49,5.564,5.564,0,0,0,3.7,2.87C17.18,59.23,22.64,60,31,60h2c8.36,0,13.82-.77,17.3-1.64A5.564,5.564,0,0,0,54,55.49,9.315,9.315,0,0,0,55,51Z" style="fill:#007145"/><path d="M42.365,20.157c.082,1.091.18,2.3.3,3.588A14.46,14.46,0,0,0,45.48,22.33L45,20V15a5.945,5.945,0,0,1,.05-.736A6.735,6.735,0,0,0,42.365,20.157Z" style="fill:#007145"/><path d="M21.981,20.157A6.737,6.737,0,0,0,18.906,14,5.931,5.931,0,0,1,19,15v5l-.48,2.33a14.315,14.315,0,0,0,3.155,1.53C21.8,22.532,21.9,21.28,21.981,20.157Z" style="fill:#007145"/><path d="M42.857,25.805a15.307,15.307,0,0,0,3.051-1.392L45.48,22.33a14.46,14.46,0,0,1-2.819,1.415C42.721,24.413,42.786,25.1,42.857,25.805Z" style="fill:#ccf"/><path d="M21.479,25.905c.071-.7.136-1.381.2-2.045a14.315,14.315,0,0,1-3.155-1.53l-.427,2.081A15.472,15.472,0,0,0,21.479,25.905Z" style="fill:#ccf"/><path d="M44.171,35.714q.177,1.01.371,1.98A24.044,24.044,0,0,0,48.35,36.31l-.414-2.017c-.137.067-.273.132-.428.2A21.935,21.935,0,0,1,44.171,35.714Z" style="fill:#ccf"/><path d="M20.159,35.8a22.2,22.2,0,0,1-3.686-1.317c-.139-.062-.274-.127-.409-.193L15.65,36.31a24.206,24.206,0,0,0,4.136,1.471Q19.983,36.814,20.159,35.8Z" style="fill:#ccf"/><path d="M49.141,58.628A77.868,77.868,0,0,1,33,60H31a77.868,77.868,0,0,1-16.141-1.372,2.464,2.464,0,0,0-.472,3.2A111.558,111.558,0,0,0,31,63h2a111.558,111.558,0,0,0,16.613-1.177,2.464,2.464,0,0,0-.472-3.195Z" style="fill:#009e60"/></g></svg>