<svg xmlns="http://www.w3.org/2000/svg" viewBox="0 0 64 64"><g id="_24-christmas_lamp" data-name="24-christmas lamp"><path d="M16.215,62.332l.176.175a.462.462,0,0,0,.656,0h0a.463.463,0,0,0,.127-.419l-.455-2.274L18.1,61.981a.574.574,0,0,0,.889.1h0a.574.574,0,0,0,.138-.587l-.643-1.426.717-.144a.354.354,0,0,0,.225-.548c-.5-.722-1.377-2.17-1.194-3.086h0a.513.513,0,0,1,.822.134l.365.729a.522.522,0,0,0,.836.136h0a.523.523,0,0,0,.116-.563l-.88-2.2,1.008.336a.356.356,0,0,0,.468-.361L21,51l-3.5.035a.356.356,0,0,0-.361.468l.336,1.008-2.2-.88a.523.523,0,0,0-.563.116h0a.522.522,0,0,0,.136.836l.729.365a.513.513,0,0,1,.134.822h0c-.916.183-2.364-.7-3.086-1.194a.354.354,0,0,0-.548.225l-.144.717-1.426-.643a.574.574,0,0,0-.587.138h0a.574.574,0,0,0,.1.889l2.167,1.379-2.274-.455a.463.463,0,0,0-.419.127h0a.462.462,0,0,0,0,.656l.679.679-.756.252c-.755.252-.252.756-.252.756l3.274.251-.252.252c-.755.756-2.014.5-2.518,1.007l-.015.015a.54.54,0,0,0,.213.891l1.061.354L9.92,61.073a.712.712,0,0,0,0,1.007h0a.712.712,0,0,0,1.007,0l1.007-1.007.354,1.061a.54.54,0,0,0,.891.213l.015-.015c.5-.5.251-1.763,1.007-2.518l.252-.252.251,3.274s.5.5.756-.252l.252-.756Z" style="fill:#004a2d"/><path d="M47.785,62.332l-.176.175a.462.462,0,0,1-.656,0h0a.463.463,0,0,1-.127-.419l.455-2.274L45.9,61.981a.574.574,0,0,1-.889.1h0a.574.574,0,0,1-.138-.587l.643-1.426-.717-.144a.354.354,0,0,1-.225-.548c.495-.722,1.377-2.17,1.194-3.086h0a.513.513,0,0,0-.822.134l-.365.729a.522.522,0,0,1-.836.136h0a.523.523,0,0,1-.116-.563l.88-2.2-1.008.336a.356.356,0,0,1-.468-.361L43,51l3.5.035a.356.356,0,0,1,.361.468l-.336,1.008,2.2-.88a.523.523,0,0,1,.563.116h0a.522.522,0,0,1-.136.836l-.729.365a.513.513,0,0,0-.134.822h0c.916.183,2.364-.7,3.086-1.194a.354.354,0,0,1,.548.225l.144.717,1.426-.643a.574.574,0,0,1,.587.138h0a.574.574,0,0,1-.1.889l-2.167,1.379,2.274-.455a.463.463,0,0,1,.419.127h0a.462.462,0,0,1,0,.656l-.679.679.756.252c.755.252.252.756.252.756l-3.274.251.252.252c.755.756,2.014.5,2.518,1.007l.015.015a.54.54,0,0,1-.213.891l-1.061.354,1.007,1.007a.712.712,0,0,1,0,1.007h0a.712.712,0,0,1-1.007,0l-1.007-1.007-.354,1.061a.54.54,0,0,1-.891.213l-.015-.015c-.5-.5-.251-1.763-1.007-2.518l-.252-.252L49.3,62.836s-.5.5-.756-.252l-.252-.756Z" style="fill:#004a2d"/><path d="M10.074,40.367l1.36,1.36-1.386.43a.693.693,0,0,0-.25,1.165l.02.021c.68.68,2.329.39,3.349,1.41l.34.34-4.3.222s-.646.647.357,1l1,.356-.646.647-.226.225a.612.612,0,0,0,.022.864.636.636,0,0,0,.556.181l2.98-.523-2.808,1.744a.746.746,0,0,0-.1,1.167.781.781,0,0,0,.777.2l1.857-.8.213.949a.485.485,0,0,0,.729.315c.934-.628,2.812-1.742,4.024-1.47a.665.665,0,0,1-.148,1.078l-.949.456a.677.677,0,0,0-.151,1.1.709.709,0,0,0,.745.171l2.866-1.085L19.9,53.209a.493.493,0,0,0,.491.628L25,54,10.04,39.04A.939.939,0,0,0,10.074,40.367Z" style="fill:#007145"/><path d="M20.813,39.443l-1.744,2.808.523-2.98a.636.636,0,0,0-.181-.556.612.612,0,0,0-.864-.022l-.872.872-.356-1c-.357-1-1-.357-1-.357l-.222,4.3-.34-.34c-1.02-1.02-.73-2.669-1.41-3.349l-.021-.02a.693.693,0,0,0-1.165.25l-.43,1.386-1.36-1.36a.939.939,0,0,0-1.327-.034L25,54l-.163-4.61a.493.493,0,0,0-.628-.491l-1.316.408,1.085-2.866a.709.709,0,0,0-.171-.745.677.677,0,0,0-1.1.151l-.456.949a.665.665,0,0,1-1.078.148c-.272-1.212.842-3.09,1.47-4.024a.485.485,0,0,0-.315-.729l-.949-.213.8-1.857a.781.781,0,0,0-.2-.777A.746.746,0,0,0,20.813,39.443Z" style="fill:#008f57"/><path d="M53.926,40.367l-1.36,1.36,1.386.43a.693.693,0,0,1,.25,1.165l-.02.021c-.68.68-2.329.39-3.349,1.41l-.34.34,4.3.222s.646.647-.357,1l-1,.356.646.647.226.225a.612.612,0,0,1-.022.864.636.636,0,0,1-.556.181l-2.98-.523,2.808,1.744a.746.746,0,0,1,.1,1.167.781.781,0,0,1-.777.2l-1.857-.8-.213.949a.485.485,0,0,1-.729.315c-.934-.628-2.812-1.742-4.024-1.47a.665.665,0,0,0,.148,1.078l.949.456a.677.677,0,0,1,.151,1.1.709.709,0,0,1-.745.171l-2.866-1.085.408,1.316a.493.493,0,0,1-.491.628L39,54,53.96,39.04A.939.939,0,0,1,53.926,40.367Z" style="fill:#007145"/><path d="M43.187,39.443l1.744,2.808-.523-2.98a.636.636,0,0,1,.181-.556.612.612,0,0,1,.864-.022l.872.872.356-1c.357-1,1-.357,1-.357l.222,4.3.34-.34c1.02-1.02.73-2.669,1.41-3.349l.021-.02a.693.693,0,0,1,1.165.25l.43,1.386,1.36-1.36a.939.939,0,0,1,1.327-.034L39,54l.163-4.61a.493.493,0,0,1,.628-.491l1.316.408-1.085-2.866a.709.709,0,0,1,.171-.745.677.677,0,0,1,1.1.151l.456.949a.665.665,0,0,0,1.078.148c.272-1.212-.842-3.09-1.47-4.024a.485.485,0,0,1,.315-.729l.949-.213-.8-1.857a.781.781,0,0,1,.2-.777A.746.746,0,0,1,43.187,39.443Z" style="fill:#008f57"/><path d="M41.74,15.34A3.787,3.787,0,0,1,42,16.71a3.688,3.688,0,0,1-2.05,3.31L38,21v-.47A5.535,5.535,0,0,0,32.47,15h-.94A5.535,5.535,0,0,0,26,20.53V21l-1.95-.98A3.688,3.688,0,0,1,22,16.71a3.787,3.787,0,0,1,.26-1.37L26.51,4.71a5.918,5.918,0,0,1,10.98,0Z" style="fill:#fffefe"/><path d="M46,31a2.006,2.006,0,0,1,2,2,2.015,2.015,0,0,1-2,2H18a2.006,2.006,0,0,1-2-2,2.015,2.015,0,0,1,2-2H46Z" style="fill:#008f57"/><path d="M46,59a2.006,2.006,0,0,1,2,2,2.015,2.015,0,0,1-2,2H18a2.006,2.006,0,0,1-2-2,2.015,2.015,0,0,1,2-2H46Z" style="fill:#008f57"/><rect x="42" y="35" width="3" height="24" style="fill:#c47952"/><path d="M26,21.46A9.908,9.908,0,0,1,29,21h6A10,10,0,0,1,45,31H19A10.011,10.011,0,0,1,26,21.46Z" style="fill:#c22026"/><path d="M32,46c1.24,0,3,0,3-3.2,0-.99-.27-1.31-.64-1.58a5.18,5.18,0,0,1-1.95-2.24C32.16,38.42,32,38,32,38s-3,2.4-3,4.8A3,3,0,0,0,32,46ZM26,35H42V59H38V49H26V59H22V35Z" style="fill:#fffefe"/><rect x="26" y="52" width="12" height="7" style="fill:#e6b269"/><polygon points="38 49 38 52 26 52 26 49 32 49 38 49" style="fill:#faf180"/><path d="M38,21v.46A9.908,9.908,0,0,0,35,21H29a9.908,9.908,0,0,0-3,.46v-.93A5.535,5.535,0,0,1,31.53,15h.94A5.535,5.535,0,0,1,38,20.53Z" style="fill:#008f57"/><path d="M34.36,41.22c.37.27.64.59.64,1.58C35,46,33.24,46,32,46a3,3,0,0,1-3-3.2c0-2.4,3-4.8,3-4.8s.16.42.41.98A5.18,5.18,0,0,0,34.36,41.22Z" style="fill:#ffd45d"/><rect x="19" y="35" width="3" height="24" style="fill:#c47952"/><path d="M47.41,32.41A1.955,1.955,0,0,1,46,33H18a2,2,0,0,1-1.721-1A1.963,1.963,0,0,0,16,33a2.006,2.006,0,0,0,2,2H46a1.984,1.984,0,0,0,1.721-3A1.938,1.938,0,0,1,47.41,32.41Z" style="fill:#007145"/><path d="M47.41,60.41A1.955,1.955,0,0,1,46,61H18a2,2,0,0,1-1.721-1A1.963,1.963,0,0,0,16,61a2.006,2.006,0,0,0,2,2H46a1.984,1.984,0,0,0,1.721-3A1.938,1.938,0,0,1,47.41,60.41Z" style="fill:#007145"/><path d="M31,45.813V49h2V45.948A6.641,6.641,0,0,1,32,46,3.527,3.527,0,0,1,31,45.813Z" style="fill:#f2c373"/><path d="M42,35h3V59H44V39a2,2,0,0,0-2-2h0Z" style="fill:#7c4026"/><path d="M22,35H19V59h1V39a2,2,0,0,1,2-2h0Z" style="fill:#7c4026"/><rect x="28" y="49" width="8" height="1" style="fill:#fd853c"/><rect x="36" y="49" width="2" height="1" style="fill:#fd670d"/><rect x="26" y="49" width="2" height="1" style="fill:#fd670d"/><path d="M45,31a9.95,9.95,0,0,0-2.483-6.578A7.7,7.7,0,0,1,35.3,29H28.7a7.694,7.694,0,0,1-7.22-4.586A9.955,9.955,0,0,0,19,31Z" style="fill:#911a1c"/><path d="M35.974,16.255A2.989,2.989,0,0,1,33,19H31a2.989,2.989,0,0,1-2.974-2.745A5.521,5.521,0,0,0,26,20.53v.93A9.908,9.908,0,0,1,29,21h6a9.908,9.908,0,0,1,3,.46v-.93A5.521,5.521,0,0,0,35.974,16.255Z" style="fill:#007145"/><rect x="38" y="35" width="2" height="24" style="fill:#d4bfb4"/><rect x="24" y="35" width="2" height="24" style="fill:#d4bfb4"/><path d="M33.573,42.415c.247.2.427.443.427,1.185C34,46,32.827,46,32,46a2.107,2.107,0,0,1-2-2.4c0-1.8,2-3.6,2-3.6s.107.315.273.735A3.8,3.8,0,0,0,33.573,42.415Z" style="fill:#f0af4c"/><path d="M42.669,14.969,38.418,4.337a6.917,6.917,0,0,0-12.837,0l-4.254,10.64A4.8,4.8,0,0,0,21,16.71a4.71,4.71,0,0,0,2.6,4.2l1.636.823q.375-.153.763-.276v-.93a5.464,5.464,0,0,1,.039-.63l-1.548-.778A2.7,2.7,0,0,1,23,16.71a2.771,2.771,0,0,1,.188-1L27.437,5.083a4.919,4.919,0,0,1,9.125,0L40.808,15.7A2.792,2.792,0,0,1,41,16.71a2.7,2.7,0,0,1-1.5,2.416l-1.54.774a5.464,5.464,0,0,1,.039.63v.93c.255.08.5.185.745.285l1.647-.828A4.714,4.714,0,0,0,43,16.71,4.809,4.809,0,0,0,42.669,14.969Z" style="fill:#a65d4e"/><path d="M28,57V52H26v7h4A2,2,0,0,1,28,57Z" style="fill:#c47952"/><path d="M36,57a2,2,0,0,1-2,2h4V52H36Z" style="fill:#c47952"/><rect x="26" y="49" width="2" height="3" style="fill:#f2c373"/><rect x="36" y="49" width="2" height="3" style="fill:#f2c373"/><rect x="42" y="39" width="2" height="14" rx="1" ry="1" style="fill:#fd853c"/><rect x="42" y="54" width="2" height="4" rx="1" ry="1" style="fill:#fd853c"/><rect x="20" y="39" width="2" height="14" rx="1" ry="1" style="fill:#fd853c"/><rect x="20" y="54" width="2" height="4" rx="1" ry="1" style="fill:#fd853c"/><rect x="20" y="59" width="24" height="1" rx="0.5" ry="0.5" style="fill:#fd853c"/><rect x="20" y="34" width="24" height="1" rx="0.5" ry="0.5" style="fill:#fd853c"/><path d="M30,23.5h1A1.494,1.494,0,0,0,32.111,21H29c-.039,0-.076,0-.114,0A1.494,1.494,0,0,0,30,23.5Z" style="fill:#ff273a"/><path d="M35,23.5c.382,0,1.556.181,4.193,1.857a1.5,1.5,0,0,0,1.91-2.271A9.937,9.937,0,0,0,35,21H33.889A1.494,1.494,0,0,0,35,23.5Z" style="fill:#ff273a"/><path d="M33.833,23.5l-.254.5h-.392a.183.183,0,0,0-.132.312l.313.307-.114.563a.185.185,0,0,0,.294.181L34,25.031l.452.332a.185.185,0,0,0,.294-.181l-.114-.563.313-.307A.183.183,0,0,0,34.813,24h-.392l-.254-.5A.188.188,0,0,0,33.833,23.5Z" style="fill:#ebebff"/><path d="M26.083,23.694l-.513.167-.268-.268a.176.176,0,0,0-.3.123l0,.423-.462.3a.18.18,0,0,0,.077.325l.535.082.081.534a.179.179,0,0,0,.325.077l.3-.462.423,0a.175.175,0,0,0,.123-.3l-.267-.267.166-.513A.182.182,0,0,0,26.083,23.694Z" style="fill:#ebebff"/><path d="M28.917,26.752,28.79,27h-.2a.091.091,0,0,0-.066.155l.156.153-.057.281a.093.093,0,0,0,.147.091L29,27.514l.225.166a.093.093,0,0,0,.147-.091l-.057-.281.156-.153A.091.091,0,0,0,29.405,27h-.2l-.127-.248A.093.093,0,0,0,28.917,26.752Z" style="fill:#ebebff"/><path d="M22.917,28.752,22.79,29h-.2a.091.091,0,0,0-.066.155l.156.153-.057.281a.093.093,0,0,0,.147.091L23,29.514l.225.166a.093.093,0,0,0,.147-.091l-.057-.281.156-.153A.091.091,0,0,0,23.405,29h-.2l-.127-.248A.093.093,0,0,0,22.917,28.752Z" style="fill:#a4afe6"/><path d="M38.347,26.459l.083.256-.133.134a.088.088,0,0,0,.061.151l.212,0,.152.231a.09.09,0,0,0,.163-.039l.04-.267.268-.041a.09.09,0,0,0,.038-.162L39,26.567l0-.211a.088.088,0,0,0-.151-.061l-.134.133-.256-.083A.091.091,0,0,0,38.347,26.459Z" style="fill:#ebebff"/><path d="M41.347,28.459l.083.256-.133.134a.088.088,0,0,0,.061.151l.212,0,.152.231a.09.09,0,0,0,.163-.039l.04-.267.268-.041a.09.09,0,0,0,.038-.162L42,28.567l0-.211a.088.088,0,0,0-.151-.061l-.134.133-.256-.083A.091.091,0,0,0,41.347,28.459Z" style="fill:#a4afe6"/><path d="M38.347,29.459l.083.256-.133.134a.088.088,0,0,0,.061.151l.212,0,.152.231a.09.09,0,0,0,.163-.039l.04-.267.268-.041a.09.09,0,0,0,.038-.162L39,29.567l0-.211a.088.088,0,0,0-.151-.061l-.134.133-.256-.083A.091.091,0,0,0,38.347,29.459Z" style="fill:#a4afe6"/><path d="M30.347,29.459l.083.256-.133.134a.088.088,0,0,0,.061.151l.212,0,.152.231a.09.09,0,0,0,.163-.039l.04-.267.268-.041a.09.09,0,0,0,.038-.162L31,29.567l0-.211a.088.088,0,0,0-.151-.061l-.134.133-.256-.083A.091.091,0,0,0,30.347,29.459Z" style="fill:#a4afe6"/></g></svg>