<?xml version="1.0" encoding="utf-8"?>
<!-- Generator: Adobe Illustrator 16.0.0, SVG Export Plug-In . SVG Version: 6.00 Build 0)  -->
<!DOCTYPE svg PUBLIC "-//W3C//DTD SVG 1.1//EN" "http://www.w3.org/Graphics/SVG/1.1/DTD/svg11.dtd">
<svg version="1.1" id="Layer_1" xmlns="http://www.w3.org/2000/svg" xmlns:xlink="http://www.w3.org/1999/xlink" x="0px" y="0px"
	 width="64px" height="64px" viewBox="0 0 64 64" enable-background="new 0 0 64 64" xml:space="preserve">
<path fill="#AF6B29" d="M36.164,39.53c0-1.671-0.803-3.024-1.793-3.024h-2.307h-0.1h-2.306c-0.991,0-1.794,1.354-1.794,3.024
	l-0.747,19.011c0,1.67,1.549,3.278,2.541,3.278h2.306h0.1h2.307c0.99,0,2.539-1.608,2.539-3.278L36.164,39.53z"/>
<path opacity="0.2" fill="#F1F2F2" d="M35.104,38.254c0-1.672-0.273-3.027-0.611-3.027h-0.787H33.67h-0.787
	c-0.338,0-0.612,1.355-0.612,3.027l-0.254,19.008c0,1.671,0.528,3.278,0.866,3.278h0.787h0.035h0.787
	c0.338,0,0.867-1.607,0.867-3.278L35.104,38.254z"/>
<path fill="#769A5C" d="M31.488,18.621c0,0-55.652,42.007,0,26.634"/>
<path fill="#20431E" d="M30.867,19.572c0,0-28.127,60.88,0,33.937l5.762-5.522c45.85,15.375,0-26.634,0-26.634
	S32.173,16.663,30.867,19.572z"/>
<path fill="#214620" d="M31.531,12.156c0,0-46.935,33.652,0,21.336"/>
<path fill="#206633" d="M31.006,12.918c0,0-23.721,48.77,0,27.185l4.861-4.422c38.668,12.315,0-21.336,0-21.336
	S32.108,10.588,31.006,12.918z"/>
<path fill="#1D6A35" d="M31.24,7.181c0,0-36.001,26.036,0,16.507"/>
<path fill="#769A5C" d="M30.838,7.771c0,0-18.195,37.731,0,21.032l3.729-3.421c29.66,9.529,0-16.507,0-16.507
	S31.684,5.967,30.838,7.771z"/>
<g>
	<polygon fill="#EBC257" points="26.026,7.022 29.529,8.751 31.862,7.022 29.529,5.293 	"/>
	<polygon fill="#D1B26D" points="26.026,7.022 26.026,7.022 29.529,8.751 31.862,7.022 	"/>
	<polygon fill="#EBC257" points="30.151,12.597 32.837,9.761 31.875,7.022 29.534,8.739 	"/>
	<polygon fill="#D1B26D" points="30.151,12.597 30.151,12.597 32.837,9.761 31.875,7.022 	"/>
	<polygon fill="#EBC257" points="36.705,10.296 34.775,6.899 31.875,7.021 32.836,9.761 	"/>
	<polygon fill="#D1B26D" points="36.705,10.295 36.705,10.296 34.775,6.899 31.875,7.021 	"/>
	<polygon fill="#EBC257" points="36.514,3.486 32.734,4.313 31.88,7.034 34.73,6.917 	"/>
	<polygon fill="#EBC257" points="30.159,1.444 29.533,5.299 31.87,7.022 32.839,4.285 	"/>
	<polygon fill="#D1B26D" points="30.159,1.444 30.159,1.444 29.533,5.299 31.87,7.022 	"/>
	<polygon fill="#D1B26D" points="36.5,3.485 36.5,3.485 32.739,4.333 31.869,7.034 	"/>
</g>
<path fill="#FFFFFF" d="M30.071,26.546c0,0.42-0.34,0.76-0.761,0.76h-1.567c-0.42,0-0.761-0.34-0.761-0.76l0,0
	c0-0.42,0.34-0.761,0.761-0.761h1.567C29.731,25.785,30.071,26.126,30.071,26.546L30.071,26.546z"/>
<path fill="#EBC257" d="M41.707,34.979c0,0.543,0.441,0.984,0.984,0.984l0,0c0.545,0,0.986-0.441,0.986-0.984v-0.365
	c0-0.544-0.441-0.985-0.986-0.985l0,0c-0.543,0-0.984,0.441-0.984,0.985V34.979z"/>
<path fill="#741112" d="M33.729,15.591c0,0.492-0.398,0.892-0.892,0.892l0,0c-0.493,0-0.892-0.4-0.892-0.892v-0.548
	c0-0.493,0.399-0.892,0.892-0.892l0,0c0.493,0,0.892,0.399,0.892,0.892V15.591z"/>
<path fill="#FFFFFF" d="M13.778,42.804c0,0.42-0.34,0.761-0.76,0.761h-1.567c-0.42,0-0.761-0.341-0.761-0.761l0,0
	c0-0.42,0.34-0.761,0.761-0.761h1.567C13.438,42.043,13.778,42.384,13.778,42.804L13.778,42.804z"/>
<path fill="#741112" d="M26.91,38.371c0,0.493-0.399,0.893-0.893,0.893l0,0c-0.493,0-0.892-0.399-0.892-0.893v-0.548
	c0-0.493,0.399-0.894,0.892-0.894l0,0c0.494,0,0.893,0.4,0.893,0.894V38.371z"/>
<path fill="#EBC257" d="M39.738,23.585c0.545,0,0.984-0.441,0.984-0.984l0,0c0-0.544-0.439-0.985-0.984-0.985h-0.365
	c-0.545,0-0.984,0.44-0.984,0.985l0,0c0,0.543,0.439,0.984,0.984,0.984H39.738z"/>
<circle fill="#DCAB69" cx="26.026" cy="37.597" r="2.817"/>
<g>
	<path fill="#BB2025" d="M25.959,36.596c0.927-0.151,1.805-0.248,2.575-0.294c-0.545-1.055-1.723-1.689-2.959-1.487
		c-1.243,0.204-2.161,1.19-2.333,2.375C24.024,36.967,24.955,36.761,25.959,36.596z"/>
	<path fill="#BB2025" d="M26.281,38.564c-1.004,0.164-1.952,0.266-2.765,0.304c0.54,1.066,1.726,1.71,2.968,1.508
		c1.235-0.202,2.15-1.18,2.331-2.353C28.071,38.226,27.208,38.413,26.281,38.564z"/>
</g>
<g>
	<path fill="#EBC257" d="M25.786,36.127c0.889-0.145,1.736-0.22,2.487-0.231c-0.61-0.805-1.636-1.255-2.702-1.079
		c-1.067,0.174-1.895,0.928-2.217,1.884C24.071,36.472,24.897,36.274,25.786,36.127z"/>
	<path fill="#EBC257" d="M26.267,39.064c-0.889,0.144-1.735,0.221-2.487,0.232c0.61,0.805,1.635,1.254,2.702,1.08
		c1.067-0.176,1.894-0.928,2.216-1.887C27.982,38.72,27.156,38.918,26.267,39.064z"/>
</g>
<path fill="#9D4F28" d="M23.224,37.305c-0.025,0.245-0.019,0.492,0.023,0.746c0.041,0.253,0.115,0.491,0.216,0.714
	c0.813-0.074,1.73-0.19,2.699-0.349c0.967-0.158,1.873-0.341,2.668-0.53c0.025-0.242,0.019-0.493-0.023-0.743
	c-0.041-0.254-0.114-0.492-0.215-0.716c-0.813,0.073-1.731,0.191-2.699,0.35C24.925,36.933,24.018,37.115,23.224,37.305z"/>
<circle fill="#DCAB69" cx="32.789" cy="15.58" r="1.869"/>
<g>
	<path fill="#BB2025" d="M33.227,15.08c0.506,0.364,0.963,0.73,1.346,1.07c0.238-0.75-0.018-1.601-0.689-2.085
		c-0.68-0.488-1.574-0.455-2.209,0.018C32.144,14.346,32.678,14.686,33.227,15.08z"/>
	<path fill="#BB2025" d="M32.454,16.155c-0.549-0.395-1.04-0.791-1.44-1.154c-0.247,0.753,0.008,1.611,0.686,2.1
		c0.674,0.483,1.562,0.455,2.197-0.01C33.453,16.835,32.959,16.518,32.454,16.155z"/>
</g>
<g>
	<path fill="#741112" d="M33.365,14.779c0.484,0.349,0.918,0.711,1.275,1.059c0.092-0.665-0.178-1.356-0.76-1.774
		c-0.584-0.419-1.325-0.454-1.925-0.156C32.398,14.136,32.88,14.431,33.365,14.779z"/>
	<path fill="#741112" d="M32.213,16.381c-0.485-0.349-0.917-0.71-1.276-1.057c-0.092,0.665,0.179,1.355,0.76,1.774
		c0.583,0.418,1.324,0.454,1.925,0.155C33.179,17.025,32.698,16.731,32.213,16.381z"/>
</g>
<path fill="#741112" d="M31.61,14.129c-0.125,0.102-0.24,0.223-0.339,0.36c-0.099,0.138-0.177,0.284-0.233,0.437
	c0.417,0.347,0.901,0.723,1.429,1.102c0.528,0.379,1.039,0.719,1.501,1.003c0.125-0.102,0.238-0.222,0.338-0.36
	c0.1-0.137,0.176-0.285,0.232-0.436c-0.414-0.346-0.9-0.722-1.43-1.103C32.582,14.753,32.072,14.413,31.61,14.129z"/>
<path fill="#DCAB69" d="M32.79,29.304c0.384,1.331,1.655-0.563,1.655-0.563c-2.36-8.063,1.328-4.872,1.328-4.872
	c0.816-0.467,0.537-1.535,0.537-1.535S29.826,19.024,32.79,29.304z"/>
<path fill="#B82025" d="M32.016,25.061c-0.01-0.411,0.013-0.773,0.06-1.091c0.555-0.053,1.217-0.008,1.59,0.403
	c-0.025,0.348-0.002,0.794,0.078,1.36C33.353,25.48,32.623,25.07,32.016,25.061z"/>
<path fill="#B82025" d="M33.998,27.045c-0.475-0.089-1.147,0.313-1.62,0.657c-0.09-0.403-0.161-0.778-0.215-1.13
	c0.698-0.446,1.257-0.449,1.671-0.302C33.879,26.511,33.934,26.769,33.998,27.045z"/>
<path fill="#B82025" d="M32.79,29.304c-0.022-0.076-0.043-0.15-0.063-0.224c0.287-0.426,0.988-0.747,1.547-0.945
	c0.055,0.195,0.111,0.397,0.172,0.607C34.445,28.742,33.174,30.635,32.79,29.304z"/>
<path fill="#B82025" d="M32.963,22.221c0.947-0.71,2.119-0.379,2.764-0.125c0.248,0.858-0.23,1.175-0.418,1.444
	c-0.172-0.103-0.375-0.203-0.578-0.256C34.711,22.605,33.703,22.331,32.963,22.221z"/>
<path fill="#741112" d="M50.08,27.994c0.492,0,0.893,0.399,0.893,0.892l0,0c0,0.494-0.4,0.893-0.893,0.893h-0.547
	c-0.492,0-0.893-0.399-0.893-0.893l0,0c0-0.493,0.4-0.892,0.893-0.892H50.08z"/>
<g>
	<path fill="#FFFFFF" d="M20.185,16.271c0,0,0.072,0.485,0.337,1.283c0.141,0.394,0.322,0.873,0.636,1.345
		c0.313,0.461,0.771,0.934,1.413,1.049c0.639,0.122,1.366-0.123,2.077-0.486c0.375-0.197,0.83-0.373,1.294-0.421
		c0.462-0.05,0.933-0.024,1.394,0.061c0.92,0.188,1.806,0.547,2.674,0.96c0.874,0.386,1.741,0.881,2.648,1.123
		c0.222,0.056,0.456,0.084,0.627,0.026c0.172-0.051,0.264-0.193,0.316-0.39c0.102-0.4,0.049-0.884-0.016-1.338
		c-0.07-0.459-0.164-0.933-0.154-1.461c0.018-0.259,0.053-0.528,0.188-0.794c0.131-0.273,0.404-0.482,0.686-0.577
		c0.566-0.15,1.047-0.016,1.488,0.096c0.443,0.123,0.85,0.282,1.242,0.435c0.787,0.304,1.502,0.632,2.174,0.878
		c0.672,0.243,1.305,0.423,1.859,0.434c0.559,0.02,1.01-0.184,1.27-0.488c0.256-0.306,0.385-0.62,0.445-0.833
		c0.063-0.217,0.096-0.333,0.096-0.333l0.057,0.009c0,0-0.02,0.122-0.055,0.35c-0.035,0.227-0.119,0.567-0.365,0.95
		c-0.244,0.392-0.805,0.688-1.438,0.718c-0.637,0.051-1.318-0.118-2.027-0.331c-0.713-0.215-1.455-0.505-2.227-0.807
		c-0.75-0.275-1.65-0.633-2.35-0.507c-0.297,0.083-0.469,0.389-0.49,0.831c-0.023,0.412,0.051,0.88,0.105,1.369
		c0.035,0.491,0.084,0.994-0.078,1.532c-0.08,0.261-0.313,0.559-0.63,0.618c-0.304,0.066-0.568-0.007-0.809-0.083
		c-0.953-0.344-1.766-0.869-2.639-1.265c-0.863-0.398-1.755-0.728-2.643-0.814c-0.442-0.042-0.875-0.028-1.282,0.05
		c-0.408,0.088-0.756,0.24-1.12,0.432c-0.746,0.429-1.611,0.704-2.417,0.521c-0.813-0.178-1.348-0.781-1.634-1.315
		c-0.296-0.545-0.458-1.053-0.548-1.477c-0.176-0.848-0.163-1.342-0.163-1.342L20.185,16.271z"/>
</g>
<g>
	<path fill="#FFFFFF" d="M11.879,30.557c0,0,0.035,0.181,0.144,0.506c0.111,0.323,0.307,0.788,0.633,1.324
		c0.326,0.532,0.835,1.125,1.576,1.537c0.738,0.417,1.698,0.594,2.735,0.513c0.52-0.003,1.059-0.166,1.608-0.285
		c0.555-0.187,1.129-0.38,1.719-0.578c1.307-0.385,2.706-0.491,4.125-0.346c1.418,0.13,2.846,0.437,4.251,0.836
		c1.404,0.389,2.805,0.876,4.172,1.2c0.651,0.162,1.417,0.27,1.747,0.119c0.121-0.067,0.184-0.122,0.219-0.397
		c0.029-0.249,0.002-0.565-0.059-0.884l-0.115-0.53l-0.098-0.532c-0.025-0.473-0.045-0.957,0.244-1.435
		c0.264-0.477,0.785-0.769,1.195-0.845c0.432-0.115,0.818-0.108,1.195-0.099c1.484,0.088,2.762,0.488,3.986,0.814
		c1.219,0.341,2.355,0.671,3.414,0.923c1.059,0.245,2.033,0.444,2.902,0.508c0.865,0.064,1.633-0.02,2.189-0.284
		c0.564-0.262,0.852-0.687,1.031-0.97c0.133-0.315,0.203-0.483,0.203-0.483s-0.049,0.178-0.141,0.512
		c-0.146,0.303-0.379,0.815-0.979,1.158c-0.58,0.35-1.4,0.517-2.314,0.538c-0.918,0.026-1.943-0.081-3.037-0.281
		c-1.094-0.193-2.264-0.459-3.49-0.725c-1.221-0.254-2.531-0.549-3.797-0.597c-0.615-0.015-1.244,0.12-1.336,0.415
		c-0.098,0.134-0.082,0.406-0.078,0.635l0.104,0.522l0.117,0.525c0.076,0.389,0.133,0.8,0.082,1.273
		c-0.01,0.445-0.344,1.122-0.902,1.359c-0.529,0.237-0.98,0.207-1.398,0.188c-0.416-0.035-0.8-0.109-1.173-0.197
		c-1.482-0.369-2.848-0.865-4.221-1.259c-1.367-0.394-2.712-0.751-4.031-0.903c-1.308-0.164-2.609-0.141-3.738,0.119
		c-0.616,0.167-1.214,0.329-1.793,0.486c-0.609,0.097-1.192,0.234-1.776,0.208c-1.153,0.039-2.24-0.276-3.011-0.825
		c-0.781-0.541-1.255-1.229-1.542-1.814c-0.293-0.588-0.41-1.09-0.485-1.426C11.89,30.74,11.879,30.557,11.879,30.557z"/>
</g>
<g>
	<path fill="#F1F2F2" d="M55.527,43.203c0,0-0.012,0.226-0.105,0.638c-0.1,0.409-0.311,1.003-0.758,1.678
		c-0.445,0.669-1.191,1.395-2.244,1.864c-1.045,0.479-2.354,0.703-3.727,0.628c-0.346-0.003-0.688-0.074-1.041-0.111
		c-0.355-0.04-0.715-0.088-1.066-0.181c-0.688-0.169-1.398-0.342-2.129-0.521c-1.354-0.287-2.922-0.467-4.527-0.4
		c-1.615,0.026-3.289,0.284-4.955,0.672c-1.676,0.37-3.323,0.933-5.039,1.376c-0.866,0.207-1.728,0.439-2.767,0.339l-0.405-0.096
		c-0.141-0.063-0.282-0.128-0.418-0.205c-0.274-0.196-0.492-0.48-0.6-0.786c-0.211-0.621-0.1-1.122-0.026-1.601l0.083-0.346
		l0.043-0.172c-0.014,0.047,0.016-0.077,0.022-0.107c0.035-0.189,0.125-0.469,0.086-0.548c0.021-0.263-0.064-0.411-0.219-0.512
		c-0.157-0.122-0.487-0.205-0.839-0.229c-0.351-0.031-0.734-0.02-1.115,0.012c-1.539,0.124-3.086,0.467-4.554,0.716
		c-1.469,0.281-2.879,0.515-4.194,0.682c-1.314,0.17-2.539,0.284-3.639,0.234c-1.095-0.042-2.077-0.188-2.824-0.539
		c-0.754-0.343-1.201-0.863-1.395-1.248c-0.164-0.401-0.215-0.618-0.215-0.618l0.135-0.041c0,0,0.096,0.198,0.308,0.519
		c0.236,0.307,0.674,0.678,1.365,0.863c0.685,0.188,1.578,0.246,2.606,0.153c1.027-0.099,2.19-0.275,3.458-0.535
		c1.272-0.282,2.65-0.587,4.107-0.91c0.736-0.161,1.494-0.322,2.287-0.448c0.79-0.131,1.605-0.259,2.476-0.284
		c0.434-0.016,0.88-0.016,1.354,0.046c0.465,0.063,0.992,0.159,1.507,0.553c0.261,0.173,0.465,0.49,0.59,0.789
		c0.043,0.154,0.08,0.313,0.11,0.47c0.017,0.155-0.001,0.308-0.008,0.462c-0.014,0.352-0.092,0.479-0.14,0.707l-0.098,0.342
		l-0.088,0.275c-0.091,0.351-0.163,0.737-0.092,0.952c0.047,0.202,0.171,0.332,0.529,0.415c0.689,0.151,1.58,0.061,2.419-0.06
		c3.427-0.533,6.796-1.545,10.079-2.046c1.65-0.237,3.277-0.327,4.869-0.049c0.402,0.064,0.713,0.162,1.113,0.252
		c0.342,0.083,0.678,0.165,1.008,0.245c0.33,0.099,0.656,0.15,0.977,0.196c0.322,0.041,0.639,0.12,0.945,0.13
		c1.238,0.138,2.363,0,3.293-0.304c0.928-0.315,1.637-0.837,2.133-1.361c0.5-0.525,0.789-1.045,0.955-1.405
		c0.174-0.362,0.232-0.569,0.232-0.569L55.527,43.203z"/>
</g>
<path fill="#9E5025" d="M39.563,49.077c0.645,1.206-1.111,0.67-1.111,0.67c-3.881-7.327-3.621-2.642-3.621-2.642
	c-0.664,0.194-1.193-0.758-1.193-0.758S34.596,39.768,39.563,49.077z"/>
<path fill="#741112" d="M37.303,45.524c-0.248-0.301-0.482-0.546-0.697-0.745c-0.291,0.322-0.57,0.785-0.488,1.321
	c0.227,0.234,0.49,0.569,0.803,1.029C36.945,46.694,37.029,45.925,37.303,45.524z"/>
<path fill="#741112" d="M37.611,48.237c0.164-0.372,0.723-0.52,1.154-0.579c-0.207-0.347-0.406-0.663-0.598-0.951
	c-0.598,0.133-0.857,0.491-0.961,0.867C37.336,47.775,37.471,47.996,37.611,48.237z"/>
<path fill="#741112" d="M39.563,49.077c-0.035-0.068-0.07-0.136-0.107-0.201c-0.396-0.12-0.918,0.104-1.301,0.323
	c0.098,0.176,0.195,0.357,0.297,0.548C38.451,49.747,40.207,50.283,39.563,49.077z"/>
<path fill="#741112" d="M35.115,44.099c-0.877,0.103-1.215,1.101-1.357,1.702c0.416,0.778,0.832,0.695,1.086,0.768
	c0.016-0.185,0.049-0.389,0.109-0.56C34.543,45.508,34.84,44.657,35.115,44.099z"/>
<path fill="#FFFFFF" d="M49.969,45.434c0.42,0,0.76,0.342,0.76,0.761v1.569c0,0.419-0.34,0.759-0.76,0.759l0,0
	c-0.42,0-0.76-0.34-0.76-0.759v-1.569C49.209,45.775,49.549,45.434,49.969,45.434L49.969,45.434z"/>
<path fill="#EBC257" d="M28.527,49.937c0,0.545,0.44,0.985,0.984,0.985l0,0c0.544,0,0.984-0.44,0.984-0.985v-0.365
	c0-0.545-0.44-0.985-0.984-0.985l0,0c-0.543,0-0.984,0.44-0.984,0.985V49.937z"/>
<path fill="#DCAB69" d="M18.858,38.105c0.081,0.983-1.244,0.044-1.244,0.044c-0.46-5.964-2.112-2.91-2.112-2.91
	c-0.662-0.107-0.744-0.887-0.744-0.887S18.241,30.515,18.858,38.105z"/>
<path fill="#B82025" d="M18.304,35.085c-0.097-0.276-0.202-0.511-0.314-0.711c-0.383,0.104-0.813,0.302-0.957,0.669
	c0.103,0.226,0.201,0.528,0.289,0.927C17.52,35.701,17.903,35.245,18.304,35.085z"/>
<path fill="#B82025" d="M17.485,36.906c0.293-0.179,0.843-0.081,1.244,0.028c-0.042-0.289-0.089-0.559-0.142-0.807
	c-0.577-0.12-0.951,0.019-1.188,0.223C17.429,36.52,17.458,36.705,17.485,36.906z"/>
<path fill="#B82025" d="M18.858,38.105c-0.004-0.055-0.009-0.11-0.013-0.165c-0.3-0.212-0.846-0.248-1.269-0.239
	c0.014,0.144,0.027,0.292,0.039,0.448C17.614,38.149,18.938,39.089,18.858,38.105z"/>
<path fill="#B82025" d="M16.958,33.433c-0.811-0.234-1.507,0.282-1.873,0.613c0.052,0.635,0.449,0.726,0.643,0.857
	c0.089-0.112,0.199-0.229,0.322-0.317C15.891,34.129,16.493,33.693,16.958,33.433z"/>
<path fill="#206633" d="M20.53,41.128c-0.609,5.062,1.427,6.837,9.29,0H20.53z"/>
<path fill="#EBC257" d="M44.771,20.115c0.424-0.021,0.74-0.536,0.709-1.15l0,0c-0.033-0.613-0.4-1.093-0.822-1.07l-0.283,0.014
	c-0.424,0.022-0.74,0.537-0.707,1.149l0,0c0.029,0.614,0.398,1.093,0.82,1.071L44.771,20.115z"/>
<path fill="#741112" d="M41.871,39.363c0.293,0,0.531,0.47,0.531,1.049l0,0c0,0.58-0.238,1.051-0.531,1.051h-0.326
	c-0.293,0-0.533-0.471-0.533-1.051l0,0c0-0.579,0.24-1.049,0.533-1.049H41.871z"/>
<path fill="#741112" d="M20.278,18.848c0.493,0,0.893,0.399,0.893,0.892l0,0c0,0.493-0.399,0.893-0.893,0.893h-0.547
	c-0.493,0-0.892-0.399-0.892-0.893l0,0c0-0.493,0.399-0.892,0.892-0.892H20.278z"/>
<path fill="#741112" d="M17.315,55.928c0-0.293,0.47-0.531,1.05-0.531l0,0c0.58,0,1.049,0.238,1.049,0.531v0.326
	c0,0.293-0.47,0.531-1.049,0.531l0,0c-0.581,0-1.05-0.238-1.05-0.531V55.928z"/>
</svg>
