<?xml version="1.0" encoding="utf-8"?>
<!-- Generator: Adobe Illustrator 16.0.0, SVG Export Plug-In . SVG Version: 6.00 Build 0)  -->
<!DOCTYPE svg PUBLIC "-//W3C//DTD SVG 1.1//EN" "http://www.w3.org/Graphics/SVG/1.1/DTD/svg11.dtd">
<svg version="1.1" id="Layer_1" xmlns="http://www.w3.org/2000/svg" xmlns:xlink="http://www.w3.org/1999/xlink" x="0px" y="0px"
	 width="64px" height="64px" viewBox="0 0 64 64" enable-background="new 0 0 64 64" xml:space="preserve">
<path fill="#9E5025" d="M41.898,56.104c1.631,11.396-10.73,2.113-10.73,2.113c-9.67-69.131-21.063-31.302-21.063-31.302
	c-5.828-0.384-7.285-9.409-7.285-9.409S29.314-31.845,41.898,56.104z"/>
<path fill="#741112" d="M34.217,21.508c-1.105-3.103-2.241-5.719-3.396-7.91c-3.217,1.714-6.745,4.57-7.65,9.059
	c1.113,2.507,2.251,5.914,3.392,10.448C28.021,29.725,30.894,23.89,34.217,21.508z"/>
<path fill="#741112" d="M28.867,43.852c2.363-2.471,7.215-2.033,10.794-1.259c-0.641-3.342-1.306-6.42-1.99-9.251
	c-5.12-0.664-8.218,1.427-10.09,4.108C28.01,39.411,28.439,41.542,28.867,43.852z"/>
<path fill="#741112" d="M41.898,56.104c-0.092-0.644-0.186-1.278-0.279-1.908c-2.793-2.083-7.561-1.813-11.209-1.166
	c0.254,1.658,0.507,3.385,0.759,5.188C31.168,58.217,43.529,67.499,41.898,56.104z"/>
<path fill="#741112" d="M20.988,3.928C13.748,2.229,8.213,9.157,5.364,13.51c1.056,7.343,4.581,7.891,6.38,9.188
	c0.662-1.421,1.502-2.942,2.481-4.11C12.412,13.443,17.206,7.564,20.988,3.928z"/>
<path fill="#DCAB69" d="M45.567,49.764c1.567,5.438,6.762-2.293,6.762-2.293c-9.641-32.924,5.422-19.896,5.422-19.896
	c3.334-1.91,2.189-6.267,2.189-6.267S33.469,7.792,45.567,49.764z"/>
<path fill="#B82025" d="M42.411,32.436c-0.041-1.679,0.047-3.154,0.238-4.452c2.268-0.217,4.97-0.031,6.495,1.647
	c-0.098,1.423-0.01,3.242,0.324,5.555C47.865,34.153,44.886,32.478,42.411,32.436z"/>
<path fill="#B82025" d="M50.498,40.542c-1.934-0.365-4.682,1.276-6.61,2.683c-0.365-1.644-0.657-3.179-0.883-4.614
	c2.857-1.819,5.137-1.838,6.829-1.232C50.017,38.359,50.237,39.411,50.498,40.542z"/>
<path fill="#B82025" d="M45.567,49.764c-0.088-0.308-0.174-0.612-0.26-0.912c1.178-1.741,4.034-3.05,6.317-3.86
	c0.219,0.797,0.453,1.622,0.704,2.479C52.329,47.471,47.135,55.201,45.567,49.764z"/>
<path fill="#B82025" d="M46.275,20.843c3.872-2.904,8.653-1.549,11.288-0.51c1.007,3.505-0.939,4.797-1.708,5.898
	c-0.702-0.419-1.532-0.829-2.365-1.044C53.414,22.411,49.3,21.291,46.275,20.843z"/>
<path opacity="0.15" fill="#E6E7E8" d="M37.164,61.438c-0.228-7.437-1.871-22.487-9.583-42.205
	c-6.87-17.565-15.603-4.71-20.649,6.416c0.876,0.704,1.925,1.184,3.174,1.266c0,0,11.393-37.829,21.063,31.302
	C31.168,58.217,34.272,60.547,37.164,61.438z"/>
<path opacity="0.2" fill="#E6E7E8" d="M57.751,27.574c1.66-0.951,2.209-2.508,2.343-3.832C39.062,14.397,47.093,42.4,49.766,50.457
	c1.396-1.248,2.563-2.986,2.563-2.986C42.688,14.547,57.751,27.574,57.751,27.574z"/>
</svg>
