<?xml version="1.0" encoding="utf-8"?>
<!-- Generator: Adobe Illustrator 16.0.0, SVG Export Plug-In . SVG Version: 6.00 Build 0)  -->
<!DOCTYPE svg PUBLIC "-//W3C//DTD SVG 1.1//EN" "http://www.w3.org/Graphics/SVG/1.1/DTD/svg11.dtd">
<svg version="1.1" id="Layer_1" xmlns="http://www.w3.org/2000/svg" xmlns:xlink="http://www.w3.org/1999/xlink" x="0px" y="0px"
	 width="64px" height="64px" viewBox="0 0 64 64" enable-background="new 0 0 64 64" xml:space="preserve">
<path fill="#741112" d="M40.792,9.806c0,0-26.157-1.936-24.99,7.862c1.166,9.797-12.05,6.961-13.402,6.639
	c-1.352-0.322,2.311,1.791,2.311,1.791l-1.922,1.759c0,0,16.766,0.249,17.126-3.328S18.835,12.976,42.2,14.173
	C62.008,15.187,40.792,9.806,40.792,9.806z"/>
<path fill="#BF2026" d="M42.426,10.828c0,0-26.157-1.936-24.991,7.861c1.166,9.799-12.05,6.961-13.401,6.64
	c-1.352-0.323,2.31,1.792,2.31,1.792l-1.921,1.759c0,0,16.765,0.25,17.126-3.329c0.361-3.577-1.08-11.553,22.284-10.356
	C63.643,16.208,42.426,10.828,42.426,10.828z"/>
<g>
	<path fill="#EBC257" d="M26.817,28.908c-1.891,1.653-9.564,5.363-11.301,8.564c0.117-0.041,0.237-0.082,0.362-0.121
		c2.548-0.783,10.79,0.395,18.9,3.443c7.758,2.424,14.594,6.215,16.673,8.482c0.194-3.768-3.249-10.822-3.701-13.172
		c-0.378-1.961,0.851-3.565,1.579-4.318c1.925-1.714,3.436-3.857,4.222-6.145c2.235-6.501-2.2-11.705-9.069-14.066
		c-6.87-2.363-13.569-0.987-15.803,5.512c-0.787,2.289-0.915,4.908-0.451,7.443C28.341,25.573,28.323,27.592,26.817,28.908z"/>
</g>
<path fill="#DDAC6A" d="M46.629,5.333c-2.822-0.971-5.63-0.241-6.273,1.629c-0.643,1.87,1.122,4.172,3.944,5.143
	c2.821,0.97,5.631,0.241,6.273-1.629S49.451,6.303,46.629,5.333z M44.686,10.986c-1.866-0.642-3.032-2.163-2.608-3.399
	c0.425-1.236,2.281-1.718,4.146-1.077c1.866,0.641,3.032,2.163,2.608,3.398C48.406,11.145,46.55,11.627,44.686,10.986z"/>
<ellipse transform="matrix(0.9457 0.3251 -0.3251 0.9457 6.1793 -13.8327)" fill="#EBC257" cx="44.482" cy="11.574" rx="3.32" ry="2.283"/>
<ellipse transform="matrix(0.9456 0.3252 -0.3252 0.9456 8.4078 -10.5544)" opacity="0.3" fill="#E6E7E8" cx="35.776" cy="19.874" rx="3.943" ry="5.675"/>
<ellipse transform="matrix(0.7272 0.6864 -0.6864 0.7272 42.9207 -4.1412)" opacity="0.2" fill="#E6E7E8" stroke="#FFFFFF" stroke-width="0.2152" stroke-miterlimit="10" cx="26.671" cy="51.933" rx="3.395" ry="2.059"/>
<path fill="#741112" d="M53.25,16.191c0,0,12.396,11.181,4.245,13.791c-8.149,2.61-9.294,3.386-3.911,7.724
	c5.386,4.34,5.793,7.406,5.793,7.406l-1.771-1.152l-0.321,4.686c0,0-4.183-5.887-6.415-7.764c-2.338-1.965-6.564-6.109-4.063-7.992
	c2.499-1.883,15.942-9.521,1.007-15.524C32.878,11.362,53.25,16.191,53.25,16.191z"/>
<path fill="#9E5025" d="M32.175,48.46c-8.041-2.766-15.417-3.754-19.076-2.803c2.826,4.461,9.643,7.711,17.238,10.043
	c7.008,2.549,13.858,3.912,18.559,2.221C46.555,54.931,40.163,51.206,32.175,48.46z"/>
<circle fill="#EBC257" cx="24.399" cy="52.693" r="5.116"/>
<path fill="#DCAB69" d="M12.631,44.343c3.143-1.146,11.05-0.047,19.811,2.965c8.668,2.982,15.526,6.924,17.388,9.756
	c0.922-0.387,4.782-2.313,1.487-6.482c-1.589-2.01-8.872-5.973-17.134-8.584c-8.12-3.02-16.3-4.375-18.789-3.77
	C10.032,39.538,12.244,43.688,12.631,44.343z"/>
<g>
	<path opacity="0.2" fill="#F1F2F2" d="M35.446,41.021c1.452,0.459,2.873,0.961,4.239,1.486c0.11-3.99-1.912-7.662-5.441-9.152
		c-4.161-1.756-9.035,0.098-11.715,4.174C26.137,38.11,30.801,39.292,35.446,41.021z"/>
</g>
<path fill="#BF2026" d="M51.145,15.686c0,0,12.394,11.18,4.244,13.792c-8.15,2.609-9.295,3.385-3.91,7.725
	c5.383,4.336,5.792,7.404,5.792,7.404l-1.772-1.154l-0.32,4.688c0,0-4.182-5.889-6.415-7.764c-2.338-1.965-6.563-6.109-4.063-7.993
	c2.499-1.881,15.944-9.52,1.009-15.523C30.771,10.855,51.145,15.686,51.145,15.686z"/>
<g>
	<circle fill="#DCAB69" cx="47.235" cy="17.813" r="6.418"/>
	<g>
		<path fill="#741112" d="M47.104,14.426c2.049-0.079,3.984-0.013,5.688,0.172c-1.155-1.992-3.346-3.294-5.805-3.198
			c-2.463,0.096-4.544,1.565-5.54,3.641C43.129,14.724,45.053,14.507,47.104,14.426z"/>
		<path fill="#741112" d="M47.367,21.199c-2.05,0.081-3.985,0.014-5.688-0.171c1.157,1.991,3.346,3.294,5.807,3.198
			c2.46-0.096,4.542-1.565,5.54-3.641C51.341,20.902,49.418,21.12,47.367,21.199z"/>
	</g>
	<path fill="#741112" d="M40.979,16.372c-0.124,0.542-0.18,1.108-0.157,1.691c0.023,0.582,0.123,1.144,0.29,1.674
		c1.858,0.061,3.966,0.055,6.195-0.033c2.232-0.085,4.333-0.245,6.182-0.451c0.126-0.541,0.182-1.107,0.159-1.69
		c-0.023-0.582-0.123-1.143-0.289-1.673c-1.86-0.061-3.967-0.055-6.198,0.032C44.931,16.008,42.828,16.167,40.979,16.372z"/>
	<circle fill="#EBC257" cx="46.967" cy="14.959" r="0.4"/>
	<path fill="#EBC257" d="M45.472,15.054c0.005,0.182-0.135,0.337-0.317,0.343c-0.183,0.008-0.337-0.135-0.346-0.317
		c-0.005-0.183,0.137-0.337,0.317-0.343C45.31,14.729,45.464,14.872,45.472,15.054z"/>
	<circle fill="#EBC257" cx="43.473" cy="15.258" r="0.276"/>
	<circle fill="#EBC257" cx="42.058" cy="15.464" r="0.224"/>
	<circle fill="#EBC257" cx="49.111" cy="14.949" r="0.33"/>
	<circle fill="#EBC257" cx="50.948" cy="14.966" r="0.276"/>
	<circle fill="#EBC257" cx="52.51" cy="15.052" r="0.224"/>
	<circle fill="#EBC257" cx="47.062" cy="20.672" r="0.4"/>
	<circle fill="#EBC257" cx="45.232" cy="20.707" r="0.331"/>
	<circle fill="#EBC257" cx="43.555" cy="20.646" r="0.277"/>
	<circle fill="#EBC257" cx="42.127" cy="20.551" r="0.224"/>
	<circle fill="#EBC257" cx="49.2" cy="20.515" r="0.331"/>
	<circle fill="#EBC257" cx="51.03" cy="20.355" r="0.276"/>
	<circle fill="#EBC257" cx="52.581" cy="20.147" r="0.224"/>
	
		<ellipse transform="matrix(0.9992 -0.0391 0.0391 0.9992 -0.5064 1.8101)" opacity="0.15" fill="#F1F2F2" cx="46.012" cy="13.849" rx="2.023" ry="1.46"/>
</g>
<ellipse opacity="0.3" fill="#E6E7E8" stroke="#FFFFFF" stroke-width="0.1384" stroke-miterlimit="10" cx="22.529" cy="53.806" rx="2.073" ry="2.17"/>
<path fill="#196A36" d="M41.892,11.461c-2.967-1.86-1.569,8.401-1.569,8.401c-3.918-3.147-5.754,6.342-5.754,6.342
	c-0.843-6.023-10.169,0.156-10.169,0.156c3.96-4.663,2.749-11.108,2.749-11.108c7.133,5.61,7.157-4.101,7.157-4.101
	S44.52,13.108,41.892,11.461z"/>
<g>
	<path fill="#20431E" d="M30.998,21.402c1.58-0.357,3.039-0.307,3.33,0.96c0,0,1.351-4.883,4.37-3.558c0,0-0.22-0.99-0.27-2.031
		L30.998,21.402z"/>
	<path fill="#20431E" d="M39.853,14.484c-0.59-0.192-0.954,0.005-1.166,0.401C39.896,14.852,40.659,14.745,39.853,14.484z"/>
	<path fill="#20431E" d="M34.039,14.822c0,0,0.036,4.876-5.459,2.525c0,0,0.964,3.156-2.042,5.755c0,0,0.26-0.135,0.685-0.334
		c2.971-2.505,7.181-5.62,11.205-6.679c0.02-0.463,0.096-0.894,0.26-1.204C36.867,14.936,34.039,14.822,34.039,14.822z"/>
</g>
<g>
	<circle fill="#9E5025" cx="40.286" cy="13.549" r="4.195"/>
	<g>
		<path fill="#9E5025" d="M41.77,11.906c0.996,0.898,1.869,1.813,2.582,2.678c0.369-1.458-0.06-3.068-1.253-4.146
			c-1.195-1.08-2.84-1.344-4.253-0.829C39.777,10.229,40.776,11.007,41.77,11.906z"/>
		<path fill="#9E5025" d="M38.801,15.193c-0.994-0.9-1.869-1.815-2.581-2.679c-0.37,1.458,0.06,3.068,1.254,4.147
			c1.194,1.079,2.838,1.344,4.253,0.828C40.794,16.869,39.794,16.091,38.801,15.193z"/>
	</g>
	<path fill="none" d="M38.019,10.018c-0.305,0.197-0.589,0.436-0.846,0.718c-0.256,0.282-0.464,0.59-0.629,0.915
		c0.843,0.878,1.829,1.837,2.912,2.815c1.084,0.979,2.138,1.865,3.096,2.613c0.306-0.197,0.591-0.436,0.847-0.718
		c0.255-0.283,0.466-0.591,0.629-0.915c-0.841-0.879-1.83-1.838-2.912-2.816C40.032,11.653,38.979,10.766,38.019,10.018z"/>
	<circle fill="#9E5025" cx="41.464" cy="12.093" r="0.261"/>
	<circle fill="#9E5025" cx="40.561" cy="11.308" r="0.217"/>
	<circle fill="#9E5025" cx="39.693" cy="10.636" r="0.18"/>
	<circle fill="#9E5025" cx="38.938" cy="10.085" r="0.147"/>
	<circle fill="#9E5025" cx="42.47" cy="13.066" r="0.216"/>
	<circle fill="#9E5025" cx="43.321" cy="13.914" r="0.18"/>
	<circle fill="#9E5025" cx="44.013" cy="14.668" r="0.147"/>
	<circle fill="#9E5025" cx="38.899" cy="14.806" r="0.261"/>
	<circle fill="#9E5025" cx="38.028" cy="13.986" r="0.217"/>
	<circle fill="#9E5025" cx="37.271" cy="13.193" r="0.18"/>
	<circle fill="#9E5025" cx="36.646" cy="12.496" r="0.146"/>
	<circle fill="#9E5025" cx="39.969" cy="15.71" r="0.216"/>
	<circle fill="#9E5025" cx="40.898" cy="16.471" r="0.18"/>
	<circle fill="#9E5025" cx="41.719" cy="17.081" r="0.147"/>
	
		<ellipse transform="matrix(0.7418 0.6707 -0.6707 0.7418 18.1923 -24.9734)" opacity="0.15" fill="#9E5025" cx="41.525" cy="11.137" rx="1.322" ry="0.955"/>
</g>
<ellipse transform="matrix(0.7273 0.6863 -0.6863 0.7273 19.4927 -25.0274)" opacity="0.2" fill="#E6E7E8" stroke="#FFFFFF" stroke-width="0.1384" stroke-miterlimit="10" cx="41.24" cy="12.015" rx="2.181" ry="1.323"/>
</svg>
