<?xml version="1.0" encoding="utf-8"?>
<!-- Generator: Adobe Illustrator 16.0.0, SVG Export Plug-In . SVG Version: 6.00 Build 0)  -->
<!DOCTYPE svg PUBLIC "-//W3C//DTD SVG 1.1//EN" "http://www.w3.org/Graphics/SVG/1.1/DTD/svg11.dtd">
<svg version="1.1" id="Layer_1" xmlns="http://www.w3.org/2000/svg" xmlns:xlink="http://www.w3.org/1999/xlink" x="0px" y="0px"
	 width="64px" height="64px" viewBox="0 0 64 64" enable-background="new 0 0 64 64" xml:space="preserve">
<circle fill="#E6E7E8" cx="53.457" cy="13.31" r="3.729"/>
<circle fill="#FFFFFF" cx="54.205" cy="14.961" r="1.154"/>
<path fill="#BB2025" d="M36.672,2.888L51.72,10.46c0,0,2.937,1.928,1.173,3.098c-2.42,1.606-6.582,2.714-6.582,2.714L36.672,2.888z"
	/>
<circle fill="#DCAB69" cx="32.177" cy="39.641" r="19.387"/>
<path fill="#E6E7E8" d="M55.94,42.123c0-1.728-0.783-3.272-2.014-4.298c0.827-0.741,1.348-1.816,1.348-3.015
	c0-2.232-1.81-4.043-4.043-4.043c-2.232,0-4.044,1.811-4.044,4.043c0,0.847,0.262,1.633,0.707,2.281
	c-1.861,0.91-3.144,2.82-3.144,5.031c-2.878,0-5.328,1.828-6.253,4.389c-0.131-0.008-0.262-0.013-0.394-0.013
	c-1.563,0-2.999,0.539-4.136,1.442c-0.571-0.146-1.173-0.223-1.792-0.223c-0.572,0-1.13,0.067-1.664,0.194
	c-1.129-0.886-2.55-1.414-4.096-1.414c-0.132,0-0.264,0.005-0.395,0.013c-0.924-2.561-3.375-4.389-6.252-4.389
	c0-2.211-1.282-4.121-3.143-5.031c0.445-0.648,0.706-1.435,0.706-2.281c0-2.232-1.811-4.043-4.043-4.043
	c-2.233,0-4.044,1.811-4.044,4.043c0,1.198,0.521,2.273,1.349,3.015c-1.23,1.025-2.013,2.57-2.013,4.298
	c0,2.765,2.005,5.06,4.64,5.512c-0.063,0.368-0.098,0.748-0.098,1.136c0,3.67,2.976,6.646,6.647,6.646
	c0.133,0,0.264-0.006,0.395-0.014c0.924,2.559,3.375,4.39,6.252,4.39c0.15,0,0.298-0.007,0.446-0.017
	c1.316,1.439,3.209,2.343,5.314,2.343c2.111,0,4.01-0.908,5.326-2.354c0.198,0.017,0.398,0.028,0.602,0.028
	c2.877,0,5.327-1.831,6.252-4.39c0.13,0.008,0.263,0.014,0.395,0.014c3.672,0,6.647-2.977,6.647-6.646
	c0-0.388-0.035-0.768-0.099-1.136C53.935,47.183,55.94,44.888,55.94,42.123z"/>
<path fill="#FFFFFF" d="M53.75,40.758c0-1.457-0.711-2.76-1.827-3.623c0.752-0.623,1.225-1.531,1.225-2.541
	c0-1.882-1.644-3.409-3.67-3.409c-2.027,0-3.67,1.526-3.67,3.409c0,0.715,0.236,1.377,0.641,1.924
	c-1.689,0.766-2.853,2.376-2.853,4.24c-2.611,0-4.836,1.541-5.675,3.699c-0.118-0.007-0.236-0.01-0.357-0.01
	c-1.419,0-2.721,0.453-3.752,1.217c-0.52-0.125-1.064-0.19-1.627-0.19c-0.52,0-1.025,0.058-1.51,0.163
	c-1.025-0.746-2.315-1.189-3.718-1.189c-0.12,0-0.239,0.003-0.357,0.01c-0.839-2.158-3.063-3.699-5.674-3.699
	c0-1.864-1.164-3.475-2.853-4.24c0.404-0.547,0.641-1.209,0.641-1.924c0-1.882-1.643-3.409-3.67-3.409s-3.669,1.526-3.669,3.409
	c0,1.01,0.473,1.918,1.224,2.541c-1.116,0.863-1.828,2.166-1.828,3.623c0,2.33,1.82,4.264,4.211,4.645
	c-0.057,0.311-0.089,0.633-0.089,0.958c0,3.094,2.701,5.603,6.033,5.603c0.12,0,0.239-0.005,0.357-0.01
	c0.839,2.157,3.063,3.698,5.674,3.698c0.136,0,0.271-0.005,0.405-0.014c1.195,1.214,2.913,1.975,4.823,1.975
	c1.916,0,3.639-0.767,4.834-1.984c0.18,0.015,0.361,0.023,0.545,0.023c2.612,0,4.836-1.541,5.675-3.698
	c0.118,0.005,0.237,0.01,0.357,0.01c3.332,0,6.032-2.509,6.032-5.603c0-0.325-0.031-0.647-0.089-0.958
	C51.93,45.021,53.75,43.088,53.75,40.758z"/>
<circle fill="#414042" cx="24.444" cy="34.078" r="1.311"/>
<circle fill="#414042" cx="39.292" cy="34.078" r="1.31"/>
<ellipse fill="#BB2025" cx="19.06" cy="38.09" rx="3.047" ry="1.441"/>
<ellipse fill="#BB2025" cx="44.994" cy="38.09" rx="3.047" ry="1.441"/>
<path fill="#FFFFFF" d="M19.06,32.904c0.2-1.199,2.616-8.192,7.801-4.795c5.186,3.396,2.288,3.997,0.89,3.396
	c-1.398-0.598-3.097-0.2-3.996,0.6c-0.899,0.799-3.097,2.996-3.896,1.897"/>
<path fill="#FFFFFF" d="M44.995,32.904c-0.2-1.199-2.617-8.192-7.802-4.795c-5.186,3.396-2.288,3.997-0.89,3.396
	c1.398-0.598,3.097-0.2,3.995,0.6c0.9,0.799,3.098,2.996,3.896,1.897"/>
<path fill="#E6E7E8" d="M51.954,20.253c-9.229-5.012-17.635-8.26-19.979-7.962c-2.346-0.298-10.752,2.95-19.981,7.962
	c-10.885,5.913,0.256,20.34,4.381,11.571c3.3-7.016,11.715-7.685,14.951-7.671v0.048c0,0,0.234-0.021,0.648-0.036
	c0.413,0.015,0.647,0.036,0.647,0.036v-0.048c3.236-0.014,11.65,0.655,14.952,7.671C51.698,40.594,62.84,26.167,51.954,20.253z"/>
<path fill="#741112" d="M37.338,3.449c-1.545-1.569-3.78-1.646-5.057-1.534c-1.276-0.112-3.511-0.035-5.056,1.534
	C24.951,5.757,7.475,16.058,10.77,21.455c2.843,4.657,17.538-0.208,21.511-1.629c3.974,1.421,18.667,6.286,21.512,1.629
	C57.088,16.058,39.611,5.757,37.338,3.449z"/>
<path fill="#BB2025" d="M22.315,14.915c0-5.871,5.719-10.833,13.583-12.465c-1.294-0.594-2.702-0.615-3.617-0.535
	c-1.276-0.112-3.511-0.035-5.056,1.534c-2.275,2.31-19.75,12.61-16.456,18.006c1.874,3.069,8.892,2.003,14.599,0.513
	C23.437,19.934,22.315,17.513,22.315,14.915z"/>
<path fill="#FFFFFF" d="M50.699,20.748c-8.649-2.909-16.527-4.793-18.726-4.621c-2.198-0.173-10.077,1.711-18.727,4.621
	c-10.202,3.431,0.24,11.801,4.106,6.712c3.093-4.07,10.979-4.458,14.013-4.451v0.028c0,0,0.22-0.013,0.607-0.021
	c0.388,0.008,0.607,0.021,0.607,0.021v-0.028c3.033-0.007,10.918,0.381,14.012,4.451C50.46,32.549,60.901,24.178,50.699,20.748z"/>
<ellipse fill="#BB2025" cx="32.261" cy="46.444" rx="1.765" ry="2.113"/>
<path fill="#E6E7E8" d="M32.28,41.203c0,0-3.037-4.191-5.445,0c-2.409,4.189-3.194,1.182-3.927,0
	c-0.733-1.182-3.456-0.432-0.942,2.793c2.513,3.223,9.581,6.661,10.314,1.289C33.013,39.912,32.28,41.203,32.28,41.203z"/>
<path fill="#E6E7E8" d="M32.24,41.203c0,0,3.036-4.189,5.444,0s3.194,1.182,3.927,0s3.456-0.432,0.943,2.793
	c-2.513,3.223-9.582,6.661-10.314,1.289C31.508,39.912,32.24,41.203,32.24,41.203z"/>
<path fill="#FFFFFF" d="M32.312,39.76c0,0-2.8-3.498-5.021,0c-2.22,3.496-2.945,0.987-3.621,0c-0.676-0.985-3.186-0.357-0.869,2.331
	c2.317,2.69,8.834,5.561,9.51,1.077C32.987,38.684,32.312,39.76,32.312,39.76z"/>
<path fill="#FFFFFF" d="M32.274,39.76c0,0,2.799-3.496,5.021,0c2.221,3.496,2.944,0.987,3.621,0
	c0.676-0.985,3.186-0.357,0.868,2.331c-2.317,2.69-8.834,5.561-9.51,1.077C31.599,38.684,32.274,39.76,32.274,39.76z"/>
<ellipse fill="#DCAB69" cx="31.872" cy="39.666" rx="4.432" ry="2.905"/>
<path opacity="0.2" fill="#FFFFFF" d="M28.014,38.238c-0.021,0.08-0.033,0.163-0.033,0.246c0,1.069,1.742,1.938,3.892,1.938
	c2.148,0,3.892-0.868,3.892-1.938c0-0.083-0.013-0.167-0.034-0.246c-0.76-0.882-2.203-1.479-3.857-1.479
	C30.217,36.76,28.773,37.356,28.014,38.238z"/>
</svg>
