<svg id="_01-fireplace" data-name="01-fireplace" xmlns="http://www.w3.org/2000/svg" viewBox="0 0 64 64"><rect x="14" y="53" width="4" height="4" style="fill:#7c4026"/><rect x="14" y="45" width="4" height="4" style="fill:#7c4026"/><rect x="14" y="37" width="4" height="4" style="fill:#7c4026"/><path d="M17.49,26.36l3.2,2.4a13.763,13.763,0,0,0-2.08,4.16l-3.94-.79A17.625,17.625,0,0,1,17.49,26.36Z" style="fill:#7c4026"/><path d="M26.36,19.91l1.49,3.72a13.926,13.926,0,0,0-4.09,2.06l-2.4-3.2A17.576,17.576,0,0,1,26.36,19.91Z" style="fill:#7c4026"/><path d="M37.64,19.91l-1.49,3.72A13.9,13.9,0,0,0,32,23V19A17.821,17.821,0,0,1,37.64,19.91Z" style="fill:#7c4026"/><path d="M45.41,25a15.578,15.578,0,0,1,1.1,1.36l-3.2,2.4a13.551,13.551,0,0,0-3.07-3.07l2.4-3.2A17.361,17.361,0,0,1,45.41,25Z" style="fill:#7c4026"/><path d="M50,37H46a13.751,13.751,0,0,0-.61-4.08l3.94-.79c.09.32.17.64.24.97A17.928,17.928,0,0,1,50,37Z" style="fill:#7c4026"/><rect x="46" y="41" width="4" height="4" style="fill:#7c4026"/><rect x="46" y="49" width="4" height="4" style="fill:#7c4026"/><rect x="14" y="49" width="4" height="4" style="fill:#c47952"/><rect x="14" y="41" width="4" height="4" style="fill:#c47952"/><path d="M14.67,32.13l3.94.79A13.751,13.751,0,0,0,18,37H14a17.928,17.928,0,0,1,.43-3.9C14.5,32.77,14.58,32.45,14.67,32.13Z" style="fill:#c47952"/><path d="M18.59,25a17.361,17.361,0,0,1,2.77-2.51l2.4,3.2a13.551,13.551,0,0,0-3.07,3.07l-3.2-2.4A15.578,15.578,0,0,1,18.59,25Z" style="fill:#c47952"/><path d="M26.36,19.91A17.821,17.821,0,0,1,32,19v4a13.9,13.9,0,0,0-4.15.63Z" style="fill:#c47952"/><path d="M42.64,22.49l-2.4,3.2a13.926,13.926,0,0,0-4.09-2.06l1.49-3.72A17.576,17.576,0,0,1,42.64,22.49Z" style="fill:#c47952"/><path d="M49.33,32.13l-3.94.79a13.763,13.763,0,0,0-2.08-4.16l3.2-2.4A17.625,17.625,0,0,1,49.33,32.13Z" style="fill:#c47952"/><rect x="46" y="37" width="4" height="4" style="fill:#c47952"/><rect x="46" y="45" width="4" height="4" style="fill:#c47952"/><rect x="46" y="53" width="4" height="4" style="fill:#c47952"/><path d="M14,33l.43.1A17.928,17.928,0,0,0,14,37v4H4V33H14Z" style="fill:#a65d4e"/><path d="M60,33v8H50V37a17.928,17.928,0,0,0-.43-3.9L50,33H60Z" style="fill:#a65d4e"/><polygon points="60 49 60 57 50 57 50 53 50 49 60 49" style="fill:#a65d4e"/><polygon points="14 53 14 57 4 57 4 49 14 49 14 53" style="fill:#a65d4e"/><rect x="53" y="25" width="7" height="8" style="fill:#915041"/><rect x="4" y="25" width="7" height="8" style="fill:#915041"/><path d="M17,17H47v8H45.41a17.361,17.361,0,0,0-2.77-2.51,17.576,17.576,0,0,0-5-2.58,17.933,17.933,0,0,0-11.28,0,17.576,17.576,0,0,0-5,2.58A17.361,17.361,0,0,0,18.59,25H17Z" style="fill:#915041"/><polygon points="60 11 60 17 47 17 17 17 4 17 4 11 60 11" style="fill:#b46e5a"/><polygon points="14 45 14 49 4 49 4 41 14 41 14 45" style="fill:#915041"/><polygon points="60 41 60 49 50 49 50 45 50 41 60 41" style="fill:#915041"/><path d="M53,25v8H50l-.43.1c-.07-.33-.15-.65-.24-.97a17.625,17.625,0,0,0-2.82-5.77A15.578,15.578,0,0,0,45.41,25H53Z" style="fill:#784132"/><path d="M17,25h1.59a15.578,15.578,0,0,0-1.1,1.36,17.625,17.625,0,0,0-2.82,5.77c-.09.32-.17.64-.24.97L14,33H11V25Z" style="fill:#784132"/><polygon points="17 17 17 25 11 25 4 25 4 17 17 17" style="fill:#a65d4e"/><polygon points="60 17 60 25 53 25 47 25 47 17 60 17" style="fill:#a65d4e"/><rect x="1" y="57" width="62" height="6" rx="2" ry="2" style="fill:#61362b"/><path d="M61,61H3a2,2,0,0,1-2-2v2a2,2,0,0,0,2,2H61a2,2,0,0,0,2-2V59A2,2,0,0,1,61,61Z" style="fill:#4c2c21"/><path d="M61,57H3a2,2,0,0,0-2,2v2a2,2,0,0,1,2-2H61a2,2,0,0,1,2,2V59A2,2,0,0,0,61,57Z" style="fill:#915041"/><rect x="1" y="7" width="62" height="4" rx="2" ry="2" style="fill:#61362b"/><path d="M3,9H61a1.994,1.994,0,0,1,1.723,1A1.988,1.988,0,0,0,61,7H3a1.988,1.988,0,0,0-1.723,3A1.994,1.994,0,0,1,3,9Z" style="fill:#4c2c21"/><path d="M32,23h0A14,14,0,0,1,46,37V57a0,0,0,0,1,0,0H18a0,0,0,0,1,0,0V37A14,14,0,0,1,32,23Z" style="fill:#4c2c21"/><rect x="26" y="30" width="12" height="6" rx="2" ry="2" style="fill:#61362b"/><rect x="26" y="44" width="12" height="6" rx="2" ry="2" style="fill:#61362b"/><rect x="32.5" y="37" width="12" height="6" rx="2" ry="2" style="fill:#61362b"/><rect x="19.5" y="37" width="12" height="6" rx="2" ry="2" style="fill:#61362b"/><path d="M25,34V32a2,2,0,0,0-2-2H19.888a13.907,13.907,0,0,0-1.838,6H23A2,2,0,0,0,25,34Z" style="fill:#61362b"/><path d="M41,30a2,2,0,0,0-2,2v2a2,2,0,0,0,2,2h4.95a13.907,13.907,0,0,0-1.838-6Z" style="fill:#61362b"/><path d="M25,48V46a2,2,0,0,0-2-2H18v6h5A2,2,0,0,0,25,48Z" style="fill:#61362b"/><path d="M39,46v2a2,2,0,0,0,2,2h5V44H41A2,2,0,0,0,39,46Z" style="fill:#61362b"/><path d="M33,25v2a2,2,0,0,0,2,2h8a2,2,0,0,0,.441-.052,13.981,13.981,0,0,0-9.271-5.763A2,2,0,0,0,33,25Z" style="fill:#61362b"/><path d="M30,29a2,2,0,0,0,2-2V25a1.994,1.994,0,0,0-1.474-1.921,13.969,13.969,0,0,0-9.71,5.525A1.98,1.98,0,0,0,22,29Z" style="fill:#61362b"/><rect x="33" y="51" width="12" height="6" rx="2" ry="2" style="fill:#61362b"/><rect x="20" y="51" width="12" height="6" rx="2" ry="2" style="fill:#61362b"/><rect x="35" y="27" width="7" height="2" rx="1" ry="1" style="fill:#784132"/><rect x="24" y="27" width="7" height="2" rx="1" ry="1" style="fill:#784132"/><rect x="27" y="34" width="7" height="2" rx="1" ry="1" style="fill:#784132"/><rect x="36" y="41" width="7" height="2" rx="1" ry="1" style="fill:#784132"/><rect x="37" y="51" width="7" height="2" rx="1" ry="1" style="fill:#784132"/><rect x="23" y="41" width="7" height="2" rx="1" ry="1" style="fill:#784132"/><rect x="31" y="34" width="4" height="2" rx="1" ry="1" style="fill:#7d4b3d"/><rect x="36" y="27" width="4" height="2" rx="1" ry="1" style="fill:#7d4b3d"/><rect x="27" y="27" width="4" height="2" rx="1" ry="1" style="fill:#7d4b3d"/><rect x="20" y="34" width="4" height="2" rx="1" ry="1" style="fill:#7d4b3d"/><rect x="21" y="37" width="4" height="2" rx="1" ry="1" style="fill:#7d4b3d"/><rect x="38" y="37" width="4" height="2" rx="1" ry="1" style="fill:#7d4b3d"/><rect x="36" y="41" width="4" height="2" rx="1" ry="1" style="fill:#7d4b3d"/><rect x="38" y="51" width="4" height="2" rx="1" ry="1" style="fill:#ab6544"/><rect x="40" y="44" width="4" height="2" rx="1" ry="1" style="fill:#7d4b3d"/><path d="M42,34a1,1,0,0,0,0,2h3.95a14.14,14.14,0,0,0-.28-2Z" style="fill:#784132"/><path d="M23,45a1,1,0,0,0-1-1H18v2h4A1,1,0,0,0,23,45Z" style="fill:#633a32"/><rect x="40" y="34" width="4" height="2" rx="1" ry="1" style="fill:#7d4b3d"/><rect x="20" y="44" width="4" height="2" rx="1" ry="1" style="fill:#7d4b3d"/><rect x="4" y="11" width="56" height="3" style="fill:#633629"/><rect x="56" y="17" width="4" height="8" style="fill:#c38778"/><rect x="56" y="33" width="4" height="8" style="fill:#c38778"/><rect x="56" y="49" width="4" height="8" style="fill:#c38778"/><rect x="56" y="25" width="4" height="8" style="fill:#b46e5a"/><rect x="56" y="41" width="4" height="8" style="fill:#b46e5a"/><rect x="56" y="14" width="4" height="3" style="fill:#cfa295"/><rect x="4" y="17" width="4" height="8" style="fill:#c38778"/><rect x="4" y="33" width="4" height="8" style="fill:#c38778"/><rect x="4" y="49" width="4" height="8" style="fill:#c38778"/><rect x="4" y="25" width="4" height="8" style="fill:#b46e5a"/><rect x="4" y="41" width="4" height="8" style="fill:#b46e5a"/><rect x="4" y="14" width="4" height="3" style="fill:#cfa295"/><path d="M28.607,7,27.34,5.76A1,1,0,0,1,28.02,4h1.99l1.02-2.4a1.078,1.078,0,0,1,.633-.54A3.811,3.811,0,0,0,31,1a3.993,3.993,0,0,0-3.878,3.063c-.06-.011-.124-.011-.185-.019a2.494,2.494,0,1,0-4.923-.686,3.462,3.462,0,0,0-1.355-.342A3.489,3.489,0,0,0,14.3,3.1a3.25,3.25,0,0,0-1.592,0A3.493,3.493,0,0,0,7,2.051,3.484,3.484,0,0,0,6.5,2,3.488,3.488,0,0,0,4,3.051,2.534,2.534,0,0,0,3.5,3,2.49,2.49,0,0,0,1.852,7.366,1.986,1.986,0,0,1,3,7Z" style="fill:#009e60"/><path d="M33.99,4h1.99a1,1,0,0,1,.68,1.76L35.393,7H61a1.984,1.984,0,0,1,1.143.362A2.463,2.463,0,0,0,63,5.5a2.5,2.5,0,0,0-3.878-2.084,3.46,3.46,0,0,0-1.463-.4A3.489,3.489,0,0,0,51.3,3.1a3.016,3.016,0,0,0-1.341-.044,2.494,2.494,0,0,0-4.546-.921,3.438,3.438,0,0,0-4.133,2,2.284,2.284,0,0,0-1.391-.05A3.967,3.967,0,0,0,33.5,1.9a4.221,4.221,0,0,0-.6-.4,1.023,1.023,0,0,1,.069.1Z" style="fill:#009e60"/><path d="M27.568,5.983A3.986,3.986,0,0,0,27.143,7h1.464Z" style="fill:#007145"/><path d="M60.5,6a2.484,2.484,0,0,0-1.378.416,3.46,3.46,0,0,0-1.463-.4A3.489,3.489,0,0,0,51.3,6.1a3.016,3.016,0,0,0-1.341-.044,2.494,2.494,0,0,0-4.546-.921A3.424,3.424,0,0,0,41.346,7H61a1.984,1.984,0,0,1,1.143.362A2.427,2.427,0,0,0,62.486,7,2.49,2.49,0,0,0,60.5,6Z" style="fill:#007145"/><path d="M36.66,5.76,35.393,7h4.464A3.989,3.989,0,0,0,36,4h-.012A1,1,0,0,1,36.66,5.76Z" style="fill:#007145"/><path d="M1.852,7.366A1.986,1.986,0,0,1,3,7H26.942A2.424,2.424,0,0,0,27,6.5a2.495,2.495,0,0,0-4.986-.142,3.462,3.462,0,0,0-1.355-.342A3.489,3.489,0,0,0,14.3,6.1a3.25,3.25,0,0,0-1.592,0A3.493,3.493,0,0,0,7,5.051,3.484,3.484,0,0,0,6.5,5,3.488,3.488,0,0,0,4,6.051,2.534,2.534,0,0,0,3.5,6,2.489,2.489,0,0,0,1.511,7,2.462,2.462,0,0,0,1.852,7.366Z" style="fill:#007145"/><path d="M14,55v2h4V53H16A2,2,0,0,1,14,55Z" style="fill:#9c4d30"/><rect x="16" y="45" width="2" height="4" style="fill:#9c4d30"/><rect x="16" y="37" width="2" height="4" style="fill:#9c4d30"/><path d="M16.646,32.526l1.964.394a13.763,13.763,0,0,1,2.08-4.16L19.1,27.566A15.906,15.906,0,0,0,16.646,32.526Z" style="fill:#9c4d30"/><path d="M22.566,24.1,23.76,25.69a13.926,13.926,0,0,1,4.09-2.06l-.745-1.86A15.886,15.886,0,0,0,22.566,24.1Z" style="fill:#9c4d30"/><path d="M32,21v2a13.9,13.9,0,0,1,4.15.63l.745-1.86A15.968,15.968,0,0,0,32,21Z" style="fill:#9c4d30"/><path d="M41.434,24.1,40.24,25.69a13.551,13.551,0,0,1,3.07,3.07L44.9,27.566A16.065,16.065,0,0,0,41.434,24.1Z" style="fill:#9c4d30"/><path d="M48,37a16,16,0,0,0-.646-4.474l-1.964.394A13.751,13.751,0,0,1,46,37Z" style="fill:#9c4d30"/><rect x="46" y="41" width="2" height="4" style="fill:#9c4d30"/><rect x="46" y="49" width="2" height="4" style="fill:#9c4d30"/><rect x="16" y="49" width="2" height="4" style="fill:#fd853c"/><rect x="16" y="41" width="2" height="4" style="fill:#fd853c"/><path d="M16,37h2a13.751,13.751,0,0,1,.61-4.08l-1.964-.394A16,16,0,0,0,16,37Z" style="fill:#fd853c"/><path d="M19.1,27.566,20.69,28.76a13.551,13.551,0,0,1,3.07-3.07L22.566,24.1A16.065,16.065,0,0,0,19.1,27.566Z" style="fill:#fd853c"/><path d="M27.105,21.77l.745,1.86A13.9,13.9,0,0,1,32,23V21A15.968,15.968,0,0,0,27.105,21.77Z" style="fill:#fd853c"/><path d="M36.9,21.77l-.745,1.86a13.926,13.926,0,0,1,4.09,2.06L41.434,24.1A15.886,15.886,0,0,0,36.9,21.77Z" style="fill:#fd853c"/><path d="M44.9,27.566,43.31,28.76a13.763,13.763,0,0,1,2.08,4.16l1.964-.394A15.906,15.906,0,0,0,44.9,27.566Z" style="fill:#fd853c"/><rect x="46" y="37" width="2" height="4" style="fill:#fd853c"/><rect x="46" y="45" width="2" height="4" style="fill:#fd853c"/><path d="M48,53H46v4h4V55A2,2,0,0,1,48,53Z" style="fill:#fd853c"/><path d="M39,47c0,2,3,2,3,5s-4,5-4,5H27s-5-3-5-8,3-7,4-9-2-4-2-4,7,0,7,6c0,0,0-4,2-6,1.58-1.58,1-6-1-7,0,0,7,0,7,7a6.236,6.236,0,0,1-2,5c-3,2-2,7-2,7s0-5,5-5A10.343,10.343,0,0,0,39,47Z" style="fill:#fd6000"/><rect x="17" y="57" width="29" height="2" rx="1" ry="1" style="fill:#e6642f"/><rect x="48" y="57" width="5" height="2" rx="1" ry="1" style="fill:#e6642f"/><rect x="10" y="57" width="5" height="2" rx="1" ry="1" style="fill:#e6642f"/><rect x="17" y="9" width="29" height="2" rx="1" ry="1" style="fill:#7d4b3d"/><rect x="48" y="9" width="5" height="2" rx="1" ry="1" style="fill:#7d4b3d"/><rect x="10" y="9" width="5" height="2" rx="1" ry="1" style="fill:#7d4b3d"/><path d="M32.97,1.6,33.99,4h1.99a1,1,0,0,1,.68,1.76L35.25,7.14l.53,2.58a1.078,1.078,0,0,1-1.71,1.06L32,9.26l-2.07,1.52a1.078,1.078,0,0,1-1.71-1.06l.53-2.58L27.34,5.76A1,1,0,0,1,28.02,4h1.99l1.02-2.4A1.084,1.084,0,0,1,32.97,1.6Z" style="fill:#f0af4c"/><path d="M59.16,10.26l-.74.74H61c.05,0,.1-.011.145-.015l-.725-.725A.887.887,0,0,0,59.16,10.26Z" style="fill:#382018"/><polygon points="57.29 12.13 59.16 14 60 14 60 11 58.42 11 57.29 12.13" style="fill:#4c2c21"/><polygon points="59.16 14 60 14.84 60 14 59.16 14" style="fill:#69392c"/><path d="M56,28v-.723a3.239,3.239,0,0,1-.436.606A3.59,3.59,0,0,0,56,28Z" style="fill:#4d2a20"/><polygon points="56 24.456 56 22 55 23 56 24.456" style="fill:#4d2a20"/><path d="M58.42,19.58,56,22v2.456l.14.2a2.786,2.786,0,0,1,.117.34H60V23.456L59,22l1-1v-.043a.846.846,0,0,1-.42-.217Z" style="fill:#69392c"/><path d="M56.257,25a2.957,2.957,0,0,1-.027,1.79,2.75,2.75,0,0,1-.23.487V28h.94A3.511,3.511,0,0,0,60,26.3V25Z" style="fill:#784132"/><path d="M6.8,9H6.777a.884.884,0,0,0-.617.26L4.42,11H9.16L7.42,9.26A.884.884,0,0,0,6.8,9Z" style="fill:#382018"/><path d="M8,14h.039a.874.874,0,0,1,.221-.84l1.53-1.53L9.16,11H4.42l-.16.16a.884.884,0,0,0-.26.617V11.8a.884.884,0,0,0,.26.617l.12.12L4,12.865V14Z" style="fill:#4c2c21"/><polygon points="4 17 4 18.289 5.506 17 4 17" style="fill:#4c2c21"/><polygon points="8 14.865 8 14 4 14 4 17 5.506 17 8 14.865" style="fill:#69392c"/><path d="M36.9,50.029c0,1.394,2.1,1.394,2.1,3.485S36.2,57,36.2,57H28.5S25,54.909,25,51.423s2.1-4.88,2.8-6.274-1.4-2.787-1.4-2.789c.085.056.391.021.493.032a4.206,4.206,0,0,1,3.093,1.729c.444.623.327,1.561.742,2.188a.193.193,0,0,0,.106-.175c.3-2.474.321-5.146,2.088-7.147a17.161,17.161,0,0,0,1.608-1.838A2.544,2.544,0,0,0,34.648,35c.07.183.4.412.532.58a4.53,4.53,0,0,1,.446.716,5,5,0,0,1,.318,2.389,5.817,5.817,0,0,1-.417,2.232c-.321.714-.811,1.332-1.075,2.078a6.856,6.856,0,0,0-.235,3.78,2.915,2.915,0,0,0,.952,1.726c-.22-.169.959-.813,1.054-.851a3.523,3.523,0,0,1,1.382-.409A5.971,5.971,0,0,0,36.9,50.029Z" style="fill:#fcb65c"/><path d="M28.85,52.357c0,.929-1.35.929-1.35,2.322S29.3,57,29.3,57h4.95a4.894,4.894,0,0,0,2.25-3.714c0-2.322-1.35-3.25-1.8-4.179s.9-1.857.9-1.857-3.15,0-3.15,2.786a4.69,4.69,0,0,0-.9-2.786A2.5,2.5,0,0,1,32,44a3.117,3.117,0,0,0-3.15,3.25,2.938,2.938,0,0,0,.9,2.321c1.35.929.9,3.25.9,3.25A2.252,2.252,0,0,0,28.4,50.5,4.923,4.923,0,0,1,28.85,52.357Z" style="fill:#fedc9d"/><rect x="30" y="31" width="2" height="4" rx="1" ry="1" style="fill:#fd6000"/><rect x="38.5" y="26.5" width="1" height="3" rx="0.5" ry="0.5" style="fill:#f6841e"/><rect x="28" y="28" width="1" height="3" rx="0.5" ry="0.5" style="fill:#f6841e"/><rect x="30" y="25" width="1" height="2" rx="0.5" ry="0.5" style="fill:#f6841e"/><rect x="40" y="31" width="1" height="2" rx="0.5" ry="0.5" style="fill:#fd6000"/><path d="M34.07,8.78,32,7.26,29.93,8.78a1.086,1.086,0,0,1-1.482-.172L28.22,9.72a1.078,1.078,0,0,0,1.71,1.06L32,9.26l2.07,1.52a1.078,1.078,0,0,0,1.71-1.06l-.228-1.112A1.086,1.086,0,0,1,34.07,8.78Z" style="fill:#f6841e"/><path d="M30.01,6l1.02-2.4a1.084,1.084,0,0,1,1.94,0L33.99,6h1.99a1.132,1.132,0,0,1,.369.064l.311-.3A1,1,0,0,0,35.98,4H33.99L32.97,1.6a1.084,1.084,0,0,0-1.94,0L30.01,4H28.02a1,1,0,0,0-.68,1.76l.311.3A1.132,1.132,0,0,1,28.02,6Z" style="fill:#d79d44"/><path d="M15.84,20.74a.887.887,0,0,1-1.26,0l-1.16-1.16L8.38,14.54l-.12-.12a.887.887,0,0,1,0-1.26l1.9-1.9a.887.887,0,0,1,1.26,0l6.32,6.32a.887.887,0,0,1,0,1.26Z" style="fill:#008f57"/><path d="M13.42,19.58,10,23l1.14,1.66a2.9,2.9,0,0,1,.09,2.13A3.425,3.425,0,0,1,7.94,29H7a3.538,3.538,0,0,1-2.64-1.83L2.54,23.95A4.07,4.07,0,0,1,2,21.91a4.153,4.153,0,0,1,1.45-3.15l4.93-4.22Z" style="fill:#eb2335"/><path d="M17.74,17.58l-6.32-6.32a.887.887,0,0,0-1.26,0l-1,1a.887.887,0,0,1,1.26,0l6.32,6.32a.887.887,0,0,1,0,1.26l1-1A.887.887,0,0,0,17.74,17.58Z" style="fill:#009e60"/><path d="M10,23l3.42-3.42L8.38,14.54,6.85,15.85l2.736,2.736a2,2,0,0,1,0,2.828l-.151.151-.024.024a1.942,1.942,0,0,0,1.2,3.2l.607.093a2.174,2.174,0,0,0-.08-.222Z" style="fill:#c22026"/><path d="M17.061,17.939A1.5,1.5,0,0,0,15,17.88l-.44-.441a1.5,1.5,0,0,0-2.122,0,1.468,1.468,0,0,0-.384.776L13.42,19.58l1.16,1.16a.887.887,0,0,0,1.26,0L17.481,19.1A1.481,1.481,0,0,0,17.061,17.939Z" style="fill:#00c477"/><path d="M12.262,15.141l-.2-.2a1.5,1.5,0,0,0-2.122,0,1.468,1.468,0,0,0-.384.776l1.93,1.93a1.461,1.461,0,0,0,.776-.384A1.5,1.5,0,0,0,12.262,15.141Z" style="fill:#00c477"/><path d="M7,29h.94a3.425,3.425,0,0,0,3.29-2.21,3.018,3.018,0,0,0,.108-1.456A1.5,1.5,0,0,0,8.5,26c0,.084-.354.462-1.347.5a4.338,4.338,0,0,1-.866-1.216,1.494,1.494,0,0,0-2.773.392l.846,1.5A3.538,3.538,0,0,0,7,29Z" style="fill:#fd6000"/><path d="M3.66,24.5A1.5,1.5,0,0,0,5.16,23a1.5,1.5,0,0,0-2.172-1.345,1.484,1.484,0,0,0-.8,1.456,3.942,3.942,0,0,0,.355.836l.032.057A1.475,1.475,0,0,0,3.66,24.5Z" style="fill:#fd6000"/><path d="M60.84,20.74a.887.887,0,0,1-1.26,0l-1.16-1.16-5.04-5.04-.12-.12a.887.887,0,0,1,0-1.26l1.9-1.9a.887.887,0,0,1,1.26,0l6.32,6.32a.887.887,0,0,1,0,1.26Z" style="fill:#008f57"/><path d="M58.42,19.58,55,23l1.14,1.66a2.9,2.9,0,0,1,.09,2.13A3.425,3.425,0,0,1,52.94,29H52a3.538,3.538,0,0,1-2.64-1.83l-1.82-3.22A4.07,4.07,0,0,1,47,21.91a4.153,4.153,0,0,1,1.45-3.15l4.93-4.22Z" style="fill:#eb2335"/><path d="M62.74,17.58l-6.32-6.32a.887.887,0,0,0-1.26,0l-1,1a.887.887,0,0,1,1.26,0l6.32,6.32a.887.887,0,0,1,0,1.26l1-1A.887.887,0,0,0,62.74,17.58Z" style="fill:#009e60"/><path d="M55,23l3.42-3.42-5.04-5.04-1.53,1.31,2.736,2.736a2,2,0,0,1,0,2.828l-.151.151-.024.024a1.942,1.942,0,0,0,1.2,3.2l.607.093a2.174,2.174,0,0,0-.08-.222Z" style="fill:#c22026"/><path d="M62.061,17.939A1.5,1.5,0,0,0,60,17.88l-.44-.441a1.5,1.5,0,0,0-2.122,0,1.468,1.468,0,0,0-.384.776L58.42,19.58l1.16,1.16a.887.887,0,0,0,1.26,0L62.481,19.1A1.481,1.481,0,0,0,62.061,17.939Z" style="fill:#00c477"/><path d="M57.262,15.141l-.2-.2a1.5,1.5,0,0,0-2.122,0,1.468,1.468,0,0,0-.384.776l1.93,1.93a1.461,1.461,0,0,0,.776-.384A1.5,1.5,0,0,0,57.262,15.141Z" style="fill:#00c477"/><path d="M52,29h.94a3.425,3.425,0,0,0,3.29-2.21,3.018,3.018,0,0,0,.108-1.456A1.5,1.5,0,0,0,53.5,26c0,.084-.354.462-1.347.5a4.338,4.338,0,0,1-.866-1.216,1.494,1.494,0,0,0-2.773.392l.846,1.5A3.538,3.538,0,0,0,52,29Z" style="fill:#fd6000"/><path d="M48.66,24.5a1.5,1.5,0,0,0,1.5-1.5,1.5,1.5,0,0,0-2.172-1.345,1.484,1.484,0,0,0-.8,1.456,3.942,3.942,0,0,0,.355.836l.032.057A1.475,1.475,0,0,0,48.66,24.5Z" style="fill:#fd6000"/><path d="M56.42,11.26l.58.58V7a1,1,0,0,0-2,0v4.42l.16-.16A.887.887,0,0,1,56.42,11.26Z" style="fill:#bcc1e3"/><path d="M11.42,11.26l.58.58V7a1,1,0,0,0-2,0v4.42l.16-.16A.887.887,0,0,1,11.42,11.26Z" style="fill:#bcc1e3"/></svg>