<svg xmlns="http://www.w3.org/2000/svg" viewBox="0 0 64 64"><g id="_04-christmas_tree" data-name="04-christmas tree"><path d="M39,55.39V61a2.006,2.006,0,0,1-2,2H27a2.006,2.006,0,0,1-2-2V55.39a7.338,7.338,0,0,0,1.34,1.56A8.577,8.577,0,0,0,32,59,8.238,8.238,0,0,0,39,55.39Z" style="fill:#915041"/><path d="M24.4,46.76,24,52a7.182,7.182,0,0,1-7.08,6h-.83a5.088,5.088,0,0,1-3.83-8.44l1.21-1.6C15.38,47.72,19.9,46.32,24.4,46.76Z" style="fill:#a4afe6"/><path d="M25,39l-.96,1.88A4.562,4.562,0,0,1,19.71,44h-.15a4.576,4.576,0,0,1-2.51-.75,5.053,5.053,0,0,1-.71-.59A4.509,4.509,0,0,1,15,39.44a4.618,4.618,0,0,1,.82-2.62l.5-.72a37.671,37.671,0,0,0,8.85,1.57Z" style="fill:#a4afe6"/><path d="M22.02,27.92A3.8,3.8,0,0,1,19,24.21v-.77a3.79,3.79,0,0,1,.96-2.52L21.36,19c.88.01,3.28.04,6.11.21L27,23l-.47,1.83a3.786,3.786,0,0,1-4.51,3.09Z" style="fill:#a4afe6"/><path d="M40,52a6.26,6.26,0,0,1-1,3.39A8.238,8.238,0,0,1,32,59a8.577,8.577,0,0,1-5.66-2.05A7.338,7.338,0,0,1,25,55.39,6.26,6.26,0,0,1,24,52l.4-5.24A12.65,12.65,0,0,1,29,48a23.133,23.133,0,0,0,10.87,2.31Z" style="fill:#ced1ea"/><path d="M25.17,37.67A16.743,16.743,0,0,0,31,37a62.594,62.594,0,0,1,7.52-1.86L39,39l-.42,1.26a4.875,4.875,0,0,1-2.52,2.93A9.1,9.1,0,0,1,32,44c-2.99,0-5.64-.91-6.58-3.74L25,39Z" style="fill:#ced1ea"/><path d="M36.66,20.31,37,23l-1.05,2.15a4.223,4.223,0,0,1-1.52,2.06A4.128,4.128,0,0,1,32,28a4.172,4.172,0,0,1-3.95-2.85L27,23l.47-3.79A62.314,62.314,0,0,1,36.66,20.31Z" style="fill:#ced1ea"/><path d="M32,7.8a6.833,6.833,0,0,1-2-.19A7.6,7.6,0,0,0,28,7a6.778,6.778,0,0,0-2.67.84l2.08-3.87a5.032,5.032,0,0,1,9.18,0l1.58,2.94L38,7A45.036,45.036,0,0,1,32,7.8Z" style="fill:#ebebff"/><path d="M42.44,56.3A7.186,7.186,0,0,1,40,52l-.13-1.69a31.848,31.848,0,0,0,10.79-2.17l1.08,1.42A5.088,5.088,0,0,1,47.91,58h-.83A7.19,7.19,0,0,1,42.44,56.3Z" style="fill:#ebebff"/><path d="M46.95,43.25a4.576,4.576,0,0,1-2.51.75h-.15a4.562,4.562,0,0,1-4.33-3.12L39,39l-.48-3.86C42.57,34.38,46,34,46,34l.14-.1,2.04,2.92A4.618,4.618,0,0,1,49,39.44,4.555,4.555,0,0,1,46.95,43.25Z" style="fill:#ebebff"/><path d="M45,24.21a3.762,3.762,0,0,1-1.11,2.68,6.968,6.968,0,0,1-1.91,1.03,3.786,3.786,0,0,1-4.51-3.09L37,23l-.34-2.69A16.141,16.141,0,0,1,39,21c4.75,1.91,5.79,2.01,5.97,2a3.253,3.253,0,0,1,.03.44Z" style="fill:#ebebff"/><path d="M30,7.61a6.833,6.833,0,0,0,2,.19v2.53L30.86,13a3.107,3.107,0,0,1-2.78,2h-.97a2.889,2.889,0,0,1-2.13-.98A3.937,3.937,0,0,1,24,11.37a4.069,4.069,0,0,1,.47-1.92l.86-1.61A6.778,6.778,0,0,1,28,7,7.6,7.6,0,0,1,30,7.61Z" style="fill:#007145"/><path d="M39.02,14.02a2.889,2.889,0,0,1-2.13.98h-.97a3.107,3.107,0,0,1-2.78-2L32,10.33V7.8A45.036,45.036,0,0,0,38,7l.17-.09,1.36,2.54A4.069,4.069,0,0,1,40,11.37a3.958,3.958,0,0,1-.91,2.57C39.07,13.97,39.04,13.99,39.02,14.02Z" style="fill:#009e60"/><path d="M28,15l-.53,4.21c-2.83-.17-5.23-.2-6.11-.21l3.62-4.98a2.889,2.889,0,0,0,2.13.98Z" style="fill:#004a2d"/><path d="M32,10.33,33.14,13a3.107,3.107,0,0,0,2.78,2H36l.66,5.31a62.314,62.314,0,0,0-9.19-1.1L28,15h.08a3.107,3.107,0,0,0,2.78-2Z" style="fill:#00824f"/><path d="M44.97,23c-.18.01-1.22-.09-5.97-2a16.141,16.141,0,0,0-2.34-.69L36,15h.89a2.889,2.889,0,0,0,2.13-.98l5.02,6.9A3.731,3.731,0,0,1,44.97,23Z" style="fill:#009e60"/><path d="M27,23,25.17,37.67a37.671,37.671,0,0,1-8.85-1.57L22,28l.02-.08a3.793,3.793,0,0,0,4.51-3.09Z" style="fill:#00613b"/><path d="M28.05,25.15A4.172,4.172,0,0,0,32,28a4.128,4.128,0,0,0,2.43-.79,4.223,4.223,0,0,0,1.52-2.06L37,23l1.52,12.14A62.594,62.594,0,0,0,31,37a16.743,16.743,0,0,1-5.83.67L27,23Z" style="fill:#008f57"/><path d="M42,28l4.14,5.9L46,34s-3.43.38-7.48,1.14L37,23l.47,1.83a3.786,3.786,0,0,0,4.51,3.09Z" style="fill:#009e60"/><path d="M25,39l-.6,7.76c-4.5-.44-9.02.96-10.93,1.2l3.58-4.71a4.576,4.576,0,0,0,2.51.75h.15a4.562,4.562,0,0,0,4.33-3.12Z" style="fill:#004a2d"/><path d="M39,39l.87,11.31A23.133,23.133,0,0,1,29,48a12.65,12.65,0,0,0-4.6-1.24L25,39l.42,1.26C26.36,43.09,29.01,44,32,44a9.1,9.1,0,0,0,4.06-.81,4.875,4.875,0,0,0,2.52-2.93Z" style="fill:#00613b"/><path d="M39.96,40.88A4.562,4.562,0,0,0,44.29,44h.15a4.576,4.576,0,0,0,2.51-.75l3.71,4.89a31.848,31.848,0,0,1-10.79,2.17L39,39Z" style="fill:#008f57"/><path d="M32.425,5.362a5.261,5.261,0,0,0,3.075.224,7.037,7.037,0,0,0,1.573-.718l-.483-.9A5.28,5.28,0,0,0,32,1a5.165,5.165,0,0,0-4.261,2.434,6.6,6.6,0,0,1,1.84.628A28.028,28.028,0,0,0,32.425,5.362Z" style="fill:#f7f7ff"/><path d="M29.819,9.61A9.9,9.9,0,0,0,32,9.8v-2a6.833,6.833,0,0,1-2-.19A7.6,7.6,0,0,0,28,7a6.778,6.778,0,0,0-2.67.84l-.86,1.61c-.045.083-.079.172-.118.258A8.987,8.987,0,0,1,27.327,9,11.256,11.256,0,0,1,29.819,9.61Z" style="fill:#004a2d"/><path d="M32.312,9.8a61.318,61.318,0,0,0,7.01-.738L38.17,6.91,38,7a45.036,45.036,0,0,1-6,.8v2C32.1,9.8,32.205,9.8,32.312,9.8Z" style="fill:#007145"/><path d="M25.17,34.67a36.214,36.214,0,0,1-7.088-1.082L16.32,36.1a37.671,37.671,0,0,0,8.85,1.57l.374-3C25.419,34.67,25.294,34.675,25.17,34.67Z" style="fill:#007145"/><path d="M31,34a16.35,16.35,0,0,1-5.456.673l-.374,3A16.743,16.743,0,0,0,31,37a62.594,62.594,0,0,1,7.52-1.86l-.366-2.926A61.1,61.1,0,0,0,31,34Z" style="fill:#009e60"/><path d="M38.154,32.214l.366,2.926C42.57,34.38,46,34,46,34l.14-.1-1.881-2.681c-1.386.187-3.464.494-5.739.921C38.4,32.163,38.275,32.191,38.154,32.214Z" style="fill:#00c477"/><path d="M24.4,43.76a20.05,20.05,0,0,0-3.134-.042A4.545,4.545,0,0,1,19.71,44h-.15a4.567,4.567,0,0,1-.612-.046c-1.018.144-1.967.323-2.808.494L13.47,47.96c1.91-.24,6.43-1.64,10.93-1.2l.23-2.971C24.553,43.781,24.477,43.767,24.4,43.76Z" style="fill:#00613b"/><path d="M29,45a12.5,12.5,0,0,0-4.37-1.211L24.4,46.76A12.65,12.65,0,0,1,29,48a23.133,23.133,0,0,0,10.87,2.31l-.231-3A23.041,23.041,0,0,1,29,45Z" style="fill:#007145"/><path d="M39.639,47.309l.231,3a31.848,31.848,0,0,0,10.79-2.17l-1.79-2.359a32,32,0,0,1-9,1.529C39.794,47.312,39.715,47.308,39.639,47.309Z" style="fill:#00c477"/><path d="M22.707,17.147,21.36,19c.88.01,3.28.04,6.11.21l.219-1.743C26.028,17.388,24.366,17.274,22.707,17.147Z" style="fill:#007145"/><path d="M27.689,17.467,27.47,19.21a62.314,62.314,0,0,1,9.19,1.1L36.3,17.429A74.088,74.088,0,0,1,27.689,17.467Z" style="fill:#009e60"/><path d="M41.088,16.863a48.1,48.1,0,0,1-4.786.566l.358,2.881A16.141,16.141,0,0,1,39,21c4.75,1.91,5.79,2.01,5.97,2a3.731,3.731,0,0,0-.93-2.08Z" style="fill:#00c477"/><path d="M32,10c0,1.105-1.789,2-4,2a3.99,3.99,0,0,1-3.628-2.335A4.094,4.094,0,0,0,24,11.37a4.047,4.047,0,0,0,.31,1.58c0,.01.01.02.01.03A3.107,3.107,0,0,0,27.11,15h.97a3.107,3.107,0,0,0,2.78-2l.14-.33a1.08,1.08,0,0,1,1-.66V10Z" style="fill:#009e60"/><path d="M39.628,9.665A3.99,3.99,0,0,1,36,12c-2.211,0-4-.895-4-2v2.01a1.08,1.08,0,0,1,1,.66l.14.33a3.107,3.107,0,0,0,2.78,2h.97a2.878,2.878,0,0,0,2.2-1.06,3.865,3.865,0,0,0,.59-.96c0-.01.01-.02.01-.03A4.047,4.047,0,0,0,40,11.37,4.094,4.094,0,0,0,39.628,9.665Z" style="fill:#00c477"/><path d="M26,28a1.668,1.668,0,0,0,.266.885L27,23l-.47,1.83a3.786,3.786,0,0,1-4.51,3.09L22,28l-1.395,1.99C23.637,29.889,26,29.037,26,28Z" style="fill:#004a2d"/><path d="M32,31c2.7,0,4.984-.891,5.736-2.119L37,23l-1.05,2.15a4.223,4.223,0,0,1-1.52,2.06A4.128,4.128,0,0,1,32,28a4.172,4.172,0,0,1-3.95-2.85L27,23l-.734,5.885C27.02,30.111,29.3,31,32,31Z" style="fill:#00613b"/><path d="M38,28c0,1.038,2.364,1.889,5.4,1.99L42,28l-.02-.08a3.786,3.786,0,0,1-4.51-3.09L37,23l.736,5.881A1.67,1.67,0,0,0,38,28Z" style="fill:#007145"/><path d="M27.1,21H27a3.989,3.989,0,0,1-7.789,1.224A3.754,3.754,0,0,0,19,23.44v.77a3.791,3.791,0,0,0,7.53.62L27,23l.2-1.649C27.171,21.233,27.125,21.121,27.1,21Z" style="fill:#8592d0"/><path d="M32,25a4.988,4.988,0,0,1-4.8-3.649L27,23l1.05,2.15A4.172,4.172,0,0,0,32,28a4.128,4.128,0,0,0,2.43-.79,4.223,4.223,0,0,0,1.52-2.06L37,23l-.207-1.64A4.988,4.988,0,0,1,32,25Z" style="fill:#a4afe6"/><path d="M41.5,26A4.5,4.5,0,0,1,37,21.5a4.576,4.576,0,0,1,.05-.5H36.9c-.025.124-.072.24-.106.36L37,23l.47,1.83a3.786,3.786,0,0,0,4.51,3.09,6.968,6.968,0,0,0,1.91-1.03,3.758,3.758,0,0,0,1.1-2.582A4.471,4.471,0,0,1,41.5,26Z" style="fill:#bcc1e3"/><path d="M25.034,38.537a6.979,6.979,0,0,1-9.769,2.376A4.493,4.493,0,0,0,16.34,42.66a5.053,5.053,0,0,0,.71.59,4.576,4.576,0,0,0,2.51.75h.15a4.562,4.562,0,0,0,4.33-3.12L25,39l.057-.443Z" style="fill:#8592d0"/><path d="M38.813,37.555A8.963,8.963,0,0,1,31.5,41a9.314,9.314,0,0,1-6.443-2.443L25,39l.42,1.26C26.36,43.09,29.01,44,32,44a9.1,9.1,0,0,0,4.06-.81,4.875,4.875,0,0,0,2.52-2.93L39,39l-.179-1.436Z" style="fill:#a4afe6"/><path d="M38.821,37.564,39,39l.96,1.88A4.562,4.562,0,0,0,44.29,44h.15A4.554,4.554,0,0,0,49,39.44a4.5,4.5,0,0,0-.077-.8C48,41,46.156,41,44.5,41,42.228,41,40.2,39.053,38.821,37.564Z" style="fill:#bcc1e3"/><path d="M18,55c-2.99,0-5.534-1.146-6.538-4.16A5.069,5.069,0,0,0,16.09,58h.83a7.178,7.178,0,0,0,7.048-5.852C22.74,54.452,20.533,55,18,55Z" style="fill:#8592d0"/><path d="M32.139,55.99a9.2,9.2,0,0,1-8.02-4.109c-.034.07-.077.132-.113.2A6.26,6.26,0,0,0,25,55.39a7.338,7.338,0,0,0,1.34,1.56A8.577,8.577,0,0,0,32,59a8.238,8.238,0,0,0,7-3.61,6.258,6.258,0,0,0,.994-3.308c-.042-.081-.093-.156-.133-.239A9.237,9.237,0,0,1,32.139,55.99Z" style="fill:#a4afe6"/><path d="M46,55c-2.524,0-4.723-.537-5.955-2.826A7.143,7.143,0,0,0,47.08,58h.83a5.05,5.05,0,0,0,4.628-7.16C51.534,53.854,48.99,55,46,55Z" style="fill:#bcc1e3"/><path d="M27,61.71a1.269,1.269,0,0,1,1.529-1.262A16.659,16.659,0,0,0,39,59.5v-4.1A8.238,8.238,0,0,1,32,59a8.577,8.577,0,0,1-5.66-2.05A7.338,7.338,0,0,1,25,55.39V61a2,2,0,0,0,2,2h1.29A1.289,1.289,0,0,1,27,61.71Z" style="fill:#61362b"/><path d="M37.482,5.629,36.59,3.97l.483.9a7.037,7.037,0,0,1-1.573.718,5.261,5.261,0,0,1-3.075-.224,28.028,28.028,0,0,1-2.846-1.3,6.6,6.6,0,0,0-1.84-.628c.111-.166.232-.322.355-.473A6.245,6.245,0,0,0,27.41,3.97l-.588,1.1A9.914,9.914,0,0,1,30,6C31.762,6.881,35.849,6.984,37.482,5.629Z" style="fill:#e0e0ff"/><path d="M33.534,3.968a5.657,5.657,0,0,0,3.149.174L36.59,3.97A5.28,5.28,0,0,0,32,1a4.834,4.834,0,0,0-2.861.963,6.4,6.4,0,0,1,2.483.836A16.138,16.138,0,0,0,33.534,3.968Z" style="fill:#fffefe"/><circle cx="35" cy="10" r="1" style="fill:#fffefe"/><circle cx="39" cy="18" r="1" style="fill:#fffefe"/><circle cx="41" cy="22" r="1" style="fill:#fffefe"/><circle cx="41" cy="32" r="1" style="fill:#fffefe"/><circle cx="41" cy="35" r="1" style="fill:#fffefe"/><circle cx="42" cy="47" r="1" style="fill:#fffefe"/><circle cx="48" cy="47" r="1" style="fill:#fffefe"/><circle cx="46" cy="52" r="1" style="fill:#fffefe"/><circle cx="45" cy="37" r="1" style="fill:#fffefe"/><ellipse cx="24" cy="19" rx="1.036" ry="1.094" style="fill:#ced1ea"/><ellipse cx="24" cy="23" rx="1.036" ry="1.094" style="fill:#ced1ea"/><ellipse cx="20" cy="35" rx="1.036" ry="1.094" style="fill:#ced1ea"/><ellipse cx="16" cy="52" rx="1.036" ry="1.094" style="fill:#ced1ea"/><ellipse cx="20" cy="48" rx="1.036" ry="1.094" style="fill:#ced1ea"/><ellipse cx="20" cy="40" rx="1.036" ry="1.094" style="fill:#ced1ea"/><ellipse cx="27" cy="12" rx="1.036" ry="1.094" style="fill:#ced1ea"/><circle cx="31" cy="16" r="1" style="fill:#ced1ea"/><circle cx="33" cy="20" r="1" style="fill:#ebebff"/><circle cx="29" cy="33" r="1" style="fill:#ced1ea"/><circle cx="35" cy="38" r="1" style="fill:#ebebff"/><circle cx="34" cy="53" r="1" style="fill:#ebebff"/><circle cx="28" cy="52" r="1" style="fill:#ebebff"/><circle cx="35" cy="48" r="1" style="fill:#ebebff"/></g></svg>