<svg xmlns="http://www.w3.org/2000/svg" viewBox="0 0 64 64"><g id="_06-bell" data-name="06-bell"><path d="M45.335,4.765,44.178,5.922l1.179.366a.59.59,0,0,1,.213.991l-.017.018c-.578.578-1.982.332-2.85,1.2l-.289.29,3.661.189s.55.55-.3.854l-.853.3.55.55.191.192a.52.52,0,0,1-.018.735.541.541,0,0,1-.473.154l-2.536-.445L45.021,12.8a.634.634,0,0,1,.084.992.661.661,0,0,1-.661.172l-1.58-.68-.181.807a.412.412,0,0,1-.62.268c-.8-.534-2.393-1.482-3.424-1.25a.566.566,0,0,0,.126.917l.808.388a.576.576,0,0,1,.128.933.6.6,0,0,1-.634.145l-2.438-.923.347,1.12a.42.42,0,0,1-.418.534l-3.922.139L45.364,3.636A.8.8,0,0,1,45.335,4.765Z" style="fill:#003b24"/><path d="M36.2,3.979l1.484,2.389-.445-2.536a.541.541,0,0,1,.154-.473.52.52,0,0,1,.735-.018l.742.741.3-.853c.3-.854.854-.3.854-.3l.189,3.661L40.5,6.3c.867-.868.621-2.272,1.2-2.85l.018-.017a.59.59,0,0,1,.991.213l.366,1.179,1.157-1.157a.8.8,0,0,1,1.129-.029L32.636,16.364l.139-3.922a.42.42,0,0,1,.534-.418l1.12.347-.923-2.438a.6.6,0,0,1,.145-.634.576.576,0,0,1,.933.128l.388.808a.566.566,0,0,0,.917.126c.232-1.031-.716-2.629-1.25-3.424a.412.412,0,0,1,.268-.62l.807-.181-.68-1.58a.661.661,0,0,1,.172-.661A.634.634,0,0,1,36.2,3.979Z" style="fill:#004a2d"/><path d="M18.55,4.765l1.157,1.157-1.179.366a.59.59,0,0,0-.213.991l.017.018c.578.578,1.982.332,2.85,1.2l.289.29-3.661.189s-.55.55.3.854l.853.3-.549.55-.192.192a.52.52,0,0,0,.018.735.542.542,0,0,0,.474.154l2.535-.445L18.864,12.8a.634.634,0,0,0-.084.992.661.661,0,0,0,.661.172l1.58-.68.181.807a.412.412,0,0,0,.62.268c.8-.534,2.393-1.482,3.424-1.25a.566.566,0,0,1-.126.917l-.808.388a.576.576,0,0,0-.128.933.6.6,0,0,0,.634.145l2.438-.923-.347,1.12a.42.42,0,0,0,.418.534l3.922.139L18.521,3.636A.8.8,0,0,0,18.55,4.765Z" style="fill:#003b24"/><path d="M27.687,3.979,26.2,6.368l.445-2.536a.541.541,0,0,0-.154-.473.52.52,0,0,0-.735-.018l-.742.741-.3-.853c-.3-.854-.854-.3-.854-.3l-.189,3.661L23.382,6.3c-.868-.868-.622-2.272-1.2-2.85l-.018-.017a.59.59,0,0,0-.991.213l-.366,1.179L19.65,3.665a.8.8,0,0,0-1.129-.029L31.249,16.364l-.139-3.922a.42.42,0,0,0-.534-.418l-1.12.347.923-2.438a.6.6,0,0,0-.145-.634.576.576,0,0,0-.933.128l-.388.808a.566.566,0,0,1-.917.126c-.232-1.031.716-2.629,1.25-3.424a.412.412,0,0,0-.268-.62l-.807-.181.68-1.58a.661.661,0,0,0-.172-.661A.634.634,0,0,0,27.687,3.979Z" style="fill:#004a2d"/><path d="M19.039,56.33l.438.439a1.161,1.161,0,0,0,1.641,0h0a1.162,1.162,0,0,0,.317-1.048L20.3,50.034l3.448,5.419a1.432,1.432,0,0,0,2.221.244h0a1.431,1.431,0,0,0,.346-1.466L24.7,50.664l1.793-.359a.885.885,0,0,0,.563-1.369c-1.237-1.8-3.443-5.426-2.985-7.715h0a1.283,1.283,0,0,1,2.055.333l.913,1.825a1.3,1.3,0,0,0,2.089.339h0a1.3,1.3,0,0,0,.289-1.408l-2.2-5.5,2.519.839a.89.89,0,0,0,1.17-.9L31,28l-8.75.088a.89.89,0,0,0-.9,1.17l.839,2.519-5.5-2.2a1.3,1.3,0,0,0-1.408.289h0a1.3,1.3,0,0,0,.339,2.089l1.825.913a1.283,1.283,0,0,1,.333,2.055h0c-2.289.458-5.91-1.748-7.715-2.985A.885.885,0,0,0,8.7,32.5L8.336,34.3,4.769,32.687a1.431,1.431,0,0,0-1.466.346h0a1.432,1.432,0,0,0,.244,2.221L8.966,38.7,3.279,37.565a1.162,1.162,0,0,0-1.048.317h0a1.161,1.161,0,0,0,0,1.641l1.7,1.7-1.888.629c-1.889.63-.63,1.889-.63,1.889l8.184.629L8.966,45c-1.889,1.889-5.037,1.259-6.3,2.518l-.037.038a1.347,1.347,0,0,0,.531,2.225l2.654.885L3.3,53.182a1.779,1.779,0,0,0,0,2.518h0a1.779,1.779,0,0,0,2.518,0l2.518-2.518.885,2.654a1.347,1.347,0,0,0,2.225.531l.038-.037c1.259-1.259.629-4.407,2.518-6.3l.63-.629.629,8.184s1.259,1.259,1.889-.63l.629-1.888Z" style="fill:#003b24"/><path d="M44.961,56.33l-.438.439a1.161,1.161,0,0,1-1.641,0h0a1.162,1.162,0,0,1-.317-1.048L43.7,50.034l-3.448,5.419a1.432,1.432,0,0,1-2.221.244h0a1.431,1.431,0,0,1-.346-1.466L39.3,50.664,37.5,50.305a.885.885,0,0,1-.563-1.369c1.237-1.8,3.443-5.426,2.985-7.715h0a1.283,1.283,0,0,0-2.055.333l-.913,1.825a1.3,1.3,0,0,1-2.089.339h0a1.3,1.3,0,0,1-.289-1.408l2.2-5.5-2.519.839a.89.89,0,0,1-1.17-.9L33,28l8.75.088a.89.89,0,0,1,.9,1.17l-.839,2.519,5.5-2.2a1.3,1.3,0,0,1,1.408.289h0a1.3,1.3,0,0,1-.339,2.089l-1.825.913a1.283,1.283,0,0,0-.333,2.055h0c2.289.458,5.91-1.748,7.715-2.985a.885.885,0,0,1,1.369.563l.359,1.793,3.567-1.609a1.431,1.431,0,0,1,1.466.346h0a1.432,1.432,0,0,1-.244,2.221L55.034,38.7l5.687-1.137a1.162,1.162,0,0,1,1.048.317h0a1.161,1.161,0,0,1,0,1.641l-1.7,1.7,1.888.629c1.889.63.63,1.889.63,1.889l-8.184.629.629.63c1.889,1.889,5.037,1.259,6.3,2.518l.037.038a1.347,1.347,0,0,1-.531,2.225l-2.654.885L60.7,53.182a1.779,1.779,0,0,1,0,2.518h0a1.779,1.779,0,0,1-2.518,0l-2.518-2.518-.885,2.654a1.347,1.347,0,0,1-2.225.531l-.038-.037c-1.259-1.259-.629-4.407-2.518-6.3l-.63-.629-.629,8.184s-1.259,1.259-1.889-.63l-.629-1.888Z" style="fill:#003b24"/><path d="M62.819,33.66c1.13,1.13-3.14,7.23-9.54,13.62A2.885,2.885,0,1,0,49.2,43.2c5.98-5.98,11.7-10.11,13.34-9.69Z" style="fill:#9b6b2b"/><path d="M56.459,31.01a8.561,8.561,0,0,1,1.05-.22l5.03,2.72c-1.64-.42-7.36,3.71-13.34,9.69-1.58,1.57-3.02,3.12-4.28,4.59l-1.46-6.98c.52-.55,1.07-1.12,1.65-1.7C49.919,34.3,53.479,31.82,56.459,31.01Z" style="fill:#e69720"/><path d="M53.3,29H51a2.006,2.006,0,0,0,2-2V19h8l-4,5,4,5Z" style="fill:#911a1c"/><path d="M53.3,29l3.16,2.01c-2.98.81-6.54,3.29-11.35,8.1-.58.58-1.13,1.15-1.65,1.7l-.62-3a11.041,11.041,0,0,0-5.82-7.6A2.966,2.966,0,0,0,38,28a2.909,2.909,0,0,0-.14-.89l.15-.08c.13.33,1.37,2.97,6.99,2.97h1a2.012,2.012,0,0,0,1.76-1.05L48,29h5.3Z" style="fill:#ffba51"/><path d="M53.279,43.2a2.885,2.885,0,1,1-4.08,0A2.879,2.879,0,0,1,53.279,43.2Z" style="fill:#e8a94a"/><path d="M53,19v8a2.006,2.006,0,0,1-2,2H48l-.24-.05A2.028,2.028,0,0,0,48,28V18a2.028,2.028,0,0,0-.24-.95L48,17h3A2.006,2.006,0,0,1,53,19Z" style="fill:#ae0000"/><path d="M49.2,47.28a2.879,2.879,0,0,0,4.08,0,87.407,87.407,0,0,1-6.73,6.28,5.191,5.191,0,0,0-.65-.37L46,53l-1.08-5.21c1.26-1.47,2.7-3.02,4.28-4.59A2.879,2.879,0,0,0,49.2,47.28Z" style="fill:#9b6b2b"/><path d="M46.549,53.56a7.567,7.567,0,0,1,.66.44l1.7,5.68C48.009,58.17,40.779,57,32,57S15.99,58.17,15.09,59.68L16.79,54a8.811,8.811,0,0,1,1.31-.81C20.9,51.73,25.25,51,32,51s11.1.73,13.9,2.19A5.191,5.191,0,0,1,46.549,53.56Z" style="fill:#d67f31"/><path d="M47.409,16.59a1.752,1.752,0,0,1,.35.46A2.028,2.028,0,0,1,48,18V28a2,2,0,0,1-2,2H45c-5.62,0-6.86-2.64-6.99-2.97A.077.077,0,0,1,38,27V19s1-3,7-3h1A1.955,1.955,0,0,1,47.409,16.59Z" style="fill:#eb2335"/><path d="M16.589,29.41a1.752,1.752,0,0,1-.35-.46A2.028,2.028,0,0,1,16,28V18a2,2,0,0,1,2-2h1c5.62,0,6.86,2.64,6.99,2.97A.077.077,0,0,1,26,19v8s-1,3-7,3H18A1.955,1.955,0,0,1,16.589,29.41Z" style="fill:#eb2335"/><path d="M36.989,14.36l.49-1.15A2.014,2.014,0,0,1,39.319,12H44a2.006,2.006,0,0,1,2,2v2H45c-6,0-7,3-7,3v2a2.006,2.006,0,0,0-2-2H35Z" style="fill:#ae0000"/><path d="M20.66,40.19l.5-2.38a11.025,11.025,0,0,1,6.749-8.02A2.822,2.822,0,0,0,29,30a2.986,2.986,0,0,0,2.97-2.62l.09.01A3.078,3.078,0,0,0,32,28a2.994,2.994,0,0,0,5.02,2.21,11.041,11.041,0,0,1,5.82,7.6l.62,3,1.46,6.98L46,53l-.1.19C43.1,51.73,38.749,51,32,51s-11.1.73-13.9,2.19L18,53ZM34,33a3,3,0,1,0-3,3A3,3,0,0,0,34,33Z" style="fill:#ffd45d"/><path d="M38,27a.077.077,0,0,0,.01.03l-.15.08A2.974,2.974,0,0,0,35,25a3,3,0,0,0-2.94,2.39l-.09-.01A2.433,2.433,0,0,0,32,27a3,3,0,1,0-6,0V21a2.005,2.005,0,0,1,2-2h8a2.006,2.006,0,0,1,2,2v6Z" style="fill:#ae0000"/><path d="M37.019,30.21A2.994,2.994,0,0,1,32,28a3.078,3.078,0,0,1,.06-.61A3,3,0,0,1,35,25a2.974,2.974,0,0,1,2.86,2.11A2.909,2.909,0,0,1,38,28,2.966,2.966,0,0,1,37.019,30.21Z" style="fill:#eb2335"/><circle cx="30.999" cy="33" r="3" style="fill:#eb2335"/><path d="M27.909,29.79A3,3,0,1,1,32,27a2.433,2.433,0,0,1-.03.38A2.986,2.986,0,0,1,29,30,2.822,2.822,0,0,1,27.909,29.79Z" style="fill:#eb2335"/><path d="M27.009,14.36,29,19H28a2.005,2.005,0,0,0-2,2V19s-1-3-7-3H18V14a2.006,2.006,0,0,1,2-2h4.68a2.013,2.013,0,0,1,1.839,1.21Z" style="fill:#ae0000"/><path d="M26,27a2.985,2.985,0,0,0,1.909,2.79,11.025,11.025,0,0,0-6.749,8.02l-.5,2.38C17.75,41.11,18,45,18,45c-5.04-2.16-5,2-5,2-2.76-2.76-6.66-.23-6.98-.01L24,29l-.01-.02A4.034,4.034,0,0,0,26,27Z" style="fill:#007145"/><path d="M23.99,28.98,24,29,6.02,46.99,6,47s2.88-4.12,0-7c0,0,4.16.04,2-5,0,0,5,.32,5-4,0,0,2.23,2.2,5.67-1H19A10.567,10.567,0,0,0,23.99,28.98Z" style="fill:#004a2d"/><path d="M13,17h3.27A2,2,0,0,0,16,18V28a2.028,2.028,0,0,0,.24.95L16,29H12.99A2,2,0,0,1,11,27V19A2.006,2.006,0,0,1,13,17Z" style="fill:#ae0000"/><path d="M12.99,29H3l4-5L3,19h8v8A2,2,0,0,0,12.99,29Z" style="fill:#911a1c"/><ellipse cx="32" cy="60" rx="17" ry="3" style="fill:#9b6b2b"/><circle cx="31" cy="60" r="3" style="fill:#ffba51"/><path d="M35,19l1.99-4.639C36.341,12,39,10,39,10c-5-2-2-5-2-5-4,0-5-4-5-4V19Z" style="fill:#00c477"/><path d="M32,19h0V1s-1,4-5,4c0,0,3,3-2,5,0,0,2.66,2,2.011,4.362L29,19Z" style="fill:#008f57"/><path d="M44,12a2.006,2.006,0,0,1,2,2v2a1.955,1.955,0,0,1,1.41.59l0,0L60.99,3.02,61,3S54.96,4.96,51,1c0,0-2.07,7.97-9,5,0,0,2.94,6-3,6l.021.044a1.983,1.983,0,0,1,.3-.044Z" style="fill:#007145"/><path d="M47.759,17.05,48,17h3a2.006,2.006,0,0,1,2,2h5.378C57.429,13.86,63,13,63,13c-3.84-3.84-2.12-9.63-2.01-9.98L47.411,16.593A1.73,1.73,0,0,1,47.759,17.05Z" style="fill:#004a2d"/><path d="M18,16h0V14a2.006,2.006,0,0,1,2-2h4.68a1.876,1.876,0,0,1,.3.045L25,12c-5.94,0-3-6-3-6-6.93,2.97-9-5-9-5C9.04,4.96,3,3,3,3l.01.02L16.589,16.593A1.99,1.99,0,0,1,18,16Z" style="fill:#007145"/><path d="M11,19a2.006,2.006,0,0,1,2-2h3.27c0,.006,0,.014-.009.02a2.065,2.065,0,0,1,.328-.427L3.01,3.02C3.12,3.37,4.84,9.16,1,13c0,0,5.571.86,4.622,6H11Z" style="fill:#004a2d"/><path d="M29,24a3,3,0,0,1,3,3,2.433,2.433,0,0,1-.03.38l.09.01A3,3,0,0,1,35,25a2.974,2.974,0,0,1,2.86,2.11l.14-.075V25a2.006,2.006,0,0,0-2-2H28a2.005,2.005,0,0,0-2,2v2A3,3,0,0,1,29,24Z" style="fill:#911a1c"/><path d="M53.279,43.2a2.888,2.888,0,0,0-.566-.43,2.875,2.875,0,0,1-3.944,3.944,2.881,2.881,0,1,0,4.51-3.514Z" style="fill:#d99c41"/><path d="M48.742,46.663c.153-.155.3-.308.457-.463,1.217-1.217,2.421-2.352,3.584-3.393a2.875,2.875,0,0,0-4.041,3.856Z" style="fill:#9b6b2b"/><path d="M52.783,42.807c4.163-3.725,7.774-6.179,9.361-6.316.791-1.418,1.071-2.435.675-2.831l-.28-.15c-1.64-.42-7.36,3.71-13.34,9.69A2.874,2.874,0,0,1,52.783,42.807Z" style="fill:#805621"/><path d="M49.2,43.2c-1.58,1.57-3.02,3.12-4.28,4.59l.5,2.426c1.009-1.151,2.121-2.344,3.32-3.553A2.868,2.868,0,0,1,49.2,43.2Z" style="fill:#805621"/><path d="M28,59.992A2.994,2.994,0,0,1,30.9,57c-8.875.1-15.9,1.4-15.9,2.99,0,.547.843,1.058,2.293,1.5a47.8,47.8,0,0,1,10.716-1.414C28.008,60.049,28,60.021,28,59.992Z" style="fill:#704d1f"/><path d="M34,59.992l0,.022a52.975,52.975,0,0,1,12.709,1.478c1.45-.442,2.293-.953,2.293-1.5,0-1.657-7.611-3-17-3-.31,0-.613.005-.919.008A3,3,0,0,1,34,59.992Z" style="fill:#704d1f"/><path d="M28,59.992c0,.029.008.057.009.086,1.282-.054,2.614-.086,3.991-.086.677,0,1.341.009,2,.022l0-.022A3,3,0,0,0,31.081,57L30.9,57A2.994,2.994,0,0,0,28,59.992Z" style="fill:#e39c30"/><path d="M31,61a2.99,2.99,0,0,1-2.816-2A2.962,2.962,0,0,0,28,60a3,3,0,0,0,6,0,2.962,2.962,0,0,0-.184-1A2.99,2.99,0,0,1,31,61Z" style="fill:#e8a94a"/><path d="M36,19H28a2.006,2.006,0,0,0-2,2v2a2.006,2.006,0,0,1,2-2h8a2.006,2.006,0,0,1,2,2V21A2.006,2.006,0,0,0,36,19Z" style="fill:#f2c373"/><path d="M26,12.526v2.115a1,1,0,0,1-1.234.971A29.938,29.938,0,0,0,18,15v1h1c6,0,7,3,7,3v2a2.006,2.006,0,0,1,2-2h1l-2.48-5.79A2.01,2.01,0,0,0,26,12.526Z" style="fill:#911a1c"/><path d="M38,14.641V12.527a2,2,0,0,0-.52.683L35,19h1a2.006,2.006,0,0,1,2,2V19s1-3,7-3h1V15a29.938,29.938,0,0,0-6.766.612A1,1,0,0,1,38,14.641Z" style="fill:#911a1c"/><path d="M45.109,39.11c-.58.58-1.13,1.15-1.65,1.7l1.46,6.98c1.1-1.283,2.344-2.629,3.691-3.994a41.389,41.389,0,0,0-1.837-6.3C46.235,38,45.682,38.537,45.109,39.11Z" style="fill:#c9841c"/><path d="M46.773,37.494A29.9,29.9,0,0,0,44.8,33.3a.993.993,0,0,1,.738-1.479,41.758,41.758,0,0,0,9.068-1.985L53.3,29H48l-.24-.05A2.012,2.012,0,0,1,46,30H45c-5.62,0-6.86-2.64-6.99-2.97l-.15.08A2.909,2.909,0,0,1,38,28a2.966,2.966,0,0,1-.98,2.21,11.041,11.041,0,0,1,5.82,7.6l.62,3c.52-.55,1.07-1.12,1.65-1.7S46.235,38,46.773,37.494Z" style="fill:#ba883b"/><path d="M29.182,47.594a3.994,3.994,0,0,1-4.082-4.82l2.725-12.945A11.022,11.022,0,0,0,21.16,37.81l-.5,2.38L18,53l.1.19C20.9,51.73,25.25,51,32,51s11.1.73,13.9,2.19L46,53l-.746-3.6A60.131,60.131,0,0,0,29.182,47.594Z" style="fill:#f0af4c"/><path d="M48.909,59.68,47.209,54a7.567,7.567,0,0,0-.66-.44,5.191,5.191,0,0,0-.65-.37C43.1,51.73,38.749,51,32,51a52.143,52.143,0,0,0-8.838.625,4.461,4.461,0,0,0,.043,5.807A84.629,84.629,0,0,1,32,57C40.779,57,48.009,58.17,48.909,59.68Z" style="fill:#ffba51"/><path d="M30.909,34.79a2.979,2.979,0,0,1-1.465-4.345,2.988,2.988,0,0,0,.465,5.345A2.822,2.822,0,0,0,31,36a2.98,2.98,0,0,0,2.542-1.427A2.987,2.987,0,0,1,32,35,2.822,2.822,0,0,1,30.909,34.79Z" style="fill:#c22026"/><path d="M33.848,33.9c.02-.063.043-.125.059-.19a3.035,3.035,0,0,0,.09-.685L34,33a3.088,3.088,0,0,0-.06-.6,3,3,0,0,0-2.847-2.386c-.032,0-.061-.009-.092-.009a1,1,0,0,0,0,2,1,1,0,0,1,.866,1.5,1,1,0,0,0,.366,1.366.979.979,0,0,0,.231.095,3,3,0,0,0,1.078-.388c-.034.055-.084.1-.122.151a.993.993,0,0,0,.132-.162c.034-.056.063-.115.094-.172A3.025,3.025,0,0,0,33.848,33.9Z" style="fill:#ff4758"/><ellipse cx="31.682" cy="31.708" rx="0.825" ry="1.148" transform="translate(-13.142 31.705) rotate(-45.02)" style="fill:#f6fafd"/><path d="M28.909,28.79a2.979,2.979,0,0,1-1.465-4.345,2.988,2.988,0,0,0,.465,5.345A2.822,2.822,0,0,0,29,30a2.98,2.98,0,0,0,2.542-1.427A2.987,2.987,0,0,1,30,29,2.822,2.822,0,0,1,28.909,28.79Z" style="fill:#c22026"/><path d="M31.848,27.9c.02-.063.043-.125.059-.19a3.035,3.035,0,0,0,.09-.685L32,27a3.088,3.088,0,0,0-.06-.605,3,3,0,0,0-2.847-2.386c-.032,0-.061-.009-.092-.009a1,1,0,0,0,0,2,1,1,0,0,1,.866,1.5,1,1,0,0,0,.366,1.366.979.979,0,0,0,.231.095,3,3,0,0,0,1.078-.388c-.034.055-.084.1-.122.151a.993.993,0,0,0,.132-.162c.034-.056.063-.115.094-.172A3.025,3.025,0,0,0,31.848,27.9Z" style="fill:#ff4758"/><ellipse cx="29.682" cy="25.708" rx="0.825" ry="1.148" transform="translate(-9.484 28.531) rotate(-45.02)" style="fill:#f6fafd"/><path d="M34.909,29.79a2.979,2.979,0,0,1-1.465-4.345,2.988,2.988,0,0,0,.465,5.345A2.822,2.822,0,0,0,35,31a2.98,2.98,0,0,0,2.542-1.427A2.987,2.987,0,0,1,36,30,2.822,2.822,0,0,1,34.909,29.79Z" style="fill:#c22026"/><path d="M37.848,28.9c.02-.063.043-.125.059-.19a3.035,3.035,0,0,0,.09-.685L38,28a3.088,3.088,0,0,0-.06-.605,3,3,0,0,0-2.847-2.386c-.032,0-.061-.009-.092-.009a1,1,0,0,0,0,2,1,1,0,0,1,.866,1.5,1,1,0,0,0,.366,1.366.979.979,0,0,0,.231.095,3,3,0,0,0,1.078-.388c-.034.055-.084.1-.122.151a.993.993,0,0,0,.132-.162c.034-.056.063-.115.094-.172A3.025,3.025,0,0,0,37.848,28.9Z" style="fill:#ff4758"/><ellipse cx="35.682" cy="26.708" rx="0.825" ry="1.148" transform="translate(-8.432 33.068) rotate(-45.02)" style="fill:#f6fafd"/><rect x="29" y="19" width="6" height="2" rx="1" ry="1" style="fill:#faf180"/><path d="M47.76,17.05A2.012,2.012,0,0,0,46,16H45c-6,0-7,3-7,3v2s1-3,7-3h1a2,2,0,0,1,2,2V18A2.028,2.028,0,0,0,47.76,17.05Z" style="fill:#f2c373"/><path d="M47.76,28.95A2.012,2.012,0,0,1,46,30H45c-6,0-7-3-7-3V25s1,3,7,3h1a2,2,0,0,0,2-2v2A2.028,2.028,0,0,1,47.76,28.95Z" style="fill:#f2c373"/><rect x="45" y="19" width="3" height="8" rx="1.5" ry="1.5" style="fill:#ff3345"/><path d="M51,17H48l-.24.05A2.028,2.028,0,0,1,48,18v1h3a2.006,2.006,0,0,1,2,2V19A2.006,2.006,0,0,0,51,17Z" style="fill:#c99c5c"/><path d="M51,27H48v1a2.028,2.028,0,0,1-.24.95L48,29h3a2.006,2.006,0,0,0,2-2V25A2.006,2.006,0,0,1,51,27Z" style="fill:#c99c5c"/><polygon points="61 19 53 19 53 21 59.4 21 61 19" style="fill:#ad8451"/><path d="M51,29H61l-1.6-2H53A2.006,2.006,0,0,1,51,29Z" style="fill:#ad8451"/><path d="M16.24,17.05A2.012,2.012,0,0,1,18,16h1c6,0,7,3,7,3v2s-1-3-7-3H18a2,2,0,0,0-2,2V18A2.028,2.028,0,0,1,16.24,17.05Z" style="fill:#f2c373"/><path d="M16.24,28.95A2.012,2.012,0,0,0,18,30h1c6,0,7-3,7-3V25s-1,3-7,3H18a2,2,0,0,1-2-2v2A2.028,2.028,0,0,0,16.24,28.95Z" style="fill:#f2c373"/><rect x="16" y="19" width="3" height="8" rx="1.5" ry="1.5" transform="translate(35 46) rotate(180)" style="fill:#ff3345"/><path d="M13,17h3l.24.05A2.028,2.028,0,0,0,16,18v1H13a2.006,2.006,0,0,0-2,2V19A2.006,2.006,0,0,1,13,17Z" style="fill:#c99c5c"/><path d="M13,27h3v1a2.028,2.028,0,0,0,.24.95L16,29H13a2.006,2.006,0,0,1-2-2V25A2.006,2.006,0,0,0,13,27Z" style="fill:#c99c5c"/><polygon points="3 19 11 19 11 21 4.6 21 3 19" style="fill:#ad8451"/><path d="M13,29H3l1.6-2H11A2.006,2.006,0,0,0,13,29Z" style="fill:#ad8451"/><path d="M62.539,33.51l-5.03-2.72a8.561,8.561,0,0,0-1.05.22c-2.165.588-4.642,2.073-7.676,4.676a3.939,3.939,0,0,0,3.576,4.5C57.093,35.892,61.192,33.165,62.539,33.51Z" style="fill:#ffd45d"/><path d="M37.916,32.353a2,2,0,0,0-.519,2.78c.123.178.24.359.353.543a2,2,0,0,0,3.66-1.432,11.026,11.026,0,0,0-1.739-2.134A1.99,1.99,0,0,0,37.916,32.353Z" style="fill:#faf180"/><path d="M40.8,37.1A2,2,0,0,0,39.5,39.615,33.175,33.175,0,0,1,40.826,46.2,2,2,0,0,0,42.813,48a2.058,2.058,0,0,0,.206-.01,1.993,1.993,0,0,0,1.669-1.307L43.459,40.81l-.62-3c-.019-.089-.05-.173-.071-.262A1.99,1.99,0,0,0,40.8,37.1Z" style="fill:#faf180"/><path d="M43.005,56.351a1.5,1.5,0,0,1-.318-.034,45.3,45.3,0,0,0-5.809-.835,1.5,1.5,0,0,1,.244-2.99,48.25,48.25,0,0,1,6.2.892,1.5,1.5,0,0,1-.313,2.967Z" style="fill:#faf180"/><ellipse cx="35.684" cy="37.695" rx="1.642" ry="2.286" transform="translate(-16.203 36.291) rotate(-45.02)" style="fill:#f6fafd"/><ellipse cx="36.682" cy="41.708" rx="0.825" ry="1.148" transform="translate(-18.749 38.173) rotate(-45.02)" style="fill:#f6fafd"/><ellipse cx="56.682" cy="32.708" rx="0.825" ry="1.148" transform="translate(-6.521 49.682) rotate(-45.02)" style="fill:#f6fafd"/><ellipse cx="52.427" cy="44.208" rx="0.413" ry="0.574" transform="translate(-15.902 50.044) rotate(-45.02)" style="fill:#f6fafd"/><ellipse cx="32.427" cy="60.208" rx="0.413" ry="0.574" transform="translate(-33.083 40.587) rotate(-45.02)" style="fill:#f6fafd"/></g></svg>