<svg xmlns="http://www.w3.org/2000/svg" viewBox="0 0 64 64"><g id="_09-sock" data-name="09-sock"><path d="M28,2.8V5.02A2.635,2.635,0,0,0,27.72,5a3.22,3.22,0,0,0-1.37.3l-1.36.63-.56-2.77A1.8,1.8,0,1,1,28,2.8Z" style="fill:#fafcff"/><path d="M47.72,5a3.22,3.22,0,0,0-1.37.3l-1.37.63-.55-2.77A1.8,1.8,0,1,1,48,2.8V5.02A2.635,2.635,0,0,0,47.72,5Z" style="fill:#fafcff"/><path d="M54.61,36.57a9.876,9.876,0,0,1,5.03-3.98l2.19,4.19a10.175,10.175,0,0,1-4.15,13.68,9.685,9.685,0,0,1-2.91-2.79,9.964,9.964,0,0,1-.16-11.1Z" style="fill:#007145"/><path d="M52.16,18.3a2.85,2.85,0,0,1-.54.32L36.51,26.61l-1.4-2.67-.62-1.18,17.83-8.92A6.305,6.305,0,0,1,53,16.7,1.957,1.957,0,0,1,52.16,18.3Z" style="fill:#dbdbee"/><path d="M52.15,13.52a3.239,3.239,0,0,1,.17.32L34.49,22.76,32.16,18.3a1.937,1.937,0,0,0,.83-1.51H33L50,9Z" style="fill:#007145"/><path d="M44.98,5.93l1.37-.63A3.22,3.22,0,0,1,47.72,5a2.635,2.635,0,0,1,.28.02,1.641,1.641,0,0,1,1.31,1.22L50,9,33,16.79h-.01A.277.277,0,0,0,33,16.7a6.338,6.338,0,0,0-.85-3.18l-.67-1.41Z" style="fill:#dbdbee"/><path d="M32.16,18.3a2.85,2.85,0,0,1-.54.32L12.75,28.6a3.829,3.829,0,0,1-.73.29,3.639,3.639,0,0,1-.87.11,1.777,1.777,0,0,1-1.62-1.05L6,20,30,9l1.48,3.11.67,1.41A6.338,6.338,0,0,1,33,16.7a.277.277,0,0,1-.01.09A1.937,1.937,0,0,1,32.16,18.3Z" style="fill:#008f57"/><path d="M27.72,5a2.635,2.635,0,0,1,.28.02,1.641,1.641,0,0,1,1.31,1.22L30,9,6,20H4.71A1.707,1.707,0,0,1,3,18.29V17.28a2.014,2.014,0,0,1,1.17-1.82L24.99,5.93l1.36-.63A3.22,3.22,0,0,1,27.72,5Z" style="fill:#eb2335"/><path d="M5.17,17.46,25.99,7.93l1.36-.63A3.22,3.22,0,0,1,28.72,7a2.635,2.635,0,0,1,.28.02,1.618,1.618,0,0,1,.561.225l-.251-1A1.641,1.641,0,0,0,28,5.02,2.635,2.635,0,0,0,27.72,5a3.22,3.22,0,0,0-1.37.3l-1.36.63L4.17,15.46A2.014,2.014,0,0,0,3,17.28v1.01a1.687,1.687,0,0,0,1,1.552V19.28A2.014,2.014,0,0,1,5.17,17.46Z" style="fill:#f2c373"/><path d="M39.64,32.59l2.19,4.19a10.175,10.175,0,0,1-4.15,13.68A9.983,9.983,0,0,1,37,34.01,9.218,9.218,0,0,1,39.64,32.59Z" style="fill:#007145"/><path d="M5,47c0,7.19,4.81,13,12,13l.07.16-4.42,2.07A8.189,8.189,0,0,1,1,54.82v-.89a8.205,8.205,0,0,1,3.07-6.39l.83-.66Z" style="fill:#008f57"/><path d="M37.68,50.46a5.933,5.933,0,0,1-.56.29l-9.11,4.27L28,55c-9.17,0-17.58-4.76-18.91-11.49a11.931,11.931,0,0,0,3.12-4.14c2.3,3.8,10.69,7.49,22.13,7.62A9.91,9.91,0,0,0,37.68,50.46Z" style="fill:#008f57"/><path d="M36.51,26.61l3.13,5.98A9.218,9.218,0,0,0,37,34.01V34c-13,6-24,3-24,3a12.314,12.314,0,0,0,.19-4.02C15.08,32.73,30.31,30.56,35,24l.11-.06Z" style="fill:#008f57"/><path d="M21.64,58.01l-4.57,2.15L17,60C9.81,60,5,54.19,5,47l-.1-.12,3.87-3.1c.11-.09.22-.18.32-.27C10.42,50.24,18.83,55,28,55l.01.02Z" style="fill:#eb2335"/><path d="M37,34.01A9.943,9.943,0,0,0,33,42a9.828,9.828,0,0,0,1.34,4.99c-11.44-.13-19.83-3.82-22.13-7.62,0,0-.01,0,0-.01A11.692,11.692,0,0,0,13,37s11,3,24-3Z" style="fill:#eb2335"/><path d="M34.49,22.76l.62,1.18L35,24c-4.69,6.56-19.92,8.73-21.81,8.98a11.763,11.763,0,0,0-.95-3.44l-.22-.65a3.829,3.829,0,0,0,.73-.29l18.87-9.98a2.85,2.85,0,0,0,.54-.32Z" style="fill:#eb2335"/><path d="M37.68,50.46a10.176,10.176,0,0,0,4.15-13.68l-2.19-4.19-3.13-5.98,15.11-7.99a2.85,2.85,0,0,0,.54-.32l7.48,14.29a9.981,9.981,0,0,0-4.87,15.08,9.685,9.685,0,0,0,2.91,2.79,5.933,5.933,0,0,1-.56.29L32.65,62.23a8.193,8.193,0,0,1-11.01-4.22l6.37-2.99,9.11-4.27A5.933,5.933,0,0,0,37.68,50.46Z" style="fill:#c22026"/><path d="M53,49.5a.469.469,0,0,1-.35-.15.355.355,0,0,1-.11-.16A.406.406,0,0,1,52.5,49a.433.433,0,0,1,.04-.19.355.355,0,0,1,.11-.16.5.5,0,0,1,.54-.11.533.533,0,0,1,.27.27.433.433,0,0,1,.04.19.406.406,0,0,1-.04.19.533.533,0,0,1-.27.27A.406.406,0,0,1,53,49.5Z" style="fill:#dbdbee"/><path d="M32.15,13.52l-.67-1.41L30,9,6,20l1.306,2.941L21.183,16.3a5,5,0,0,1,6.8,2.653l.524,1.31L31.62,18.62a2.85,2.85,0,0,0,.54-.32,1.937,1.937,0,0,0,.83-1.51A.277.277,0,0,0,33,16.7,6.338,6.338,0,0,0,32.15,13.52Z" style="fill:#007145"/><path d="M45.452,5.713l-.531-2.65A1.3,1.3,0,1,1,47.5,2.8V4.919l-.036.108c.086-.006.169-.027.256-.027a2.635,2.635,0,0,1,.28.02,1.645,1.645,0,0,1,.467.16l.007-.022A.5.5,0,0,0,48.5,5V2.8a2.3,2.3,0,1,0-4.56.457l.578,2.885.462-.212Z" style="fill:#c22026"/><path d="M25.452,5.713l-.531-2.65A1.3,1.3,0,1,1,27.5,2.8V4.919l-.036.108c.086-.006.169-.027.256-.027a2.635,2.635,0,0,1,.28.02,1.645,1.645,0,0,1,.467.16l.007-.022A.5.5,0,0,0,28.5,5V2.8a2.3,2.3,0,1,0-4.56.457l.578,2.885.462-.212Z" style="fill:#e6b269"/><path d="M55,42.5H51a.5.5,0,0,1,0-1h4a.5.5,0,0,1,0,1Z" style="fill:#dbdbee"/><path d="M56,37.9a.5.5,0,0,1-.256-.071l-3-1.8a.5.5,0,1,1,.515-.857l3,1.8A.5.5,0,0,1,56,37.9Z" style="fill:#dbdbee"/><path d="M53,49.5a.5.5,0,0,1-.3-.9l3-2.251a.5.5,0,1,1,.6.8l-3,2.251A.5.5,0,0,1,53,49.5Z" style="fill:#dbdbee"/><path d="M41.83,36.78l-2.19-4.19A9.218,9.218,0,0,0,37,34.01a9.933,9.933,0,0,0-2.728,3.135l.745,1.77a7.988,7.988,0,0,1-.852,7.726c.061.115.109.237.175.349a9.91,9.91,0,0,0,3.34,3.47,10.176,10.176,0,0,0,4.15-13.68Z" style="fill:#00613b"/><path d="M11.239,58.541a6,6,0,0,1-7.855-2.773l-2.051-4.1A8.135,8.135,0,0,0,1,53.93v.89a8.184,8.184,0,0,0,11.65,7.41l4.42-2.07L17,60A11.72,11.72,0,0,1,11.239,58.541Z" style="fill:#007145"/><path d="M34.34,46.99c-.144,0-.281-.01-.424-.013a7.964,7.964,0,0,1-2.877,2.286L20.9,54.014A26.083,26.083,0,0,0,28,55l.01.02,9.11-4.27a5.933,5.933,0,0,0,.56-.29A9.91,9.91,0,0,1,34.34,46.99Z" style="fill:#007145"/><path d="M26.889,29.515a7.988,7.988,0,0,1,6.191,4.8l.461,1.094c1.133-.4,2.287-.868,3.459-1.409v.01a9.218,9.218,0,0,1,2.64-1.42l-3.13-5.98-1.4-2.67L35,24C33.3,26.376,30.218,28.174,26.889,29.515Z" style="fill:#007145"/><path d="M20.9,54.014l-9.607,4.5c-.019.009-.039.015-.058.024A11.72,11.72,0,0,0,17,60l.07.16,4.57-2.15,6.37-2.99L28,55A26.083,26.083,0,0,1,20.9,54.014Z" style="fill:#c22026"/><path d="M34.34,46.99c-.066-.112-.114-.234-.175-.349-.08.114-.162.226-.249.336C34.059,46.98,34.2,46.988,34.34,46.99Z" style="fill:#c22026"/><path d="M33.541,35.409l.731,1.736A9.933,9.933,0,0,1,37,34.01V34C35.828,34.541,34.674,35.006,33.541,35.409Z" style="fill:#c22026"/><path d="M22.661,30.022a7.951,7.951,0,0,1,4.228-.507C30.218,28.174,33.3,26.376,35,24l.11-.06-.62-1.18L32.16,18.3a2.85,2.85,0,0,1-.54.32L12.75,28.6a3.829,3.829,0,0,1-.73.29l.22.65a11.763,11.763,0,0,1,.95,3.44c.453-.06,1.68-.232,3.34-.547Z" style="fill:#ae0000"/><path d="M37.306,34.406a8.786,8.786,0,0,1,2.527-1.355l.04-.014-.233-.447-.232-.443a9.731,9.731,0,0,0-2.619,1.4,37.9,37.9,0,0,1-23.658,2.972.373.373,0,0,0-.048,0c-.027.162-.049.326-.083.486s-.09.321-.133.482h0a30.763,30.763,0,0,0,7.242.75,40.751,40.751,0,0,0,14.68-2.754A10.518,10.518,0,0,0,32.5,42a10.412,10.412,0,0,0,1.021,4.465c-10.906-.294-18.7-3.837-20.851-7.3a.47.47,0,0,0-.045-.082,3.022,3.022,0,0,1-.178-.306l0-.005c-.078.2-.144.4-.233.589-.01.01,0,.01,0,.01-.078.171-.175.333-.261.5,2.411,3.594,10.233,7.424,22.117,7.612a10.4,10.4,0,0,0,3.115,3.237,5.481,5.481,0,0,0,.5-.259c.164-.089.312-.2.47-.3-.066-.04-.13-.078-.206-.129a9.381,9.381,0,0,1-2.712-2.6c-.16-.229-.321-.456-.461-.7-.045-.078-.077-.164-.12-.243A9.382,9.382,0,0,1,33.5,42,9.5,9.5,0,0,1,37.306,34.406Z" style="fill:#f2c373"/><path d="M17,59.5C10.336,59.5,5.5,54.243,5.5,47a.491.491,0,0,0-.234-.413L4.9,46.88l-.392.312c.084,7.505,5.026,12.977,11.9,13.279l.664-.311.422-.2A.5.5,0,0,0,17,59.5Z" style="fill:#f2c373"/><path d="M28,54.5c-9.252,0-17.17-4.767-18.423-11.1-.024-.1-.037-.2-.053-.3-.146.138-.281.283-.434.414-.1.09-.21.18-.32.27l-.1.083c1.449,6.43,9.2,11.29,18.386,11.606l.957-.449.451-.212A.5.5,0,0,0,28,54.5Z" style="fill:#f2c373"/><path d="M13.228,33.478l.027,0c2.862-.379,17.317-2.591,22.084-9.1l-.229-.438-.222-.422a.5.5,0,0,0-.295.191c-4.555,6.372-19.751,8.548-21.446,8.773l-.035,0c.027.165.058.33.078.495S13.215,33.312,13.228,33.478Z" style="fill:#f2c373"/><path d="M38.15,50.165h0c-.158.1-.306.206-.47.3C37.844,50.371,37.992,50.262,38.15,50.165Z" style="fill:#ad8451"/><path d="M37.181,50.719a5.481,5.481,0,0,0,.5-.259,5.481,5.481,0,0,1-.5.259Z" style="fill:#ad8451"/><polygon points="39.408 32.147 39.408 32.147 39.64 32.59 39.408 32.147" style="fill:#ad8451"/><path d="M35.232,47.436c-.16-.229-.321-.456-.461-.7-.045-.078-.077-.164-.12-.243-.065-.118-.112-.244-.171-.364-.1.171-.2.346-.315.51-.08.114-.162.226-.249.336-.133.169-.281.326-.428.484.2.006.381.018.578.021a10.4,10.4,0,0,0,3.115,3.237,5.481,5.481,0,0,0,.5-.259c.164-.089.312-.2.47-.3-.066-.04-.13-.078-.206-.129A9.381,9.381,0,0,1,35.232,47.436Z" style="fill:#ad8451"/><path d="M34.519,37.733a9.443,9.443,0,0,1,2.787-3.327,8.786,8.786,0,0,1,2.527-1.355l.04-.014-.233-.447-.232-.443a9.731,9.731,0,0,0-2.619,1.4c-1.165.538-2.315,1-3.443,1.4l.2.462.188.448c.354-.126.7-.24,1.062-.379a10.608,10.608,0,0,0-.757,1.1l.238.564Z" style="fill:#ad8451"/><polygon points="17.492 59.961 17.492 59.961 17.07 60.16 17.492 59.961" style="fill:#ad8451"/><path d="M17,59.5a11.349,11.349,0,0,1-5.188-1.224l-.515.241c-.019.009-.039.015-.058.024a5.915,5.915,0,0,1-.606.235,12.206,12.206,0,0,0,5.773,1.695l.664-.311.422-.2A.5.5,0,0,0,17,59.5Z" style="fill:#ad8451"/><polygon points="28.461 54.808 28.461 54.808 28.01 55.02 28.461 54.808" style="fill:#ad8451"/><path d="M28,54.5a25.912,25.912,0,0,1-6.423-.8l-.673.316-.68.318a26.348,26.348,0,0,0,6.829,1.137l.957-.449.451-.212A.5.5,0,0,0,28,54.5Z" style="fill:#ad8451"/><polygon points="35.339 24.378 35.11 23.94 35.339 24.378 35.339 24.378" style="fill:#ad8451"/><polygon points="34.888 23.518 34.888 23.518 35.11 23.94 34.888 23.518" style="fill:#ad8451"/><path d="M13.112,32.485c.027.165.058.33.078.495-.02-.165-.051-.33-.078-.495Z" style="fill:#ad8451"/><path d="M19.393,31.307c-3.12.738-5.616,1.091-6.246,1.175l-.035,0c.027.165.058.33.078.495.453-.06,1.68-.232,3.34-.547Z" style="fill:#ad8451"/><path d="M35.339,24.378l-.229-.438-.222-.422a.5.5,0,0,0-.295.191c-1.8,2.517-5.261,4.378-8.894,5.724a8.13,8.13,0,0,1,1.19.082,8.389,8.389,0,0,1,.874.188C30.862,28.377,33.685,26.636,35.339,24.378Z" style="fill:#ad8451"/><polygon points="38.833 20.587 34.49 22.76 35.11 23.94 36.51 26.61 40.797 24.343 40.49 23.76 38.833 20.587" style="fill:#a4afe6"/><path d="M38.16,19.3a1.937,1.937,0,0,0,.83-1.51A.277.277,0,0,0,39,17.7a6.338,6.338,0,0,0-.85-3.18l-.035-.074L33,16.79h-.01a1.937,1.937,0,0,1-.83,1.51l2.33,4.46,4.343-2.173Z" style="fill:#004a2d"/><path d="M32.15,13.52A6.338,6.338,0,0,1,33,16.7a.277.277,0,0,1-.01.09H33l5.115-2.344L37.48,13.11l-1.464-3.076L31.48,12.11Z" style="fill:#a4afe6"/><path d="M47.83,37.78l-2.19-4.19-3.13-5.98-1.4-2.67-.313-.6L36.51,26.61l3.13,5.98,2.19,4.19a10.175,10.175,0,0,1-4.15,13.68,5.933,5.933,0,0,1-.56.29l-6.38,2.99-2.73,1.28-6.37,2.99a8.138,8.138,0,0,0,2.036,2.865,8.3,8.3,0,0,0,.924.725,8.219,8.219,0,0,0,6.272,1.23,8.013,8.013,0,0,0,1.827-.623l4.43-2.078h0a3.578,3.578,0,0,1,1.165-5.838L39,54l4.12-2.25a5.933,5.933,0,0,0,.56-.29,10.176,10.176,0,0,0,4.15-13.68Z" style="fill:#911a1c"/><rect x="52" y="20" width="4" height="14" rx="2" ry="2" transform="translate(-6.343 28.924) rotate(-28.391)" style="fill:#ff273a"/><path d="M35.724,13.035a2.445,2.445,0,0,0,2.988,1.348L50,9.21l-.69-2.76A1.641,1.641,0,0,0,48,5.23a2.635,2.635,0,0,0-.28-.02,3.22,3.22,0,0,0-1.37.3l-1.37.63-8.523,3.9A2.5,2.5,0,0,0,35.724,13.035Z" style="fill:#ebebff"/><path d="M52.16,18.51a1.957,1.957,0,0,0,.84-1.6,6.305,6.305,0,0,0-.68-2.86L39.162,20.632A2.492,2.492,0,0,0,41.5,24a2.576,2.576,0,0,0,.435-.049L51.62,18.83A2.85,2.85,0,0,0,52.16,18.51Z" style="fill:#ebebff"/></g></svg>