<?xml version="1.0" encoding="utf-8"?>
<!-- Generator: Adobe Illustrator 16.0.0, SVG Export Plug-In . SVG Version: 6.00 Build 0)  -->
<!DOCTYPE svg PUBLIC "-//W3C//DTD SVG 1.1//EN" "http://www.w3.org/Graphics/SVG/1.1/DTD/svg11.dtd">
<svg version="1.1" id="Layer_1" xmlns="http://www.w3.org/2000/svg" xmlns:xlink="http://www.w3.org/1999/xlink" x="0px" y="0px"
	 width="64px" height="64px" viewBox="0 0 64 64" enable-background="new 0 0 64 64" xml:space="preserve">
<path fill="#741112" d="M31.207,22.787c0,0,20.284-2.442,25.382-15.926c0,0-1.801,3.307-4.639,1.866c0,0,2.449-2.394,0.008-4.586
	c0,0-17.73,22.126-22.418,16.461"/>
<path fill="#BB2025" d="M32.872,22.07c0,0,17.879-5.11,19.244-10.981c0,0-0.834,1.554-3.768,1.633c0,0,1.646-1.364-1.111-1.636
	c0,0-10.768,11.591-16.416,10.553"/>
<path fill="#741112" d="M28.198,22.052c0,0-17.782,2.469-22.905-6.619c0,0,2.586,1.646,4.982-0.044c0,0-3.104-0.818-1.088-2.992
	c0,0,16.557,12.923,20.352,7.652"/>
<path fill="#BB2025" d="M30.359,23.434c0,0-16.843-1.017-21.906-6.158c0,0,2.493,1.139,4.733,0.604c0,0-2.967-0.796-1.098-1.619
	c0,0,16.009,8.48,19.501,6.35"/>
<path fill="#EBC257" d="M58.864,58.039c0,0.828-0.855,1.5-1.916,1.5H7.391c-1.059,0-1.916-0.672-1.916-1.5V31.91
	c0-0.828,0.857-1.5,1.916-1.5h49.558c1.061,0,1.916,0.672,1.916,1.5V58.039z"/>
<path fill="#EBC257" d="M61.147,29.565v-6.984c0-1.116-0.934-2.021-2.088-2.021H5.081c-1.152,0-2.086,0.905-2.086,2.021v6.984
	H61.147z"/>
<path fill="#DCAB6B" d="M56.851,30.41H7.292c-1.058,0-1.915,0.672-1.915,1.5v26.129c0,0.828,0.857,1.5,1.915,1.5h20.467
	l-0.037-0.135l-12.507-4.295l11.018-7.314l0.221-13.223l10.36,8.219l12.645-3.875l-4.615,12.393l5.771,8.23h6.236
	c1.059,0,1.916-0.672,1.916-1.5V31.91C58.767,31.083,57.909,30.41,56.851,30.41z"/>
<rect x="28.87" y="20.673" fill="#BB2025" width="6.545" height="38.866"/>
<rect x="29.612" y="20.673" fill="#741112" width="0.949" height="38.866"/>
<rect x="33.669" y="20.673" fill="#741112" width="0.949" height="38.866"/>
<circle fill="#741112" cx="32.071" cy="53.813" r="1.098"/>
<circle fill="#741112" cx="32.071" cy="49.404" r="1.098"/>
<path fill="#741112" d="M32.519,22.371c0,0-21.135,5.17-16.638-4.947s9.489-9.668,8.005-13.49
	C22.4,0.111,37.126,12.927,34.034,18.998"/>
<path fill="#BB2025" d="M32.643,22.022c0,0-16.806,4.113-13.23-3.934c3.576-8.046,7.547-7.688,6.366-10.727
	c-1.18-3.04,10.532,7.151,8.073,11.979"/>
<polygon fill="#EBC257" points="10.027,30.41 10.541,31.448 8.499,35.115 12.653,34.506 15.511,37.58 16.213,33.441 20.022,31.673 
	17.608,30.41 "/>
<polygon fill="#FFFFFF" points="16.269,29.608 15.798,25.714 12.796,28.649 8.677,27.841 9.552,29.608 "/>
<g>
	<g>
		<g>
			<g>
				<g>
					<polygon fill="#58595B" points="22.345,37.787 22.087,37.689 21.875,38.262 22.135,38.354 					"/>
					
						<rect x="22.292" y="36.872" transform="matrix(0.9302 0.3671 -0.3671 0.9302 15.2149 -5.6389)" fill="#58595B" width="0.277" height="0.609"/>
					
						<rect x="22.623" y="36.03" transform="matrix(0.9273 0.3744 -0.3744 0.9273 15.2605 -5.8794)" fill="#58595B" width="0.276" height="0.608"/>
					
						<rect x="22.962" y="35.19" transform="matrix(0.924 0.3824 -0.3824 0.924 15.3265 -6.1355)" fill="#58595B" width="0.276" height="0.608"/>
					
						<rect x="23.31" y="34.355" transform="matrix(0.9187 0.395 -0.395 0.9187 15.5964 -6.4434)" fill="#58595B" width="0.277" height="0.608"/>
					
						<rect x="23.666" y="33.523" transform="matrix(0.9155 0.4022 -0.4022 0.9155 15.6158 -6.7174)" fill="#58595B" width="0.277" height="0.609"/>
					
						<rect x="24.031" y="32.695" transform="matrix(0.9107 0.413 -0.413 0.9107 15.7867 -7.0361)" fill="#58595B" width="0.277" height="0.609"/>
				</g>
			</g>
			<g>
				<g>
					
						<rect x="24.406" y="31.871" transform="matrix(0.9065 0.4223 -0.4223 0.9065 15.8839 -7.3551)" fill="#58595B" width="0.276" height="0.609"/>
					
						<rect x="24.79" y="31.052" transform="matrix(0.9 0.4359 -0.4359 0.9 16.1606 -7.7305)" fill="#58595B" width="0.277" height="0.609"/>
					
						<rect x="25.186" y="30.238" transform="matrix(0.8934 0.4493 -0.4493 0.8934 16.4244 -8.1221)" fill="#58595B" width="0.276" height="0.609"/>
					
						<rect x="25.594" y="29.43" transform="matrix(0.8865 0.4627 -0.4627 0.8865 16.678 -8.5317)" fill="#58595B" width="0.276" height="0.609"/>
					
						<rect x="26.015" y="28.629" transform="matrix(0.878 0.4787 -0.4787 0.878 17.0431 -8.9893)" fill="#58595B" width="0.276" height="0.609"/>
					
						<rect x="26.452" y="27.837" transform="matrix(0.8667 0.4988 -0.4988 0.8667 17.5812 -9.5125)" fill="#58595B" width="0.276" height="0.61"/>
					
						<rect x="26.907" y="27.055" transform="matrix(0.8534 0.5212 -0.5212 0.8534 18.2254 -10.0864)" fill="#58595B" width="0.276" height="0.61"/>
				</g>
			</g>
			<g>
				<g>
					<polygon fill="#58595B" points="27.801,26.409 27.57,26.257 27.242,26.772 27.476,26.918 					"/>
					<polygon fill="#58595B" points="28.309,25.667 28.084,25.506 27.736,26.008 27.965,26.163 					"/>
					<polygon fill="#58595B" points="28.846,24.947 28.63,24.776 28.257,25.262 28.48,25.426 					"/>
					<polygon fill="#58595B" points="29.424,24.264 29.22,24.078 28.818,24.542 29.032,24.718 					"/>
					<path fill="#58595B" d="M30.055,23.636l-0.184-0.206c0,0-0.114,0.104-0.228,0.209c-0.115,0.104-0.216,0.219-0.216,0.219
						l0.199,0.192c0,0,0.099-0.113,0.209-0.213C29.945,23.737,30.055,23.636,30.055,23.636z"/>
					<path fill="#58595B" d="M30.752,23.098l-0.149-0.233c-0.012-0.014-0.503,0.367-0.503,0.366l0.175,0.214
						C30.275,23.446,30.744,23.083,30.752,23.098z"/>
					<path fill="#58595B" d="M31.529,22.727l-0.079-0.265c-0.012-0.027-0.585,0.242-0.585,0.242l0.132,0.243
						C30.997,22.947,31.522,22.7,31.529,22.727z"/>
				</g>
			</g>
		</g>
	</g>
</g>
<path fill="#FFFFFF" d="M21.082,47.09c-0.664,0.787-1.841,0.887-2.628,0.223l-3.686-3.107c-0.788-0.664-0.888-1.84-0.224-2.629
	l5.216-6.186c0.664-0.787,1.841-0.887,2.629-0.225l3.685,3.107c0.788,0.664,0.888,1.842,0.224,2.629L21.082,47.09z"/>
<ellipse fill="#DCAB6B" cx="22.878" cy="38.469" rx="0.692" ry="0.725"/>
<g>
	<g>
		<g>
			<g>
				<g>
					
						<rect x="22.561" y="38.426" transform="matrix(0.7391 0.6736 -0.6736 0.7391 32.0181 -5.1815)" fill="#58595B" width="0.275" height="0.639"/>
					
						<rect x="23.203" y="37.72" transform="matrix(0.7466 0.6652 -0.6652 0.7466 31.2198 -5.8892)" fill="#58595B" width="0.276" height="0.639"/>
					
						<rect x="23.837" y="37.008" transform="matrix(0.749 0.6626 -0.6626 0.749 30.7528 -6.5158)" fill="#58595B" width="0.277" height="0.64"/>
					
						<rect x="24.466" y="36.289" transform="matrix(0.759 0.6511 -0.6511 0.759 29.7644 -7.1965)" fill="#58595B" width="0.276" height="0.639"/>
					
						<rect x="25.086" y="35.564" transform="matrix(0.7655 0.6435 -0.6435 0.7655 29.0066 -7.815)" fill="#58595B" width="0.276" height="0.64"/>
					
						<rect x="25.699" y="34.833" transform="matrix(0.7718 0.6358 -0.6358 0.7718 28.2464 -8.4076)" fill="#58595B" width="0.276" height="0.639"/>
					
						<rect x="26.305" y="34.095" transform="matrix(0.7781 0.6281 -0.6281 0.7781 27.4848 -8.9735)" fill="#58595B" width="0.277" height="0.64"/>
				</g>
			</g>
			<g>
				<g>
					
						<rect x="26.902" y="33.35" transform="matrix(0.7836 0.6212 -0.6212 0.7836 26.769 -9.513)" fill="#58595B" width="0.277" height="0.641"/>
					
						<rect x="27.491" y="32.599" transform="matrix(0.7947 0.6071 -0.6071 0.7947 25.6569 -10.0129)" fill="#58595B" width="0.276" height="0.64"/>
					
						<rect x="28.07" y="31.84" transform="matrix(0.8021 0.5972 -0.5972 0.8021 24.7868 -10.4809)" fill="#58595B" width="0.276" height="0.64"/>
					
						<rect x="28.637" y="31.073" transform="matrix(0.8119 0.5837 -0.5837 0.8119 23.7367 -10.8936)" fill="#58595B" width="0.276" height="0.639"/>
					
						<rect x="29.192" y="30.296" transform="matrix(0.8235 0.5673 -0.5673 0.8235 22.5437 -11.2356)" fill="#58595B" width="0.276" height="0.639"/>
					
						<rect x="29.733" y="29.509" transform="matrix(0.8348 0.5506 -0.5506 0.8348 21.3603 -11.5185)" fill="#58595B" width="0.277" height="0.639"/>
					
						<rect x="30.255" y="28.711" transform="matrix(0.848 0.53 -0.53 0.848 20.0057 -11.6957)" fill="#58595B" width="0.276" height="0.638"/>
				</g>
			</g>
			<g>
				<g>
					
						<rect x="30.756" y="27.898" transform="matrix(0.864 0.5035 -0.5035 0.864 18.4111 -11.7182)" fill="#58595B" width="0.276" height="0.638"/>
					<polygon fill="#58595B" points="31.643,27.173 31.399,27.044 31.092,27.603 31.333,27.738 					"/>
					<polygon fill="#58595B" points="32.072,26.313 31.821,26.196 31.542,26.768 31.789,26.894 					"/>
					<polygon fill="#58595B" points="32.453,25.427 32.195,25.329 31.953,25.915 32.206,26.026 					"/>
					<path fill="#58595B" d="M32.75,24.505l-0.268-0.07c0,0-0.041,0.152-0.082,0.303c-0.052,0.149-0.103,0.299-0.103,0.299
						l0.26,0.09c0,0,0.054-0.153,0.106-0.307C32.707,24.662,32.75,24.505,32.75,24.505z"/>
					<path fill="#58595B" d="M32.925,23.543l-0.275-0.022c0.023,0-0.09,0.616-0.09,0.616l0.271,0.058
						C32.83,24.195,32.948,23.548,32.925,23.543z"/>
					<path fill="#58595B" d="M32.862,22.551l-0.268,0.066c0.029-0.009,0.084,0.602,0.07,0.602l0.276,0
						C32.957,23.22,32.896,22.546,32.862,22.551z"/>
				</g>
			</g>
		</g>
	</g>
</g>
<path fill="#741112" d="M33.907,18.772c0,0,21.256-4.648,16.512,5.355c-4.748,10.003-9.729,9.431-8.338,13.289
	s-13.015-9.318-9.775-15.31"/>
<path fill="#BB2025" d="M33.749,19.162c0,0,16.9-3.696,13.129,4.259c-3.775,7.956-7.734,7.499-6.629,10.568
	c1.105,3.068-10.351-7.411-7.774-12.176"/>
<path fill="#741112" d="M35.415,20.673c0,0-5.096-5.902-4.499-3.306c0.598,2.596,0.368,2.211-0.555,2.058s-0.615,1.384,0.999,2.229
	c1.615,0.845,3.876,1.844,3.513,1.038C34.511,21.884,38.835,24.138,35.415,20.673z"/>
<path fill="#BB2025" d="M34.29,20.401c0,0-3.412-3.952-3.012-2.214c0.4,1.738,0.246,1.48-0.372,1.378
	c-0.617-0.103-0.412,0.926,0.669,1.492c1.08,0.566,2.595,1.235,2.351,0.695C33.685,21.212,36.579,22.72,34.29,20.401z"/>
<circle fill="#EBC257" cx="48.357" cy="50.689" r="1.192"/>
<circle fill="#EBC257" cx="12.473" cy="40.635" r="0.663"/>
<circle fill="#EBC257" cx="8.453" cy="54.467" r="0.829"/>
<circle fill="#EBC257" cx="54.73" cy="44.041" r="0.935"/>
<circle fill="#EBC257" cx="56.59" cy="56.125" r="0.829"/>
<circle fill="#FFFFFF" cx="18.913" cy="26.982" r="0.935"/>
<circle fill="#FFFFFF" cx="55.76" cy="25.063" r="0.679"/>
<circle fill="#FFFFFF" cx="12.473" cy="23.074" r="0.68"/>
<rect x="18.331" y="42.362" transform="matrix(0.7628 0.6467 -0.6467 0.7628 32.4899 -1.9041)" fill="#AB6E29" width="1.018" height="1.935"/>
<polygon fill="#245B2D" points="18.583,40.877 21.469,40.268 21.33,43.215 "/>
<polygon fill="#245B2D" points="17.673,41.387 21.014,40.803 20.974,44.193 "/>
<polygon fill="#245B2D" points="16.982,41.945 20.712,41.158 20.533,44.967 "/>
<circle fill="#BB2025" cx="21.469" cy="40.268" r="0.526"/>
</svg>
