<svg xmlns="http://www.w3.org/2000/svg" viewBox="0 0 64 64"><g id="_03-christmas_tree" data-name="03-christmas tree"><path d="M35.779,9.721a1.078,1.078,0,0,1-1.71,1.06L32,9.261l-2.069,1.52a1.078,1.078,0,0,1-1.71-1.06l.24-1.17.29-1.41L27.342,5.76A1,1,0,0,1,28.021,4h1.99L31.03,1.6a1.083,1.083,0,0,1,1.94,0L33.989,4h1.99a1,1,0,0,1,.679,1.76L35.249,7.141l.28,1.38.01.01Z" style="fill:#ffd45d"/><path d="M39,55.39V61a2,2,0,0,1-2,2H27a2,2,0,0,1-2-2V55.39a7.338,7.338,0,0,0,1.34,1.56A8.577,8.577,0,0,0,32,59,8.238,8.238,0,0,0,39,55.39Z" style="fill:#915041"/><path d="M25,41,24,52a7.182,7.182,0,0,1-7.08,6h-.83a5.088,5.088,0,0,1-3.83-8.44l3.88-5.11c.07.07.13.14.2.21A4.509,4.509,0,0,0,19.56,46h.15a4.562,4.562,0,0,0,4.33-3.12l.54-1.62a.442.442,0,0,1,.43-.31Z" style="fill:#004a2d"/><path d="M39,55.39A8.238,8.238,0,0,1,32,59a8.577,8.577,0,0,1-5.66-2.05A7.338,7.338,0,0,1,25,55.39,6.26,6.26,0,0,1,24,52l1-11,.01-.05a.432.432,0,0,1,.41.31,6.936,6.936,0,0,0,13.16,0,.432.432,0,0,1,.41-.31L39,41l1,11A6.26,6.26,0,0,1,39,55.39Z" style="fill:#007145"/><path d="M39.96,42.88A4.562,4.562,0,0,0,44.29,46h.15a4.537,4.537,0,0,0,3.42-1.55l3.88,5.11A5.088,5.088,0,0,1,47.91,58h-.83A7.173,7.173,0,0,1,40,52L39,41l-.01-.05H39a.443.443,0,0,1,.42.31Z" style="fill:#008f57"/><path d="M26.99,28.05l-1.98,12.9a.442.442,0,0,0-.43.31l-.54,1.62A4.562,4.562,0,0,1,19.71,46h-.15a4.509,4.509,0,0,1-3.22-1.34c-.07-.07-.13-.14-.2-.21A4.51,4.51,0,0,1,15,41.44a4.618,4.618,0,0,1,.82-2.62l5.12-7.3a3.749,3.749,0,0,0,1.85.48,3.8,3.8,0,0,0,3.74-3.17l.04-.27A.624.624,0,0,1,26.99,28.05Z" style="fill:#00613b"/><path d="M28.05,29.15A4.172,4.172,0,0,0,32,32a4.128,4.128,0,0,0,2.43-.79,4.223,4.223,0,0,0,1.52-2.06l.23-.69a.639.639,0,0,1,.83-.41l1.98,12.9a.432.432,0,0,0-.41.31,6.936,6.936,0,0,1-13.16,0,.432.432,0,0,0-.41-.31l1.98-12.9a.639.639,0,0,1,.83.41Z" style="fill:#008f57"/><path d="M47.86,44.45A4.537,4.537,0,0,1,44.44,46h-.15a4.562,4.562,0,0,1-4.33-3.12l-.54-1.62a.443.443,0,0,0-.42-.31h-.01l-1.98-12.9a.624.624,0,0,1,.42.51l.04.27A3.8,3.8,0,0,0,41.21,32a3.749,3.749,0,0,0,1.85-.48l5.12,7.3A4.618,4.618,0,0,1,49,41.44,4.51,4.51,0,0,1,47.86,44.45Z" style="fill:#009e60"/><path d="M20.94,31.52A3.79,3.79,0,0,1,19,28.21v-.77a3.79,3.79,0,0,1,.96-2.52L24.27,19l.05-.02A3.107,3.107,0,0,0,27.11,21H28l-1,7-.01.05a.624.624,0,0,0-.42.51l-.04.27A3.8,3.8,0,0,1,22.79,32,3.749,3.749,0,0,1,20.94,31.52Z" style="fill:#00613b"/><path d="M33.14,19a3.107,3.107,0,0,0,2.78,2H36l1,7,.01.05a.639.639,0,0,0-.83.41l-.23.69a4.223,4.223,0,0,1-1.52,2.06A4.128,4.128,0,0,1,32,32a4.172,4.172,0,0,1-3.95-2.85l-.23-.69a.639.639,0,0,0-.83-.41L27,28l1-7h.08a3.107,3.107,0,0,0,2.78-2l.14-.33a1.088,1.088,0,0,1,2,0Z" style="fill:#008f57"/><path d="M39.73,19l4.31,5.92A3.79,3.79,0,0,1,45,27.44v.77a3.762,3.762,0,0,1-1.11,2.68,3.87,3.87,0,0,1-.83.63,3.749,3.749,0,0,1-1.85.48,3.8,3.8,0,0,1-3.74-3.17l-.04-.27a.624.624,0,0,0-.42-.51L37,28l-1-7h.89a2.878,2.878,0,0,0,2.2-1.06,3.865,3.865,0,0,0,.59-.96Z" style="fill:#009e60"/><path d="M32,9.26v8.75a1.08,1.08,0,0,0-1,.66l-.14.33a3.107,3.107,0,0,1-2.78,2h-.97a3.107,3.107,0,0,1-2.79-2.02c0-.01-.01-.02-.01-.03a4.168,4.168,0,0,1,.16-3.5l2.94-5.48a5.817,5.817,0,0,1,1.05-1.42l-.24,1.17a1.078,1.078,0,0,0,1.71,1.06Z" style="fill:#007145"/><path d="M34.07,10.78a1.078,1.078,0,0,0,1.71-1.06l-.24-1.19a6.511,6.511,0,0,1,1.05,1.44l2.94,5.48a4.168,4.168,0,0,1,.16,3.5c0,.01-.01.02-.01.03a3.865,3.865,0,0,1-.59.96A2.878,2.878,0,0,1,36.89,21h-.97a3.107,3.107,0,0,1-2.78-2L33,18.67a1.08,1.08,0,0,0-1-.66V9.26Z" style="fill:#009e60"/><path d="M29.1,11.781l2.9-1.52v-1l-2.07,1.52a1.078,1.078,0,0,1-1.71-1.06l.24-1.17a5.817,5.817,0,0,0-1.05,1.42l-.665,1.24A1.763,1.763,0,0,0,29.1,11.781Z" style="fill:#004a2d"/><path d="M32,16c0,1.105-1.789,2-4,2a3.99,3.99,0,0,1-3.628-2.335A4.094,4.094,0,0,0,24,17.37a4.047,4.047,0,0,0,.31,1.58c0,.01.01.02.01.03A3.107,3.107,0,0,0,27.11,21h.97a3.107,3.107,0,0,0,2.78-2l.14-.33a1.08,1.08,0,0,1,1-.66V16Z" style="fill:#009e60"/><path d="M39.628,15.665A3.99,3.99,0,0,1,36,18c-2.211,0-4-.895-4-2v2.01a1.08,1.08,0,0,1,1,.66l.14.33a3.107,3.107,0,0,0,2.78,2h.97a2.878,2.878,0,0,0,2.2-1.06,3.865,3.865,0,0,0,.59-.96c0-.01.01-.02.01-.03A4.047,4.047,0,0,0,40,17.37,4.094,4.094,0,0,0,39.628,15.665Z" style="fill:#00c477"/><path d="M35.54,8.53l.24,1.19a1.078,1.078,0,0,1-1.71,1.06L32,9.26v1l2.9,1.52a1.763,1.763,0,0,0,2.358-.571L36.59,9.97A6.511,6.511,0,0,0,35.54,8.53Z" style="fill:#007145"/><path d="M27.286,26H27a1,1,0,0,0-1,1,3,3,0,0,1-3,3c-1.829,0-3.352-1.539-3.83-3.632A3.794,3.794,0,0,0,19,27.44v.77a3.79,3.79,0,0,0,1.94,3.31,3.749,3.749,0,0,0,1.85.48,3.8,3.8,0,0,0,3.74-3.17l.04-.27a.624.624,0,0,1,.42-.51L27,28Z" style="fill:#008f57"/><path d="M36.714,26H36a1,1,0,0,0-1,1,2.7,2.7,0,0,1-3,3,2.7,2.7,0,0,1-3-3,1,1,0,0,0-1-1h-.714L27,28l-.01.05a.639.639,0,0,1,.83.41l.23.69A4.172,4.172,0,0,0,32,32a4.128,4.128,0,0,0,2.43-.79,4.223,4.223,0,0,0,1.52-2.06l.23-.69a.639.639,0,0,1,.83-.41L37,28Z" style="fill:#009e60"/><path d="M41,30a3,3,0,0,1-3-3,1,1,0,0,0-1-1h-.286L37,28l.01.05a.624.624,0,0,1,.42.51l.04.27A3.8,3.8,0,0,0,41.21,32a3.749,3.749,0,0,0,1.85-.48,3.87,3.87,0,0,0,.83-.63A3.762,3.762,0,0,0,45,28.21v-.77a3.794,3.794,0,0,0-.17-1.072C44.352,28.461,42.829,30,41,30Z" style="fill:#00c477"/><path d="M27.724,22.935,28,21h-.89a3.107,3.107,0,0,1-2.79-2.02l-.05.02-1.456,2A6.27,6.27,0,0,0,27.724,22.935Z" style="fill:#004a2d"/><path d="M31,22l1-1,1,1a8.4,8.4,0,0,0,3.276.935L36,21h-.08a3.107,3.107,0,0,1-2.78-2L33,18.67a1.088,1.088,0,0,0-2,0l-.14.33a3.107,3.107,0,0,1-2.78,2H28l-.276,1.935A8.4,8.4,0,0,0,31,22Z" style="fill:#00613b"/><path d="M41.186,21,39.73,19l-.05-.02a3.865,3.865,0,0,1-.59.96A2.878,2.878,0,0,1,36.89,21H36l.276,1.935A6.27,6.27,0,0,0,41.186,21Z" style="fill:#007145"/><path d="M25,39c-3,0-2,5-6,5-3.175,0-3.2-3.771-3.074-5.331l-.106.151A4.618,4.618,0,0,0,15,41.44a4.51,4.51,0,0,0,1.14,3.01c.07.07.13.14.2.21A4.509,4.509,0,0,0,19.56,46h.15a4.562,4.562,0,0,0,4.33-3.12l.54-1.62a.442.442,0,0,1,.43-.31l.3-1.935C25.206,39.008,25.105,39,25,39Z" style="fill:#008f57"/><path d="M37,40a4,4,0,0,1-4,4H31a4,4,0,0,1-4-4c0-.5-.735-.91-1.693-.985l-.3,1.935a.432.432,0,0,1,.41.31,6.936,6.936,0,0,0,13.16,0,.432.432,0,0,1,.41-.31l-.3-1.935C37.735,39.09,37,39.5,37,40Z" style="fill:#009e60"/><path d="M48.18,38.82l-.232-.331c.138,1.425.245,5.511-3.059,5.511-3.983,0-3.011-4.954-5.965-5-.078,0-.155.006-.231.011l.3,1.935H39a.443.443,0,0,1,.42.31l.54,1.62A4.562,4.562,0,0,0,44.29,46h.15A4.57,4.57,0,0,0,49,41.44,4.618,4.618,0,0,0,48.18,38.82Z" style="fill:#00c477"/><path d="M25.4,32.688a.95.95,0,0,1,.907-.186l.683-4.452a.624.624,0,0,0-.42.51l-.04.27A3.8,3.8,0,0,1,22.79,32a3.749,3.749,0,0,1-1.85-.48l-1.208,1.722C21.024,33.616,23.731,34.149,25.4,32.688Z" style="fill:#004a2d"/><path d="M26.614,32.659C27.36,33.242,28.922,34,32,34s4.64-.758,5.386-1.341a.942.942,0,0,1,.307-.157L37.01,28.05a.639.639,0,0,0-.83.41l-.23.69a4.223,4.223,0,0,1-1.52,2.06A4.128,4.128,0,0,1,32,32a4.172,4.172,0,0,1-3.95-2.85l-.23-.69a.639.639,0,0,0-.83-.41L26.307,32.5A.942.942,0,0,1,26.614,32.659Z" style="fill:#00613b"/><path d="M38.6,32.688c1.669,1.461,4.376.928,5.668.554L43.06,31.52a3.749,3.749,0,0,1-1.85.48,3.8,3.8,0,0,1-3.74-3.17l-.04-.27a.624.624,0,0,0-.42-.51l.683,4.452A.95.95,0,0,1,38.6,32.688Z" style="fill:#007145"/><path d="M24,51c-2,0-3,4-8,4-3.362,0-4.008-2.611-4.073-4.981A5.071,5.071,0,0,0,16.09,58h.83A7.182,7.182,0,0,0,24,52l.089-.982A.876.876,0,0,0,24,51Z" style="fill:#007145"/><path d="M38.918,52C38,54.989,35.8,55.982,31.959,56c.015,0,.027,0,.041,0-.014,0-.026,0-.041,0s-.026,0-.041,0c.015,0,.027,0,.041,0C28.117,55.982,26,54.989,25,52a.99.99,0,0,0-.911-.982L24,52a6.26,6.26,0,0,0,1,3.39,7.338,7.338,0,0,0,1.34,1.56A8.577,8.577,0,0,0,32,59a8.238,8.238,0,0,0,7-3.61A6.26,6.26,0,0,0,40,52l-.091-1A1,1,0,0,0,38.918,52Z" style="fill:#008f57"/><path d="M52,49.912C51.947,52.279,51.33,55,47.918,55c-5,0-6-4-8-4l-.009,0L40,52a7.173,7.173,0,0,0,7.08,6h.83A5.061,5.061,0,0,0,52,49.912Z" style="fill:#009e60"/><path d="M22.265,46.4a2.58,2.58,0,0,1,1.724-.4h0a3.6,3.6,0,0,1,.551.06L25,41l.01-.05a.442.442,0,0,0-.43.31l-.54,1.62A4.562,4.562,0,0,1,19.71,46h-.15a4.509,4.509,0,0,1-3.22-1.34c-.07-.07-.13-.14-.2-.21l-1.656,2.181C15.524,47.81,18.224,49.931,22.265,46.4Z" style="fill:#003b24"/><path d="M24.54,46.06a4.146,4.146,0,0,1,2.312,1.187A6.937,6.937,0,0,0,32,49a6.937,6.937,0,0,0,5.148-1.753A4.146,4.146,0,0,1,39.46,46.06L39,41l-.01-.05a.432.432,0,0,0-.41.31,6.936,6.936,0,0,1-13.16,0,.432.432,0,0,0-.41-.31L25,41Z" style="fill:#004a2d"/><path d="M39.46,46.06a3.6,3.6,0,0,1,.551-.06h0a2.58,2.58,0,0,1,1.724.4c4.041,3.53,6.741,1.409,7.781.23L47.86,44.45A4.537,4.537,0,0,1,44.44,46h-.15a4.562,4.562,0,0,1-4.33-3.12l-.54-1.62a.443.443,0,0,0-.42-.31h-.01L39,41Z" style="fill:#00613b"/><path d="M27,61.71a1.269,1.269,0,0,1,1.529-1.262A16.659,16.659,0,0,0,39,59.5v-4.1A8.238,8.238,0,0,1,32,59a8.577,8.577,0,0,1-5.66-2.05A7.338,7.338,0,0,1,25,55.39V61a2,2,0,0,0,2,2h1.29A1.289,1.289,0,0,1,27,61.71Z" style="fill:#61362b"/><path d="M32,1a1.081,1.081,0,0,0-.97.6L30.011,4H30l2,2Z" style="fill:#f0af4c"/><path d="M30,4H28.021A.967.967,0,0,0,27.01,5L32,6Z" style="fill:#ffba51"/><path d="M34,4h-.011L32.97,1.6A1.081,1.081,0,0,0,32,1V6Z" style="fill:#faf180"/><path d="M35.293,7.1l1.365-1.337A1.083,1.083,0,0,0,36.99,5L32,6Z" style="fill:#ffba51"/><path d="M36.99,5a.967.967,0,0,0-1.011-1H34L32,6Z" style="fill:#ffd45d"/><path d="M27.01,5a1.083,1.083,0,0,0,.332.759L28.707,7.1,32,6Z" style="fill:#f0af4c"/><path d="M32,9.261l2.069,1.521a1.069,1.069,0,0,0,1.17.076L32,6Z" style="fill:#ffba51"/><path d="M35.779,9.721l-.24-1.19-.01-.01-.28-1.38.044-.043L32,6l3.239,4.858A1.036,1.036,0,0,0,35.779,9.721Z" style="fill:#ffd45d"/><path d="M28.707,7.1l.044.043-.29,1.41-.24,1.17a1.036,1.036,0,0,0,.54,1.137L32,6Z" style="fill:#ffd45d"/><path d="M28.761,10.858a1.069,1.069,0,0,0,1.17-.076L32,9.261V6Z" style="fill:#faf180"/><path d="M41.833,46.5l-.254.5h-.392a.183.183,0,0,0-.132.312l.313.307-.114.563a.185.185,0,0,0,.294.181L42,48.031l.452.332a.185.185,0,0,0,.294-.181l-.114-.563.313-.307A.183.183,0,0,0,42.813,47h-.392l-.254-.5A.188.188,0,0,0,41.833,46.5Z" style="fill:#ebebff"/><path d="M28.833,36.5l-.254.5h-.392a.183.183,0,0,0-.132.312l.313.307-.114.563a.185.185,0,0,0,.294.181L29,38.031l.452.332a.185.185,0,0,0,.294-.181l-.114-.563.313-.307A.183.183,0,0,0,29.813,37h-.392l-.254-.5A.188.188,0,0,0,28.833,36.5Z" style="fill:#ebebff"/><path d="M35.833,34.5l-.254.5h-.392a.183.183,0,0,0-.132.312l.313.307-.114.563a.185.185,0,0,0,.294.181L36,36.031l.452.332a.185.185,0,0,0,.294-.181l-.114-.563.313-.307A.183.183,0,0,0,36.813,35h-.392l-.254-.5A.188.188,0,0,0,35.833,34.5Z" style="fill:#ebebff"/><path d="M41.833,25.5l-.254.5h-.392a.183.183,0,0,0-.132.312l.313.307-.114.563a.185.185,0,0,0,.294.181L42,27.031l.452.332a.185.185,0,0,0,.294-.181l-.114-.563.313-.307A.183.183,0,0,0,42.813,26h-.392l-.254-.5A.188.188,0,0,0,41.833,25.5Z" style="fill:#fffefe"/><path d="M27.833,13.5l-.254.5h-.392a.183.183,0,0,0-.132.312l.313.307-.114.563a.185.185,0,0,0,.294.181L28,15.031l.452.332a.185.185,0,0,0,.294-.181l-.114-.563.313-.307A.183.183,0,0,0,28.813,14h-.392l-.254-.5A.188.188,0,0,0,27.833,13.5Z" style="fill:#a4afe6"/><path d="M23.083,47.694l-.513.167-.268-.268a.176.176,0,0,0-.3.123l0,.423-.462.3a.18.18,0,0,0,.077.325l.535.082.081.534a.179.179,0,0,0,.325.077l.3-.462.423,0a.175.175,0,0,0,.123-.3l-.267-.267.166-.513A.182.182,0,0,0,23.083,47.694Z" style="fill:#a4afe6"/><path d="M13.833,49.5l-.254.5h-.392a.183.183,0,0,0-.132.312l.313.307-.114.563a.185.185,0,0,0,.294.181L14,51.031l.452.332a.185.185,0,0,0,.294-.181l-.114-.563.313-.307A.183.183,0,0,0,14.813,50h-.392l-.254-.5A.188.188,0,0,0,13.833,49.5Z" style="fill:#a4afe6"/><path d="M43.917,35.752,43.79,36h-.2a.091.091,0,0,0-.066.155l.156.153-.057.281a.093.093,0,0,0,.147.091L44,36.514l.225.166a.093.093,0,0,0,.147-.091l-.057-.281.156-.153A.091.091,0,0,0,44.405,36h-.2l-.127-.248A.093.093,0,0,0,43.917,35.752Z" style="fill:#ebebff"/><path d="M18.917,40.752,18.79,41h-.2a.091.091,0,0,0-.066.155l.156.153-.057.281a.093.093,0,0,0,.147.091L19,41.514l.225.166a.093.093,0,0,0,.147-.091l-.057-.281.156-.153A.091.091,0,0,0,19.405,41h-.2l-.127-.248A.093.093,0,0,0,18.917,40.752Z" style="fill:#a4afe6"/><path d="M26.917,41.752,26.79,42h-.2a.091.091,0,0,0-.066.155l.156.153-.057.281a.093.093,0,0,0,.147.091L27,42.514l.225.166a.093.093,0,0,0,.147-.091l-.057-.281.156-.153A.091.091,0,0,0,27.405,42h-.2l-.127-.248A.093.093,0,0,0,26.917,41.752Z" style="fill:#ebebff"/><path d="M47.917,52.752,47.79,53h-.2a.091.091,0,0,0-.066.155l.156.153-.057.281a.093.093,0,0,0,.147.091L48,53.514l.225.166a.093.093,0,0,0,.147-.091l-.057-.281.156-.153A.091.091,0,0,0,48.405,53h-.2l-.127-.248A.093.093,0,0,0,47.917,52.752Z" style="fill:#ebebff"/><path d="M36.917,12.752,36.79,13h-.2a.091.091,0,0,0-.066.155l.156.153-.057.281a.093.093,0,0,0,.147.091L37,13.514l.225.166a.093.093,0,0,0,.147-.091l-.057-.281.156-.153A.091.091,0,0,0,37.405,13h-.2l-.127-.248A.093.093,0,0,0,36.917,12.752Z" style="fill:#fffefe"/><path d="M30.917,15.752,30.79,16h-.2a.091.091,0,0,0-.066.155l.156.153-.057.281a.093.093,0,0,0,.147.091L31,16.514l.225.166a.093.093,0,0,0,.147-.091l-.057-.281.156-.153A.091.091,0,0,0,31.405,16h-.2l-.127-.248A.093.093,0,0,0,30.917,15.752Z" style="fill:#a4afe6"/><path d="M45.347,39.459l.083.256-.133.134a.088.088,0,0,0,.061.151l.212,0,.152.231a.09.09,0,0,0,.163-.039l.04-.267.268-.041a.09.09,0,0,0,.038-.162L46,39.567l0-.211a.088.088,0,0,0-.151-.061l-.134.133-.256-.083A.091.091,0,0,0,45.347,39.459Z" style="fill:#ebebff"/><path d="M42.347,41.459l.083.256-.133.134a.088.088,0,0,0,.061.151l.212,0,.152.231a.09.09,0,0,0,.163-.039l.04-.267.268-.041a.09.09,0,0,0,.038-.162L43,41.567l0-.211a.088.088,0,0,0-.151-.061l-.134.133-.256-.083A.091.091,0,0,0,42.347,41.459Z" style="fill:#ebebff"/><path d="M36.347,48.459l.083.256-.133.134a.088.088,0,0,0,.061.151l.212,0,.152.231a.09.09,0,0,0,.163-.039l.04-.267.268-.041a.09.09,0,0,0,.038-.162L37,48.567l0-.211a.088.088,0,0,0-.151-.061l-.134.133-.256-.083A.091.091,0,0,0,36.347,48.459Z" style="fill:#ebebff"/><path d="M28.347,53.459l.083.256-.133.134a.088.088,0,0,0,.061.151l.212,0,.152.231a.09.09,0,0,0,.163-.039l.04-.267.268-.041a.09.09,0,0,0,.038-.162L29,53.567l0-.211a.088.088,0,0,0-.151-.061l-.134.133-.256-.083A.091.091,0,0,0,28.347,53.459Z" style="fill:#a4afe6"/><path d="M19.347,53.459l.083.256-.133.134a.088.088,0,0,0,.061.151l.212,0,.152.231a.09.09,0,0,0,.163-.039l.04-.267.268-.041a.09.09,0,0,0,.038-.162L20,53.567l0-.211a.088.088,0,0,0-.151-.061l-.134.133-.256-.083A.091.091,0,0,0,19.347,53.459Z" style="fill:#a4afe6"/><path d="M19.347,38.459l.083.256-.133.134a.088.088,0,0,0,.061.151l.212,0,.152.231a.09.09,0,0,0,.163-.039l.04-.267.268-.041a.09.09,0,0,0,.038-.162L20,38.567l0-.211a.088.088,0,0,0-.151-.061l-.134.133-.256-.083A.091.091,0,0,0,19.347,38.459Z" style="fill:#a4afe6"/><path d="M21.917,26.752,21.79,27h-.2a.091.091,0,0,0-.066.155l.156.153-.057.281a.093.093,0,0,0,.147.091L22,27.514l.225.166a.093.093,0,0,0,.147-.091l-.057-.281.156-.153A.091.091,0,0,0,22.405,27h-.2l-.127-.248A.093.093,0,0,0,21.917,26.752Z" style="fill:#a4afe6"/><path d="M39.917,28.752,39.79,29h-.2a.091.091,0,0,0-.066.155l.156.153-.057.281a.093.093,0,0,0,.147.091L40,29.514l.225.166a.093.093,0,0,0,.147-.091l-.057-.281.156-.153A.091.091,0,0,0,40.405,29h-.2l-.127-.248A.093.093,0,0,0,39.917,28.752Z" style="fill:#ebebff"/><path d="M32.347,22.459l.083.256-.133.134a.088.088,0,0,0,.061.151l.212,0,.152.231a.09.09,0,0,0,.163-.039l.04-.267.268-.041a.09.09,0,0,0,.038-.162L33,22.567l0-.211a.088.088,0,0,0-.151-.061l-.134.133-.256-.083A.091.091,0,0,0,32.347,22.459Z" style="fill:#a4afe6"/><path d="M32,14a1.99,1.99,0,0,1,.18-.82,2,2,0,1,0,2.64,2.64A1.992,1.992,0,0,1,32,14Z" style="fill:#004a2d"/><path d="M37,24a1.99,1.99,0,0,1,.18-.82,2,2,0,1,0,2.64,2.64A1.992,1.992,0,0,1,37,24Z" style="fill:#004a2d"/><path d="M30,26a1.99,1.99,0,0,1,.18-.82,2,2,0,1,0,2.64,2.64A1.992,1.992,0,0,1,30,26Z" style="fill:#004a2d"/><path d="M23,24a1.99,1.99,0,0,1,.18-.82,2,2,0,1,0,2.64,2.64A1.992,1.992,0,0,1,23,24Z" style="fill:#003b24"/><path d="M39,36a1.99,1.99,0,0,1,.18-.82,2,2,0,1,0,2.64,2.64A1.992,1.992,0,0,1,39,36Z" style="fill:#004a2d"/><path d="M31,40a1.99,1.99,0,0,1,.18-.82,2,2,0,1,0,2.64,2.64A1.992,1.992,0,0,1,31,40Z" style="fill:#004a2d"/><path d="M45,49a1.99,1.99,0,0,1,.18-.82,2,2,0,1,0,2.64,2.64A1.992,1.992,0,0,1,45,49Z" style="fill:#004a2d"/><path d="M32,53a1.99,1.99,0,0,1,.18-.82,2,2,0,1,0,2.64,2.64A1.992,1.992,0,0,1,32,53Z" style="fill:#004a2d"/><path d="M26,48a1.99,1.99,0,0,1,.18-.82,2,2,0,1,0,2.64,2.64A1.992,1.992,0,0,1,26,48Z" style="fill:#004a2d"/><path d="M16,51a1.99,1.99,0,0,1,.18-.82,2,2,0,1,0,2.64,2.64A1.992,1.992,0,0,1,16,51Z" style="fill:#003b24"/><path d="M21,36a1.99,1.99,0,0,1,.18-.82,2,2,0,1,0,2.64,2.64A1.992,1.992,0,0,1,21,36Z" style="fill:#003b24"/><path d="M37.626,11.9l-.478-.89C33.366,13.813,30.487,15.5,25,15.5h-.553a3.922,3.922,0,0,0-.351,1H25C30.712,16.5,33.836,14.7,37.626,11.9Z" style="fill:#a4afe6"/><path d="M42.278,22.5l-.657-.9c-1.629.52-12.235,3.78-22.08,3.9a3.768,3.768,0,0,0-.407,1c10.455-.031,21.888-3.656,22.946-4Z" style="fill:#a4afe6"/><path d="M45.15,34.5l-.577-.823c-1.228.74-10.243,5.742-29.134,5.819a4.586,4.586,0,0,0-.329,1c19.733-.02,28.818-5.238,30.036-6Z" style="fill:#a4afe6"/><path d="M23.835,52.729l.217-.01A6.319,6.319,0,0,1,24,52,7.338,7.338,0,0,1,23.835,52.729Z" style="fill:#2a2e33"/><path d="M49.417,46.5l-.692-.911c-.006,0-.013,0-.019.007-.109.078-11.108,7.83-37.488,5.918a5.009,5.009,0,0,0-.181.989c3.023.223,5.842.322,8.47.322,1.509,0,2.946-.036,4.328-.1A7.338,7.338,0,0,0,24,52a6.319,6.319,0,0,0,.052.719c16.411-.757,23.973-5.45,25.1-6.219Z" style="fill:#a4afe6"/><circle cx="34" cy="14" r="2" style="fill:#eb2335"/><path d="M33,13a1.99,1.99,0,0,1,.18-.82,2,2,0,1,0,2.64,2.64A1.992,1.992,0,0,1,33,13Z" style="fill:#c22026"/><path d="M34,13a1,1,0,0,0,1.9.416A1.989,1.989,0,0,0,34.584,12.1.994.994,0,0,0,34,13Z" style="fill:#f6fafd"/><circle cx="39" cy="24" r="2" style="fill:#eb2335"/><path d="M38,23a1.99,1.99,0,0,1,.18-.82,2,2,0,1,0,2.64,2.64A1.992,1.992,0,0,1,38,23Z" style="fill:#c22026"/><path d="M39,23a1,1,0,0,0,1.9.416A1.989,1.989,0,0,0,39.584,22.1.994.994,0,0,0,39,23Z" style="fill:#f6fafd"/><circle cx="25" cy="24" r="2" style="fill:#eb2335"/><path d="M24,23a1.99,1.99,0,0,1,.18-.82,2,2,0,1,0,2.64,2.64A1.992,1.992,0,0,1,24,23Z" style="fill:#c22026"/><path d="M25,23a1,1,0,0,0,1.9.416A1.989,1.989,0,0,0,25.584,22.1.994.994,0,0,0,25,23Z" style="fill:#f6fafd"/><circle cx="32" cy="26" r="2" style="fill:#ffd45d"/><path d="M31,25a1.99,1.99,0,0,1,.18-.82,2,2,0,1,0,2.64,2.64A1.992,1.992,0,0,1,31,25Z" style="fill:#f0af4c"/><path d="M32,25a1,1,0,0,0,1.9.416A1.989,1.989,0,0,0,32.584,24.1.994.994,0,0,0,32,25Z" style="fill:#f6fafd"/><circle cx="41" cy="36" r="2" style="fill:#ffd45d"/><path d="M40,35a1.99,1.99,0,0,1,.18-.82,2,2,0,1,0,2.64,2.64A1.992,1.992,0,0,1,40,35Z" style="fill:#f0af4c"/><path d="M41,35a1,1,0,0,0,1.9.416A1.989,1.989,0,0,0,41.584,34.1.994.994,0,0,0,41,35Z" style="fill:#f6fafd"/><circle cx="33" cy="40" r="2" style="fill:#eb2335"/><path d="M32,39a1.99,1.99,0,0,1,.18-.82,2,2,0,1,0,2.64,2.64A1.992,1.992,0,0,1,32,39Z" style="fill:#c22026"/><path d="M33,39a1,1,0,0,0,1.9.416A1.989,1.989,0,0,0,33.584,38.1.994.994,0,0,0,33,39Z" style="fill:#f6fafd"/><circle cx="47" cy="49" r="2" style="fill:#ffd45d"/><path d="M46,48a1.99,1.99,0,0,1,.18-.82,2,2,0,1,0,2.64,2.64A1.992,1.992,0,0,1,46,48Z" style="fill:#f0af4c"/><path d="M47,48a1,1,0,0,0,1.9.416A1.989,1.989,0,0,0,47.584,47.1.994.994,0,0,0,47,48Z" style="fill:#f6fafd"/><circle cx="34" cy="53" r="2" style="fill:#eb2335"/><path d="M33,52a1.99,1.99,0,0,1,.18-.82,2,2,0,1,0,2.64,2.64A1.992,1.992,0,0,1,33,52Z" style="fill:#c22026"/><path d="M34,52a1,1,0,0,0,1.9.416A1.989,1.989,0,0,0,34.584,51.1.994.994,0,0,0,34,52Z" style="fill:#f6fafd"/><circle cx="28" cy="48" r="2" style="fill:#ced1ea"/><path d="M27,47a1.99,1.99,0,0,1,.18-.82,2,2,0,1,0,2.64,2.64A1.992,1.992,0,0,1,27,47Z" style="fill:#a4afe6"/><path d="M28,47a1,1,0,0,0,1.9.416A1.989,1.989,0,0,0,28.584,46.1.994.994,0,0,0,28,47Z" style="fill:#f6fafd"/><circle cx="18" cy="51" r="2" style="fill:#ffd45d"/><path d="M17,50a1.99,1.99,0,0,1,.18-.82,2,2,0,1,0,2.64,2.64A1.992,1.992,0,0,1,17,50Z" style="fill:#f0af4c"/><path d="M18,50a1,1,0,0,0,1.9.416A1.989,1.989,0,0,0,18.584,49.1.994.994,0,0,0,18,50Z" style="fill:#f6fafd"/><circle cx="23" cy="36" r="2" style="fill:#ced1ea"/><path d="M22,35a1.99,1.99,0,0,1,.18-.82,2,2,0,1,0,2.64,2.64A1.992,1.992,0,0,1,22,35Z" style="fill:#a4afe6"/><path d="M23,35a1,1,0,0,0,1.9.416A1.989,1.989,0,0,0,23.584,34.1.994.994,0,0,0,23,35Z" style="fill:#f6fafd"/></g></svg>