<svg xmlns="http://www.w3.org/2000/svg" viewBox="0 0 64 64"><g id="_11-candle" data-name="11-candle"><path d="M49.335,30.765l-1.157,1.157,1.179.366a.59.59,0,0,1,.213.991l-.017.018c-.578.578-1.982.332-2.85,1.2l-.289.29,3.661.189s.55.55-.3.854l-.853.3.55.55.191.192a.52.52,0,0,1-.018.735.541.541,0,0,1-.473.154l-2.536-.445L49.021,38.8a.634.634,0,0,1,.084.992.661.661,0,0,1-.661.172l-1.58-.68-.181.807a.412.412,0,0,1-.62.268c-.8-.534-2.393-1.482-3.424-1.25a.566.566,0,0,0,.126.917l.808.388a.576.576,0,0,1,.128.933.6.6,0,0,1-.634.145l-2.438-.923.347,1.12a.42.42,0,0,1-.418.534l-3.922.139L49.364,29.636A.8.8,0,0,1,49.335,30.765Z" style="fill:#003b24"/><path d="M40.2,29.979l1.484,2.389-.445-2.536a.541.541,0,0,1,.154-.473.52.52,0,0,1,.735-.018l.742.741.3-.853c.3-.854.854-.3.854-.3l.189,3.661.29-.289c.867-.868.621-2.272,1.2-2.85l.018-.017a.59.59,0,0,1,.991.213l.366,1.179,1.157-1.157a.8.8,0,0,1,1.129-.029L36.636,42.364l.139-3.922a.42.42,0,0,1,.534-.418l1.12.347-.923-2.438a.6.6,0,0,1,.145-.634.576.576,0,0,1,.933.128l.388.808a.566.566,0,0,0,.917.126c.232-1.031-.716-2.629-1.25-3.424a.412.412,0,0,1,.268-.62l.807-.181-.68-1.58a.661.661,0,0,1,.172-.661A.634.634,0,0,1,40.2,29.979Z" style="fill:#004a2d"/><path d="M14.55,30.765l1.157,1.157-1.179.366a.59.59,0,0,0-.213.991l.017.018c.578.578,1.982.332,2.85,1.2l.289.29-3.661.189s-.55.55.3.854l.853.3-.549.55-.192.192a.52.52,0,0,0,.018.735.542.542,0,0,0,.474.154l2.535-.445L14.864,38.8a.634.634,0,0,0-.084.992.661.661,0,0,0,.661.172l1.58-.68.181.807a.412.412,0,0,0,.62.268c.8-.534,2.393-1.482,3.424-1.25a.566.566,0,0,1-.126.917l-.808.388a.576.576,0,0,0-.128.933.6.6,0,0,0,.634.145l2.438-.923-.347,1.12a.42.42,0,0,0,.418.534l3.922.139L14.521,29.636A.8.8,0,0,0,14.55,30.765Z" style="fill:#003b24"/><path d="M23.687,29.979,22.2,32.368l.445-2.536a.541.541,0,0,0-.154-.473.52.52,0,0,0-.735-.018l-.742.741-.3-.853c-.3-.854-.854-.3-.854-.3l-.189,3.661-.289-.289c-.868-.868-.622-2.272-1.2-2.85l-.018-.017a.59.59,0,0,0-.991.213l-.366,1.179L15.65,29.665a.8.8,0,0,0-1.129-.029L27.249,42.364l-.139-3.922a.42.42,0,0,0-.534-.418l-1.12.347.923-2.438a.6.6,0,0,0-.145-.634.576.576,0,0,0-.933.128l-.388.808a.566.566,0,0,1-.917.126c-.232-1.031.716-2.629,1.25-3.424a.412.412,0,0,0-.268-.62l-.807-.181.68-1.58a.661.661,0,0,0-.172-.661A.634.634,0,0,0,23.687,29.979Z" style="fill:#004a2d"/><path d="M35.14,5.03c.5.33.86.73.86,1.97,0,4-2.34,4-4,4,0,0-4,0-4-4,0-3,4-6,4-6s.21.53.54,1.22A6.692,6.692,0,0,0,35.14,5.03Z" style="fill:#ffd45d"/><path d="M42,19v7.5a2.5,2.5,0,0,1-.73,1.77,2.529,2.529,0,0,1-1.3.69,3.573,3.573,0,0,1-.47.04,2.517,2.517,0,0,1-2.49-2.21c0-.1-.01-.19-.01-.29v-5a1.5,1.5,0,0,0-3,0v3a2.5,2.5,0,0,1-5,0v-1a1.5,1.5,0,0,0-3,0V31a2.015,2.015,0,0,1-2,2,2.006,2.006,0,0,1-2-2V19a4,4,0,0,1,4-4H38A4,4,0,0,1,42,19Z" style="fill:#ff7673"/><path d="M40,46v5A60.736,60.736,0,0,1,24,61V57C33,53.36,40,46,40,46Z" style="fill:#dbdbee"/><path d="M40,60v1a2.006,2.006,0,0,1-2,2H26a2.006,2.006,0,0,1-2-2A60.736,60.736,0,0,0,40,51v9Z" style="fill:#eb2335"/><path d="M40,41.7V46s-7,7.36-16,11V50A60.736,60.736,0,0,0,40,40Z" style="fill:#eb2335"/><path d="M40,35v5A60.736,60.736,0,0,1,24,50V46C33,42.36,40,35,40,35Z" style="fill:#dbdbee"/><path d="M40,29v6s-7,7.36-16,11V39a61.051,61.051,0,0,0,15.98-9.98Z" style="fill:#eb2335"/><path d="M39.97,28.96l.01.06A61.051,61.051,0,0,1,24,39V35a49.135,49.135,0,0,0,13-8.21h.01A2.517,2.517,0,0,0,39.5,29,3.573,3.573,0,0,0,39.97,28.96Z" style="fill:#dbdbee"/><path d="M37,26.5c0,.1.01.19.01.29H37A49.135,49.135,0,0,1,24,35V33a2.015,2.015,0,0,0,2-2V23.5a1.5,1.5,0,0,1,3,0v1a2.5,2.5,0,1,0,5,0v-3a1.5,1.5,0,0,1,3,0Z" style="fill:#eb2335"/><circle cx="43" cy="60" r="3" style="fill:#eb2335"/><path d="M51.75,61.19A2.993,2.993,0,1,1,52,60,2.969,2.969,0,0,1,51.75,61.19Z" style="fill:#eb2335"/><path d="M47.47,51.38A3.023,3.023,0,0,1,49,54a3,3,0,0,1-6,0,3.007,3.007,0,0,1,4.47-2.62Z" style="fill:#eb2335"/><path d="M12.25,61.19A2.949,2.949,0,0,1,12,60a3.011,3.011,0,1,1,.25,1.19Z" style="fill:#eb2335"/><circle cx="21" cy="60" r="3" style="fill:#eb2335"/><path d="M20.23,56A3,3,0,0,1,15,54a3,3,0,1,1,5.23,2Z" style="fill:#eb2335"/><path d="M24,57v3a3,3,0,0,0-6,0,3,3,0,0,0-6,0,2.949,2.949,0,0,0,.25,1.19A6.412,6.412,0,0,0,10,63c-2-5-5-2-5-2,0-4-4-5-4-5H15.77a2.986,2.986,0,0,0,4.46,0H24Z" style="fill:#008f57"/><path d="M48.23,56H63s-4,1-4,5c0,0-3-3-5,2a6.412,6.412,0,0,0-2.25-1.81A2.949,2.949,0,0,0,52,60a3,3,0,0,0-6,0,3,3,0,0,0-6,0V56h3.77a2.986,2.986,0,0,0,4.46,0Z" style="fill:#008f57"/><path d="M16,50a2.5,2.5,0,0,0,.54,1.38A2.992,2.992,0,0,0,15.77,56H1s4-1,4-5c0,0,3,3,5-2C10,49,13,53,16,50Z" style="fill:#00c477"/><path d="M63,56H48.23A2.965,2.965,0,0,0,49,54a3.023,3.023,0,0,0-1.53-2.62A2.53,2.53,0,0,0,48,50c3,3,6-1,6-1,2,5,5,2,5,2C59,55,63,56,63,56Z" style="fill:#00c477"/><path d="M24,54v2H20.23A2.965,2.965,0,0,0,21,54a3,3,0,0,0-4.46-2.62A2.5,2.5,0,0,1,16,50c-3,3-6-1-6-1-2,5-5,2-5,2,2.97-6.93-4-8-4-8,3.84-3.84,2.12-9.63,2.01-9.98Z" style="fill:#004a2d"/><path d="M40,54,60.99,33.02c-.11.35-1.83,6.14,2.01,9.98,0,0-6.97,1.07-4,8,0,0-3,3-5-2,0,0-3,4-6,1a2.53,2.53,0,0,1-.53,1.38A3.007,3.007,0,0,0,43,54a2.965,2.965,0,0,0,.77,2H40Z" style="fill:#004a2d"/><path d="M24,50v4L3.01,33.02,3,33s6.04,1.96,10-2c0,0,2.07,7.97,9,5,0,0-1.45,4.49,2,5.7V50Z" style="fill:#007145"/><path d="M61,33l-.01.02L40,54V41.7c3.45-1.21,2-5.7,2-5.7,6.93,2.97,9-5,9-5C54.96,34.96,61,33,61,33Z" style="fill:#007145"/><path d="M34.355,6.821c.375.231.645.511.645,1.379C35,11,33.245,11,32,11c0,0-3,0-3-2.8C29,6.1,32,4,32,4s.157.371.405.854A4.83,4.83,0,0,0,34.355,6.821Z" style="fill:#f0af4c"/><path d="M39.97,25.96a3.573,3.573,0,0,1-.47.04,2.517,2.517,0,0,1-2.49-2.21c0-.1-.01-.19-.01-.29v3c0,.1.01.19.01.29A2.517,2.517,0,0,0,39.5,29a3.573,3.573,0,0,0,.47-.04,2.529,2.529,0,0,0,1.3-.69A2.5,2.5,0,0,0,42,26.5v-3a2.5,2.5,0,0,1-.73,1.77A2.529,2.529,0,0,1,39.97,25.96Z" style="fill:#e85654"/><path d="M31.5,24A2.5,2.5,0,0,1,29,21.5v-1a1.5,1.5,0,0,0-3,0v3a1.5,1.5,0,0,1,3,0v1a2.5,2.5,0,1,0,5,0v-3A2.492,2.492,0,0,1,31.5,24Z" style="fill:#e85654"/><path d="M24,30a2.006,2.006,0,0,1-2-2v3a2.006,2.006,0,0,0,2,2,2.015,2.015,0,0,0,2-2V28a2.015,2.015,0,0,1-2,2Z" style="fill:#e85654"/><path d="M38,15H26a4,4,0,0,0-4,4v3a4,4,0,0,1,4-4H38a4,4,0,0,1,4,4V19A4,4,0,0,0,38,15Z" style="fill:#ffa8a6"/><path d="M31,10.859V15h2V10.972C32.656,11,32.316,11,32,11A4.878,4.878,0,0,1,31,10.859Z" style="fill:#a4afe6"/><path d="M48.909,61.79a2.979,2.979,0,0,1-1.465-4.345,2.988,2.988,0,0,0,.465,5.345A2.822,2.822,0,0,0,49,63a2.98,2.98,0,0,0,2.542-1.427A2.987,2.987,0,0,1,50,62,2.822,2.822,0,0,1,48.909,61.79Z" style="fill:#c22026"/><path d="M51.848,60.9c.02-.063.043-.125.059-.19a3.035,3.035,0,0,0,.09-.685L52,60a3.088,3.088,0,0,0-.06-.6,3,3,0,0,0-2.847-2.386c-.032,0-.061-.009-.092-.009a1,1,0,0,0,0,2,1,1,0,0,1,.866,1.5,1,1,0,0,0,.366,1.366.979.979,0,0,0,.231.095,3,3,0,0,0,1.078-.388c-.034.055-.084.1-.122.151a.993.993,0,0,0,.132-.162c.034-.056.063-.115.094-.172A3.025,3.025,0,0,0,51.848,60.9Z" style="fill:#ff4758"/><ellipse cx="49.682" cy="58.708" rx="0.825" ry="1.148" transform="translate(-26.964 52.352) rotate(-45.02)" style="fill:#f6fafd"/><path d="M45.909,55.79a2.979,2.979,0,0,1-1.465-4.345,2.988,2.988,0,0,0,.465,5.345A2.822,2.822,0,0,0,46,57a2.98,2.98,0,0,0,2.542-1.427A2.987,2.987,0,0,1,47,56,2.822,2.822,0,0,1,45.909,55.79Z" style="fill:#c22026"/><path d="M48.848,54.9c.02-.063.043-.125.059-.19a3.035,3.035,0,0,0,.09-.685L49,54a3.088,3.088,0,0,0-.06-.6,3,3,0,0,0-2.847-2.386c-.032,0-.061-.009-.092-.009a1,1,0,0,0,0,2,1,1,0,0,1,.866,1.5,1,1,0,0,0,.366,1.366.979.979,0,0,0,.231.095,3,3,0,0,0,1.078-.388c-.034.055-.084.1-.122.151a.993.993,0,0,0,.132-.162c.034-.056.063-.115.094-.172A3.025,3.025,0,0,0,48.848,54.9Z" style="fill:#ff4758"/><ellipse cx="46.682" cy="52.708" rx="0.825" ry="1.148" transform="translate(-23.599 48.471) rotate(-45.02)" style="fill:#f6fafd"/><path d="M42.909,61.79a2.979,2.979,0,0,1-1.465-4.345,2.988,2.988,0,0,0,.465,5.345A2.822,2.822,0,0,0,43,63a2.98,2.98,0,0,0,2.542-1.427A2.987,2.987,0,0,1,44,62,2.822,2.822,0,0,1,42.909,61.79Z" style="fill:#c22026"/><path d="M45.848,60.9c.02-.063.043-.125.059-.19a3.035,3.035,0,0,0,.09-.685L46,60a3.088,3.088,0,0,0-.06-.6,3,3,0,0,0-2.847-2.386c-.032,0-.061-.009-.092-.009a1,1,0,0,0,0,2,1,1,0,0,1,.866,1.5,1,1,0,0,0,.366,1.366.979.979,0,0,0,.231.095,3,3,0,0,0,1.078-.388c-.034.055-.084.1-.122.151a.993.993,0,0,0,.132-.162c.034-.056.063-.115.094-.172A3.025,3.025,0,0,0,45.848,60.9Z" style="fill:#ff4758"/><ellipse cx="43.682" cy="58.708" rx="0.825" ry="1.148" transform="translate(-28.722 48.108) rotate(-45.02)" style="fill:#f6fafd"/><path d="M20.909,61.79a2.979,2.979,0,0,1-1.465-4.345,2.988,2.988,0,0,0,.465,5.345A2.822,2.822,0,0,0,21,63a2.98,2.98,0,0,0,2.542-1.427A2.987,2.987,0,0,1,22,62,2.822,2.822,0,0,1,20.909,61.79Z" style="fill:#c22026"/><path d="M23.848,60.9c.02-.063.043-.125.059-.19a3.035,3.035,0,0,0,.09-.685L24,60a3.088,3.088,0,0,0-.06-.6,3,3,0,0,0-2.847-2.386c-.032,0-.061-.009-.092-.009a1,1,0,0,0,0,2,1,1,0,0,1,.866,1.5,1,1,0,0,0,.366,1.366.979.979,0,0,0,.231.095,3,3,0,0,0,1.078-.388c-.034.055-.084.1-.122.151a.993.993,0,0,0,.132-.162c.034-.056.063-.115.094-.172A3.025,3.025,0,0,0,23.848,60.9Z" style="fill:#ff4758"/><ellipse cx="21.682" cy="58.708" rx="0.825" ry="1.148" transform="translate(-35.171 32.546) rotate(-45.02)" style="fill:#f6fafd"/><path d="M17.909,55.79a2.979,2.979,0,0,1-1.465-4.345,2.988,2.988,0,0,0,.465,5.345A2.822,2.822,0,0,0,18,57a2.98,2.98,0,0,0,2.542-1.427A2.987,2.987,0,0,1,19,56,2.822,2.822,0,0,1,17.909,55.79Z" style="fill:#c22026"/><path d="M20.848,54.9c.02-.063.043-.125.059-.19a3.035,3.035,0,0,0,.09-.685L21,54a3.088,3.088,0,0,0-.06-.6,3,3,0,0,0-2.847-2.386c-.032,0-.061-.009-.092-.009a1,1,0,0,0,0,2,1,1,0,0,1,.866,1.5,1,1,0,0,0,.366,1.366.979.979,0,0,0,.231.095,3,3,0,0,0,1.078-.388c-.034.055-.084.1-.122.151a.993.993,0,0,0,.132-.162c.034-.056.063-.115.094-.172A3.025,3.025,0,0,0,20.848,54.9Z" style="fill:#ff4758"/><ellipse cx="18.682" cy="52.708" rx="0.825" ry="1.148" transform="translate(-31.807 28.665) rotate(-45.02)" style="fill:#f6fafd"/><path d="M14.909,61.79a2.979,2.979,0,0,1-1.465-4.345,2.988,2.988,0,0,0,.465,5.345A2.822,2.822,0,0,0,15,63a2.98,2.98,0,0,0,2.542-1.427A2.987,2.987,0,0,1,16,62,2.822,2.822,0,0,1,14.909,61.79Z" style="fill:#c22026"/><path d="M17.848,60.9c.02-.063.043-.125.059-.19a3.035,3.035,0,0,0,.09-.685L18,60a3.088,3.088,0,0,0-.06-.6,3,3,0,0,0-2.847-2.386c-.032,0-.061-.009-.092-.009a1,1,0,0,0,0,2,1,1,0,0,1,.866,1.5,1,1,0,0,0,.366,1.366.979.979,0,0,0,.231.095,3,3,0,0,0,1.078-.388c-.034.055-.084.1-.122.151a.993.993,0,0,0,.132-.162c.034-.056.063-.115.094-.172A3.025,3.025,0,0,0,17.848,60.9Z" style="fill:#ff4758"/><ellipse cx="15.682" cy="58.708" rx="0.825" ry="1.148" transform="translate(-36.93 28.302) rotate(-45.02)" style="fill:#f6fafd"/><path d="M36.966,48.814l-.005,4.654C38.872,52.02,40,51,40,51V46S38.874,47.177,36.966,48.814Z" style="fill:#ebebff"/><path d="M36.952,60.953a2,2,0,0,1-2,2.047H38a2.006,2.006,0,0,0,2-2V51s-1.128,1.02-3.039,2.468Z" style="fill:#ff4f5f"/><path d="M36.966,48.814C38.874,47.177,40,46,40,46V40s-1.123,1.015-3.026,2.458Z" style="fill:#ff4f5f"/><path d="M36.979,37.8l-.005,4.655C38.877,41.015,40,40,40,40V35S38.879,36.172,36.979,37.8Z" style="fill:#ebebff"/><path d="M39.98,29.02c-.159.14-1.241,1.1-2.993,2.428L36.979,37.8C38.879,36.172,40,35,40,35V29Z" style="fill:#ff4f5f"/><path d="M36.992,26.8l0,4.651c1.752-1.328,2.834-2.288,2.993-2.428l-.01-.06a3.573,3.573,0,0,1-.47.04,2.517,2.517,0,0,1-2.49-2.21H37Z" style="fill:#dbdbee"/><path d="M27,55.616c-.97.5-1.97.967-3,1.384v4c1.03-.417,2.03-.872,3-1.346Z" style="fill:#a4afe6"/><path d="M27,61V59.654c-.97.474-1.97.929-3,1.346a2.006,2.006,0,0,0,2,2h3A2,2,0,0,1,27,61Z" style="fill:#c22026"/><path d="M27,48.654c-.97.474-1.97.929-3,1.346v7c1.03-.417,2.03-.886,3-1.384Z" style="fill:#c22026"/><path d="M27,44.616c-.97.5-1.97.967-3,1.384v4c1.03-.417,2.03-.872,3-1.346Z" style="fill:#dbdbee"/><path d="M27,37.655c-.97.474-1.97.928-3,1.345v7c1.03-.417,2.03-.886,3-1.384Z" style="fill:#c22026"/><path d="M27,33.609c-.972.5-1.967.974-3,1.391v4c1.03-.417,2.03-.871,3-1.345Z" style="fill:#dbdbee"/><path d="M27,22.091A1.494,1.494,0,0,0,26,23.5V31a2.015,2.015,0,0,1-2,2v2c1.033-.417,2.028-.893,3-1.391Z" style="fill:#c22026"/><path d="M39.98,29.02c-.159.14-1.235,1.095-2.98,2.418V31.5c0,.1.01.19.01.29A2.517,2.517,0,0,0,39.5,34a3.573,3.573,0,0,0,.47-.04c.011,0,.019-.009.03-.011V29Z" style="fill:#ae0000"/><path d="M26,36V34.119q-.981.468-2,.881v3a2.015,2.015,0,0,0,2-2Z" style="fill:#a4afe6"/><path d="M37,31.438c1.745-1.323,2.821-2.278,2.98-2.418l-.01-.06a3.573,3.573,0,0,1-.47.04,2.517,2.517,0,0,1-2.49-2.21H37Z" style="fill:#a4afe6"/><path d="M31.5,32A2.492,2.492,0,0,0,34,29.5v-.308c-1.1.829-2.328,1.682-3.653,2.514A2.479,2.479,0,0,0,31.5,32Z" style="fill:#a4afe6"/><path d="M25.41,32.41A1.955,1.955,0,0,1,24,33v2q1.018-.411,2-.881V31A1.955,1.955,0,0,1,25.41,32.41Z" style="fill:#ae0000"/><path d="M34,21.5v3a2.5,2.5,0,0,1-5,0v-1a1.5,1.5,0,0,0-3,0v5a1.5,1.5,0,0,1,3,0v1a2.492,2.492,0,0,0,1.347,2.206c1.325-.832,2.549-1.685,3.653-2.514V26.5a1.5,1.5,0,0,1,3,0v-5a1.5,1.5,0,0,0-3,0Z" style="fill:#ae0000"/><rect x="26" y="15" width="12" height="3" rx="1.5" ry="1.5" style="fill:#ffcdcc"/></g></svg>