<svg xmlns="http://www.w3.org/2000/svg" viewBox="0 0 64 64"><g id="_13-calendar" data-name="13-calendar"><polygon points="63 53 56 59 56 53 63 53" style="fill:#8592d0"/><path d="M14,5V8A3,3,0,0,1,8,8V4a3,3,0,0,1,6,0Z" style="fill:#009e60"/><path d="M35,5V8a3,3,0,0,1-6,0V4a3,3,0,0,1,6,0Z" style="fill:#009e60"/><path d="M55,5V8a3,3,0,0,1-6,0V4a3,3,0,0,1,6,0Z" style="fill:#009e60"/><path d="M63,11v6H1V11A6,6,0,0,1,7,5H8V8a3,3,0,0,0,6,0V5H29V8a3,3,0,0,0,6,0V5H49V8a3,3,0,0,0,6,0V5h2A6,6,0,0,1,63,11Z" style="fill:#eb2335"/><path d="M63,53v6a4,4,0,0,1-4,4H5a4,4,0,0,1-4-4H56Z" style="fill:#eb2335"/><path d="M20.65,42.19A2.959,2.959,0,0,0,22.96,47h.46a2.942,2.942,0,0,0,2.46-1.32L27,43a3.98,3.98,0,0,0,2,3.46V52h6V46.46a4.225,4.225,0,0,0,.83-.63A4.025,4.025,0,0,0,37,43l1.12,2.68A2.942,2.942,0,0,0,40.58,47h.46A2.97,2.97,0,0,0,44,44.04a2.957,2.957,0,0,0-.65-1.85l-3.2-4,.02-.02a2.825,2.825,0,0,0,0-4L37,31H35.88a2.121,2.121,0,0,0,1.5-3.62L32,22l-5.38,5.38a2.118,2.118,0,0,0,.49,3.36L27,31l-3.17,3.17a2.825,2.825,0,0,0,.02,4.02ZM63,47v6H56v6H1V17H63Z" style="fill:#f5f9ff"/><rect x="1" y="15" width="62" height="2" style="fill:#c22026"/><path d="M33,52H29V50.37A36.956,36.956,0,0,1,23.355,47H22.96a2.957,2.957,0,0,1-2.934-2.7A36.9,36.9,0,0,1,8,17H1V59H56V54H45A36.921,36.921,0,0,1,33,52Z" style="fill:#ccf"/><path d="M53,9a2,2,0,0,1-2-2V2a1,1,0,0,1,1-1,3,3,0,0,0-3,3V7.851a3.1,3.1,0,0,0,2.749,3.139A2.985,2.985,0,0,0,54.817,9Z" style="fill:#007145"/><path d="M33,9a2,2,0,0,1-2-2V2a1,1,0,0,1,1-1,3,3,0,0,0-3,3V7.851a3.1,3.1,0,0,0,2.749,3.139A2.985,2.985,0,0,0,34.817,9Z" style="fill:#007145"/><path d="M12,9a2,2,0,0,1-2-2V2a1,1,0,0,1,1-1A3,3,0,0,0,8,4V7.851a3.1,3.1,0,0,0,2.749,3.139A2.985,2.985,0,0,0,13.817,9Z" style="fill:#007145"/><path d="M54.12,1.88A2.993,2.993,0,0,0,52,1a1,1,0,0,0,0,2,1,1,0,0,1,1,1V6a1,1,0,0,0,2,0V4A2.993,2.993,0,0,0,54.12,1.88Z" style="fill:#00c960"/><path d="M34.12,1.88A2.993,2.993,0,0,0,32,1a1,1,0,0,0,0,2,1,1,0,0,1,1,1V6a1,1,0,0,0,2,0V4A2.993,2.993,0,0,0,34.12,1.88Z" style="fill:#00c960"/><path d="M13.12,1.88A2.993,2.993,0,0,0,11,1a1,1,0,0,0,0,2,1,1,0,0,1,1,1V6a1,1,0,0,0,2,0V4A2.993,2.993,0,0,0,13.12,1.88Z" style="fill:#00c960"/><path d="M49.5,13a4.482,4.482,0,0,0,3.951-2.388A2.98,2.98,0,0,1,49,8V5H45V8.5A4.5,4.5,0,0,0,49.5,13Z" style="fill:#c22026"/><path d="M29.5,13a4.482,4.482,0,0,0,3.951-2.388A2.98,2.98,0,0,1,29,8V5H25V8.5A4.5,4.5,0,0,0,29.5,13Z" style="fill:#c22026"/><path d="M8.5,13a4.482,4.482,0,0,0,3.951-2.388,3.006,3.006,0,0,1-.638.263c-.027.008-.053.018-.081.025A2.968,2.968,0,0,1,8,8V5H7a5.954,5.954,0,0,0-3,.811V8.5A4.5,4.5,0,0,0,8.5,13Z" style="fill:#c22026"/><rect x="35" y="5" width="14" height="2" style="fill:#c22026"/><rect x="14" y="5" width="15" height="2" style="fill:#c22026"/><path d="M6,7H8V5H7a6,6,0,0,0-6,6v1A5,5,0,0,1,6,7Z" style="fill:#c22026"/><path d="M57,5H55V7h3a5,5,0,0,1,5,5V11A6,6,0,0,0,57,5Z" style="fill:#c22026"/><path d="M63,56V53l-7,6H1a3.964,3.964,0,0,0,.554,2H58Z" style="fill:#c22026"/><path d="M35,46.46V52H29V46.46A3.989,3.989,0,0,0,31,47h2A3.989,3.989,0,0,0,35,46.46Z" style="fill:#784132"/><path d="M35,46.46A3.989,3.989,0,0,1,33,47H31a4.01,4.01,0,0,1-4-4l-1.12,2.68A2.942,2.942,0,0,1,23.42,47h-.46a2.959,2.959,0,0,1-2.31-4.81l3.2-4a2.823,2.823,0,0,0,1.98.81h1.76a2.837,2.837,0,0,0,2.26-1.13L32,35l2.15,2.87A2.837,2.837,0,0,0,36.41,39h1.76a2.823,2.823,0,0,0,1.98-.81l3.2,4A2.957,2.957,0,0,1,44,44.04,2.97,2.97,0,0,1,41.04,47h-.46a2.942,2.942,0,0,1-2.46-1.32L37,43a4.025,4.025,0,0,1-1.17,2.83A4.225,4.225,0,0,1,35,46.46Z" style="fill:#007145"/><path d="M28.12,31h1a2.119,2.119,0,0,0,1.5-.62L32,29l1.38,1.38a2.119,2.119,0,0,0,1.5.62H37l3.17,3.17a2.825,2.825,0,0,1,0,4l-.02.02a2.823,2.823,0,0,1-1.98.81H36.41a2.837,2.837,0,0,1-2.26-1.13L32,35l-2.15,2.87A2.837,2.837,0,0,1,27.59,39H25.83a2.828,2.828,0,0,1-2-4.83L27,31l.11-.26A2.025,2.025,0,0,0,28.12,31Z" style="fill:#008f57"/><path d="M30.62,30.38a2.119,2.119,0,0,1-1.5.62h-1a2.025,2.025,0,0,1-1.01-.26,2.118,2.118,0,0,1-.49-3.36L32,22l5.38,5.38A2.12,2.12,0,0,1,35.88,31h-1a2.119,2.119,0,0,1-1.5-.62L32,29Z" style="fill:#009e60"/><path d="M17,43H12.36a3.361,3.361,0,0,1-1.177-6.509l5.166-1.937A1.009,1.009,0,0,0,17,33.61V32a1,1,0,0,0-1-1H12a1,1,0,0,0-1,1v1a1,1,0,0,1-2,0V32a3,3,0,0,1,3-3h4a3,3,0,0,1,3,3v1.61a3,3,0,0,1-1.941,2.814l-5.178,1.942A1.36,1.36,0,0,0,12.36,41H17a1,1,0,0,1,0,2Z" style="fill:#eb2335"/><path d="M51.5,43H47a1,1,0,0,1,0-2h4.5A2.516,2.516,0,0,0,54,38.5,2.5,2.5,0,0,0,51.5,36H47a1,1,0,0,1-1-1V30a1,1,0,0,1,1-1h7a1,1,0,0,1,0,2H48v3h3.5A4.505,4.505,0,0,1,56,38.5,4.515,4.515,0,0,1,51.5,43Z" style="fill:#007145"/><path d="M11.183,36.491A3.36,3.36,0,0,0,12.36,43H17a.986.986,0,0,0,.954-.772q-.561-.6-1.1-1.228h-4.5a1.361,1.361,0,0,1-.479-2.634l2.322-.871c-.377-.566-.742-1.141-1.088-1.728Z" style="fill:#c22026"/><path d="M9,32v1a1,1,0,0,0,2,0V32a.988.988,0,0,1,.056-.278c-.3-.7-.58-1.4-.84-2.12A2.988,2.988,0,0,0,9,32Z" style="fill:#c22026"/><rect x="1" y="17" width="1" height="42" style="fill:#c22026"/><rect x="62" y="17" width="1" height="36" style="fill:#c22026"/></g></svg>