<svg xmlns="http://www.w3.org/2000/svg" viewBox="0 0 64 64"><g id="_16-gift" data-name="16-gift"><path d="M63,37v4a2.006,2.006,0,0,1-2,2H58l-.07.01a8.583,8.583,0,0,0-.34-1.66c-.6-1.93-1.93-5.02-4.59-6.35h8A2.006,2.006,0,0,1,63,37Z" style="fill:#ccf"/><path d="M61,55v4a4,4,0,0,1-4,4H49V55Z" style="fill:#00613b"/><rect x="49" y="51" width="12" height="4" style="fill:#c99c5c"/><path d="M61,43v8H49V43h3v4l3-3,3,3V44.15a8.617,8.617,0,0,0-.07-1.14L58,43Z" style="fill:#00613b"/><path d="M60,31v1a3,3,0,0,1-3,3H50V31a4.4,4.4,0,0,1,4-4h2c2.21,0,4,.89,4,2Z" style="fill:#f2c373"/><path d="M58,44.15V47l-3-3-3,3V43a11.978,11.978,0,0,0-3-8h4c2.66,1.33,3.99,4.42,4.59,6.35a10.09,10.09,0,0,1,.41,2.8Z" style="fill:#c99c5c"/><path d="M52,43H42a11.978,11.978,0,0,1,3-8h4A11.978,11.978,0,0,1,52,43Z" style="fill:#ccf"/><path d="M50,33v2H44V33a2,2,0,0,1,2-2h2A2.006,2.006,0,0,1,50,33Z" style="fill:#00613b"/><polygon points="49 55 49 63 45 63 45 55 45 51 45 43 49 43 49 51 49 55" style="fill:#f2c373"/><path d="M44,28.58A4.054,4.054,0,0,1,45,31l.05.24A2.012,2.012,0,0,0,44,33v2H38a3,3,0,0,1-3-3V29c0-1.11,1.79-2,4-2h2A3.981,3.981,0,0,1,44,28.58Z" style="fill:#f2c373"/><path d="M45,55v8H37a4,4,0,0,1-4-4V55Z" style="fill:#00613b"/><rect x="33" y="51" width="12" height="4" style="fill:#c99c5c"/><path d="M45,43v8H33V43h3l.07.01A8.617,8.617,0,0,0,36,44.15V47l3-3,3,3V43Z" style="fill:#00613b"/><path d="M44,35h1a11.978,11.978,0,0,0-3,8v4l-3-3-3,3V44.15a10.09,10.09,0,0,1,.41-2.8c.6-1.93,1.93-5.02,4.59-6.35Z" style="fill:#c99c5c"/><path d="M44,19v9.58A3.981,3.981,0,0,0,41,27H39c-2.21,0-4,.89-4,2v3a3,3,0,0,0,3,3H33a2.006,2.006,0,0,0-2,2v4a2.006,2.006,0,0,0,2,2V59a4,4,0,0,0,4,4H26V19h4v6l3-3,3,3V19Z" style="fill:#eb2335"/><path d="M41,5V7a2.006,2.006,0,0,1-2,2H33a3,3,0,0,0,3-3V3h3A2.006,2.006,0,0,1,41,5Z" style="fill:#911a1c"/><path d="M38,35h3c-2.66,1.33-3.99,4.42-4.59,6.35a8.583,8.583,0,0,0-.34,1.66L36,43H33a2.006,2.006,0,0,1-2-2V37a2.006,2.006,0,0,1,2-2Z" style="fill:#ccf"/><path d="M36,19v6l-3-3-3,3V17a11.978,11.978,0,0,0-3-8h4c2.66,1.33,3.99,4.42,4.59,6.35a9.491,9.491,0,0,1,.41,2.8Z" style="fill:#f2c373"/><path d="M36,5V6a3,3,0,0,1-3,3H26V5a4.4,4.4,0,0,1,4-4h2c2.21,0,4,.89,4,2Z" style="fill:#eb2335"/><polygon points="27 9 27 19 26 19 20 19 19 19 19 9 20 9 26 9 27 9" style="fill:#f2c373"/><rect x="20" y="19" width="6" height="44" style="fill:#f2c373"/><path d="M26,7V9H20V7a2,2,0,0,1,2-2h2A2.006,2.006,0,0,1,26,7Z" style="fill:#911a1c"/><path d="M21,5l.05.24A2.012,2.012,0,0,0,20,7V9H14a3,3,0,0,1-3-3V3c0-1.11,1.79-2,4-2h2A4.4,4.4,0,0,1,21,5Z" style="fill:#eb2335"/><path d="M20,19V63H8a4,4,0,0,1-4-4V19h6v6l3-3,3,3V19h4Z" style="fill:#eb2335"/><path d="M17,9h2a11.978,11.978,0,0,0-3,8v8l-3-3-3,3V18.15a9.491,9.491,0,0,1,.41-2.8c.6-1.93,1.93-5.02,4.59-6.35Z" style="fill:#f2c373"/><path d="M47,11v6a2.006,2.006,0,0,1-2,2H36v-.85a9.491,9.491,0,0,0-.41-2.8C34.99,13.42,33.66,10.33,31,9H45A2.006,2.006,0,0,1,47,11Z" style="fill:#00613b"/><path d="M30,17v2H27V9A11.978,11.978,0,0,1,30,17Z" style="fill:#00613b"/><path d="M19,9V19H16V17A11.978,11.978,0,0,1,19,9Z" style="fill:#00613b"/><path d="M14,9h1c-2.66,1.33-3.99,4.42-4.59,6.35a9.491,9.491,0,0,0-.41,2.8V19H3a2.006,2.006,0,0,1-2-2V11A2.006,2.006,0,0,1,3,9H14Z" style="fill:#00613b"/><path d="M14,9H8A2.006,2.006,0,0,1,6,7V5A2.006,2.006,0,0,1,8,3h3V6A3,3,0,0,0,14,9Z" style="fill:#911a1c"/><path d="M45,9H31a7.9,7.9,0,0,1,3.1,3H45a2,2,0,0,1,2,2V11A2.006,2.006,0,0,0,45,9Z" style="fill:#009e60"/><path d="M28.929,12A10.944,10.944,0,0,0,27,9v3Z" style="fill:#009e60"/><path d="M19,12V9a10.944,10.944,0,0,0-1.929,3Z" style="fill:#009e60"/><path d="M3,12h8.9A7.9,7.9,0,0,1,15,9H3a2.006,2.006,0,0,0-2,2v3A2,2,0,0,1,3,12Z" style="fill:#009e60"/><rect x="58" y="51" width="3" height="4" style="fill:#f2c373"/><path d="M53,35H49a10.944,10.944,0,0,1,1.929,3H56.1A7.9,7.9,0,0,0,53,35Z" style="fill:#f2c373"/><path d="M44,35H41a7.9,7.9,0,0,0-3.1,3h5.167A10.944,10.944,0,0,1,45,35Z" style="fill:#f2c373"/><path d="M24,5H22a2,2,0,0,0-2,2V9a2,2,0,0,1,2-2h2a2.006,2.006,0,0,1,2,2V7A2.006,2.006,0,0,0,24,5Z" style="fill:#eb2335"/><path d="M32,1H30a4.4,4.4,0,0,0-4,4V7a4.4,4.4,0,0,1,4-4h2c2.21,0,4,.89,4,2V3C36,1.89,34.21,1,32,1Z" style="fill:#f2c373"/><path d="M21.05,5.24,21,5a4.4,4.4,0,0,0-4-4H15c-2.21,0-4,.89-4,2V5c0-1.11,1.79-2,4-2h2a4.311,4.311,0,0,1,3.621,2.556A2.023,2.023,0,0,1,21.05,5.24Z" style="fill:#f2c373"/><path d="M33,59V43a2.006,2.006,0,0,1-2-2V37a2.006,2.006,0,0,1,2-2H29a2.006,2.006,0,0,0-2,2v4a2.006,2.006,0,0,0,2,2V59a4,4,0,0,0,4,4h4A4,4,0,0,1,33,59Z" style="fill:#c22026"/><path d="M35,27c-2.21,0-4,.89-4,2v3a3,3,0,0,0,3,3h4a3,3,0,0,1-3-3V29c0-.9,1.174-1.64,2.787-1.9A3.236,3.236,0,0,0,37,27Z" style="fill:#c22026"/><path d="M39,7V5a2.006,2.006,0,0,0-2-2H36V6a3,3,0,0,1-3,3h4A2.006,2.006,0,0,0,39,7Z" style="fill:#7d1618"/><path d="M11,6V3H10A2.006,2.006,0,0,0,8,5V7a2.006,2.006,0,0,0,2,2h4A3,3,0,0,1,11,6Z" style="fill:#7d1618"/><rect x="20" y="19" width="6" height="4" style="fill:#c99c5c"/><rect x="36" y="19" width="8" height="3" style="fill:#c22026"/><path d="M28,28l3-2,3,2V23l-1-1-3,3V19H26v3h2Z" style="fill:#911a1c"/><polygon points="8 28 11 26 14 28 14 23 13 22 10 25 10 19 4 19 4 22 8 22 8 28" style="fill:#911a1c"/><path d="M19,19H16v3h4V19Z" style="fill:#911a1c"/><path d="M29,59H26v4h7A4,4,0,0,1,29,59Z" style="fill:#911a1c"/><path d="M20,57.954V63h6V59A17.936,17.936,0,0,1,20,57.954Z" style="fill:#c99c5c"/><path d="M8,41V22H4V59a4,4,0,0,0,4,4H20V57.954A17.992,17.992,0,0,1,8,41Z" style="fill:#911a1c"/><path d="M33,63h4a4,4,0,0,1-4-4H29A4,4,0,0,0,33,63Z" style="fill:#911a1c"/><path d="M34.1,12A7.9,7.9,0,0,0,31,9H27a10.944,10.944,0,0,1,1.929,3Z" style="fill:#faf180"/><polygon points="27 12 27 9 26 9 20 9 19 9 19 12 27 12" style="fill:#faf180"/><path d="M11.9,12h5.167A10.944,10.944,0,0,1,19,9H15A7.9,7.9,0,0,0,11.9,12Z" style="fill:#faf180"/><path d="M28.929,12H27v.159A12.177,12.177,0,0,1,28,17v2h2V17a12.194,12.194,0,0,0-1.067-5Z" style="fill:#004a2d"/><path d="M8.41,15.35A9.491,9.491,0,0,0,8,18.15V19h2v-.85a9.491,9.491,0,0,1,.41-2.8A14.809,14.809,0,0,1,11.9,12h-2A14.809,14.809,0,0,0,8.41,15.35Z" style="fill:#004a2d"/><path d="M61,43H58l-.07.01A8.617,8.617,0,0,1,58,44.15V46h3Z" style="fill:#004a2d"/><path d="M50,46v4l4-3,3,3V46l-2-2-3,3V43H49v3Z" style="fill:#004a2d"/><rect x="45" y="43" width="4" height="3" style="fill:#c99c5c"/><path d="M34,50l4-3,3,3V46l-2-2-3,3V44.15a8.617,8.617,0,0,1,.07-1.14L36,43H33v3h1Z" style="fill:#004a2d"/><rect x="42" y="43" width="3" height="3" style="fill:#004a2d"/><path d="M59,60H49v3h8a4,4,0,0,0,4-4V58A2,2,0,0,1,59,60Z" style="fill:#004a2d"/><rect x="45" y="60" width="4" height="3" style="fill:#f2c373"/><path d="M42,60a6,6,0,0,1-5.91-5H33v4a4,4,0,0,0,4,4h8V60Z" style="fill:#004a2d"/><path d="M36,54V51H33v4h3.09A6,6,0,0,1,36,54Z" style="fill:#a67d44"/><polygon points="36 47 36 44.15 36 43 33 43 33 51 36 51 36 47" style="fill:#004a2d"/><path d="M61,35H53a7.9,7.9,0,0,1,3.1,3H61a2,2,0,0,1,2,2V37A2.006,2.006,0,0,0,61,35Z" style="fill:#ebebff"/><path d="M49,35H45a10.944,10.944,0,0,0-1.929,3h7.858A10.944,10.944,0,0,0,49,35Z" style="fill:#ebebff"/><path d="M33,38h4.9A7.9,7.9,0,0,1,41,35H33a2.006,2.006,0,0,0-2,2v3A2,2,0,0,1,33,38Z" style="fill:#ebebff"/><rect x="21" y="19" width="1" height="4" style="fill:#911a1c"/><rect x="24" y="19" width="1" height="4" style="fill:#911a1c"/><path d="M22,23H21V58.264c.33.1.663.181,1,.259Z" style="fill:#eb2335"/><path d="M25,23H24V58.872c.331.038.664.064,1,.083Z" style="fill:#eb2335"/><path d="M21,58.264V63h1V58.523C21.663,58.445,21.33,58.36,21,58.264Z" style="fill:#911a1c"/><path d="M24,58.872V63h1V58.955C24.664,58.936,24.331,58.91,24,58.872Z" style="fill:#911a1c"/><rect x="20" y="9" width="1" height="3" style="fill:#eb2335"/><rect x="20" y="12" width="1" height="7" style="fill:#911a1c"/><rect x="25" y="9" width="1" height="3" style="fill:#eb2335"/><rect x="25" y="12" width="1" height="7" style="fill:#911a1c"/><path d="M33.374,12h-.958a8.619,8.619,0,0,1,2.209,5v6.625l.75.75V17A8.809,8.809,0,0,0,33.374,12Z" style="fill:#911a1c"/><path d="M30.581,9h-.976l-.043.129.2.164A19.959,19.959,0,0,1,32.416,12h.958A19.789,19.789,0,0,0,30.581,9Z" style="fill:#eb2335"/><path d="M30.625,17v7.375l.75-.75V17a12.491,12.491,0,0,0-1.219-5H29.32A12.083,12.083,0,0,1,30.625,17Z" style="fill:#911a1c"/><path d="M27.6,9l-.022.067.118.158A18.415,18.415,0,0,1,29.32,12h.836a19.176,19.176,0,0,0-1.694-3Z" style="fill:#eb2335"/><path d="M13.584,12h-.957a8.8,8.8,0,0,0-2,5v7.375l.75-.75V17A8.619,8.619,0,0,1,13.584,12Z" style="fill:#911a1c"/><path d="M12.627,12h.957a19.959,19.959,0,0,1,2.65-2.707l.086-.069L16.4,9h-.976A19.848,19.848,0,0,0,12.627,12Z" style="fill:#eb2335"/><path d="M16.68,12h-.835a12.488,12.488,0,0,0-1.22,5v6.625l.75.75V17A12.083,12.083,0,0,1,16.68,12Z" style="fill:#911a1c"/><path d="M16.68,12A18.415,18.415,0,0,1,18.3,9.225L18.378,9h-.839a19.241,19.241,0,0,0-1.694,3Z" style="fill:#eb2335"/><path d="M32,7a2,2,0,0,1-2-2V3a4.4,4.4,0,0,0-4,4V9h7a2.986,2.986,0,0,0,2.817-2Z" style="fill:#c22026"/><path d="M17,3V5a2,2,0,0,1-2,2H11.183A2.986,2.986,0,0,0,14,9h6V7a2,2,0,0,1,.621-1.444A4.311,4.311,0,0,0,17,3Z" style="fill:#c22026"/><path d="M30,3a1.993,1.993,0,0,0-1.107-1.781A4.539,4.539,0,0,0,26,5V7A4.4,4.4,0,0,1,30,3Z" style="fill:#c99c5c"/><path d="M18.107,1.219A1.993,1.993,0,0,0,17,3a4.311,4.311,0,0,1,3.621,2.556,2.023,2.023,0,0,1,.429-.316L21,5A4.539,4.539,0,0,0,18.107,1.219Z" style="fill:#c99c5c"/><rect x="35" y="9" width="10" height="3" rx="1.5" ry="1.5" style="fill:#00c477"/><rect x="3" y="9" width="8" height="3" rx="1.5" ry="1.5" style="fill:#00c477"/><rect x="58" y="46" width="3" height="5" rx="1.5" ry="1.5" style="fill:#008f57"/><rect x="58" y="55" width="3" height="5" rx="1.5" ry="1.5" style="fill:#008f57"/><path d="M48,31H46a2,2,0,0,0-2,2v2a2,2,0,0,1,2-2h2a2.006,2.006,0,0,1,2,2V33A2.006,2.006,0,0,0,48,31Z" style="fill:#008f57"/><path d="M56,27H54a4.4,4.4,0,0,0-4,4v2a4.4,4.4,0,0,1,4-4h2c2.21,0,4,.89,4,2V29C60,27.89,58.21,27,56,27Z" style="fill:#00c477"/><path d="M45.05,31.24,45,31a4.4,4.4,0,0,0-4-4H39c-2.21,0-4,.89-4,2v2c0-1.11,1.79-2,4-2h2a4.311,4.311,0,0,1,3.621,2.556A2.023,2.023,0,0,1,45.05,31.24Z" style="fill:#00c477"/><path d="M56,33a2,2,0,0,1-2-2V29a4.4,4.4,0,0,0-4,4v2h7a2.986,2.986,0,0,0,2.817-2Z" style="fill:#c99c5c"/><path d="M41,29v2a2,2,0,0,1-2,2H35.183A2.986,2.986,0,0,0,38,35h6V33a2,2,0,0,1,.621-1.444A4.311,4.311,0,0,0,41,29Z" style="fill:#c99c5c"/><path d="M54,29a1.993,1.993,0,0,0-1.107-1.781A4.539,4.539,0,0,0,50,31v2A4.4,4.4,0,0,1,54,29Z" style="fill:#008f57"/><path d="M42.107,27.219A1.993,1.993,0,0,0,41,29a4.311,4.311,0,0,1,3.621,2.556,2.023,2.023,0,0,1,.429-.316L45,31A4.539,4.539,0,0,0,42.107,27.219Z" style="fill:#008f57"/><rect x="56" y="35" width="6" height="3" rx="1.5" ry="1.5" style="fill:#fffefe"/><rect x="32" y="35" width="6" height="3" rx="1.5" ry="1.5" style="fill:#fffefe"/></g></svg>