<svg xmlns="http://www.w3.org/2000/svg" viewBox="0 0 64 64"><g id="_18-snow_ball" data-name="18-snow ball"><path d="M44,40.91a57.9,57.9,0,0,1,11.85,3.03A27.23,27.23,0,0,1,52,49H12a27.23,27.23,0,0,1-3.85-5.06,55.337,55.337,0,0,1,9.9-2.7c.95-.17,1.94-.33,2.95-.47,1.61-.23,3.29-.42,5.02-.54,1.3-.1,2.62-.17,3.98-.2.66-.02,1.33-.03,2-.03A78.981,78.981,0,0,1,44,40.91Z" style="fill:#ebebff"/><path d="M26,40l.02.23c-1.73.12-3.41.31-5.02.54V35.5a2.5,2.5,0,1,1,5,0Z" style="fill:#f2c373"/><circle cx="32" cy="54" r="3" style="fill:#00c477"/><circle cx="35" cy="27" r="2" style="fill:#fffefe"/><path d="M11,24a1.974,1.974,0,0,1-.34,1.12A2,2,0,0,1,7,24a1.275,1.275,0,0,1,.01-.2A2,2,0,0,1,11,24Z" style="fill:#fffefe"/><circle cx="22" cy="16" r="2" style="fill:#fffefe"/><circle cx="25" cy="8" r="2" style="fill:#fffefe"/><circle cx="38" cy="9" r="2" style="fill:#fffefe"/><circle cx="49" cy="15" r="2" style="fill:#fffefe"/><circle cx="53" cy="24" r="2" style="fill:#fffefe"/><rect x="30" y="17" width="5" height="4" style="fill:#915041"/><path d="M21,40.77c-1.01.14-2,.3-2.95.47L18,41V31.47l3.26-5.35a2.041,2.041,0,0,1,3.55.14l2.86,5.63A2.045,2.045,0,0,0,29.49,33H30v7.03c-1.36.03-2.68.1-3.98.2L26,40V35.5a2.5,2.5,0,0,0-5,0Z" style="fill:#915041"/><path d="M30,40V33H44v7.91A78.981,78.981,0,0,0,32,40c-.67,0-1.34.01-2,.03Z" style="fill:#b46e5a"/><path d="M17.26,27.52l2.69-4.54A4.1,4.1,0,0,1,23.46,21H37.07a4.083,4.083,0,0,1,3.5,1.98l.12.2,4.03,6.81A2,2,0,0,1,42.97,33H29.49a2.045,2.045,0,0,1-1.82-1.11l-2.86-5.63a2.041,2.041,0,0,0-3.55-.14L18,31.47l-.55.9A1.323,1.323,0,0,1,15,31.69a1.331,1.331,0,0,1,.18-.65ZM37,27a2,2,0,1,0-2,2A2.006,2.006,0,0,0,37,27Z" style="fill:#ebebff"/><path d="M32,1A28.01,28.01,0,0,0,4.57,23.36,28.317,28.317,0,0,0,4,29,29.486,29.486,0,0,0,8.15,43.94a55.337,55.337,0,0,1,9.9-2.7L18,41H10l2-7H10l3-5H11l1.69-2.53L15,23l2.26,4.52,2.69-4.54A4.1,4.1,0,0,1,23.46,21H30V17h5v4h2.07a4.083,4.083,0,0,1,3.5,1.98l.12.2L41,23l3-7,4,7H46l5,8H48l5,9H44v.91a57.9,57.9,0,0,1,11.85,3.03A29.486,29.486,0,0,0,60,29,28.005,28.005,0,0,0,32,1ZM9,26a2.006,2.006,0,0,1-2-2,1.275,1.275,0,0,1,.01-.2A2,2,0,0,1,11,24a1.974,1.974,0,0,1-.34,1.12A2.005,2.005,0,0,1,9,26Zm13-8a2,2,0,1,1,2-2A2.006,2.006,0,0,1,22,18Zm3-8a2,2,0,1,1,2-2A2.006,2.006,0,0,1,25,10Zm13,1a2,2,0,1,1,2-2A2.006,2.006,0,0,1,38,11Zm11,6a2,2,0,1,1,2-2A2.006,2.006,0,0,1,49,17Zm4,9a2,2,0,1,1,2-2A2.006,2.006,0,0,1,53,26Z" style="fill:#759aff"/><path d="M16.32,33a1.317,1.317,0,0,0,1.13-.63l.55-.9V41H10l2-7H10l3-5H11l1.69-2.53L15,23l2.26,4.52-2.08,3.52a1.331,1.331,0,0,0-.18.65A1.31,1.31,0,0,0,16.32,33Z" style="fill:#004a2d"/><path d="M48,31l5,9H44V33H42.97a2,2,0,0,0,1.75-3.01l-4.03-6.81L41,23l3-7,4,7H46l5,8Z" style="fill:#008f57"/><path d="M56,59a2.006,2.006,0,0,1,2,2,2.015,2.015,0,0,1-2,2H9a2.006,2.006,0,0,1-2-2,2.015,2.015,0,0,1,2-2H56Z" style="fill:#008f57"/><path d="M57.41,60.41A1.955,1.955,0,0,1,56,61H9a2,2,0,0,1-1.721-1A1.963,1.963,0,0,0,7,61a2.006,2.006,0,0,0,2,2H56a1.984,1.984,0,0,0,1.721-3A1.938,1.938,0,0,1,57.41,60.41Z" style="fill:#007145"/><path d="M52,49H12L10,59H54ZM32,57a3,3,0,1,1,3-3A3,3,0,0,1,32,57Z" style="fill:#c22026"/><path d="M35.125,35H44V33H30v7.03c.66-.02,1.33-.03,2-.03.22,0,.432.011.651.013A3.109,3.109,0,0,1,35.125,35Z" style="fill:#915041"/><path d="M33.472,31a4,4,0,0,1-3.578-2.211l-2.727-5.455A4.222,4.222,0,0,0,23.424,21,4.1,4.1,0,0,0,19.95,22.98l-2.69,4.54-2.08,3.52a1.331,1.331,0,0,0-.18.65,1.323,1.323,0,0,0,2.45.68l.55-.9,3.26-5.35a2.041,2.041,0,0,1,3.55.14l2.86,5.63A2.045,2.045,0,0,0,29.49,33H42.97A2.013,2.013,0,0,0,45,31Z" style="fill:#a4afe6"/><path d="M51.854,42.637c-1.01,1.55-1.929,3.383-3.48,4.055a5.343,5.343,0,0,1-2.515.278C38.587,46.49,31.354,43.091,24.2,44.7c-1.754.395-3.454,1.085-5.213,1.451a7.529,7.529,0,0,1-5.253-.515,11.546,11.546,0,0,1-2.893-2.632c-.952.3-1.855.612-2.689.935A27.23,27.23,0,0,0,12,49H52a27.23,27.23,0,0,0,3.85-5.06c-1.2-.468-2.536-.914-3.98-1.326Z" style="fill:#ccf"/><path d="M52,49H48.111l.4,3.558A4,4,0,0,1,44.531,57H19.469a4,4,0,0,1-3.975-4.442L15.889,49H12L10,59H54Z" style="fill:#911a1c"/><path d="M37.7,10.969A1.91,1.91,0,0,0,38,11a2.006,2.006,0,0,0,2-2,1.964,1.964,0,0,0-.13-.687A3.979,3.979,0,0,1,37.7,10.969Z" style="fill:#fffefe"/><circle cx="49" cy="15" r="2" style="fill:#fffefe"/><circle cx="53" cy="24" r="2" style="fill:#fffefe"/><path d="M50.555,31A3.988,3.988,0,0,0,58,29,26.05,26.05,0,0,0,46.956,7.73a4,4,0,0,0-4.605,6.541A18.04,18.04,0,0,1,50,29a3.952,3.952,0,0,0,.048.477L51,31ZM53,22a2,2,0,1,1-2,2A2.006,2.006,0,0,1,53,22Zm-4-5a2,2,0,1,1,2-2A2.006,2.006,0,0,1,49,17Z" style="fill:#fff"/><path d="M39.87,8.313A2,2,0,1,0,37.7,10.969,3.979,3.979,0,0,0,39.87,8.313Z" style="fill:#fffefe"/><path d="M36,9a2,2,0,0,1,3.87-.687c.019-.078.049-.15.064-.229a4,4,0,0,0-3.213-4.656q-.585-.108-1.177-.188a4,4,0,0,0-1.086,7.926c.275.038.549.081.819.131a4,4,0,0,0,.727.066,3.962,3.962,0,0,0,1.692-.394A2,2,0,0,1,36,9Z" style="fill:#fff"/><path d="M35,17H30v4h2a2,2,0,0,1,2-2h1Z" style="fill:#784132"/><rect x="28" y="16" width="9" height="2" rx="1" ry="1" style="fill:#a56645"/><rect x="31" y="16" width="6" height="2" rx="1" ry="1" style="fill:#db885b"/><path d="M24,36.5v3.911c.667-.068,1.336-.134,2.02-.181L26,40V35.5A2.492,2.492,0,0,0,21.511,34,2.491,2.491,0,0,1,24,36.5Z" style="fill:#c99c5c"/><path d="M29.49,33a2.045,2.045,0,0,1-1.82-1.11l-2.86-5.63a2.041,2.041,0,0,0-3.55-.14L18,31.47v2.2a1.986,1.986,0,0,0,.594-.565l2.891-4.337a1.734,1.734,0,0,1,2.994.187L27,34h1v2.617a4.74,4.74,0,0,1-1.664,3.593c1.2-.088,2.413-.152,3.664-.18V33Z" style="fill:#61362b"/><rect x="42" y="35" width="2" height="5" rx="1" ry="1" style="fill:#d79b8c"/><rect x="18" y="34" width="2" height="5" rx="1" ry="1" style="fill:#b46e5a"/><path d="M60,29A28,28,0,0,0,4.57,23.36,28.317,28.317,0,0,0,4,29,29.486,29.486,0,0,0,8.15,43.94,27.23,27.23,0,0,0,12,49h2a2,2,0,0,0-.563-1.391,25.22,25.22,0,0,1-3.568-4.691A27.654,27.654,0,0,1,6,29a26.454,26.454,0,0,1,.529-5.239A26,26,0,0,1,58,29a27.659,27.659,0,0,1-3.872,13.923,25.167,25.167,0,0,1-3.566,4.686A2,2,0,0,0,50,49h2a27.23,27.23,0,0,0,3.85-5.06A29.486,29.486,0,0,0,60,29Z" style="fill:#ebebff"/><rect x="13" y="59" width="29" height="2" rx="1" ry="1" style="fill:#00c477"/><rect x="44" y="59" width="5" height="2" rx="1" ry="1" style="fill:#00c477"/><path d="M32,50a4,4,0,1,0,4,4A4,4,0,0,0,32,50Zm0,7a3,3,0,1,1,3-3A3,3,0,0,1,32,57Z" style="fill:#007145"/><path d="M32,55a2.986,2.986,0,0,1-2.817-2,3,3,0,1,0,5.634,0A2.986,2.986,0,0,1,32,55Z" style="fill:#008f57"/><rect x="38" y="49" width="10" height="2" rx="1" ry="1" style="fill:#ff273a"/><rect x="16" y="49" width="10" height="2" rx="1" ry="1" style="fill:#ff273a"/></g></svg>