<svg xmlns="http://www.w3.org/2000/svg" viewBox="0 0 64 64"><g id="_19-train_toy" data-name="19-train toy"><path d="M4,33v3H2.5a1.5,1.5,0,0,1,0-3Z" style="fill:#f0af4c"/><rect x="17" y="20" width="4" height="8" style="fill:#784132"/><rect x="46" y="26" width="6" height="5" style="fill:#5262f7"/><rect x="40" y="26" width="6" height="5" style="fill:#5262f7"/><path d="M46,19v7H40V25A6,6,0,0,1,46,19Z" style="fill:#5262f7"/><path d="M52,25v1H46V19a6.009,6.009,0,0,1,6,6Z" style="fill:#5262f7"/><path d="M46,19a6,6,0,0,0-6,6v6H52V25a6.009,6.009,0,0,0-6-6ZM34,16H58V34H34V16Z" style="fill:#784132"/><rect x="34" y="34" width="24" height="4" style="fill:#f0af4c"/><path d="M8,50a2.006,2.006,0,0,1-2-2V44a2.006,2.006,0,0,1,2-2h6a2.006,2.006,0,0,1,2,2v4a2.006,2.006,0,0,1-2,2H8Z" style="fill:#f0af4c"/><path d="M11,53v2.73A2.275,2.275,0,0,1,8.73,58H3.27a2.273,2.273,0,0,1-1.85-3.59L6,48a2.006,2.006,0,0,0,2,2h3Z" style="fill:#eb2335"/><path d="M18,53a2.006,2.006,0,0,0,2,2h1.87A3.657,3.657,0,0,1,22,56a4,4,0,1,1-4-4l.34-.12A1.974,1.974,0,0,0,18,53Z" style="fill:#eb2335"/><path d="M57.32,50A6.844,6.844,0,0,1,58,53a7,7,0,0,1-13.71,2H50a2.015,2.015,0,0,0,2-2,2.006,2.006,0,0,0-2-2H44.29a7,7,0,0,1,13.03-1Z" style="fill:#eb2335"/><path d="M27.29,55H40.71a7,7,0,0,1-13.42,0Z" style="fill:#eb2335"/><path d="M40.71,51H27.29a7,7,0,0,1,13.42,0Z" style="fill:#eb2335"/><path d="M16,44a2.006,2.006,0,0,0-2-2H58a2.015,2.015,0,0,0,2-2h3v8a2.006,2.006,0,0,1-2,2H57.32a7,7,0,0,0-13.03,1H40.71a7,7,0,0,0-13.42,0H20a1.955,1.955,0,0,0-1.41.59,2.258,2.258,0,0,0-.25.29L18,52a4.025,4.025,0,0,0-2.83,1.17L15,53H11V50h3a2.006,2.006,0,0,0,2-2Z" style="fill:#784132"/><path d="M58,38a2.006,2.006,0,0,1,2,2,2.015,2.015,0,0,1-2,2H14V38H58Z" style="fill:#f0af4c"/><path d="M14,38v4H10V28a2.006,2.006,0,0,1,2-2,2.015,2.015,0,0,1,2,2Z" style="fill:#f0af4c"/><path d="M26,12H11a2.006,2.006,0,0,1-2-2,2.015,2.015,0,0,1,2-2H27a2.006,2.006,0,0,1,2,2,1.974,1.974,0,0,1-.34,1.12,2.258,2.258,0,0,1-.25.29A1.955,1.955,0,0,1,27,12Z" style="fill:#f0af4c"/><path d="M26,12v2.17a2.006,2.006,0,0,1-.59,1.42L21,20H17l-4.41-4.41A2.006,2.006,0,0,1,12,14.17V12Z" style="fill:#eb2335"/><polygon points="24 4 26 8 12 8 14 4 24 4" style="fill:#eb2335"/><path d="M10,28V42a5.919,5.919,0,0,1-6-5.83V33.83A5.919,5.919,0,0,1,10,28Z" style="fill:#eb2335"/><polygon points="34 34 34 38 14 38 14 28 17 28 21 28 34 28 34 34" style="fill:#c22026"/><path d="M62,14a2.006,2.006,0,0,1-2,2H32a2.015,2.015,0,0,1-2-2,5.986,5.986,0,0,1,6-6H56a6.009,6.009,0,0,1,6,6Z" style="fill:#eb2335"/><path d="M38,34h0a2,2,0,0,0,2,2H52a2,2,0,0,0,2-2h4v4H34V34Z" style="fill:#bd8836"/><path d="M34,16v3h7a13.006,13.006,0,0,1,2.98.357A6,6,0,0,1,52,25v.094A12.922,12.922,0,0,1,54,32H34v2H58V16Z" style="fill:#4c2c21"/><circle cx="51" cy="53" r="5" style="fill:#5c3227"/><circle cx="34" cy="53" r="5" style="fill:#5c3227"/><circle cx="18" cy="56" r="2" style="fill:#5c3227"/><path d="M14,48H8a2.006,2.006,0,0,1-2-2v2a2.006,2.006,0,0,0,2,2h6a2.006,2.006,0,0,0,2-2V46A2.006,2.006,0,0,1,14,48Z" style="fill:#bd8836"/><path d="M14,42H8a2.006,2.006,0,0,0-2,2v2a2.006,2.006,0,0,1,2-2h6a2.006,2.006,0,0,1,2,2V44A2.006,2.006,0,0,0,14,42Z" style="fill:#ffd45d"/><path d="M28.66,9.12a2.258,2.258,0,0,1-.25.29A1.955,1.955,0,0,1,27,10H11A2,2,0,0,1,9.279,9,1.963,1.963,0,0,0,9,10a2.006,2.006,0,0,0,2,2H27a1.955,1.955,0,0,0,1.41-.59,2.258,2.258,0,0,0,.25-.29A1.974,1.974,0,0,0,28.719,9C28.7,9.036,28.686,9.083,28.66,9.12Z" style="fill:#d79d44"/><path d="M60,13H32a2.021,2.021,0,0,1-1.677-.919A6.022,6.022,0,0,0,30,14a2.015,2.015,0,0,0,2,2H60a2.006,2.006,0,0,0,2-2,6,6,0,0,0-.32-1.925A2,2,0,0,1,60,13Z" style="fill:#c22026"/><path d="M62,36h0a1,1,0,0,1,1,1v3a0,0,0,0,1,0,0H61a0,0,0,0,1,0,0V37A1,1,0,0,1,62,36Z" style="fill:#eb2335"/><rect x="13" y="8" width="12" height="2" rx="1" ry="1" style="fill:#ffd45d"/><path d="M24,4a2,2,0,0,1-2,2H16a2,2,0,0,1-2-2L12,8H26Z" style="fill:#c22026"/><path d="M26,14.17V12H12v2.17a1.993,1.993,0,0,0,.187.83H25.813A1.993,1.993,0,0,0,26,14.17Z" style="fill:#ae0000"/><path d="M21,20H19v4a2,2,0,0,1-2,2h0v2h4Z" style="fill:#4c2c21"/><path d="M21.919,15a2.015,2.015,0,0,1-.2.475L19,20h2l4.41-4.41a2.011,2.011,0,0,0,.538-.984,2.107,2.107,0,0,1-.135.394Z" style="fill:#c22026"/><rect x="36" y="8" width="13" height="5" rx="2.5" ry="2.5" style="fill:#ff5968"/><rect x="50" y="8" width="7" height="5" rx="2.5" ry="2.5" style="fill:#ff5968"/><path d="M30,28v3a4,4,0,0,1-4,4H14v3H34V28Z" style="fill:#911a1c"/><rect x="15" y="28" width="9" height="3" rx="1.5" ry="1.5" style="fill:#ff273a"/><rect x="25" y="28" width="4" height="3" rx="1.5" ry="1.5" style="fill:#ff273a"/><rect x="40" y="34" width="12" height="2" rx="1" ry="1" style="fill:#ffd45d"/><path d="M58,40H21a2,2,0,0,1-2-2H14v4H58a1.985,1.985,0,0,0,1.722-3A1.993,1.993,0,0,1,58,40Z" style="fill:#bd8836"/><rect x="52" y="38" width="6" height="2" rx="1" ry="1" style="fill:#ffce51"/><rect x="23" y="38" width="28" height="2" rx="1" ry="1" style="fill:#ffce51"/><path d="M7,28.787V36a3,3,0,0,1-2.295,2.908A6.025,6.025,0,0,0,10,42V28A6.1,6.1,0,0,0,7,28.787Z" style="fill:#911a1c"/><path d="M14,42H8a2,2,0,0,0-2,2v4a2,2,0,0,0,2,2h6a2,2,0,0,0,2-2V44A2,2,0,0,0,14,42Zm1,6a1,1,0,0,1-1,1H8a1,1,0,0,1-1-1V44a1,1,0,0,1,1-1h6a1,1,0,0,1,1,1Z" style="fill:#555a66"/><rect x="8" y="45" width="6" height="2" rx="1" ry="1" style="fill:#ffd45d"/><path d="M12,28V38a2,2,0,0,1-2,2v2h4V28a1.986,1.986,0,0,0-1-1.722A1.991,1.991,0,0,0,12,28Z" style="fill:#bd8836"/><path d="M50.5,41H18a2,2,0,0,1-2-2V38H14v4H50.5a.5.5,0,0,0,0-1Z" style="fill:#8f6328"/><path d="M8,50a2.006,2.006,0,0,1-2-2L3.856,51H7a2,2,0,0,1,2,2,3,3,0,0,1-3,3H1.027A2.268,2.268,0,0,0,3.27,58H8.73A2.275,2.275,0,0,0,11,55.73V50Z" style="fill:#911a1c"/><path d="M50.6,20.408A6.421,6.421,0,0,0,46,18.5,6.508,6.508,0,0,0,39.5,25v6a.5.5,0,0,0,.5.5H52a.5.5,0,0,0,.5-.5V25A6.418,6.418,0,0,0,50.6,20.408ZM51.5,25v.5h-5V19.549A5.458,5.458,0,0,1,51.5,25Zm-6-5.475V25.5h-5V25A5.507,5.507,0,0,1,45.5,19.525Zm-5,6.975h5v4h-5Zm6,4v-4h5v4Z" style="fill:#f0af4c"/><path d="M59.41,41.41A1.955,1.955,0,0,1,58,42H14a2.006,2.006,0,0,1,2,2v4a2.006,2.006,0,0,1-2,2H11v3h4l.17.17A4.025,4.025,0,0,1,18,52l.34-.12a2.258,2.258,0,0,1,.25-.29,1.943,1.943,0,0,1,.431-.323A6.683,6.683,0,0,1,25.688,45H58.625A4.375,4.375,0,0,0,63,40.625V40H60A1.955,1.955,0,0,1,59.41,41.41Z" style="fill:#4c2c21"/><path d="M50,51a2.006,2.006,0,0,1,2,2,2.015,2.015,0,0,1-2,2H20a2.006,2.006,0,0,1-2-2,1.974,1.974,0,0,1,.34-1.12,2.258,2.258,0,0,1,.25-.29A1.955,1.955,0,0,1,20,51H50Z" style="fill:#f0af4c"/><path d="M50,51a2,2,0,0,1-2,2H22a2,2,0,0,1-2-2,1.955,1.955,0,0,0-1.41.59,2.258,2.258,0,0,0-.25.29A1.974,1.974,0,0,0,18,53a2.006,2.006,0,0,0,2,2H50a2.015,2.015,0,0,0,2-2A2.006,2.006,0,0,0,50,51Z" style="fill:#bd8836"/><rect x="24" y="51" width="18" height="2" rx="1" ry="1" style="fill:#ffce51"/><rect x="43" y="51" width="4" height="2" rx="1" ry="1" style="fill:#ffce51"/></g></svg>