<svg xmlns="http://www.w3.org/2000/svg" viewBox="0 0 64 64"><g id="_27-santa" data-name="27-santa"><path d="M35,30c0,1.1-1.34,2-3,2s-3-.9-3-2a1.546,1.546,0,0,1,.4-1,3.88,3.88,0,0,1,5.2,0A1.546,1.546,0,0,1,35,30Z" style="fill:#ff4f5f"/><ellipse cx="37" cy="26" rx="1" ry="2" style="fill:#3e50f7"/><ellipse cx="27" cy="26" rx="1" ry="2" style="fill:#3e50f7"/><ellipse cx="38" cy="22.5" rx="3" ry="1.5" style="fill:#ebebff"/><ellipse cx="25" cy="22.5" rx="3" ry="1.5" style="fill:#ebebff"/><path d="M37,28c.55,0,1-.9,1-2s-.45-2-1-2-1,.9-1,2S36.45,28,37,28Zm1-4c1.66,0,3-.67,3-1.5S39.66,21,38,21s-3,.67-3,1.5S36.34,24,38,24ZM25,24c1.66,0,3-.67,3-1.5S26.66,21,25,21s-3,.67-3,1.5S23.34,24,25,24Zm2,4c.55,0,1-.9,1-2s-.45-2-1-2-1,.9-1,2S26.45,28,27,28Zm-8-5a3,3,0,0,1,3-3H42a3,3,0,0,1,3,3v4a6.226,6.226,0,0,1-.26,1.59A15.026,15.026,0,0,1,40,30a20.344,20.344,0,0,1-5-1h-.4a3.88,3.88,0,0,0-5.2,0H29a20.344,20.344,0,0,1-5,1,15.026,15.026,0,0,1-4.74-1.41A6.226,6.226,0,0,1,19,27Z" style="fill:#ffc7b5"/><path d="M29.04,35.38C32,34.25,32,32,32,32s0,2.25,2.96,3.38a2.982,2.982,0,0,1-5.92,0Z" style="fill:#ffb4a3"/><path d="M16.52,19.46a2.8,2.8,0,0,1-1.47-2.95,2.916,2.916,0,0,1,1.2-1.8A3.84,3.84,0,0,1,18.53,14H45.47a3.4,3.4,0,0,1,3.48,2.51,2.921,2.921,0,0,1,.05.5,2.883,2.883,0,0,1-1.52,2.45,3.917,3.917,0,0,1-2.01.54H18.53A3.917,3.917,0,0,1,16.52,19.46Z" style="fill:#f5f9ff"/><path d="M7.83,14.17A4,4,0,1,1,5,13,4.025,4.025,0,0,1,7.83,14.17Z" style="fill:#f7faff"/><path d="M5,13l7.43-8.11A12.024,12.024,0,0,1,21.28,1H33A12,12,0,0,1,45,13v1H19l-.17-.67a2.99,2.99,0,0,0-4.02-2.05L8,14l-.17.17A4.025,4.025,0,0,0,5,13Z" style="fill:#c22026"/><path d="M55,38s8,4,8,16v9H55a26.38,26.38,0,0,0-2-11V41.33a5.691,5.691,0,0,0,1.78-3.38Z" style="fill:#c22026"/><path d="M9.22,37.95A5.691,5.691,0,0,0,11,41.33V52A26.38,26.38,0,0,0,9,63H1V54C1,42,9,38,9,38Z" style="fill:#c22026"/><path d="M27.06,54.94A6.926,6.926,0,0,0,32,57v6H27V55Z" style="fill:#ebebff"/><path d="M37,55v8H32V57a6.926,6.926,0,0,0,4.94-2.06Z" style="fill:#ebebff"/><path d="M55,63H37V55l-.06-.06a6.867,6.867,0,0,0,1.57-2.37A4.992,4.992,0,0,0,47,49a5.08,5.08,0,0,0-.45-2.06A4.975,4.975,0,0,0,51,42a3.125,3.125,0,0,0,2-.67V52A26.38,26.38,0,0,1,55,63Z" style="fill:#eb2335"/><path d="M27.06,54.94,27,55v8H9a26.38,26.38,0,0,1,2-11V41.33A3.125,3.125,0,0,0,13,42a4.975,4.975,0,0,0,4.45,4.94A5.08,5.08,0,0,0,17,49a4.992,4.992,0,0,0,8.49,3.57A6.867,6.867,0,0,0,27.06,54.94Z" style="fill:#eb2335"/><path d="M44.74,28.59C45.49,28.26,46,28,46,28c0,2-1,8-7,8a11.523,11.523,0,0,1-4.04-.62C32,34.25,32,32,32,32c1.66,0,3-.9,3-2a1.546,1.546,0,0,0-.4-1H35a20.344,20.344,0,0,0,5,1A15.026,15.026,0,0,0,44.74,28.59Z" style="fill:#dcddea"/><path d="M29.04,35.38A11.523,11.523,0,0,1,25,36c-6,0-7-6-7-8,0,0,.51.26,1.26.59A15.026,15.026,0,0,0,24,30a20.344,20.344,0,0,0,5-1h.4a1.546,1.546,0,0,0-.4,1c0,1.1,1.34,2,3,2C32,32,32,34.25,29.04,35.38Z" style="fill:#dcddea"/><path d="M19,27a6.226,6.226,0,0,0,.26,1.59C18.51,28.26,18,28,18,28c0,2,1,8,7,8a11.523,11.523,0,0,0,4.04-.62,2.982,2.982,0,0,0,5.92,0A11.523,11.523,0,0,0,39,36c6,0,7-6,7-8,0,0-.51.26-1.26.59A6.226,6.226,0,0,0,45,27V23a3,3,0,0,0-3-3h3.47a3.917,3.917,0,0,0,2.01-.54C49.21,21.16,55,27.49,55,36a10.87,10.87,0,0,1-.22,1.95A5.691,5.691,0,0,1,53,41.33,3.125,3.125,0,0,1,51,42a4.975,4.975,0,0,1-4.45,4.94A5.08,5.08,0,0,1,47,49a4.992,4.992,0,0,1-8.49,3.57,7.013,7.013,0,0,1-13.02,0A4.992,4.992,0,0,1,17,49a5.08,5.08,0,0,1,.45-2.06A4.975,4.975,0,0,1,13,42a3.125,3.125,0,0,1-2-.67,5.691,5.691,0,0,1-1.78-3.38A10.87,10.87,0,0,1,9,36c0-8.51,5.79-14.84,7.52-16.54a3.917,3.917,0,0,0,2.01.54H22a3,3,0,0,0-3,3Z" style="fill:#f5f9ff"/><path d="M48.785,15.975a3.084,3.084,0,0,1-1.3,1.485,3.917,3.917,0,0,1-2.01.54H18.53a3.917,3.917,0,0,1-2.01-.54,3.084,3.084,0,0,1-1.314-1.466,2.654,2.654,0,0,0-.156.516,2.8,2.8,0,0,0,1.47,2.95,3.917,3.917,0,0,0,2.01.54H45.47a3.917,3.917,0,0,0,2.01-.54A2.883,2.883,0,0,0,49,17.01a2.921,2.921,0,0,0-.05-.5A2.654,2.654,0,0,0,48.785,15.975Z" style="fill:#ebebff"/><path d="M6.243,18.993a2.472,2.472,0,0,1-1.483-.417c-2.818-1.838-2.9-3.115-2.689-4.284a3.973,3.973,0,0,0-1.012,3.4A4.034,4.034,0,0,0,4.6,20.98a3.994,3.994,0,0,0,4.331-3.272A3.988,3.988,0,0,1,6.243,18.993Z" style="fill:#dbdbee"/><path d="M53,35.33A3.125,3.125,0,0,1,51,36a4.975,4.975,0,0,1-4.45,4.94A5.08,5.08,0,0,1,47,43a4.992,4.992,0,0,1-8.49,3.57,7.013,7.013,0,0,1-13.02,0A4.992,4.992,0,0,1,17,43a5.08,5.08,0,0,1,.45-2.06A4.975,4.975,0,0,1,13,36a3.125,3.125,0,0,1-2-.67,5.247,5.247,0,0,1-1.658-2.862A19.162,19.162,0,0,0,9,36a10.87,10.87,0,0,0,.22,1.95A5.691,5.691,0,0,0,11,41.33,3.125,3.125,0,0,0,13,42a4.975,4.975,0,0,0,4.45,4.94A5.08,5.08,0,0,0,17,49a4.992,4.992,0,0,0,8.49,3.57,7.013,7.013,0,0,0,13.02,0A4.992,4.992,0,0,0,47,49a5.08,5.08,0,0,0-.45-2.06A4.975,4.975,0,0,0,51,42a3.125,3.125,0,0,0,2-.67,5.691,5.691,0,0,0,1.78-3.38A10.87,10.87,0,0,0,55,36a19.162,19.162,0,0,0-.342-3.532A5.247,5.247,0,0,1,53,35.33Z" style="fill:#ebebff"/><path d="M39,36a11.523,11.523,0,0,1-4.04-.62,2.83,2.83,0,0,1-2.152,2.535A5.039,5.039,0,0,0,34.96,39.38,11.523,11.523,0,0,0,39,40c6,0,7-6,7-8,0,0-.461.234-1.14.536A6.231,6.231,0,0,1,39,36Z" style="fill:#ebebff"/><path d="M25,40a11.523,11.523,0,0,0,4.04-.62,5.039,5.039,0,0,0,2.152-1.465A2.83,2.83,0,0,1,29.04,35.38,11.523,11.523,0,0,1,25,36a6.231,6.231,0,0,1-5.86-3.464C18.461,32.234,18,32,18,32,18,34,19,40,25,40Z" style="fill:#ebebff"/><ellipse cx="5.582" cy="15.695" rx="1.642" ry="2.286" transform="translate(-9.465 8.549) rotate(-45.02)" style="fill:#fff"/><rect x="17" y="14" width="24" height="2" rx="1" ry="1" style="fill:#fff"/><rect x="42" y="14" width="4" height="2" rx="1" ry="1" style="fill:#fff"/><path d="M43,11H23a2,2,0,0,1-2-2c0-2-2-3-5-3a6.8,6.8,0,0,0-3.092.882,1.943,1.943,0,0,1-2.118-.2L5,13a4.025,4.025,0,0,1,2.83,1.17L8,14l6.81-2.72a2.99,2.99,0,0,1,4.02,2.05L19,14H45V13a12,12,0,0,0-.358-2.862A2,2,0,0,1,43,11Z" style="fill:#911a1c"/><path d="M42,20H22a3,3,0,0,0-3,3v4a6.226,6.226,0,0,0,.26,1.59A15.026,15.026,0,0,0,24,30a20.344,20.344,0,0,0,5-1h.4c.005,0,.012-.009.016-.014-2.006-.068-4.893-.452-6.715-.722A1.994,1.994,0,0,1,21,26.287V23a1,1,0,0,1,1-1h.183A3.587,3.587,0,0,1,25,21a3.587,3.587,0,0,1,2.817,1h7.366A3.587,3.587,0,0,1,38,21a3.587,3.587,0,0,1,2.817,1H42a1,1,0,0,1,1,1v3.287a1.994,1.994,0,0,1-1.7,1.977c-1.822.27-4.709.654-6.715.722,0,0,.011.009.016.014H35a20.344,20.344,0,0,0,5,1,15.026,15.026,0,0,0,4.74-1.41A6.226,6.226,0,0,0,45,27V23A3,3,0,0,0,42,20Z" style="fill:#ffb4a3"/><path d="M22,20H18.53a3.917,3.917,0,0,1-2.01-.54,27.537,27.537,0,0,0-3,3.54H19A3,3,0,0,1,22,20Z" style="fill:#ebebff"/><path d="M47.48,19.46a3.917,3.917,0,0,1-2.01.54H42a3,3,0,0,1,3,3h5.476A27.537,27.537,0,0,0,47.48,19.46Z" style="fill:#ebebff"/><path d="M63,60a6.849,6.849,0,0,1-5.669-2.887A16.506,16.506,0,0,1,55,51c-.712-3.559.6-9.131,1.417-12.054A10.245,10.245,0,0,0,55,38l-.22-.05A5.691,5.691,0,0,1,53,41.33V52a26.38,26.38,0,0,1,2,11h8V60Z" style="fill:#911a1c"/><path d="M9.22,37.95,9,38a10.721,10.721,0,0,0-1.584,1.078C8.235,42.037,9.5,47.5,8.8,51a16.506,16.506,0,0,1-2.327,6.113A6.825,6.825,0,0,1,1,59.988V63H9a26.38,26.38,0,0,1,2-11V41.33A5.691,5.691,0,0,1,9.22,37.95Z" style="fill:#911a1c"/><path d="M27,60.737V63h5V61A47.654,47.654,0,0,1,27,60.737Z" style="fill:#bcc1e3"/><path d="M32,61v2h5V60.737A47.654,47.654,0,0,1,32,61Z" style="fill:#bcc1e3"/><path d="M37,60.737V63H55a29.3,29.3,0,0,0-1.33-9.307C51.045,57.221,44.764,59.915,37,60.737Z" style="fill:#c22026"/><path d="M10.33,53.693A29.3,29.3,0,0,0,9,63H27V60.737C19.236,59.915,12.955,57.221,10.33,53.693Z" style="fill:#c22026"/><path d="M27.06,54.94,27,55v3.874c.021.022.039.045.06.066A6.926,6.926,0,0,0,32,61V57A6.926,6.926,0,0,1,27.06,54.94Z" style="fill:#bcc1e3"/><path d="M36.94,54.94A6.926,6.926,0,0,1,32,57v4a6.926,6.926,0,0,0,4.94-2.06c.021-.021.039-.044.06-.066V55Z" style="fill:#bcc1e3"/><path d="M42,54a4.98,4.98,0,0,1-3.49-1.43,6.867,6.867,0,0,1-1.57,2.37L37,55v3.874a6.861,6.861,0,0,0,1.51-2.3A4.992,4.992,0,0,0,47,53a5.056,5.056,0,0,0-.425-2A5,5,0,0,1,42,54Z" style="fill:#c22026"/><path d="M51,42a4.975,4.975,0,0,1-4.45,4.94A5.08,5.08,0,0,1,47,49a4.984,4.984,0,0,1-.387,1.927A4.97,4.97,0,0,0,51,46a3.125,3.125,0,0,0,2-.67v-4A3.125,3.125,0,0,1,51,42Z" style="fill:#c22026"/><path d="M17.387,50.927A4.984,4.984,0,0,1,17,49a5.08,5.08,0,0,1,.45-2.06A4.975,4.975,0,0,1,13,42a3.125,3.125,0,0,1-2-.67v4A3.125,3.125,0,0,0,13,46,4.97,4.97,0,0,0,17.387,50.927Z" style="fill:#c22026"/><path d="M27.06,54.94a6.867,6.867,0,0,1-1.57-2.37A4.984,4.984,0,0,1,17.425,51,5.056,5.056,0,0,0,17,53a4.992,4.992,0,0,0,8.49,3.57,6.861,6.861,0,0,0,1.51,2.3V55Z" style="fill:#c22026"/><path d="M32,31a3.018,3.018,0,0,1-2.9-1.508A1.372,1.372,0,0,0,29,30c0,1.1,1.34,2,3,2s3-.9,3-2a1.372,1.372,0,0,0-.1-.508A3.018,3.018,0,0,1,32,31Z" style="fill:#eb2335"/><path d="M27,27c-.463,0-.852-.641-.964-1.5A3.831,3.831,0,0,0,26,26c0,1.1.45,2,1,2s1-.9,1-2a3.831,3.831,0,0,0-.036-.5C27.852,26.359,27.463,27,27,27Z" style="fill:#212b87"/><path d="M37,27c-.463,0-.852-.641-.964-1.5A3.831,3.831,0,0,0,36,26c0,1.1.45,2,1,2s1-.9,1-2a3.831,3.831,0,0,0-.036-.5C37.852,26.359,37.463,27,37,27Z" style="fill:#212b87"/><path d="M25,23a3.587,3.587,0,0,1-2.817-1,.873.873,0,0,0-.183.5c0,.83,1.34,1.5,3,1.5s3-.67,3-1.5a.873.873,0,0,0-.183-.5A3.587,3.587,0,0,1,25,23Z" style="fill:#ced1ea"/><path d="M38,23a3.587,3.587,0,0,1-2.817-1,.873.873,0,0,0-.183.5c0,.83,1.34,1.5,3,1.5s3-.67,3-1.5a.873.873,0,0,0-.183-.5A3.587,3.587,0,0,1,38,23Z" style="fill:#ced1ea"/><path d="M32,37a2.682,2.682,0,0,0,2.716-1.725C32.008,34.117,32,32,32,32s-.008,2.117-2.716,3.275A2.682,2.682,0,0,0,32,37Z" style="fill:#c22026"/><path d="M28,3a2,2,0,0,0,2,2h3.858c.213,0,.425.009.634.025a7.446,7.446,0,0,1,5,2.635,1.993,1.993,0,0,0,3.5-1.278A11.956,11.956,0,0,0,33,1H30A2,2,0,0,0,28,3Z" style="fill:#eb2335"/><path d="M22,3a2,2,0,0,0,2,2h1a2,2,0,0,0,0-4H24A2,2,0,0,0,22,3Z" style="fill:#eb2335"/><path d="M44.74,28.59A15.026,15.026,0,0,1,40,30a20.344,20.344,0,0,1-5-1l.31,1.24c.531,2.123,1.387,3.673,3.573,3.757C38.959,34,40,34,40,34c5.577,0,5.969-5.177,6-5.908,0-.029,0-.065,0-.092C46,28,45.49,28.26,44.74,28.59Z" style="fill:#ededff"/><path d="M24,34s1.041,0,1.117,0c2.186-.084,3.042-1.634,3.573-3.757L29,29a20.344,20.344,0,0,1-5,1,15.026,15.026,0,0,1-4.74-1.41C18.51,28.26,18,28,18,28c0,.027,0,.063,0,.092C18.031,28.823,18.423,34,24,34Z" style="fill:#ededff"/><circle cx="32" cy="60" r="2" style="fill:#2a2e33"/><path d="M57.253,42.343a2,2,0,0,0-.532,2.778A12.637,12.637,0,0,1,59,52.2V55a2,2,0,0,0,4,0V54a19.927,19.927,0,0,0-3.192-11.392A2,2,0,0,0,57.253,42.343Z" style="fill:#eb2335"/><path d="M2.688,57a2,2,0,0,0,2-2V52.2a12.635,12.635,0,0,1,2.279-7.082A2,2,0,0,0,4.5,42.177,19.691,19.691,0,0,0,1,54v2.064A1.994,1.994,0,0,0,2.688,57Z" style="fill:#eb2335"/></g></svg>