<svg xmlns="http://www.w3.org/2000/svg" viewBox="0 0 64 64"><g id="_21-milk_and_cookie" data-name="21-milk and cookie"><path d="M54,59h7a3.995,3.995,0,0,1-4,4H29a4,4,0,0,1-4-4H54Z" style="fill:#eb2335"/><path d="M57,61a3.97,3.97,0,0,1,2.622,1c.067-.058.144-.107.208-.17A4.025,4.025,0,0,0,61,59H25a3.974,3.974,0,0,0,1.378,3A4,4,0,0,1,29,61Z" style="fill:#009e60"/><path d="M57,47H35a3.995,3.995,0,0,1,4-4H53A4,4,0,0,1,57,47Z" style="fill:#c47952"/><path d="M56,55H34a3.995,3.995,0,0,1,4-4H52A4,4,0,0,1,56,55Z" style="fill:#c47952"/><path d="M54,59H32a3.995,3.995,0,0,1,4-4H50A4,4,0,0,1,54,59Z" style="fill:#c47952"/><path d="M51,51H29a3.995,3.995,0,0,1,4-4H47A4,4,0,0,1,51,51Z" style="fill:#c47952"/><path d="M23.49,28H4.51c.06-.13.12-.25.18-.38l.23-.47A15.985,15.985,0,0,0,6.4,22.63L8,13H20l1.6,9.63a15.985,15.985,0,0,0,1.48,4.52l.23.47C23.37,27.75,23.43,27.87,23.49,28Z" style="fill:#ebebff"/><path d="M20,9a2.006,2.006,0,0,1,2,2,2.015,2.015,0,0,1-2,2H8a2.006,2.006,0,0,1-2-2A2.015,2.015,0,0,1,8,9Z" style="fill:#ebebff"/><path d="M23.49,28H4.51A16.015,16.015,0,0,0,3,34.78V61c0,1.1,4.92,2,11,2s11-.9,11-2V34.78A16.015,16.015,0,0,0,23.49,28Z" style="fill:#edf4ed"/><path d="M21.41,10.41A1.955,1.955,0,0,1,20,11H8a2,2,0,0,1-1.721-1A1.963,1.963,0,0,0,6,11a2.006,2.006,0,0,0,2,2H20a1.984,1.984,0,0,0,1.721-3A1.938,1.938,0,0,1,21.41,10.41Z" style="fill:#a4afe6"/><path d="M9.521,26.957a5.984,5.984,0,0,0,.6-2.021l.487-4.378A4,4,0,0,1,14.58,17h6.085L20,13H8L6.4,22.63a15.985,15.985,0,0,1-1.48,4.52l-.23.47c-.06.13-.12.25-.18.38H9Z" style="fill:#ccf"/><path d="M23,60H17A10,10,0,0,1,7,50V35.305a14,14,0,0,1,1.478-6.261L9,28H4.51A16.015,16.015,0,0,0,3,34.78V61c0,1.1,4.92,2,11,2s11-.9,11-2V58A2,2,0,0,1,23,60Z" style="fill:#e2e6d8"/><polygon points="18 1.31 17.66 4.3 14.08 6.97 14.76 1 18 1.31" style="fill:#eb2335"/><polygon points="17.66 4.3 17.1 9.27 13.52 11.94 14.08 6.97 17.66 4.3" style="fill:#009e60"/><polygon points="17.1 9.27 16.55 14.24 16.54 14.24 12.96 16.92 13.52 11.94 17.1 9.27" style="fill:#eb2335"/><polygon points="16.55 14.24 15.99 19.22 15.97 19.22 12.39 21.89 12.96 16.92 16.54 14.24 16.55 14.24" style="fill:#009e60"/><polygon points="15.99 19.22 15.43 24.19 15.41 24.19 11.83 26.87 12.39 21.89 15.97 19.22 15.99 19.22" style="fill:#eb2335"/><polygon points="15.43 24.19 15 28 11.7 28 11.83 26.87 15.41 24.19 15.43 24.19" style="fill:#009e60"/><polygon points="17.1 9.27 17.13 9 13.851 9 13.626 11 16.909 11 17.1 9.27" style="fill:#ccf"/><polygon points="13.626 11 13.52 11.94 13.401 13 16.687 13 16.909 11 13.626 11" style="fill:#808dd1"/><path d="M55.622,44A4,4,0,0,1,53,45H39a3.97,3.97,0,0,1-2.622-1c-.068.058-.144.107-.208.17A4.025,4.025,0,0,0,35,47H57A3.974,3.974,0,0,0,55.622,44Z" style="fill:#ab623c"/><path d="M49.622,48A4,4,0,0,1,47,49H33a3.97,3.97,0,0,1-2.622-1c-.068.058-.144.107-.208.17A4.025,4.025,0,0,0,29,51H51A3.974,3.974,0,0,0,49.622,48Z" style="fill:#ab623c"/><path d="M54.622,52A4,4,0,0,1,52,53H38a3.97,3.97,0,0,1-2.622-1c-.068.058-.144.107-.208.17A4.025,4.025,0,0,0,34,55H56A3.974,3.974,0,0,0,54.622,52Z" style="fill:#ab623c"/><path d="M52.622,56A4,4,0,0,1,50,57H36a3.97,3.97,0,0,1-2.622-1c-.068.058-.144.107-.208.17A4.025,4.025,0,0,0,32,59H54A3.974,3.974,0,0,0,52.622,56Z" style="fill:#ab623c"/><path d="M31.43,61H29a4,4,0,0,0-2.622,1,4.151,4.151,0,0,1-.565-.6A3.981,3.981,0,0,0,29,63h5.883A3.993,3.993,0,0,1,31.43,61Z" style="fill:#c22026"/><path d="M29,61h2.43a4,4,0,0,1-.342-.735L30.667,59H25a3.907,3.907,0,0,0,.095.851c.011.05.032.095.045.143a3.912,3.912,0,0,0,.229.664c.011.025.027.047.038.071a4.133,4.133,0,0,0,.4.66l0,.006a4.151,4.151,0,0,0,.565.6A4,4,0,0,1,29,61Z" style="fill:#007145"/><path d="M23.442,28H19.225l.633,1.9A22.228,22.228,0,0,1,21,36.937V43a2,2,0,0,0,4,0V36.937a26.217,26.217,0,0,0-1.347-8.3Z" style="fill:#f6fcfc"/><path d="M19.671,21.027a2,2,0,0,0-1.644,2.3l.167,1A2,2,0,0,0,20.164,26a2.071,2.071,0,0,0,.331-.027,1.993,1.993,0,0,0,1.574-1.383A16.661,16.661,0,0,1,21.6,22.63l-.17-1.024A2.006,2.006,0,0,0,19.671,21.027Z" style="fill:#fffefe"/><rect x="9" y="13" width="10" height="2" rx="1" ry="1" style="fill:#ebebff"/><rect x="21" y="46" width="4" height="5" rx="2" ry="2" style="fill:#f6fcfc"/><path d="M10.5,42V41A1.5,1.5,0,0,0,9,39.5H8a.5.5,0,0,1-.5-.5V38a.5.5,0,0,1,.5-.5h2a.5.5,0,0,0,0-1H8A1.5,1.5,0,0,0,6.5,38v1A1.5,1.5,0,0,0,8,40.5H9a.5.5,0,0,1,.5.5v1a.5.5,0,0,1-.5.5H7a.5.5,0,0,0,0,1H9A1.5,1.5,0,0,0,10.5,42Z" style="fill:#414952"/><path d="M12,43.5a.5.5,0,0,0,.5-.5V41.5h2V43a.5.5,0,0,0,1,0V38.5a2,2,0,0,0-3.836-.783,1.867,1.867,0,0,0-.164.783V43A.5.5,0,0,0,12,43.5Zm.583-5.392A1,1,0,0,1,14.5,38.5v2h-2v-2A.915.915,0,0,1,12.583,38.108Z" style="fill:#414952"/><path d="M16.5,48.5a2,2,0,0,0-2,2V55a.5.5,0,0,0,1,0V53.5h2V55a.5.5,0,0,0,1,0V50.5A2,2,0,0,0,16.5,48.5Zm-1,4v-2a1,1,0,0,1,2,0v2Z" style="fill:#414952"/><path d="M21,36.5a.5.5,0,0,0-.5.5v4.349l-3.084-4.626A.5.5,0,0,0,16.5,37v6a.5.5,0,0,0,1,0V38.651l3.084,4.626A.5.5,0,0,0,21,43.5a.519.519,0,0,0,.145-.021A.5.5,0,0,0,21.5,43V37A.5.5,0,0,0,21,36.5Z" style="fill:#414952"/><path d="M13,48.5H9a.5.5,0,0,0,0,1h1.5V55a.5.5,0,0,0,1,0V49.5H13a.5.5,0,0,0,0-1Z" style="fill:#414952"/><rect x="40" y="43" width="12" height="2" rx="1" ry="1" style="fill:#de7f4d"/><rect x="37" y="55" width="12" height="2" rx="1" ry="1" style="fill:#de7f4d"/><rect x="33" y="47" width="8" height="2" rx="1" ry="1" style="fill:#de7f4d"/><rect x="43" y="47" width="4" height="2" rx="1" ry="1" style="fill:#de7f4d"/><rect x="38" y="51" width="8" height="2" rx="1" ry="1" style="fill:#de7f4d"/><rect x="48" y="51" width="4" height="2" rx="1" ry="1" style="fill:#de7f4d"/><rect x="32" y="59" width="19" height="2" rx="1" ry="1" style="fill:#00c477"/><rect x="52" y="59" width="5" height="2" rx="1" ry="1" style="fill:#00c477"/><path d="M39,39a1,1,0,0,1-1-1,3.564,3.564,0,0,1,1.293-2.707c.49-.49.707-.731.707-1.293s-.217-.8-.707-1.293a3.48,3.48,0,0,1,0-5.414c.49-.49.707-.731.707-1.293a1,1,0,0,1,2,0,3.564,3.564,0,0,1-1.293,2.707C40.217,29.2,40,29.438,40,30s.217.8.707,1.293a3.48,3.48,0,0,1,0,5.414C40.217,37.2,40,37.438,40,38A1,1,0,0,1,39,39Z" style="fill:#ffd48a"/><path d="M45,39a1,1,0,0,1-1-1,3.564,3.564,0,0,1,1.293-2.707c.49-.49.707-.731.707-1.293s-.217-.8-.707-1.293a3.48,3.48,0,0,1,0-5.414c.49-.49.707-.731.707-1.293a1,1,0,0,1,2,0,3.564,3.564,0,0,1-1.293,2.707C46.217,29.2,46,29.438,46,30s.217.8.707,1.293a3.48,3.48,0,0,1,0,5.414C46.217,37.2,46,37.438,46,38A1,1,0,0,1,45,39Z" style="fill:#ffd48a"/><path d="M51,39a1,1,0,0,1-1-1,3.564,3.564,0,0,1,1.293-2.707c.49-.49.707-.731.707-1.293s-.217-.8-.707-1.293a3.48,3.48,0,0,1,0-5.414c.49-.49.707-.731.707-1.293a1,1,0,0,1,2,0,3.564,3.564,0,0,1-1.293,2.707C52.217,29.2,52,29.438,52,30s.217.8.707,1.293a3.48,3.48,0,0,1,0,5.414C52.217,37.2,52,37.438,52,38A1,1,0,0,1,51,39Z" style="fill:#ffd48a"/><path d="M6.5,43a.5.5,0,0,0,.5.5v-1A.5.5,0,0,0,6.5,43Z" style="fill:#272b30"/><path d="M6.5,38v1A1.49,1.49,0,0,0,7,40.11V36.89A1.49,1.49,0,0,0,6.5,38Z" style="fill:#272b30"/></g></svg>