<svg xmlns="http://www.w3.org/2000/svg" viewBox="0 0 64 64"><g id="_25-snowma" data-name="25-snowma"><polygon points="20.71 11 43.29 11 43.18 12.54 43 15 21 15 20.82 12.54 20.71 11" style="fill:#992022"/><path d="M21,15H43l.18-2.46c5.03.54,8.32,1.44,8.32,2.46,0,1.66-8.73,3-19.5,3s-19.5-1.34-19.5-3c0-1.02,3.29-1.92,8.32-2.46Z" style="fill:#414952"/><path d="M41.85,1a2,2,0,0,1,2,2.14L43.29,11H20.71l-.56-7.86a2,2,0,0,1,2-2.14Z" style="fill:#2a2e33"/><path d="M54.37,3.63A3.99,3.99,0,0,0,55,8.05s-4.29,1.4-2.53,5.06c0,0-1.89-1.9-5.05,1.26A6.2,6.2,0,0,0,43,15a6.2,6.2,0,0,0,.63-4.42c3.16-3.16,1.26-5.05,1.26-5.05C48.55,7.29,49.95,3,49.95,3A3.99,3.99,0,0,0,54.37,3.63Z" style="fill:#00613b"/><path d="M56,11c0,3,3,4,3,4s-3,1-3,4c0,0-4.5-2.29-6,2,0,0,0-3-5-3a6.925,6.925,0,0,0-4-3,6.925,6.925,0,0,0,4-3c5,0,5-3,5-3C51.5,13.29,56,11,56,11Z" style="fill:#009e60"/><ellipse cx="27" cy="23" rx="1" ry="2" style="fill:#2a2e33"/><ellipse cx="38" cy="23" rx="1" ry="2" style="fill:#2a2e33"/><rect x="21" y="49" width="10" height="6" style="fill:#009e60"/><path d="M43,39.24v1.52A9.474,9.474,0,0,1,42,45H36V35h6A9.474,9.474,0,0,1,43,39.24Z" style="fill:#009e60"/><path d="M22,35h6V45H22a9.474,9.474,0,0,1-1-4.24V39.24A9.474,9.474,0,0,1,22,35Z" style="fill:#009e60"/><path d="M31,55v2a2.006,2.006,0,0,1-2,2H23a2.006,2.006,0,0,1-2-2V55Z" style="fill:#c22026"/><polygon points="22 45 28 45 31 45 31 49 21 49 21 45 22 45" style="fill:#c22026"/><path d="M44,35a5.006,5.006,0,0,1,3.54,8.54,5.178,5.178,0,0,1-1.59,1.07A5.064,5.064,0,0,1,44,45H42a9.474,9.474,0,0,0,1-4.24V39.24A9.474,9.474,0,0,0,42,35Z" style="fill:#c22026"/><polygon points="36 35 36 45 31 45 28 45 28 35 36 35" style="fill:#c22026"/><path d="M20,35h2a9.474,9.474,0,0,0-1,4.24v1.52A9.474,9.474,0,0,0,22,45H20a5.064,5.064,0,0,1-1.95-.39A5,5,0,0,1,20,35Z" style="fill:#c22026"/><path d="M43.74,17.39A13.979,13.979,0,0,1,42,34.8V35H22.2a13.979,13.979,0,0,1-1.94-17.61A102.246,102.246,0,0,0,32,18,104.569,104.569,0,0,0,43.74,17.39ZM39,23c0-1.1-.45-2-1-2s-1,.9-1,2,.45,2,1,2S39,24.1,39,23Zm-5,6.31V27.69A1.694,1.694,0,0,0,32.31,26a1.725,1.725,0,0,0-.6.11L26,29l5.8,1.95a1.841,1.841,0,0,0,.41.05h.1A1.694,1.694,0,0,0,34,29.31ZM28,23c0-1.1-.45-2-1-2s-1,.9-1,2,.45,2,1,2S28,24.1,28,23Z" style="fill:#f0f0ff"/><path d="M44,45a5.064,5.064,0,0,0,1.95-.39l.05.14A22.985,22.985,0,0,1,55,63H9a22.97,22.97,0,0,1,9-18.25l.05-.14A5.064,5.064,0,0,0,20,45h1V57a2.006,2.006,0,0,0,2,2h6a2.006,2.006,0,0,0,2-2V45H44Z" style="fill:#f0f0ff"/><polygon points="39 15 43 15 43.18 12.54 43.29 11 39.267 11 39 15" style="fill:#ae0000"/><path d="M41.85,1H39.933l-.666,10H43.29l.56-7.86A2,2,0,0,0,41.85,1Z" style="fill:#414952"/><path d="M34,29.31A1.694,1.694,0,0,1,32.31,31h-.1a1.841,1.841,0,0,1-.41-.05L26,29l5.71-2.89a1.725,1.725,0,0,1,.6-.11A1.694,1.694,0,0,1,34,27.69Z" style="fill:#f4942c"/><path d="M32,17c8.837,0,16-1.567,16-3.5a.818.818,0,0,0-.053-.229,46.12,46.12,0,0,0-4.767-.731L43,15H21l-.18-2.46a46.12,46.12,0,0,0-4.767.731A.818.818,0,0,0,16,13.5C16,15.433,23.163,17,32,17Z" style="fill:#2a2e33"/><polygon points="31.733 11 32 15 39 15 39.267 11 31.733 11" style="fill:#ff273a"/><polygon points="39.267 11 39.933 1 31.067 1 31.733 11 39.267 11" style="fill:#636978"/><path d="M49.95,3s-1.4,4.29-5.06,2.53c0,0,1.9,1.89-1.26,5.05A6.2,6.2,0,0,1,43,15L54.37,3.63A3.99,3.99,0,0,1,49.95,3Z" style="fill:#00613b"/><path d="M54.37,3.63,43,15a6.2,6.2,0,0,1,4.42-.63c3.16-3.16,5.05-1.26,5.05-1.26C50.71,9.45,55,8.05,55,8.05A3.99,3.99,0,0,1,54.37,3.63Z" style="fill:#004a2d"/><path d="M45,18c5,0,5,3,5,3,1.5-4.29,6-2,6-2,0-3,3-4,3-4H41A6.925,6.925,0,0,1,45,18Z" style="fill:#007145"/><path d="M56,11s-4.5,2.29-6-2c0,0,0,3-5,3a6.925,6.925,0,0,1-4,3H59S56,14,56,11Z" style="fill:#009e60"/><circle cx="41" cy="13" r="2" style="fill:#eb2335"/><path d="M46.84,11.78a2,2,0,1,1-3.47-1.94,1.988,1.988,0,0,1,1.52-.83A.375.375,0,0,1,45,9a2,2,0,0,1,1.84,2.78Z" style="fill:#eb2335"/><path d="M47,15a2.006,2.006,0,0,1-2,2,2.08,2.08,0,0,1-.71-.13A2,2,0,1,1,47,15Z" style="fill:#eb2335"/><path d="M44,14a1.958,1.958,0,0,1,.2-.816,1.992,1.992,0,1,0,2.634,2.609A1.945,1.945,0,0,1,46,16,2.006,2.006,0,0,1,44,14Z" style="fill:#911a1c"/><path d="M44,10a1.958,1.958,0,0,1,.2-.816,1.992,1.992,0,1,0,2.634,2.609A1.945,1.945,0,0,1,46,12,2.006,2.006,0,0,1,44,10Z" style="fill:#911a1c"/><path d="M40,12a1.958,1.958,0,0,1,.2-.816,1.992,1.992,0,1,0,2.634,2.609A1.945,1.945,0,0,1,42,14,2.006,2.006,0,0,1,40,12Z" style="fill:#911a1c"/><ellipse cx="46" cy="14" rx="0.413" ry="0.574" transform="translate(3.581 36.642) rotate(-45.02)" style="fill:#f6fafd"/><ellipse cx="46" cy="10" rx="0.413" ry="0.574" transform="translate(6.411 35.469) rotate(-45.02)" style="fill:#f6fafd"/><ellipse cx="42" cy="12" rx="0.413" ry="0.574" transform="translate(3.824 33.226) rotate(-45.02)" style="fill:#f6fafd"/><path d="M32.31,31h-.1a1.841,1.841,0,0,1-.41-.05L28.374,29.8,26,31l5.8,1.95a1.841,1.841,0,0,0,.41.05h.1A1.694,1.694,0,0,0,34,31.31V29.69a1.7,1.7,0,0,0-.019-.19A1.689,1.689,0,0,1,32.31,31Z" style="fill:#ced1ea"/><path d="M21.753,23.115a1.994,1.994,0,0,1,2.26-1.82c.79.106,1.549.193,2.293.271.181-.348.425-.566.694-.566.3,0,.571.278.755.706a58.019,58.019,0,0,0,9.446.106c.183-.489.472-.812.8-.812.293,0,.555.26.738.665a30.434,30.434,0,0,0,6.438-1.373,13.882,13.882,0,0,0-1.436-2.9A104.569,104.569,0,0,1,32,18a102.246,102.246,0,0,1-11.74-.61A13.979,13.979,0,0,0,22.2,35H26C21.656,32.828,21.505,26.463,21.753,23.115Z" style="fill:#a4afe6"/><circle cx="25" cy="29" r="3" style="fill:#ffc2c2"/><path d="M32.31,26a1.725,1.725,0,0,0-.6.11L26,29l7.867-1.967A1.7,1.7,0,0,0,32.31,26Z" style="fill:#f4ad1c"/><path d="M24,52a3.972,3.972,0,0,1,1.38-3H21v6h3Z" style="fill:#007145"/><path d="M24,57V55H21v2a2.006,2.006,0,0,0,2,2h3A2,2,0,0,1,24,57Z" style="fill:#911a1c"/><path d="M28,48h3V45H21v4h4.38A3.963,3.963,0,0,1,28,48Z" style="fill:#911a1c"/><path d="M29,57a2,2,0,0,0,2-2H27A2,2,0,0,0,29,57Z" style="fill:#ff273a"/><path d="M29,49a2,2,0,0,0-2,2v4h4V51A2,2,0,0,0,29,49Z" style="fill:#00c477"/><path d="M46,44.75l-.05-.14A5.064,5.064,0,0,1,44,45H31v3H46.111a3.789,3.789,0,0,0,2.465-.93A23.134,23.134,0,0,0,46,44.75Z" style="fill:#a4afe6"/><path d="M29,59H23a2.006,2.006,0,0,1-2-2V45H20a5.064,5.064,0,0,1-1.95-.39l-.05.14A22.97,22.97,0,0,0,9,63H22.778A7.891,7.891,0,0,1,15,55V54c0-.188.008-.374.025-.557a1.494,1.494,0,0,1,2.975.2V59a2,2,0,0,0,2,2h8a2,2,0,0,0,2-2v-.279A1.975,1.975,0,0,1,29,59Z" style="fill:#a4afe6"/><path d="M43.619,22.021a2,2,0,0,0-1.691,2.267A12.03,12.03,0,0,1,42,26a4.175,4.175,0,0,1-.616,2.377c-.121.24-.249.5-.382.783a2,2,0,1,0,3.63,1.68c.114-.245.224-.464.327-.669.053-.106.1-.211.157-.317a13.92,13.92,0,0,0,.875-4.674,11.861,11.861,0,0,0-.1-1.468A2,2,0,0,0,43.619,22.021Z" style="fill:#fffefe"/><path d="M50.54,53.153a2,2,0,0,0-1.069,2.618,23.522,23.522,0,0,1,1.218,3.69A2,2,0,0,0,52.634,61a1.995,1.995,0,0,0,1.988-2.159c-.038-.208-.086-.412-.129-.618a27.621,27.621,0,0,0-1.335-4A2,2,0,0,0,50.54,53.153Z" style="fill:#fffefe"/><path d="M47.912,48.926a2,2,0,0,0-.586,2.767l.236.37A1.994,1.994,0,0,0,51.028,50.1q-.339-.5-.7-.983A2,2,0,0,0,47.912,48.926Z" style="fill:#fffefe"/><circle cx="39" cy="29" r="3" style="fill:#ffc2c2"/><path d="M36,42v3h6a9.469,9.469,0,0,0,.912-3Z" style="fill:#007145"/><path d="M21.088,42A9.469,9.469,0,0,0,22,45h6V42Z" style="fill:#007145"/><path d="M45,42H42.912A9.469,9.469,0,0,1,42,45h2a5.064,5.064,0,0,0,1.95-.39,5.178,5.178,0,0,0,1.59-1.07,4.977,4.977,0,0,0,1.34-4.608A3.994,3.994,0,0,1,45,42Z" style="fill:#911a1c"/><polygon points="28 42 28 45 31 45 36 45 36 42 28 42" style="fill:#911a1c"/><path d="M19,42a3.994,3.994,0,0,1-3.88-3.068A4.982,4.982,0,0,0,20,45h2a9.469,9.469,0,0,1-.912-3Z" style="fill:#911a1c"/><path d="M42.729,37A9.495,9.495,0,0,0,42,35H36v2Z" style="fill:#00c477"/><path d="M28,37V35H22a9.495,9.495,0,0,0-.729,2Z" style="fill:#00c477"/><path d="M44,37a1,1,0,0,0,0-2H42a9.495,9.495,0,0,1,.729,2Z" style="fill:#ff273a"/><rect x="28" y="35" width="8" height="2" style="fill:#ff273a"/><path d="M19,36a1,1,0,0,0,1,1h1.271A9.495,9.495,0,0,1,22,35H20A1,1,0,0,0,19,36Z" style="fill:#ff273a"/></g></svg>