<svg xmlns="http://www.w3.org/2000/svg" viewBox="0 0 64 64"><g id="_26-_reindeer" data-name="26- reindeer"><path d="M29,2.41v1a1.415,1.415,0,0,1-.41,1l-4,4A2.006,2.006,0,0,0,24,9.83V14l2.42-1.94a1.551,1.551,0,1,1,1.96,2.4L25.67,16.5l2.05,3.08a14.929,14.929,0,0,0-2.94,1.14l-2.53-3.16A5.7,5.7,0,0,1,21,14l-3.26-1.56A1.3,1.3,0,0,1,17,11.29a1.337,1.337,0,0,1,1.94-1.15L21,11V8.66a4,4,0,0,1,1.17-2.83l4.42-4.42a1.414,1.414,0,0,1,2.41,1Z" style="fill:#7c4026"/><path d="M52,18v1.94A6.056,6.056,0,0,1,45.94,26h-.7a16.584,16.584,0,0,0-2.66-3.01A11.724,11.724,0,0,0,52,18Z" style="fill:#ffe9c4"/><path d="M51,63H40a6.389,6.389,0,0,0,3.08-.82l.6-.33a6.433,6.433,0,0,0,2.43-2.37,6.564,6.564,0,0,0,.84-2.49L47,57l.42.21A6.487,6.487,0,0,1,51,63Z" style="fill:#ad864f"/><path d="M52,18a11.724,11.724,0,0,1-9.42,4.99,14.882,14.882,0,0,0-2.64-1.88L40,21S43,18,52,18Z" style="fill:#ad864f"/><path d="M47,56.2a6.837,6.837,0,0,1-.05.79,6.564,6.564,0,0,1-.84,2.49,6.433,6.433,0,0,1-2.43,2.37l-.6.33A6.389,6.389,0,0,1,40,63H37a2.006,2.006,0,0,0,2-2,2.015,2.015,0,0,0-2-2V56a4.985,4.985,0,0,0-5-5,15.935,15.935,0,0,0,10.22-3.68l3.44,4.94A6.446,6.446,0,0,1,47,56.2Z" style="fill:#ffe9c4"/><path d="M47,11.29a1.3,1.3,0,0,1-.74,1.15L43,14a5.7,5.7,0,0,1-1.25,3.56l-2.53,3.16a14.929,14.929,0,0,0-2.94-1.14l2.05-3.08-2.71-2.04a1.551,1.551,0,1,1,1.96-2.4L40,14V9.83a2.006,2.006,0,0,0-.59-1.42l-4-4a1.415,1.415,0,0,1-.41-1v-1a1.414,1.414,0,0,1,2.41-1l4.42,4.42A4,4,0,0,1,43,8.66V11l2.06-.86A1.337,1.337,0,0,1,47,11.29Z" style="fill:#7c4026"/><path d="M24.78,20.72a14.929,14.929,0,0,1,2.94-1.14,16.082,16.082,0,0,1,8.56,0,14.929,14.929,0,0,1,2.94,1.14q.375.18.72.39a14.882,14.882,0,0,1,2.64,1.88A16.584,16.584,0,0,1,45.24,26a16,16,0,1,1-26.48,0,16.584,16.584,0,0,1,2.66-3.01,14.882,14.882,0,0,1,2.64-1.88Q24.405,20.9,24.78,20.72ZM32,42c2.21,0,4-.9,4-2s-1.79-2-4-2-4,.9-4,2S29.79,42,32,42Zm9-8c0-1.66-.9-3-2-3s-2,1.34-2,3,.9,3,2,3S41,35.66,41,34ZM27,34c0-1.66-.9-3-2-3s-2,1.34-2,3,.9,3,2,3S27,35.66,27,34Z" style="fill:#ffd48a"/><ellipse cx="39" cy="34" rx="2" ry="3" style="fill:#2a2e33"/><path d="M38.41,59.59A1.955,1.955,0,0,1,39,61a2.006,2.006,0,0,1-2,2H27a2.015,2.015,0,0,1-2-2,2.006,2.006,0,0,1,2-2H37A1.955,1.955,0,0,1,38.41,59.59Z" style="fill:#ffba51"/><path d="M37,56v3H27V56a5,5,0,1,1,10,0Z" style="fill:#ffd45d"/><ellipse cx="32" cy="40" rx="4" ry="2" style="fill:#7c4026"/><path d="M32,51a5,5,0,0,0-5,5v3a2.006,2.006,0,0,0-2,2,2.015,2.015,0,0,0,2,2H24a6.389,6.389,0,0,1-3.08-.82l-.6-.33a6.433,6.433,0,0,1-2.43-2.37,6.564,6.564,0,0,1-.84-2.49A6.837,6.837,0,0,1,17,56.2a6.446,6.446,0,0,1,1.34-3.94l3.44-4.94A15.935,15.935,0,0,0,32,51Z" style="fill:#ffe9c4"/><ellipse cx="25" cy="34" rx="2" ry="3" style="fill:#2a2e33"/><path d="M24,21l.06.11a14.882,14.882,0,0,0-2.64,1.88A11.724,11.724,0,0,1,12,18C21,18,24,21,24,21Z" style="fill:#ad864f"/><path d="M24,63H13a6.487,6.487,0,0,1,3.58-5.79L17,57l.05-.01a6.564,6.564,0,0,0,.84,2.49,6.433,6.433,0,0,0,2.43,2.37l.6.33A6.389,6.389,0,0,0,24,63Z" style="fill:#ad864f"/><path d="M21.42,22.99A16.584,16.584,0,0,0,18.76,26h-.7A6.056,6.056,0,0,1,12,19.94V18A11.724,11.724,0,0,0,21.42,22.99Z" style="fill:#ffe9c4"/><path d="M42.22,43.32A15.989,15.989,0,0,1,16.134,33.006,16.18,16.18,0,0,0,16,35a16,16,0,1,0,32,0,16.18,16.18,0,0,0-.134-1.994A16,16,0,0,1,42.22,43.32Z" style="fill:#f2c373"/><path d="M21.42,26.99a14.882,14.882,0,0,1,2.64-1.88q.345-.21.72-.39a14.929,14.929,0,0,1,2.94-1.14,16.082,16.082,0,0,1,8.56,0,14.929,14.929,0,0,1,2.94,1.14q.375.18.72.39a14.882,14.882,0,0,1,2.64,1.88A16.584,16.584,0,0,1,45.24,30a15.988,15.988,0,0,1,2.626,7.006A15.88,15.88,0,0,0,45.24,26a16.584,16.584,0,0,0-2.66-3.01,14.882,14.882,0,0,0-2.64-1.88q-.345-.21-.72-.39a14.929,14.929,0,0,0-2.94-1.14,16.082,16.082,0,0,0-8.56,0,14.929,14.929,0,0,0-2.94,1.14q-.375.18-.72.39a14.882,14.882,0,0,0-2.64,1.88A16.584,16.584,0,0,0,18.76,26a15.88,15.88,0,0,0-2.626,11.006A15.988,15.988,0,0,1,18.76,30,16.584,16.584,0,0,1,21.42,26.99Z" style="fill:#ffe0ab"/><path d="M35.443,39A5.5,5.5,0,0,1,32,40a5.5,5.5,0,0,1-3.443-1A1.361,1.361,0,0,0,28,40c0,1.1,1.79,2,4,2s4-.9,4-2A1.361,1.361,0,0,0,35.443,39Z" style="fill:#5d241d"/><path d="M35.443,41A5.5,5.5,0,0,1,32,42a5.5,5.5,0,0,1-3.443-1A1.361,1.361,0,0,0,28,42c0,1.1,1.79,2,4,2s4-.9,4-2A1.361,1.361,0,0,0,35.443,41Z" style="fill:#edc071"/><path d="M35,45.5c-2.391,0-2.5-1.353-2.5-1.5v0h0v0h0v0h0V42c0-.009-.005-.016-.005-.025-.164.01-.325.025-.495.025s-.331-.015-.5-.025c0,.009,0,.016,0,.025V44c0,.159-.115,1.505-2.5,1.505a.5.5,0,0,0,0,1,3.506,3.506,0,0,0,3-1.176A3.506,3.506,0,0,0,35,46.5a.5.5,0,0,0,0-1Z" style="fill:#6f3529"/><path d="M48.087,22.963a15.682,15.682,0,0,0,3.9-2.853c0-.057.009-.113.009-.17V18a11.724,11.724,0,0,1-9.42,4.99A16.584,16.584,0,0,1,45.24,26h.7a6.032,6.032,0,0,0,1.412-.172c-.028-.054-.05-.105-.081-.16A2,2,0,0,1,48.087,22.963Z" style="fill:#ffd58f"/><path d="M52,18c-.5,0-.974.012-1.438.03C49.175,19.867,44.838,21.838,44,21l-1.462-1.462A8.278,8.278,0,0,0,40,21l-.06.11a14.882,14.882,0,0,1,2.64,1.88A11.724,11.724,0,0,0,52,18Z" style="fill:#8a632c"/><path d="M21.462,19.538,20,21c-.838.838-5.175-1.133-6.562-2.97C12.974,18.012,12.5,18,12,18a11.724,11.724,0,0,0,9.42,4.99,14.882,14.882,0,0,1,2.64-1.88L24,21A8.278,8.278,0,0,0,21.462,19.538Z" style="fill:#8a632c"/><path d="M12,18v1.94c0,.057.007.113.009.17a15.682,15.682,0,0,0,3.9,2.853,2,2,0,0,1,.816,2.7c-.031.055-.053.106-.081.16A6.032,6.032,0,0,0,18.06,26h.7a16.584,16.584,0,0,1,2.66-3.01A11.724,11.724,0,0,1,12,18Z" style="fill:#ffd58f"/><path d="M43.556,49.239,42.22,47.32A15.935,15.935,0,0,1,32,51a4.9,4.9,0,0,1,4.75,3.514A4.941,4.941,0,0,1,37,56v3a2.015,2.015,0,0,1,2,2,2.006,2.006,0,0,1-2,2h1.893a2.075,2.075,0,0,0,2.08-1.664A2,2,0,0,0,39,59H38a8.612,8.612,0,0,1,3.2-6.674A7.746,7.746,0,0,0,43.556,49.239Z" style="fill:#ffda9c"/><path d="M20.444,49.239A7.746,7.746,0,0,0,22.8,52.326,8.612,8.612,0,0,1,26,59h-.893a2.075,2.075,0,0,0-2.08,1.664A2,2,0,0,0,25,63h2a2.015,2.015,0,0,1-2-2,2.006,2.006,0,0,1,2-2V56a5.094,5.094,0,0,1,5-5,15.935,15.935,0,0,1-10.22-3.68Z" style="fill:#ffda9c"/><path d="M46.95,56.99c.017-.149.02-.3.029-.452A9.455,9.455,0,0,0,45.7,52.323c-.016-.02-.026-.043-.041-.063L45.2,51.6a2,2,0,0,0-3.109,2.483A5.457,5.457,0,0,1,43,57a3.589,3.589,0,0,1-.056.641,2,2,0,0,0,1.609,2.327,2.115,2.115,0,0,0,.361.032,2,2,0,0,0,1.051-.3c.046-.073.1-.14.145-.215A6.564,6.564,0,0,0,46.95,56.99Z" style="fill:#fff2db"/><path d="M19.221,59.968a2,2,0,0,0,1.609-2.327A3.5,3.5,0,0,1,20.773,57a5.447,5.447,0,0,1,.908-2.914,1.994,1.994,0,0,0-2.643-2.828l-.7,1A6.446,6.446,0,0,0,17,56.2a6.837,6.837,0,0,0,.05.79,6.564,6.564,0,0,0,.84,2.49c.079.135.174.259.263.388a1.993,1.993,0,0,0,.706.132A2.117,2.117,0,0,0,19.221,59.968Z" style="fill:#fff2db"/><path d="M30,61a2.006,2.006,0,0,1,2-2H27a2.006,2.006,0,0,0-2,2,2.015,2.015,0,0,0,2,2h5a2.015,2.015,0,0,1-2-2Z" style="fill:#d67f31"/><rect x="32" y="60" width="6" height="2" rx="1" ry="1" style="fill:#faf180"/><path d="M37,58H33a3,3,0,0,1-3-3V53a2,2,0,0,1,1.6-1.959A4.985,4.985,0,0,0,27,56v3H37Z" style="fill:#f0af4c"/><path d="M35.54,52.46A5.022,5.022,0,0,0,32,51a1.209,1.209,0,0,0-.121.012A1.494,1.494,0,0,0,33,53.5c1.755,0,2.539,2.841,2.546,2.869A1.5,1.5,0,0,0,37,57.5h0V56A5.022,5.022,0,0,0,35.54,52.46Z" style="fill:#faf180"/><path d="M25.027,5.405A8.67,8.67,0,0,0,22,11.987v.123a8.668,8.668,0,0,0,1.734,5.2l.547.729a1,1,0,0,1-.353,1.5l-.069.034.921,1.15a14.929,14.929,0,0,1,2.94-1.14L25.67,16.5l2.71-2.04a1.551,1.551,0,1,0-1.96-2.4L24,14V9.83a2.006,2.006,0,0,1,.59-1.42l4-4a1.415,1.415,0,0,0,.41-1v-1a1.4,1.4,0,0,0-.279-.836A3.976,3.976,0,0,1,27.6,3.2Z" style="fill:#522a19"/><path d="M39.719,18.041l.547-.729A8.668,8.668,0,0,0,42,12.11v-.123a8.67,8.67,0,0,0-3.027-6.582L36.4,3.2a3.976,3.976,0,0,1-1.118-1.623A1.4,1.4,0,0,0,35,2.41v1a1.415,1.415,0,0,0,.41,1l4,4A2.006,2.006,0,0,1,40,9.83V14l-2.42-1.94a1.551,1.551,0,1,0-1.96,2.4l2.71,2.04-2.05,3.08a14.929,14.929,0,0,1,2.94,1.14l.921-1.15-.069-.034A1,1,0,0,1,39.719,18.041Z" style="fill:#522a19"/></g></svg>