<svg xmlns="http://www.w3.org/2000/svg" viewBox="0 0 64 64"><g id="_28-elf" data-name="28-elf"><ellipse cx="38" cy="27" rx="1" ry="2" style="fill:#008f57"/><path d="M52,55.68V63H12V55.68a6,6,0,0,1,4.54-5.82l1.25-.73A8.235,8.235,0,0,0,16,54a22.282,22.282,0,0,0,9-2v5c7,0,7-5,7-5s0,5,7,5V52a22.282,22.282,0,0,0,9,2,8.235,8.235,0,0,0-1.79-4.87l1.25.73A6,6,0,0,1,52,55.68Z" style="fill:#eb2335"/><path d="M49,13v5a2.006,2.006,0,0,1-2,2H17a2.006,2.006,0,0,1-2-2V13l3.96,1.13L22,15l5-3,5,3,5-3,5,3,3.04-.87Z" style="fill:#00c477"/><path d="M17.79,49.13A6.475,6.475,0,0,1,23,47h5c0,1.11,1.79,2,4,2s4-.89,4-2h5a6.475,6.475,0,0,1,5.21,2.13A8.235,8.235,0,0,1,48,54a22.282,22.282,0,0,1-9-2v5c-7,0-7-5-7-5s0,5-7,5V52a22.282,22.282,0,0,1-9,2A8.235,8.235,0,0,1,17.79,49.13Z" style="fill:#00c477"/><path d="M45,14l.04.13L42,15l-5-3-5,3-5-3-5,3-3.04-.87L19,14l-.17-.67a2.99,2.99,0,0,0-4.02-2.05L9,14a4.941,4.941,0,0,0-3-1,4.619,4.619,0,0,0-.99.1L5,13l7.43-8.11A12.024,12.024,0,0,1,21.28,1H33A12,12,0,0,1,45,13Z" style="fill:#c22026"/><path d="M44.37,32.99A13,13,0,0,1,19.04,30c-.03-.33-.04-.66-.04-1V24c7.19,0,13-1.79,13-4,0,2.21,5.81,4,13,4v5c0,.34-.01.67-.04,1A12.884,12.884,0,0,1,44.37,32.99ZM39,27c0-1.1-.45-2-1-2s-1,.9-1,2,.45,2,1,2S39,28.1,39,27ZM27,27c0-1.1-.45-2-1-2s-1,.9-1,2,.45,2,1,2S27,28.1,27,27Z" style="fill:#ffc7b5"/><path d="M45,20v4c-7.19,0-13-1.79-13-4Z" style="fill:#92563a"/><path d="M36,41.37V47c0,1.11-1.79,2-4,2s-4-.89-4-2V41.37a13.013,13.013,0,0,0,8,0Z" style="fill:#ffa48f"/><path d="M19,20H32c0,2.21-5.81,4-13,4Z" style="fill:#92563a"/><ellipse cx="26" cy="27" rx="1" ry="2" style="fill:#008f57"/><path d="M55,21s-.98,11.7-10.63,11.99A12.884,12.884,0,0,0,44.96,30H45c5-1,7-6,7-6-3,0-7,3-7,3V24A17.935,17.935,0,0,1,55,21Z" style="fill:#ffc7b5"/><path d="M9,21s.98,11.7,10.63,11.99A12.884,12.884,0,0,1,19.04,30H19c-5-1-7-6-7-6,3,0,7,3,7,3V24A17.935,17.935,0,0,0,9,21Z" style="fill:#ffc7b5"/><path d="M52,24s-2,5-7,6h-.04c.03-.33.04-.66.04-1V27S49,24,52,24Z" style="fill:#ffe9c4"/><path d="M19.04,30H19c-5-1-7-6-7-6,3,0,7,3,7,3v2C19,29.34,19.01,29.67,19.04,30Z" style="fill:#ffe9c4"/><path d="M11,18a4.982,4.982,0,0,1-1.02,3.03C9.66,21.01,9.33,21,9,21c0,0,.03.34.12.9A4.938,4.938,0,0,1,6,23a5,5,0,0,1-.99-9.9A4.619,4.619,0,0,1,6,13a4.941,4.941,0,0,1,3,1A5.01,5.01,0,0,1,11,18Z" style="fill:#ffd45d"/><path d="M30,48V44.566a1,1,0,0,1,1.3-.946A7.886,7.886,0,0,0,36,43.4V41.37a13.013,13.013,0,0,1-8,0V47c0,.845,1.04,1.56,2.511,1.854A.985.985,0,0,1,30,48Z" style="fill:#ff8d73"/><path d="M47,18H17a2.006,2.006,0,0,1-2-2v2a2.006,2.006,0,0,0,2,2H47a2.006,2.006,0,0,0,2-2V16A2.006,2.006,0,0,1,47,18Z" style="fill:#008f57"/><polygon points="45.04 14.13 42 15 37 12 32 15 27 12 22 15 18.96 14.13 15 13 15 15 18.96 16.13 22 17 27 14 32 17 37 14 42 17 45.04 16.13 49 15 49 13 45.04 14.13" style="fill:#00e088"/><path d="M45,30h-.04a12.884,12.884,0,0,1-.59,2.99,10.573,10.573,0,0,0,2.442-.352,12.976,12.976,0,0,0,1.263-3.918A8.6,8.6,0,0,1,45,30Z" style="fill:#ffa48f"/><path d="M45,27a22.025,22.025,0,0,1,3.19-1.917,1.982,1.982,0,0,1,.466-.842C49.749,23.081,52.115,21,55,21a17.935,17.935,0,0,0-10,3Z" style="fill:#ffa48f"/><path d="M15.344,24.241a1.982,1.982,0,0,1,.466.842A22.025,22.025,0,0,1,19,27V24A17.935,17.935,0,0,0,9,21C11.885,21,14.251,23.081,15.344,24.241Z" style="fill:#ffa48f"/><path d="M19.04,30H19a8.6,8.6,0,0,1-3.075-1.28,13.006,13.006,0,0,0,1.262,3.918,10.59,10.59,0,0,0,2.443.352A12.884,12.884,0,0,1,19.04,30Z" style="fill:#ffa48f"/><path d="M48.075,28.72a10.907,10.907,0,0,0,.052-2.93,1.831,1.831,0,0,1,.063-.707A22.025,22.025,0,0,0,45,27v2c0,.34-.01.67-.04,1H45A8.6,8.6,0,0,0,48.075,28.72Z" style="fill:#f1d0a7"/><path d="M15.873,25.79a10.907,10.907,0,0,0,.052,2.93A8.6,8.6,0,0,0,19,30h.04c-.03-.33-.04-.66-.04-1V27a22.025,22.025,0,0,0-3.19-1.917A1.831,1.831,0,0,1,15.873,25.79Z" style="fill:#f1d0a7"/><path d="M42,32A10,10,0,0,1,32,42,13.005,13.005,0,0,0,44.96,30c.03-.33.04-.66.04-1V24c-1.035,0-2.036-.041-3-.111Z" style="fill:#fdddd7"/><path d="M22,32V23.889c-.964.07-1.965.111-3,.111v5c0,.34.01.67.04,1A13,13,0,0,0,32,42,10,10,0,0,1,22,32Z" style="fill:#fdddd7"/><path d="M42,20v3.889c.964.07,1.965.111,3,.111V20Z" style="fill:#b46e5a"/><path d="M22,20H19v4c1.035,0,2.036-.041,3-.111Z" style="fill:#b46e5a"/><path d="M19,59a3.967,3.967,0,0,1,.789-2.365A21.874,21.874,0,0,0,25,55V52a22.41,22.41,0,0,1-8.339,1.984c-.219.008-.438.016-.661.016a8.235,8.235,0,0,1,1.79-4.87l-1.25.73A6,6,0,0,0,12,55.68V63H23A4,4,0,0,1,19,59Z" style="fill:#c22026"/><path d="M47.339,53.984A22.41,22.41,0,0,1,39,52v3a22.282,22.282,0,0,0,9,2A8.773,8.773,0,0,0,47.339,53.984Z" style="fill:#c22026"/><path d="M32,52s0,5-7,5v3c7,0,7-5,7-5s0,5,7,5V57C32,57,32,52,32,52Z" style="fill:#c22026"/><path d="M39,50c0,1.658-.9,4-2,4-2.764,0-5-1.342-5-3,0,1.658-2.236,3-5,3-1.105,0-2-2.342-2-4,0,0-1.949,1.934-8.689,1.994A8.446,8.446,0,0,0,16,54a22.282,22.282,0,0,0,9-2v5c7,0,7-5,7-5s0,5,7,5V52a22.282,22.282,0,0,0,9,2,8.446,8.446,0,0,0-.311-2.006C40.949,51.934,39,50,39,50Z" style="fill:#009e60"/><path d="M24,48h4.552A1.359,1.359,0,0,1,28,47H23a6.475,6.475,0,0,0-5.21,2.13,7.318,7.318,0,0,0-1.479,2.864c.274,0,.526-.012.784-.02A7.989,7.989,0,0,1,24,48Z" style="fill:#00e088"/><path d="M46.905,51.974c.258.008.51.018.784.02A7.318,7.318,0,0,0,46.21,49.13,6.475,6.475,0,0,0,41,47H36a1.359,1.359,0,0,1-.552,1H40A7.989,7.989,0,0,1,46.905,51.974Z" style="fill:#00e088"/><path d="M45,14V13a11.932,11.932,0,0,0-1.166-5.135A6.991,6.991,0,0,1,38,11H21l-.583-.875A4.771,4.771,0,0,0,16.446,8H13a2.985,2.985,0,0,1-2.355-1.162L5,13l.01.1A4.619,4.619,0,0,1,6,13a4.941,4.941,0,0,1,3,1l5.81-2.72a2.99,2.99,0,0,1,4.02,2.05L19,14l-.04.13L22,15l5-3,5,3,5-3,5,3,3.04-.87Z" style="fill:#911a1c"/><path d="M24,3a2,2,0,0,0,2,2h1a2,2,0,0,0,0-4H26A2,2,0,0,0,24,3Z" style="fill:#eb2335"/><path d="M30,3a2,2,0,0,0,2,2h1.829a7.524,7.524,0,0,1,6.12,3.158,2,2,0,0,0,3.6-.839A11.973,11.973,0,0,0,33,1H32A2,2,0,0,0,30,3Z" style="fill:#eb2335"/><circle cx="7" cy="18" r="1" style="fill:#784a1e"/><path d="M3,15a4.619,4.619,0,0,1,.1-.99c.006-.031.017-.06.024-.091A4.932,4.932,0,0,0,1.1,17.01,4.619,4.619,0,0,0,1,18a5,5,0,0,0,9.876,1.079A4.988,4.988,0,0,1,3,15Z" style="fill:#f0af4c"/><path d="M7,17a1,1,0,0,1,0,2h3.9a5,5,0,0,0,0-2Z" style="fill:#ad8451"/><path d="M7,16a2,2,0,1,0,2,2A2,2,0,0,0,7,16Zm0,3a1,1,0,1,1,1-1A1,1,0,0,1,7,19Z" style="fill:#ad8451"/><ellipse cx="8.58" cy="15.708" rx="0.825" ry="1.148" transform="translate(-8.596 10.674) rotate(-45.02)" style="fill:#f6fafd"/><path d="M26,28c-.463,0-.852-.641-.964-1.5A3.831,3.831,0,0,0,25,27c0,1.1.45,2,1,2s1-.9,1-2a3.831,3.831,0,0,0-.036-.5C26.852,27.359,26.463,28,26,28Z" style="fill:#004a2d"/><path d="M38,28c-.463,0-.852-.641-.964-1.5A3.831,3.831,0,0,0,37,27c0,1.1.45,2,1,2s1-.9,1-2a3.831,3.831,0,0,0-.036-.5C38.852,27.359,38.463,28,38,28Z" style="fill:#004a2d"/><rect x="35" y="24" width="6" height="1" rx="0.5" ry="0.5" style="fill:#ad8451"/><rect x="23" y="24" width="6" height="1" rx="0.5" ry="0.5" style="fill:#ad8451"/><path d="M30,32V31a2.006,2.006,0,0,1,2-2,2.015,2.015,0,0,1,2,2v1Z" style="fill:#ff8d73"/><path d="M32,38.5a3.307,3.307,0,0,1-3.5-3.062.5.5,0,0,1,1,0,2.522,2.522,0,0,0,5,0,.5.5,0,0,1,1,0A3.307,3.307,0,0,1,32,38.5Z" style="fill:#ff8d73"/><circle cx="40" cy="33" r="3" style="fill:#ffa48f"/><circle cx="24" cy="33" r="3" style="fill:#ffa48f"/></g></svg>