<svg xmlns="http://www.w3.org/2000/svg" viewBox="0 0 64 64"><g id="_29-girl" data-name="29-girl"><circle cx="3" cy="17" r="2" style="fill:#c22026"/><circle cx="53" cy="12" r="2" style="fill:#00e088"/><circle cx="61" cy="11" r="2" style="fill:#00e088"/><path d="M32,53V63H17a4,4,0,0,0,4-4V57a4,4,0,0,0-4-4V50Z" style="fill:#8a99e6"/><path d="M47,50v3a4,4,0,0,0-4,4v2a4,4,0,0,0,4,4H32V53Z" style="fill:#a4afe6"/><ellipse cx="27" cy="27" rx="1" ry="2" style="fill:#3e50f7"/><ellipse cx="37" cy="27" rx="1" ry="2" style="fill:#3e50f7"/><path d="M22,24v8a2.006,2.006,0,0,1-2,2H19V22h1A2.006,2.006,0,0,1,22,24Z" style="fill:#ebebff"/><path d="M45,22V34H44a2.006,2.006,0,0,1-2-2V24a2.006,2.006,0,0,1,2-2Z" style="fill:#ebebff"/><path d="M19,22V34H18a4,4,0,0,1-4-4V26a4,4,0,0,1,4-4h1Z" style="fill:#c22026"/><path d="M50,30a4,4,0,0,1-4,4H45V22h1a4,4,0,0,1,4,4Z" style="fill:#c22026"/><path d="M44,44a4.187,4.187,0,0,1-1.05,2.7,1.538,1.538,0,0,1-.12.13A4.025,4.025,0,0,1,40,48H24a4,4,0,0,1-4-4,3.995,3.995,0,0,1,4-4H40A4,4,0,0,1,44,44Z" style="fill:#00c477"/><path d="M42.95,44.7a1.538,1.538,0,0,1-.12.13A4.025,4.025,0,0,1,40,46H24a3.956,3.956,0,0,1-3.857-3A3.94,3.94,0,0,0,20,44a4,4,0,0,0,4,4H40a4.025,4.025,0,0,0,2.83-1.17,1.538,1.538,0,0,0,.12-.13A4.187,4.187,0,0,0,44,44a3.956,3.956,0,0,0-.146-1.015A4.715,4.715,0,0,1,42.95,44.7Z" style="fill:#009e60"/><path d="M47.46,47.86A6.015,6.015,0,0,1,51.96,53H47V50L32,53,17,50v3H12.04a6.015,6.015,0,0,1,4.5-5.14L18,47.5l3-.75.05-.05A3.978,3.978,0,0,0,24,48H40a4.025,4.025,0,0,0,2.83-1.17,1.538,1.538,0,0,0,.12-.13l.05.05,3,.75Z" style="fill:#eb2335"/><path d="M48.95,18.51a2.921,2.921,0,0,1,.05.5A3.3,3.3,0,0,1,45.47,22H18.53c-2.18,0-3.84-1.66-3.48-3.49a2.916,2.916,0,0,1,1.2-1.8,3.556,3.556,0,0,1,1.34-.6,4.1,4.1,0,0,1,.94-.11H45.47a4.278,4.278,0,0,1,.96.11A3.232,3.232,0,0,1,48.95,18.51Z" style="fill:#00c477"/><path d="M32,1a4.989,4.989,0,0,1,4.99,4.85,15.072,15.072,0,0,0-9.98,0A4.989,4.989,0,0,1,32,1Z" style="fill:#ebebff"/><path d="M41.16,8.12a14.964,14.964,0,0,1,5.3,7.87l-.03.12a4.278,4.278,0,0,0-.96-.11H18.53a4.1,4.1,0,0,0-.94.11L17.54,16A15.017,15.017,0,0,1,36.99,5.85,14.671,14.671,0,0,1,41.16,8.12Z" style="fill:#c22026"/><path d="M22,31a9,9,0,0,0,9,9H24a4,4,0,0,0-2.95,6.7l-.05.05-3,.75V34h2a2.006,2.006,0,0,0,2-2Z" style="fill:#f2c373"/><path d="M46,34V47.5l-3-.75-.05-.05A4.187,4.187,0,0,0,44,44a4,4,0,0,0-4-4H33a9,9,0,0,0,9-9v1a2.006,2.006,0,0,0,2,2h2Z" style="fill:#f2c373"/><path d="M54,55v6a2.006,2.006,0,0,1-2,2H47a4,4,0,0,1-4-4V57a4,4,0,0,1,4-4h5A2.006,2.006,0,0,1,54,55Z" style="fill:#ebebff"/><path d="M21,57v2a4,4,0,0,1-4,4H12a2.006,2.006,0,0,1-2-2V55a2.006,2.006,0,0,1,2-2h5A4,4,0,0,1,21,57Z" style="fill:#ebebff"/><path d="M27,25c-.55,0-1,.9-1,2s.45,2,1,2,1-.9,1-2S27.55,25,27,25Zm-5-3H42v9a9,9,0,0,1-9,9H31a9,9,0,0,1-9-9V22Zm15,3c-.55,0-1,.9-1,2s.45,2,1,2,1-.9,1-2S37.55,25,37,25Z" style="fill:#ffc7b5"/><path d="M48.8,18A3.256,3.256,0,0,1,46,19.98a1.668,1.668,0,0,1-.32.02H18.32a1.668,1.668,0,0,1-.32-.02,3.25,3.25,0,0,1-2.8-2,2.767,2.767,0,0,0-.151.531A3.064,3.064,0,0,0,18,21.98a1.668,1.668,0,0,0,.32.02H45.68a1.668,1.668,0,0,0,.32-.02,3.126,3.126,0,0,0,3-2.97,2.921,2.921,0,0,0-.05-.5A2.788,2.788,0,0,0,48.8,18Z" style="fill:#009e60"/><path d="M44,22H42v2A2.006,2.006,0,0,1,44,22Z" style="fill:#f2b957"/><path d="M22,24V22H20A2.006,2.006,0,0,1,22,24Z" style="fill:#f2b957"/><path d="M63.308.605a.5.5,0,0,0-.429-.09l-8,2A.5.5,0,0,0,54.5,3v7.012A2.476,2.476,0,0,0,53,9.5,2.5,2.5,0,1,0,55.5,12V7.391l7-1.75V9.012A2.476,2.476,0,0,0,61,8.5,2.5,2.5,0,1,0,63.5,11V1A.5.5,0,0,0,63.308.605ZM53,13.5A1.5,1.5,0,1,1,54.5,12,1.5,1.5,0,0,1,53,13.5Zm2.5-7.141V3.391l7-1.75V4.609ZM61,12.5A1.5,1.5,0,1,1,62.5,11,1.5,1.5,0,0,1,61,12.5Z" style="fill:#f2c373"/><path d="M5,6.5a.5.5,0,0,0-.5.5v8.012A2.476,2.476,0,0,0,3,14.5,2.5,2.5,0,1,0,5.5,17V7.511c3.3.142,6,1.682,6,3.489a.5.5,0,0,0,1,0C12.5,8.477,9.206,6.5,5,6.5Zm-2,12A1.5,1.5,0,1,1,4.5,17,1.5,1.5,0,0,1,3,18.5Z" style="fill:#f2c373"/><rect x="19" y="16" width="20" height="2" rx="1" ry="1" style="fill:#00e088"/><rect x="41" y="16" width="4" height="2" rx="1" ry="1" style="fill:#00e088"/><rect x="22" y="22" width="20" height="3" style="fill:#ffa48f"/><path d="M30,32V31a2.006,2.006,0,0,1,2-2,2.015,2.015,0,0,1,2,2v1Z" style="fill:#ff8d73"/><ellipse cx="37" cy="27" rx="1" ry="2" style="fill:#3e50f7"/><ellipse cx="27" cy="27" rx="1" ry="2" style="fill:#3e50f7"/><rect x="23" y="23" width="6" height="1" rx="0.5" ry="0.5" transform="translate(52 47) rotate(-180)" style="fill:#ad8451"/><rect x="35" y="23" width="6" height="1" rx="0.5" ry="0.5" transform="translate(76 47) rotate(-180)" style="fill:#ad8451"/><path d="M27,28c-.463,0-.852-.641-.964-1.5A3.831,3.831,0,0,0,26,27c0,1.1.45,2,1,2s1-.9,1-2a3.831,3.831,0,0,0-.036-.5C27.852,27.359,27.463,28,27,28Z" style="fill:#161e70"/><path d="M37,28c-.463,0-.852-.641-.964-1.5A3.831,3.831,0,0,0,36,27c0,1.1.45,2,1,2s1-.9,1-2a3.831,3.831,0,0,0-.036-.5C37.852,27.359,37.463,28,37,28Z" style="fill:#161e70"/><path d="M37,24.5c-.855,0-1.5,1.075-1.5,2.5s.645,2.5,1.5,2.5,1.5-1.075,1.5-2.5S37.855,24.5,37,24.5ZM37,29c-.552,0-1-.895-1-2s.448-2,1-2,1,.895,1,2S37.552,29,37,29Z" style="fill:#ebebff"/><path d="M27,24.5c-.855,0-1.5,1.075-1.5,2.5s.645,2.5,1.5,2.5,1.5-1.075,1.5-2.5S27.855,24.5,27,24.5ZM27,29c-.552,0-1-.895-1-2s.448-2,1-2,1,.895,1,2S27.552,29,27,29Z" style="fill:#ebebff"/><path d="M38,27c0-1.105-.448-2-1-2C37.55,25,38,25.9,38,27Z" style="fill:#3e50f7"/><path d="M36,27c0,1.105.448,2,1,2C36.45,29,36,28.1,36,27Z" style="fill:#3e50f7"/><path d="M37,25c-.552,0-1,.895-1,2C36,25.9,36.45,25,37,25Z" style="fill:#3e50f7"/><path d="M37,29c.552,0,1-.895,1-2C38,28.1,37.55,29,37,29Z" style="fill:#3e50f7"/><path d="M40,25v6a9.02,9.02,0,0,1-8,8.944A9.02,9.02,0,0,1,24,31V25H22v6a9.017,9.017,0,0,0,9,9h2a9.017,9.017,0,0,0,9-9V25Z" style="fill:#fdddd7"/><circle cx="26" cy="33" r="3" style="fill:#ffa48f"/><circle cx="38" cy="33" r="3" style="fill:#ffa48f"/><ellipse cx="32" cy="36.5" rx="1" ry="1.5" style="fill:#ff8d73"/><path d="M41.16,8.12c-.052-.04-.108-.075-.161-.115A5,5,0,0,1,36,13H28a5,5,0,0,1-5-4.97A15.019,15.019,0,0,0,17.54,16l.05.11a4.1,4.1,0,0,1,.94-.11H45.47a4.278,4.278,0,0,1,.96.11l.03-.12A14.964,14.964,0,0,0,41.16,8.12Z" style="fill:#911a1c"/><path d="M23.752,8.832a1.5,1.5,0,0,0,2.08.416A12.26,12.26,0,0,1,32,7.5a12.466,12.466,0,0,1,6.171,1.75,1.5,1.5,0,0,0,2.274-1.632A14.561,14.561,0,0,0,36.99,5.85a15.072,15.072,0,0,0-9.98,0,14.609,14.609,0,0,0-3.464,1.8A1.489,1.489,0,0,0,23.752,8.832Z" style="fill:#f76a6f"/><path d="M44,32a2,2,0,0,1-2-2v2a2.006,2.006,0,0,0,2,2h1V32Z" style="fill:#ccf"/><path d="M44,24h1V22H44a2.006,2.006,0,0,0-2,2v2A2,2,0,0,1,44,24Z" style="fill:#ccf"/><path d="M48,24a2,2,0,0,1,2,2,4,4,0,0,0-4-4H45v2Z" style="fill:#911a1c"/><path d="M48,32H45v2h1a4,4,0,0,0,4-4A2,2,0,0,1,48,32Z" style="fill:#911a1c"/><rect x="47" y="25" width="3" height="6" rx="1.5" ry="1.5" style="fill:#eb2335"/><path d="M20,32a2,2,0,0,0,2-2v2a2.006,2.006,0,0,1-2,2H19V32Z" style="fill:#ccf"/><path d="M20,24H19V22h1a2.006,2.006,0,0,1,2,2v2A2,2,0,0,0,20,24Z" style="fill:#ccf"/><path d="M16,24a2,2,0,0,0-2,2,4,4,0,0,1,4-4h1v2Z" style="fill:#911a1c"/><path d="M16,32h3v2H18a4,4,0,0,1-4-4A2,2,0,0,0,16,32Z" style="fill:#911a1c"/><rect x="14" y="25" width="3" height="6" rx="1.5" ry="1.5" transform="translate(31 56) rotate(180)" style="fill:#eb2335"/><path d="M35.791,2.776A2.791,2.791,0,0,1,33.333,4H30.667a2.791,2.791,0,0,1-2.458-1.224,4.933,4.933,0,0,0-1.2,3.074,15.072,15.072,0,0,1,9.98,0A4.933,4.933,0,0,0,35.791,2.776Z" style="fill:#ccf"/><rect x="22" y="40" width="15" height="3" rx="1.5" ry="1.5" style="fill:#00e088"/><rect x="38" y="40" width="4" height="3" rx="1.5" ry="1.5" style="fill:#00e088"/><path d="M22,31v1a2.006,2.006,0,0,1-2,2H18v2h1.264A1.987,1.987,0,0,1,21.2,37.519a5.267,5.267,0,0,0,1.5,2.717A3.956,3.956,0,0,1,24,40h7A9,9,0,0,1,22,31Z" style="fill:#d1a55a"/><path d="M18,42.516V47.5l3-.75.05-.05A3.991,3.991,0,0,1,20,44h-.516A1.485,1.485,0,0,1,18,42.516Z" style="fill:#d1a55a"/><path d="M42.8,37.519A1.987,1.987,0,0,1,44.736,36H46V34H44a2.006,2.006,0,0,1-2-2V31a9,9,0,0,1-9,9h7a3.957,3.957,0,0,1,1.3.235A5.267,5.267,0,0,0,42.8,37.519Z" style="fill:#d1a55a"/><path d="M44.516,44H44a4.187,4.187,0,0,1-1.05,2.7l.05.05,3,.75V42.516A1.485,1.485,0,0,1,44.516,44Z" style="fill:#d1a55a"/><path d="M51,61H49a3,3,0,0,1-3-3V55a2,2,0,0,1,2-2H47a4,4,0,0,0-4,4v2a4,4,0,0,0,4,4h5a2.006,2.006,0,0,0,2-2V58A3,3,0,0,1,51,61Z" style="fill:#ccf"/><path d="M17,53H16a2,2,0,0,1,2,2v3a3,3,0,0,1-3,3H13a3,3,0,0,1-3-3v3a2.006,2.006,0,0,0,2,2h5a4,4,0,0,0,4-4V57A4,4,0,0,0,17,53Z" style="fill:#ccf"/><path d="M27,61a4,4,0,0,1-4-4v-.737a3,3,0,0,0-2.176-2.885L17,52.286V53a4,4,0,0,1,4,4v2a4,4,0,0,1-4,4H32V61Z" style="fill:#7887d6"/><path d="M47,53v-.714l-3.824,1.092A3,3,0,0,0,41,56.263V57a4,4,0,0,1-4,4H32v2H47a4,4,0,0,1-4-4V57A4,4,0,0,1,47,53Z" style="fill:#8a99e6"/><rect x="47" y="53" width="6" height="3" rx="1.5" ry="1.5" style="fill:#f2f2ff"/><rect x="11" y="53" width="6" height="3" rx="1.5" ry="1.5" style="fill:#f2f2ff"/><path d="M47,51v2h4.96a5.952,5.952,0,0,0-.611-2Z" style="fill:#c22026"/><path d="M12.04,53H17V51H12.651A5.952,5.952,0,0,0,12.04,53Z" style="fill:#c22026"/><path d="M23,50H41a2,2,0,0,0,2-2V46.75l-.05-.05a1.538,1.538,0,0,1-.12.13A4.025,4.025,0,0,1,40,48H24a3.978,3.978,0,0,1-2.95-1.3l-.05.05V48A2,2,0,0,0,23,50Z" style="fill:#c22026"/></g></svg>