<?xml version="1.0" encoding="utf-8"?>
<!-- Generator: Adobe Illustrator 16.0.0, SVG Export Plug-In . SVG Version: 6.00 Build 0)  -->
<!DOCTYPE svg PUBLIC "-//W3C//DTD SVG 1.1//EN" "http://www.w3.org/Graphics/SVG/1.1/DTD/svg11.dtd">
<svg version="1.1" id="Layer_1" xmlns="http://www.w3.org/2000/svg" xmlns:xlink="http://www.w3.org/1999/xlink" x="0px" y="0px"
	 width="64px" height="64px" viewBox="0 0 64 64" enable-background="new 0 0 64 64" xml:space="preserve">
<circle fill="#DCAB69" cx="31.986" cy="40.819" r="21.533"/>
<g>
	<path fill="#BB2025" d="M32.711,33.196c7.18,0,13.926,0.35,19.782,0.959c-2.807-8.631-10.914-14.87-20.481-14.87
		c-9.626,0-17.775,6.315-20.533,15.028C17.661,33.604,24.931,33.196,32.711,33.196z"/>
	<path fill="#BB2025" d="M32.711,48.442c-7.78,0-15.05-0.409-21.231-1.118c2.758,8.713,10.907,15.028,20.533,15.028
		c9.567,0,17.674-6.239,20.481-14.871C46.637,48.094,39.891,48.442,32.711,48.442z"/>
</g>
<g>
	<path fill="#741112" d="M31.986,29.449c6.882,0,13.363,0.478,19.047,1.319c-3.611-6.829-10.784-11.483-19.047-11.483
		c-8.262,0-15.436,4.654-19.047,11.483C18.623,29.926,25.104,29.449,31.986,29.449z"/>
	<path fill="#741112" d="M31.986,52.19c-6.882,0-13.363-0.479-19.047-1.32c3.611,6.829,10.785,11.482,19.047,11.482
		c8.263,0,15.436-4.653,19.047-11.482C45.35,51.712,38.868,52.19,31.986,52.19z"/>
</g>
<path fill="#741112" d="M11.203,35.171c-0.488,1.8-0.75,3.693-0.75,5.648c0,1.954,0.262,3.847,0.75,5.647
	c6.228,0.45,13.292,0.704,20.784,0.704c7.492,0,14.557-0.254,20.783-0.704c0.488-1.801,0.75-3.693,0.75-5.647
	c0-1.955-0.262-3.849-0.75-5.648c-6.227-0.448-13.291-0.704-20.783-0.704C24.495,34.467,17.431,34.723,11.203,35.171z"/>
<g>
	<path fill="#741112" d="M10.561,44.354c0,0,3.167-16.163,6.278-3.396c3.112,12.766,4.107-0.989,4.231-1.302
		c0.125-0.313,0.996-8.859,3.36,0.104c2.365,8.963,4.729,7.633,6.846,1.198c2.116-6.438,3.232-8.151,4.854,0.677
		c1.621,8.829,4.23,2.528,5.227-0.665c0.995-3.19,1.244-9.626,3.237,0c1.989,9.628,2.239,3.583,2.986-0.012
		c0.746-3.595,1.953-8.884,3.527,0.012c1.574,8.897,2.429,2.844,2.438-1.478"/>
	<path fill="#F1F2F2" d="M10.561,44.354c0,0,0.083-0.46,0.24-1.322c0.18-0.857,0.421-2.125,0.93-3.692
		c0.264-0.781,0.563-1.647,1.105-2.528c0.283-0.407,0.621-0.953,1.38-1.06c0.366-0.011,0.729,0.161,0.948,0.385
		c0.256,0.212,0.42,0.468,0.59,0.723c1.25,2.076,1.585,4.725,2.55,7.254c0.233,0.61,0.542,1.31,0.877,1.655
		c0.026,0.006,0.061,0.042,0.059,0.037c-0.017-0.016-0.042-0.008-0.089-0.011c-0.044,0.03-0.028-0.005-0.02,0.001
		c0.024-0.045,0.051-0.048,0.084-0.115c0.135-0.212,0.259-0.543,0.353-0.877c0.383-1.366,0.558-2.918,0.722-4.496
		c0.022-0.378,0.109-0.865,0.166-1.23c0.06-0.405,0.123-0.822,0.205-1.242c0.082-0.422,0.176-0.848,0.316-1.291
		c0.068-0.222,0.155-0.45,0.272-0.691c0.135-0.234,0.249-0.528,0.724-0.813c0.244-0.143,0.629-0.174,0.917-0.07
		c0.113,0.048,0.226,0.106,0.331,0.173c0.078,0.06,0.145,0.119,0.215,0.184c0.248,0.246,0.379,0.469,0.514,0.689
		c0.241,0.435,0.413,0.86,0.574,1.285c0.316,0.843,0.556,1.716,0.792,2.549c0.469,1.636,1.006,3.362,1.854,4.687
		c0.206,0.313,0.465,0.585,0.631,0.659c0.087,0.053,0.111,0.036,0.146,0.036c0.029,0.003,0.101-0.027,0.201-0.099
		c0.433-0.312,0.906-1.106,1.257-1.864c0.736-1.558,1.193-3.349,1.874-5.145c0.169-0.448,0.342-0.896,0.549-1.352
		c0.22-0.46,0.412-0.907,0.821-1.42c0.097-0.125,0.235-0.266,0.403-0.399c0.109-0.072,0.2-0.139,0.336-0.199
		c0.157-0.055,0.288-0.115,0.484-0.119c0.376-0.037,0.73,0.128,0.932,0.276c0.213,0.154,0.352,0.316,0.45,0.454
		c0.4,0.568,0.554,1.041,0.728,1.523c0.616,1.887,0.895,3.787,1.263,5.56c0.189,0.841,0.428,1.741,0.772,2.379
		c0.151,0.334,0.425,0.472,0.242,0.4c-0.156,0.048,0.157-0.074,0.362-0.371c0.454-0.586,0.841-1.395,1.17-2.19
		c0.331-0.798,0.64-1.65,0.867-2.458c0.226-0.819,0.402-1.696,0.608-2.577c0.105-0.445,0.211-0.889,0.38-1.375
		c0.122-0.26,0.128-0.488,0.561-0.932c0.034-0.041,0.17-0.128,0.276-0.174c0.107-0.053,0.229-0.09,0.395-0.09
		c0.352-0.002,0.496,0.111,0.684,0.228c0.104,0.089,0.191,0.183,0.265,0.272l0.144,0.219c0.292,0.532,0.41,0.954,0.548,1.398
		c0.132,0.438,0.239,0.868,0.345,1.296c0.205,0.852,0.374,1.702,0.534,2.526c0.16,0.834,0.325,1.626,0.513,2.415
		c0.183,0.753,0.404,1.615,0.667,2.103c0.017,0.035,0.024,0.042,0.024,0.04v0.009c-0.015-0.017-0.04-0.038-0.064-0.051
		c-0.007-0.006-0.229-0.098-0.349-0.048c-0.064,0.008-0.132,0.035-0.182,0.075c-0.03,0.02-0.04,0.023-0.057,0.041
		c-0.053,0.079,0.062-0.114,0.1-0.249c0.105-0.319,0.19-0.693,0.268-1.062c0.143-0.763,0.284-1.513,0.423-2.251
		c0.301-1.517,0.628-2.923,1.061-4.313c0.114-0.346,0.237-0.688,0.396-1.031c0.079-0.172,0.173-0.346,0.291-0.522
		c0.138-0.172,0.262-0.387,0.638-0.526c0.197-0.065,0.438-0.039,0.601,0.042c0.168,0.082,0.267,0.179,0.351,0.271
		c0.161,0.186,0.252,0.358,0.337,0.527c0.155,0.336,0.269,0.661,0.356,0.98c0.357,1.275,0.54,2.482,0.713,3.609
		c0.172,1.124,0.35,2.163,0.599,3.098c0.119,0.439,0.285,0.956,0.481,1.156c0.046,0.012-0.032,0.038,0.026,0.005
		c0.043-0.038,0.093-0.12,0.135-0.204c0.08-0.177,0.146-0.367,0.196-0.56c0.376-1.559,0.468-2.858,0.546-3.724
		c0.067-0.872,0.08-1.34,0.08-1.34s0.022,0.467,0.022,1.344c-0.021,0.877,0.02,2.166-0.291,3.807
		c-0.042,0.206-0.1,0.417-0.185,0.638c-0.05,0.11-0.101,0.226-0.213,0.345c-0.063,0.06-0.139,0.12-0.271,0.137
		c-0.104,0.014-0.248-0.035-0.299-0.086c-0.262-0.214-0.351-0.439-0.46-0.666c-0.104-0.228-0.188-0.461-0.269-0.7
		c-0.313-0.953-0.555-2.008-0.791-3.121c-0.234-1.111-0.487-2.293-0.887-3.459c-0.098-0.292-0.219-0.57-0.347-0.824
		c-0.065-0.121-0.14-0.236-0.201-0.298c-0.089-0.085-0.027,0.006,0.076-0.025c0.051-0.047-0.197,0.251-0.283,0.521
		c-0.118,0.283-0.218,0.599-0.31,0.922c-0.349,1.301-0.627,2.756-0.854,4.211c-0.109,0.741-0.215,1.5-0.353,2.289
		c-0.071,0.396-0.145,0.794-0.274,1.23c-0.094,0.233-0.102,0.433-0.421,0.811c-0.053,0.052-0.096,0.095-0.166,0.144
		c-0.096,0.058-0.209,0.104-0.32,0.13c-0.21,0.054-0.548-0.04-0.628-0.116c-0.066-0.04-0.134-0.089-0.188-0.137L45.54,46.48
		c-0.067-0.076-0.121-0.148-0.151-0.203c-0.519-0.92-0.668-1.667-0.916-2.496c-0.217-0.808-0.417-1.643-0.599-2.459
		c-0.189-0.824-0.371-1.641-0.581-2.459c-0.107-0.405-0.217-0.812-0.343-1.202c-0.118-0.383-0.271-0.797-0.408-1.029l-0.037-0.056
		c0.002,0.008,0.012,0.022,0.038,0.035c0.089,0.068,0.145,0.104,0.38,0.121c0.109-0.011,0.18-0.031,0.24-0.053
		c0.06-0.019,0.137-0.092,0.139-0.086c0.119-0.131-0.027,0.072-0.062,0.22c-0.115,0.35-0.212,0.771-0.303,1.192
		c-0.185,0.854-0.344,1.737-0.579,2.66c-0.246,0.932-0.543,1.791-0.892,2.683c-0.367,0.883-0.749,1.759-1.413,2.639
		c-0.186,0.221-0.364,0.441-0.655,0.655c-0.276,0.203-0.68,0.434-1.223,0.416c-0.558-0.021-0.955-0.324-1.206-0.57
		c-0.266-0.261-0.422-0.518-0.561-0.766c-0.531-0.998-0.748-1.922-0.98-2.887c-0.394-1.865-0.683-3.673-1.235-5.341
		c-0.129-0.397-0.304-0.814-0.447-1.008c-0.032-0.055-0.059-0.064-0.032-0.048c0.016,0.016,0.141,0.075,0.283,0.067
		c0.289-0.066,0.17-0.089,0.095,0.038c-0.388,0.492-0.763,1.417-1.076,2.232c-0.322,0.851-0.612,1.709-0.908,2.593
		c-0.305,0.899-0.636,1.793-1.053,2.676c-0.208,0.441-0.444,0.88-0.727,1.313c-0.291,0.431-0.612,0.874-1.157,1.258
		c-0.272,0.186-0.625,0.363-1.052,0.396c-0.415,0.041-0.858-0.071-1.16-0.253c-0.635-0.362-0.958-0.826-1.25-1.255
		c-1.061-1.748-1.518-3.498-1.993-5.219c-0.226-0.855-0.434-1.663-0.708-2.436c-0.135-0.383-0.285-0.752-0.446-1.068
		c-0.08-0.146-0.171-0.29-0.224-0.344c-0.009-0.007-0.019-0.021-0.021-0.028c0.012,0.016,0.032,0.023,0.052,0.021
		c0.084,0.049,0.248,0.014,0.307-0.019c0.106-0.075-0.017,0.006-0.074,0.138c-0.07,0.134-0.141,0.293-0.201,0.468
		c-0.124,0.348-0.224,0.729-0.312,1.112c-0.088,0.386-0.162,0.776-0.234,1.173c-0.082,0.437-0.155,0.739-0.199,1.164
		c-0.226,1.604-0.446,3.166-0.93,4.697c-0.129,0.385-0.266,0.766-0.541,1.175c-0.055,0.098-0.176,0.214-0.267,0.312
		c-0.143,0.101-0.264,0.223-0.496,0.263c-0.229,0.062-0.432,0.017-0.625-0.057c-0.168-0.074-0.27-0.171-0.393-0.266
		c-0.648-0.744-0.832-1.431-1.095-2.118c-0.942-2.731-1.132-5.332-2.155-7.257c-0.25-0.451-0.594-0.865-0.917-0.86
		c-0.334,0.004-0.713,0.372-0.972,0.745c-0.539,0.77-0.891,1.61-1.189,2.359c-0.576,1.517-0.94,2.751-1.176,3.593
		C10.679,43.901,10.561,44.354,10.561,44.354z"/>
</g>
<circle fill="#EBC257" cx="31.464" cy="31.216" r="1.343"/>
<circle fill="#EBC257" cx="25.323" cy="31.339" r="1.111"/>
<circle fill="#EBC257" cx="19.708" cy="31.76" r="0.926"/>
<circle fill="#EBC257" cx="14.934" cy="32.265" r="0.752"/>
<circle fill="#EBC257" cx="38.65" cy="31.463" r="1.111"/>
<circle fill="#EBC257" cx="44.808" cy="31.76" r="0.925"/>
<circle fill="#EBC257" cx="50.035" cy="32.253" r="0.752"/>
<circle fill="#EBC257" cx="31.033" cy="50.384" r="1.343"/>
<path fill="#EBC257" d="M26.002,50.258c0-0.611-0.497-1.109-1.11-1.109s-1.111,0.498-1.111,1.109c0,0.616,0.498,1.112,1.111,1.112
	S26.002,50.874,26.002,50.258z"/>
<circle fill="#EBC257" cx="19.277" cy="49.839" r="0.925"/>
<circle fill="#EBC257" cx="14.503" cy="49.333" r="0.752"/>
<circle fill="#EBC257" cx="38.22" cy="50.136" r="1.111"/>
<circle fill="#EBC257" cx="44.377" cy="49.839" r="0.925"/>
<circle fill="#EBC257" cx="49.604" cy="49.347" r="0.752"/>
<ellipse opacity="0.1" fill="#F1F2F2" cx="31.033" cy="33.634" rx="15.757" ry="12.74"/>
<ellipse opacity="0.15" fill="#F1F2F2" cx="28.407" cy="27.368" rx="6.787" ry="4.896"/>
<path fill="#741112" d="M36.551,19.601c-2.13-0.663-2.702-3.647-2.702-3.647h-1.399h-0.927h-1.398c0,0-0.573,2.984-2.703,3.647
	c-2.129,0.663,3.024,0.553,3.024,0.553l1.077,0.003v0.003l0.463-0.001l0.463,0.001v-0.003l1.076-0.003
	C33.525,20.154,38.681,20.264,36.551,19.601z"/>
<rect x="31.361" y="2.133" fill="#D7B169" width="1.249" height="13.821"/>
<path fill="#EBC257" d="M34.778,12.992c0,2.797-1.251,5.065-2.792,5.065c-1.542,0-2.792-2.268-2.792-5.065
	S34.778,10.194,34.778,12.992z"/>
<path fill="#DCAB69" d="M34.131,13.335c0,2.148-0.96,3.892-2.145,3.892c-1.185,0-2.145-1.743-2.145-3.892
	C29.841,11.188,34.131,11.188,34.131,13.335z"/>
</svg>
