<svg xmlns="http://www.w3.org/2000/svg" viewBox="0 0 64 64"><g id="_30-boy" data-name="30-boy"><circle cx="3" cy="35" r="2" style="fill:#c22026"/><circle cx="61" cy="11" r="2" style="fill:#00e088"/><circle cx="53" cy="12" r="2" style="fill:#00e088"/><path d="M32,53V63H17a4,4,0,0,0,4-4V57a4,4,0,0,0-4-4V50Z" style="fill:#8a99e6"/><path d="M47,50v3a4,4,0,0,0-4,4v2a4,4,0,0,0,4,4H32V53Z" style="fill:#a4afe6"/><path d="M47.46,43.86A6,6,0,0,1,52,49.68V53H47V50L32,53,17,50v3H12V49.68a6,6,0,0,1,4.54-5.82L19,43.25l.15-.04a4.408,4.408,0,0,0,.78,1.67C21.27,46.64,24.47,49,32,49s10.73-2.36,12.07-4.12a4.408,4.408,0,0,0,.78-1.67l.15.04Z" style="fill:#eb2335"/><path d="M45,39s12,7,18,7V59s-7,0-9-2V55a2.006,2.006,0,0,0-2-2V49.68a6,6,0,0,0-4.54-5.82L45,43.25l-.15-.04A5.133,5.133,0,0,0,45,41.97V40a4.619,4.619,0,0,0-.1-.99Z" style="fill:#008f57"/><path d="M40,35a5,5,0,0,1,4.9,4.01A4.619,4.619,0,0,1,45,40v1.97a5.133,5.133,0,0,1-.15,1.24,4.408,4.408,0,0,1-.78,1.67C42.73,46.64,39.53,49,32,49s-10.73-2.36-12.07-4.12a4.408,4.408,0,0,1-.78-1.67A5.133,5.133,0,0,1,19,41.97V40a5,5,0,0,1,5-5l.17-.15A8.964,8.964,0,0,0,31,38h2a8.964,8.964,0,0,0,6.83-3.15Z" style="fill:#00c477"/><path d="M9.83,14.17A4,4,0,1,1,7,13,4.025,4.025,0,0,1,9.83,14.17Z" style="fill:#ebebff"/><path d="M47.95,16.51a2.921,2.921,0,0,1,.05.5,3.126,3.126,0,0,1-3,2.97,1.668,1.668,0,0,1-.32.02H19.32a1.668,1.668,0,0,1-.32-.02,3.064,3.064,0,0,1-2.95-3.47,2.9,2.9,0,0,1,1.13-1.8A3.484,3.484,0,0,1,19.32,14H44.68A3.231,3.231,0,0,1,47.95,16.51Z" style="fill:#ebebff"/><path d="M45,20v5a2.006,2.006,0,0,0-2-2H42V20h2.68a1.668,1.668,0,0,0,.32-.02Z" style="fill:#f2c373"/><path d="M19,20v-.02a1.668,1.668,0,0,0,.32.02H22v3H21a2.006,2.006,0,0,0-2,2Z" style="fill:#f2c373"/><path d="M45,25v1a3,3,0,0,1-3,3V23h1A2.006,2.006,0,0,1,45,25Z" style="fill:#ffaf96"/><path d="M22,23v6a3,3,0,0,1-3-3V25a2.006,2.006,0,0,1,2-2Z" style="fill:#ffaf96"/><path d="M21,57v2a4,4,0,0,1-4,4H12a2.006,2.006,0,0,1-2-2V55a2.006,2.006,0,0,1,2-2h5A4,4,0,0,1,21,57Z" style="fill:#ebebff"/><path d="M54,57v4a2.006,2.006,0,0,1-2,2H47a4,4,0,0,1-4-4V57a4,4,0,0,1,4-4h5a2.006,2.006,0,0,1,2,2Z" style="fill:#ebebff"/><path d="M27,23c-.55,0-1,.9-1,2s.45,2,1,2,1-.9,1-2S27.55,23,27,23Zm10,0c-.55,0-1,.9-1,2s.45,2,1,2,1-.9,1-2S37.55,23,37,23Zm5,0v6a9.017,9.017,0,0,1-9,9H31a9.017,9.017,0,0,1-9-9V20H42Z" style="fill:#ffc7b5"/><path d="M32,47c-8.977,0-12.978-4.972-13-5a5.122,5.122,0,0,0,.148,1.208,4.408,4.408,0,0,0,.78,1.67C21.27,46.64,24.47,49,32,49s10.73-2.36,12.07-4.12a4.408,4.408,0,0,0,.78-1.67A5.122,5.122,0,0,0,45,42C44.978,42.028,40.977,47,32,47Z" style="fill:#f2c373"/><path d="M32,40c6.845,0,9.636-2.888,10.582-4.273A4.966,4.966,0,0,0,40,35l-.17-.15A8.964,8.964,0,0,1,33,38H31a8.964,8.964,0,0,1-6.83-3.15L24,35a4.949,4.949,0,0,0-2.577.736C22.376,37.124,25.17,40,32,40Z" style="fill:#f2c373"/><path d="M47.8,16A3.256,3.256,0,0,1,45,17.98a1.668,1.668,0,0,1-.32.02H19.32a1.668,1.668,0,0,1-.32-.02,3.25,3.25,0,0,1-2.8-2,2.767,2.767,0,0,0-.151.531A3.064,3.064,0,0,0,19,19.98a1.668,1.668,0,0,0,.32.02H44.68a1.668,1.668,0,0,0,.32-.02,3.126,3.126,0,0,0,3-2.97,2.921,2.921,0,0,0-.05-.5A2.788,2.788,0,0,0,47.8,16Z" style="fill:#ccf"/><path d="M10,14l-.17.17A4.025,4.025,0,0,0,7,13l6.88-8.11A10.729,10.729,0,0,1,22.06,1H32.9C39.03,1,44,6.37,44,13v1H21l-.17-.67a2.99,2.99,0,0,0-4.02-2.05Z" style="fill:#c22026"/><path d="M63.308.605a.5.5,0,0,0-.429-.09l-8,2A.5.5,0,0,0,54.5,3v7.012A2.476,2.476,0,0,0,53,9.5,2.5,2.5,0,1,0,55.5,12V7.391l7-1.75V9.012A2.476,2.476,0,0,0,61,8.5,2.5,2.5,0,1,0,63.5,11V1A.5.5,0,0,0,63.308.605ZM53,13.5A1.5,1.5,0,1,1,54.5,12,1.5,1.5,0,0,1,53,13.5Zm2.5-7.141V3.391l7-1.75V4.609ZM61,12.5A1.5,1.5,0,1,1,62.5,11,1.5,1.5,0,0,1,61,12.5Z" style="fill:#f2c373"/><path d="M5,24.5a.5.5,0,0,0-.5.5v8.012A2.476,2.476,0,0,0,3,32.5,2.5,2.5,0,1,0,5.5,35V25.511c3.3.142,6,1.682,6,3.489a.5.5,0,0,0,1,0C12.5,26.477,9.206,24.5,5,24.5Zm-2,12A1.5,1.5,0,1,1,4.5,35,1.5,1.5,0,0,1,3,36.5Z" style="fill:#f2c373"/><path d="M8.243,18.993a2.472,2.472,0,0,1-1.483-.417c-2.818-1.838-2.9-3.115-2.689-4.284a3.973,3.973,0,0,0-1.012,3.4A4.034,4.034,0,0,0,6.6,20.98a3.994,3.994,0,0,0,4.331-3.272A3.988,3.988,0,0,1,8.243,18.993Z" style="fill:#dbdbee"/><ellipse cx="7.582" cy="15.695" rx="1.642" ry="2.286" transform="translate(-8.879 9.964) rotate(-45.02)" style="fill:#fff"/><rect x="19" y="14" width="20" height="2" rx="1" ry="1" style="fill:#fff"/><rect x="41" y="14" width="4" height="2" rx="1" ry="1" style="fill:#fff"/><path d="M42,11H25a2,2,0,0,1-2-2c0-2-2-3-5-3a6.8,6.8,0,0,0-3.092.882,1.943,1.943,0,0,1-2.118-.2L7,13a4.025,4.025,0,0,1,2.83,1.17L10,14l6.81-2.72a2.99,2.99,0,0,1,4.02,2.05L21,14H44V13a12,12,0,0,0-.358-2.862A2,2,0,0,1,42,11Z" style="fill:#911a1c"/><path d="M27,3a2,2,0,0,0,2,2h3.858c.213,0,.425.009.634.025a7.446,7.446,0,0,1,5,2.635,1.993,1.993,0,0,0,3.5-1.278A11.956,11.956,0,0,0,32,1H29A2,2,0,0,0,27,3Z" style="fill:#eb2335"/><path d="M21,3a2,2,0,0,0,2,2h1a2,2,0,0,0,0-4H23A2,2,0,0,0,21,3Z" style="fill:#eb2335"/><rect x="22" y="20" width="20" height="3" style="fill:#ffb4a3"/><path d="M44,26.5v-.833A1.862,1.862,0,0,0,42,24v4.848A2.569,2.569,0,0,0,44,26.5Z" style="fill:#ff8d73"/><path d="M30,30V29a2.006,2.006,0,0,1,2-2,2.015,2.015,0,0,1,2,2v1Z" style="fill:#ff8d73"/><path d="M20,26.5v-.833A1.862,1.862,0,0,1,22,24v4.848A2.569,2.569,0,0,1,20,26.5Z" style="fill:#ff8d73"/><ellipse cx="37" cy="25" rx="1" ry="2" style="fill:#3e50f7"/><ellipse cx="27" cy="25" rx="1" ry="2" style="fill:#3e50f7"/><rect x="23" y="21" width="6" height="1" rx="0.5" ry="0.5" transform="translate(52 43) rotate(-180)" style="fill:#ad8451"/><rect x="35" y="21" width="6" height="1" rx="0.5" ry="0.5" transform="translate(76 43) rotate(-180)" style="fill:#ad8451"/><path d="M27,26c-.463,0-.852-.641-.964-1.5A3.831,3.831,0,0,0,26,25c0,1.1.45,2,1,2s1-.9,1-2a3.831,3.831,0,0,0-.036-.5C27.852,25.359,27.463,26,27,26Z" style="fill:#161e70"/><path d="M37,26c-.463,0-.852-.641-.964-1.5A3.831,3.831,0,0,0,36,25c0,1.1.45,2,1,2s1-.9,1-2a3.831,3.831,0,0,0-.036-.5C37.852,25.359,37.463,26,37,26Z" style="fill:#161e70"/><path d="M37,22.5c-.855,0-1.5,1.075-1.5,2.5s.645,2.5,1.5,2.5,1.5-1.075,1.5-2.5S37.855,22.5,37,22.5ZM37,27c-.552,0-1-.895-1-2s.448-2,1-2,1,.895,1,2S37.552,27,37,27Z" style="fill:#ebebff"/><path d="M27,22.5c-.855,0-1.5,1.075-1.5,2.5s.645,2.5,1.5,2.5,1.5-1.075,1.5-2.5S27.855,22.5,27,22.5ZM27,27c-.552,0-1-.895-1-2s.448-2,1-2,1,.895,1,2S27.552,27,27,27Z" style="fill:#ebebff"/><path d="M38,25c0-1.105-.448-2-1-2C37.55,23,38,23.9,38,25Z" style="fill:#3e50f7"/><path d="M36,25c0,1.105.448,2,1,2C36.45,27,36,26.1,36,25Z" style="fill:#3e50f7"/><path d="M37,23c-.552,0-1,.895-1,2C36,23.9,36.45,23,37,23Z" style="fill:#3e50f7"/><path d="M37,27c.552,0,1-.895,1-2C38,26.1,37.55,27,37,27Z" style="fill:#3e50f7"/><path d="M40,23v6a9.02,9.02,0,0,1-8,8.944A9.02,9.02,0,0,1,24,29V23H22v6a9.017,9.017,0,0,0,9,9h2a9.017,9.017,0,0,0,9-9V23Z" style="fill:#fdddd7"/><circle cx="26" cy="31" r="3" style="fill:#ffa48f"/><circle cx="38" cy="31" r="3" style="fill:#ffa48f"/><ellipse cx="32" cy="34.5" rx="1" ry="1.5" style="fill:#ff8d73"/><path d="M44.68,20H42v3h1a2,2,0,0,1,2-2V19.98A1.668,1.668,0,0,1,44.68,20Z" style="fill:#d9a64e"/><path d="M19.32,20H22v3H21a2,2,0,0,0-2-2V19.98A1.668,1.668,0,0,0,19.32,20Z" style="fill:#d9a64e"/><path d="M51,61H49a3,3,0,0,1-3-3V55a2,2,0,0,1,2-2H47a4,4,0,0,0-4,4v2a4,4,0,0,0,4,4h5a2.006,2.006,0,0,0,2-2V58A3,3,0,0,1,51,61Z" style="fill:#ccf"/><path d="M17,53H16a2,2,0,0,1,2,2v3a3,3,0,0,1-3,3H13a3,3,0,0,1-3-3v3a2.006,2.006,0,0,0,2,2h5a4,4,0,0,0,4-4V57A4,4,0,0,0,17,53Z" style="fill:#ccf"/><path d="M27,61a4,4,0,0,1-4-4v-.737a3,3,0,0,0-2.176-2.885L17,52.286V53a4,4,0,0,1,4,4v2a4,4,0,0,1-4,4H32V61Z" style="fill:#7887d6"/><path d="M47,53v-.714l-3.824,1.092A3,3,0,0,0,41,56.263V57a4,4,0,0,1-4,4H32v2H47a4,4,0,0,1-4-4V57A4,4,0,0,1,47,53Z" style="fill:#8a99e6"/><rect x="47" y="53" width="6" height="3" rx="1.5" ry="1.5" style="fill:#f2f2ff"/><rect x="11" y="53" width="6" height="3" rx="1.5" ry="1.5" style="fill:#f2f2ff"/><path d="M26.163,39.1a4.956,4.956,0,0,0-2.287,6.287A20.022,20.022,0,0,0,32,47a20.576,20.576,0,0,0,6.869-1.116A4.936,4.936,0,0,0,39.5,43.5a4.987,4.987,0,0,0-2.285-4.19A18.213,18.213,0,0,1,32,40,17.491,17.491,0,0,1,26.163,39.1Z" style="fill:#009e60"/><path d="M38.756,46.062c-.022-.041-.042-.083-.066-.123A20.6,20.6,0,0,1,32,47a20.263,20.263,0,0,1-7.474-1.342,2.022,2.022,0,0,0-.3.429,1.947,1.947,0,0,0-.058,1.718A22.245,22.245,0,0,0,32,49a24.426,24.426,0,0,0,6.582-.789,1.947,1.947,0,0,0,.174-2.149Z" style="fill:#d1a55a"/><path d="M26.386,39.172A17.608,17.608,0,0,0,32,40a19.2,19.2,0,0,0,4.238-.441,1.965,1.965,0,0,0,.568-2.4A8.928,8.928,0,0,1,33,38H31a8.928,8.928,0,0,1-4.553-1.246,1.958,1.958,0,0,0-.147,2.287C26.327,39.086,26.355,39.13,26.386,39.172Z" style="fill:#d1a55a"/><path d="M40.652,37.655a1.5,1.5,0,0,0,.873.768c1.636.545,1.045,3.1,1.018,3.22a1.5,1.5,0,0,0,.948,1.76A9.738,9.738,0,0,0,45,42c0-.01,0-.021,0-.032V40a4.619,4.619,0,0,0-.1-.99,5,5,0,0,0-2.318-3.283A8.064,8.064,0,0,1,40.652,37.655Z" style="fill:#00e088"/><path d="M21.423,35.736A4.981,4.981,0,0,0,19,40v1.97c0,.011,0,.022,0,.032a10.507,10.507,0,0,0,1.56,1.435,1.5,1.5,0,0,0,1.055-1.793c-.026-.11-.62-2.675,1.018-3.221a1.486,1.486,0,0,0,.827-.689A8.129,8.129,0,0,1,21.423,35.736Z" style="fill:#00e088"/><rect x="12" y="51" width="5" height="2" style="fill:#c22026"/><path d="M20.349,48.4C22.322,49.685,25.846,51,32,51s9.678-1.315,11.651-2.6A5.223,5.223,0,0,0,46,44.012V43.5l-1-.248-.15-.04a4.408,4.408,0,0,1-.78,1.67C42.73,46.64,39.53,49,32,49s-10.73-2.36-12.07-4.12a4.408,4.408,0,0,1-.78-1.67l-.15.04L18,43.5v.514A5.223,5.223,0,0,0,20.349,48.4Z" style="fill:#c22026"/><rect x="47" y="51" width="5" height="2" style="fill:#c22026"/><path d="M54,57c2,2,9,2,9,2V56.941a29.355,29.355,0,0,1-9-1.847Z" style="fill:#d1a55a"/><path d="M63,46c-6,0-18-7-18-7l-.1.01A4.619,4.619,0,0,1,45,40v1.97c0,.1-.012.2-.018.3.884.537,2.03,1.2,3.372,1.9.164.069.314.158.469.241A41.858,41.858,0,0,0,63,49Z" style="fill:#d1a55a"/><path d="M45,41.97a5.133,5.133,0,0,1-.15,1.24l.15.04,2.46.61a5.962,5.962,0,0,1,.894.307c-1.342-.7-2.488-1.361-3.372-1.9C44.988,42.169,45,42.07,45,41.97Z" style="fill:#00613b"/><path d="M56,53.118A1.808,1.808,0,0,0,55,51.5a1.808,1.808,0,0,1-1-1.618V47.388a5.07,5.07,0,0,0-.062-.69,54.584,54.584,0,0,1-5.115-2.29A5.987,5.987,0,0,1,52,49.68V53a2.006,2.006,0,0,1,2,2v.094c.6.231,1.269.459,2,.674Z" style="fill:#00613b"/><path d="M54,55.094V57a5.123,5.123,0,0,0,2,1.072v-2.3C55.269,55.553,54.6,55.325,54,55.094Z" style="fill:#b08740"/><path d="M49.671,42.279a2,2,0,0,1-1.639-1.622C46.2,39.7,45,39,45,39l-.1.01A4.619,4.619,0,0,1,45,40v1.97c0,.1-.012.2-.018.3.884.537,2.03,1.2,3.372,1.9.164.069.314.158.469.241a54.584,54.584,0,0,0,5.115,2.29A5.169,5.169,0,0,0,49.671,42.279Z" style="fill:#b08740"/></g></svg>