<?xml version="1.0" encoding="utf-8"?>
<!-- Generator: Adobe Illustrator 16.0.0, SVG Export Plug-In . SVG Version: 6.00 Build 0)  -->
<!DOCTYPE svg PUBLIC "-//W3C//DTD SVG 1.1//EN" "http://www.w3.org/Graphics/SVG/1.1/DTD/svg11.dtd">
<svg version="1.1" id="Layer_1" xmlns="http://www.w3.org/2000/svg" xmlns:xlink="http://www.w3.org/1999/xlink" x="0px" y="0px"
	 width="64px" height="64px" viewBox="0 0 64 64" enable-background="new 0 0 64 64" xml:space="preserve">
<ellipse fill="#EBC257" cx="39.584" cy="60.85" rx="14.254" ry="2.008"/>
<ellipse fill="#9E5025" cx="25.396" cy="54.76" rx="17.332" ry="2.609"/>
<path fill="#DBAC6B" d="M32.959,15.076H17.701c-0.887,0-1.606,0.719-1.606,1.605v37.074c0,0.887,0.719,1.606,1.606,1.606h15.258
	c0.887,0,1.605-0.72,1.605-1.606V35.904c-0.08-0.271-0.167-0.524-0.268-0.752c0-0.268-0.401,0.401-0.401,0.401
	c-0.267,1.472-0.267,4.417-2.008,3.613c-2.14-0.802-1.337-3.746-2.542-5.621c1.205,1.875,0.402,4.819,2.542,5.621
	c1.742,0.804,1.742-2.142,2.008-3.613c0,0,0.401-0.669,0.401-0.401c0.101,0.228,0.188,0.481,0.268,0.752V16.682
	C34.564,15.795,33.846,15.076,32.959,15.076z"/>
<path fill="#741112" d="M45.674,34.349c-0.268-0.267-0.535,0.269-0.938,0.269c0,0.804,0.133,1.605,0.402,2.275
	c0.4,1.07,0.535,2.943-0.535,3.213c-1.205,0.267-1.74-1.875-2.41-3.08c-0.133-0.267-0.535,0-0.535,0
	c-0.268,2.276,1.07,4.418,1.607,6.561c0.4,1.336,0.533,2.81,0,4.147c-0.537,1.071-2.143,1.071-2.543,0.135
	c-1.875-3.748,0.4-7.496-0.537-11.378c-0.133-0.937-0.936-2.81-1.473-1.74c-0.803,1.607,1.473,4.685-0.668,5.622
	c-2.945,1.339-2.811-3.078-3.748-5.22c0-0.268-0.401,0.401-0.401,0.401c-0.267,1.472-0.267,4.417-2.008,3.613
	c-0.591-0.222-0.957-0.606-1.204-1.088v21.165c0,0.887,0.88,1.605,1.966,1.605H46.25c1.086,0,1.967-0.719,1.967-1.605V38.407
	c-0.045-0.013-0.09-0.026-0.135-0.042C46.611,37.695,46.879,35.421,45.674,34.349z"/>
<path fill="#741112" d="M46.25,28.728H32.649c-1.086,0-1.966,0.719-1.966,1.607v7.744c0.247,0.481,0.613,0.866,1.204,1.088
	c1.742,0.804,1.742-2.142,2.008-3.613c0,0,0.401-0.669,0.401-0.401c0.938,2.142,0.803,6.559,3.748,5.22
	c2.141-0.938-0.135-4.015,0.668-5.622c0.537-1.069,1.34,0.804,1.473,1.74c0.938,3.882-1.338,7.63,0.537,11.378
	c0.4,0.937,2.006,0.937,2.543-0.135c0.533-1.338,0.4-2.812,0-4.147c-0.537-2.143-1.875-4.284-1.607-6.561c0,0,0.402-0.267,0.535,0
	c0.67,1.205,1.205,3.347,2.41,3.08c1.07-0.27,0.936-2.143,0.535-3.213c-0.27-0.67-0.402-1.472-0.402-2.275
	c0.402,0,0.67-0.535,0.938-0.269c1.205,1.072,0.938,3.347,2.408,4.017c0.045,0.016,0.09,0.029,0.135,0.042v-8.072
	C48.217,29.446,47.336,28.728,46.25,28.728z"/>
<path fill="#DCAB69" d="M21.716,59.51c0,0.739-2.127,1.34-4.751,1.34s-4.751-0.601-4.751-1.34c0-0.736,2.127-1.337,4.751-1.337
	S21.716,58.773,21.716,59.51z"/>
<path opacity="0.2" fill="#F1F2F2" d="M25.631,51.646c0,1.202-1.052,2.178-2.349,2.178H20.15c-1.297,0-2.349-0.976-2.349-2.178
	V18.793c0-1.203,1.052-2.178,2.349-2.178h3.132c1.297,0,2.349,0.976,2.349,2.178V51.646z"/>
<ellipse fill="#9E5025" cx="20.244" cy="28.728" rx="1.472" ry="2.944"/>
<polygon fill="#BB2025" points="30.684,49.364 30.684,54.516 48.217,42.629 48.217,37.477 "/>
<polygon fill="#BB2025" points="40.684,60.85 48.217,55.743 48.217,50.59 33.084,60.85 "/>
<polygon fill="#BB2025" points="42.82,30.449 30.818,38.587 30.818,43.74 48.35,31.852 48.35,30.449 "/>
<path opacity="0.2" fill="#F1F2F2" d="M38.18,57.504c0,0.888-0.721,1.605-1.607,1.605h-2.141c-0.887,0-1.606-0.718-1.606-1.605
	V33.279c0-0.889,0.72-1.607,1.606-1.607h2.141c0.887,0,1.607,0.719,1.607,1.607V57.504z"/>
<path fill="#EBC257" d="M49.02,29.828c0-1.221-4.283-2.21-9.57-2.21c-5.283,0-9.569,0.989-9.569,2.21c0,0.05,0.01,0.1,0.024,0.15
	c-0.014,0.073-0.024,0.148-0.024,0.228v7.744c0.27,0.482,0.669,0.866,1.314,1.089c1.901,0.804,1.901-2.143,2.193-3.613
	c0,0,0.437-0.67,0.437-0.402c1.024,2.143,0.877,6.56,4.092,5.221c2.338-0.937-0.145-4.015,0.73-5.622
	c0.584-1.071,1.461,0.804,1.607,1.74c1.021,3.882-1.461,7.63,0.584,11.376c0.438,0.937,2.191,0.937,2.777-0.133
	c0.584-1.339,0.438-2.812,0-4.149c-0.586-2.143-2.047-4.284-1.754-6.56c0,0,0.438-0.267,0.584,0c0.73,1.206,1.314,3.348,2.629,3.079
	c1.17-0.268,1.023-2.143,0.586-3.212c-0.293-0.669-0.439-1.473-0.439-2.274c0.439,0,0.73-0.536,1.023-0.27
	c1.314,1.071,1.023,3.348,2.629,4.016c0.049,0.017,0.098,0.031,0.146,0.044v-8.073c0-0.079-0.01-0.154-0.023-0.228
	C49.01,29.928,49.02,29.878,49.02,29.828z"/>
<path fill="#9E5025" d="M35.168,13.582c0-0.725-4.405-1.313-9.838-1.313c-5.434,0-9.837,0.588-9.837,1.313
	c0,0.008,0.003,0.017,0.005,0.026c-0.002,0.011-0.005,0.021-0.005,0.033v12.006c1.143-0.95,2.032-2.761,3.113-4.225
	c0.747-0.908,2.117-1.997,2.864-0.363c0.996,1.817,1.245,6.537,3.486,4.903c1.37-1.089,1.37-3.813,2.491-5.448
	c0.249-0.362,0.623-0.181,0.872,0c1.37,1.453,0.996,5.448,3.237,3.997c1.495-0.909,0.249-4.178,1.618-5.268
	c0.617-0.5,1.309-0.01,1.994,0.653v-6.256c0-0.011-0.004-0.022-0.006-0.033C35.162,13.599,35.168,13.59,35.168,13.582z"/>
<ellipse fill="#DBAC6B" cx="25.631" cy="13.593" rx="8.785" ry="0.816"/>
<path fill="#BB2025" d="M24.544,12.053c-2.077-2.182-2.643-4.156,0-7.481c2.643-3.325,1.51-3.429,1.51-3.429
	s3.209,3.741,2.266,5.455c-0.944,1.715-4.342,5.352-2.266,7.014S24.544,12.053,24.544,12.053z"/>
<path fill="#741112" d="M24.775,11.859c-0.899-1.243-1.145-2.367,0-4.261c1.144-1.893,0.654-1.953,0.654-1.953
	s1.389,2.13,0.98,3.106s-1.88,3.048-0.98,3.995C26.328,13.693,24.775,11.859,24.775,11.859z"/>
<path fill="#9E5025" d="M41.025,27.496c1.992-1.847,2.535-3.518,0-6.332c-2.533-2.813-1.447-2.901-1.447-2.901
	s-3.076,3.166-2.172,4.617s4.162,4.528,2.172,5.936C37.586,30.222,41.025,27.496,41.025,27.496z"/>
<path fill="#EBC257" d="M40.637,27.505c0.916-1.262,1.164-2.405,0-4.329c-1.16-1.925-0.664-1.984-0.664-1.984
	s-1.41,2.164-0.996,3.157c0.416,0.992,1.91,3.097,0.996,4.059C39.061,29.37,40.637,27.505,40.637,27.505z"/>
</svg>
