<?xml version="1.0" encoding="utf-8"?>
<!-- Generator: Adobe Illustrator 16.0.0, SVG Export Plug-In . SVG Version: 6.00 Build 0)  -->
<!DOCTYPE svg PUBLIC "-//W3C//DTD SVG 1.1//EN" "http://www.w3.org/Graphics/SVG/1.1/DTD/svg11.dtd">
<svg version="1.1" id="Layer_1" xmlns="http://www.w3.org/2000/svg" xmlns:xlink="http://www.w3.org/1999/xlink" x="0px" y="0px"
	 width="64px" height="64px" viewBox="0 0 64 64" enable-background="new 0 0 64 64" xml:space="preserve">
<ellipse transform="matrix(0.9796 0.2008 -0.2008 0.9796 4.7922 -2.6041)" fill="#741112" cx="15.231" cy="22.317" rx="7.701" ry="3.257"/>
<ellipse transform="matrix(0.9796 0.2009 -0.2009 0.9796 5.0423 -2.8712)" fill="#DCAB69" cx="16.668" cy="23.409" rx="6.073" ry="1.947"/>
<ellipse transform="matrix(-0.9796 0.2009 -0.2009 -0.9796 102.4088 34.243)" fill="#741112" cx="49.467" cy="22.317" rx="7.7" ry="3.257"/>
<ellipse transform="matrix(-0.9796 0.2009 -0.2009 -0.9796 99.7827 36.6931)" fill="#DCAB69" cx="48.03" cy="23.409" rx="6.073" ry="1.947"/>
<path fill="#9E5025" d="M49.584,26.392c0.499-1.25-1.297-3.109-3.019-4.062c-2.642-1.629-7.946-2.742-14.06-2.742
	s-11.417,1.112-14.063,2.742c-1.72,0.953-3.515,2.812-3.016,4.062l-2.498,26.752c0,3.98,3.011,5.666,4.383,5.947
	c3.063,1.059,8.757,1.768,15.276,1.768c8.874,0,16.219-1.316,17.48-3.033c1.071-0.947,2.014-2.453,2.014-4.682L49.584,26.392z"/>
<path fill="#DCAB69" d="M38.532,48.073c0,1.883-2.689,5.752-6.007,5.752s-6.008-3.869-6.008-5.752c0-1.885,2.69-3.41,6.008-3.41
	S38.532,46.188,38.532,48.073z"/>
<ellipse opacity="0.2" fill="#F1F2F2" cx="30.635" cy="46.907" rx="1.89" ry="1.168"/>
<path fill="#741112" d="M13.678,45.126c5.587-1.727,12.428-2.742,19.816-2.742c6.516,0,12.605,0.789,17.785,2.162l-1.695-18.154
	c0.499-1.25-1.297-3.109-3.019-4.062c-2.642-1.629-7.946-2.742-14.06-2.742s-11.417,1.112-14.063,2.742
	c-1.72,0.953-3.515,2.812-3.016,4.062L13.678,45.126z"/>
<ellipse fill="#EBC257" cx="20.637" cy="39.296" rx="3.968" ry="1.943"/>
<circle fill="#414042" cx="26.883" cy="34.075" r="1.716"/>
<circle fill="#414042" cx="37.768" cy="34.075" r="1.717"/>
<ellipse fill="#EBC257" cx="43.452" cy="39.296" rx="3.967" ry="1.943"/>
<path opacity="0.15" fill="#F1F2F2" d="M40.885,55.7c-6.519,0-12.214-0.803-15.277-2c-1.372-0.318-4.382-2.225-4.382-6.73
	l2.184-26.465c-2.087,0.47-3.809,1.095-4.994,1.826c-1.72,0.953-3.515,2.812-3.017,4.062l-2.498,26.752
	c0,3.98,3.01,5.666,4.382,5.947c3.063,1.059,8.757,1.768,15.275,1.768c8.875,0,16.22-1.316,17.48-3.033
	c0.773-0.684,1.48-1.662,1.812-2.994C48.838,55.376,45.027,55.7,40.885,55.7z"/>
<ellipse transform="matrix(0.9173 -0.3982 0.3982 0.9173 -5.6233 13.8472)" fill="#741112" cx="30.521" cy="20.46" rx="1.512" ry="3.054"/>
<ellipse transform="matrix(0.9921 0.1258 -0.1258 0.9921 2.9172 -3.9037)" fill="#741112" cx="32.365" cy="21.144" rx="1.512" ry="3.055"/>
<path fill="#DCAB69" d="M40.459,11.46c0.162-0.579,2.671-1.066,6.129-1.251c-0.112-0.689-0.179-1.506-0.179-2.385
	c0-2.44,0.508-4.418,1.132-4.418c0.625,0,1.133,1.978,1.133,4.418c0,0.849-0.062,1.643-0.168,2.316
	c0.383-0.007,0.774-0.011,1.173-0.011c1.096,0,2.146,0.028,3.122,0.082c-0.083-0.689-0.13-1.507-0.13-2.386
	c0-2.44,0.366-4.418,0.818-4.418c0.451,0,0.817,1.978,0.817,4.418c0,0.919-0.052,1.773-0.141,2.48
	c3.597,0.055,3.068-1.453,3.068-2.745c0-2.439,0.58-4.417,1.294-4.417c0.716,0,1.294,1.978,1.294,4.417c0,2.44,0,3.769-1.393,4.404
	c-1.226,0.551-4.681,0.859-8.751,0.949c-3.966,0.088-6.135,0.968-6.781,5.5c-0.564,3.971-0.847,7.262-1.893,7.262
	c-1.044,0-1.892-3.251-1.892-7.262C39.113,15.132,39.681,12.36,40.459,11.46z"/>
<path opacity="0.3" fill="#F1F2F2" d="M57.646,9.979c-1.145,1.528-2.291,1.273-3.819,1.146c0.129,0.764-0.509,1.528-1.146,1.019
	c-0.509-0.255-1.146-0.51-1.527-1.146c-0.127-0.126-0.508-0.126-0.637,0c-0.509,0.383-1.019,1.146-1.781,0.891
	c-0.382-0.127-0.636-0.382-0.764-0.891c-0.892,1.273-2.291,1.019-3.692,1.019c-0.636,0-0.636,1.527-1.4,2.037
	c-0.635,0.382-0.89-0.381-1.272-0.764c0,1.018-0.382,2.927-1.654,1.909c-0.212-0.127-0.409-0.283-0.579-0.466
	c0.239-1.557,0.625-2.74,1.085-3.272c0.162-0.579,2.671-1.066,6.129-1.251c-0.112-0.689-0.179-1.506-0.179-2.385
	c0-2.44,0.508-4.418,1.132-4.418c0.625,0,1.133,1.978,1.133,4.418c0,0.849-0.062,1.643-0.168,2.316
	c0.383-0.007,0.774-0.011,1.173-0.011c1.096,0,2.146,0.028,3.122,0.082c-0.083-0.689-0.13-1.507-0.13-2.386
	c0-2.44,0.366-4.418,0.818-4.418c0.451,0,0.817,1.978,0.817,4.418c0,0.919-0.052,1.773-0.141,2.48
	c3.597,0.055,3.068-1.453,3.068-2.745c0-2.439,0.58-4.417,1.294-4.417c0.716,0,1.294,1.978,1.294,4.417
	c0,1.276-0.001,2.249-0.199,2.975C58.828,10.062,57.952,9.572,57.646,9.979z"/>
<path fill="#DCAB69" d="M24.24,12.467c-0.162-0.579-2.67-1.067-6.129-1.251c0.113-0.688,0.179-1.506,0.179-2.386
	c0-2.438-0.507-4.417-1.133-4.417c-0.625,0-1.132,1.978-1.132,4.417c0,0.85,0.061,1.643,0.168,2.316
	c-0.385-0.008-0.776-0.012-1.173-0.012c-1.096,0-2.146,0.029-3.121,0.082c0.081-0.689,0.129-1.507,0.129-2.387
	c0-2.438-0.366-4.417-0.818-4.417s-0.818,1.978-0.818,4.417c0,0.919,0.052,1.773,0.141,2.48c-3.597,0.056-3.068-1.453-3.068-2.744
	c0-2.44-0.579-4.417-1.294-4.417c-0.715,0-1.294,1.978-1.294,4.417c0,2.439,0,3.768,1.393,4.402
	c1.226,0.552,4.681,0.859,8.751,0.949c3.968,0.088,6.135,0.968,6.781,5.501c0.566,3.97,0.848,7.261,1.892,7.261
	c1.045,0,1.893-3.25,1.893-7.261C25.586,16.139,25.018,13.368,24.24,12.467z"/>
<path opacity="0.3" fill="#F1F2F2" d="M7.052,10.987c1.146,1.528,2.292,1.273,3.819,1.146c-0.127,0.764,0.509,1.527,1.146,1.019
	c0.51-0.255,1.146-0.509,1.527-1.146c0.127-0.127,0.509-0.127,0.637,0c0.509,0.382,1.018,1.146,1.782,0.891
	c0.382-0.127,0.637-0.381,0.764-0.891c0.891,1.272,2.291,1.019,3.691,1.019c0.637,0,0.637,1.527,1.4,2.037
	c0.636,0.382,0.891-0.382,1.273-0.764c0,1.017,0.382,2.928,1.655,1.909c0.212-0.127,0.41-0.283,0.578-0.466
	c-0.239-1.556-0.624-2.74-1.084-3.272c-0.162-0.579-2.67-1.067-6.129-1.251c0.113-0.688,0.179-1.506,0.179-2.386
	c0-2.438-0.507-4.417-1.133-4.417c-0.625,0-1.132,1.978-1.132,4.417c0,0.85,0.061,1.643,0.168,2.316
	c-0.385-0.008-0.775-0.012-1.173-0.012c-1.096,0-2.146,0.029-3.121,0.082c0.081-0.689,0.129-1.507,0.129-2.387
	c0-2.438-0.366-4.417-0.818-4.417s-0.818,1.978-0.818,4.417c0,0.919,0.052,1.773,0.141,2.48c-3.597,0.056-3.068-1.453-3.068-2.744
	c0-2.44-0.579-4.417-1.294-4.417c-0.715,0-1.294,1.978-1.294,4.417c0,1.275,0,2.247,0.2,2.974
	C5.871,11.069,6.747,10.58,7.052,10.987z"/>
</svg>
